<svg width="42" height="42" viewBox="0 0 42 42" fill="none" xmlns="http://www.w3.org/2000/svg">
<path d="M28.8681 0C36.9393 0 42 5.02375 42 13.1319V18.0079L41.9853 18.226C41.8789 19.0103 41.2066 19.6148 40.3931 19.6148H40.3747L40.1209 19.5945C39.7875 19.5406 39.4774 19.3813 39.2382 19.1366C38.9393 18.8306 38.7763 18.4171 38.7863 17.9894V13.1319C38.7863 6.74143 35.2586 3.21372 28.8681 3.21372H13.1319C6.72296 3.21372 3.21372 6.74143 3.21372 13.1319V28.8865C3.21372 35.277 6.74143 38.7863 13.1319 38.7863H28.8681C35.277 38.7863 38.7863 35.2586 38.7863 28.8865C38.7863 27.9991 39.5057 27.2797 40.3931 27.2797C41.2806 27.2797 42 27.9991 42 28.8865C42 36.9763 36.9763 42 28.8865 42H13.1319C5.02375 42 0 36.9763 0 28.8865V13.1319C0 5.02375 5.02375 0 13.1319 0H28.8681ZM12.0792 15.8654C12.5054 15.8799 12.9084 16.0632 13.1994 16.375C13.4904 16.6868 13.6456 17.1015 13.6306 17.5277V30.9551C13.6 31.8426 12.8558 32.5372 11.9683 32.5066C11.0809 32.476 10.3863 31.7318 10.4169 30.8443V17.3984L10.4455 17.1471C10.5099 16.8178 10.6776 16.5149 10.9275 16.2844C11.2399 15.9963 11.6547 15.8454 12.0792 15.8654ZM21.0739 9.56728C21.9613 9.56728 22.6807 10.2867 22.6807 11.1741V30.8628C22.6807 31.7502 21.9613 32.4697 21.0739 32.4697C20.1864 32.4697 19.467 31.7502 19.467 30.8628V11.1741C19.467 10.2867 20.1864 9.56728 21.0739 9.56728ZM29.9763 22.9578C30.8637 22.9578 31.5831 23.6772 31.5831 24.5646V30.8443C31.5831 31.7318 30.8637 32.4512 29.9763 32.4512C29.0888 32.4512 28.3694 31.7318 28.3694 30.8443V24.5646C28.3694 23.6772 29.0888 22.9578 29.9763 22.9578Z" fill="white"/>
</svg>
