<?xml version="1.0" encoding="UTF-8"?>
<svg width="88px" height="88px" viewBox="0 0 88 88" version="1.1" xmlns="http://www.w3.org/2000/svg" xmlns:xlink="http://www.w3.org/1999/xlink">
    <title>simple.logo</title>
    <g id="analysis" stroke="none" stroke-width="1" fill="none" fill-rule="evenodd">
        <g id="Desktop-HD" transform="translate(-107.000000, -4479.000000)">
            <g id="simple.logo" transform="translate(107.000000, 4479.000000)">
                <rect id="Rectangle" x="0" y="0" width="88" height="88"></rect>
                <path d="M31.7929688,65.4980469 C24.4394531,61.3964844 19.2539062,53.2519531 19.2539062,43.8476562 C19.2539062,30.0195312 30.2695312,18.9453125 44.0976562,18.9453125 C57.9257812,18.9453125 69.0292969,30.0195312 69.0292969,43.8476562 C69.0292969,45.6054688 70.3769531,46.4550781 71.6660156,46.4550781 C72.8671875,46.4550781 74.0097656,45.5761719 74.0097656,43.8476562 C74.0097656,27.5 60.4453125,13.9648438 44.0976562,13.9648438 C27.7792969,13.9648438 14.2441406,27.5 14.2441406,43.8476562 C14.2441406,55.0683594 20.71875,64.9707031 29.5664062,69.8339844 C32.6425781,71.5625 35.1914062,67.4609375 31.7929688,65.4980469 Z M55.875,74.3457031 L58.8046875,73.1738281 C59.3027344,72.9394531 59.5371094,72.3242188 59.2441406,71.7675781 L54,59.5800781 L60.328125,59.3457031 C61.4121094,59.2871094 61.96875,58.203125 61.1777344,57.3828125 L45.1523438,40.9179688 C44.4199219,40.15625 43.2773438,40.5957031 43.2480469,41.6796875 L42.984375,65.0585938 C42.9550781,66.2011719 44.3027344,66.5820312 45.0351562,65.8496094 L49.5175781,61.3671875 L54.5273438,73.7304688 C54.7617188,74.2871094 55.3476562,74.5507812 55.875,74.3457031 Z" id="􀭆" fill="#FFFFFF" fill-rule="nonzero"></path>
            </g>
        </g>
    </g>
</svg>