<svg width="71" height="65" viewBox="0 0 71 65" fill="none" xmlns="http://www.w3.org/2000/svg">
<rect width="71" height="65" rx="21" fill="white"/>
<path d="M45.0734 11C52.7552 11.023 58.9767 17.1598 59 24.737V28.1713L58.9845 28.3986C58.872 29.2163 58.1615 29.8465 57.3016 29.8465L57.2804 29.8047L57.0131 29.7838C56.6617 29.7285 56.3343 29.5653 56.0795 29.314C55.761 28.9998 55.582 28.5737 55.582 28.1294V24.737C55.5245 19.0359 50.8532 14.4282 45.0734 14.3714H24.9266C19.1468 14.4282 14.4755 19.0359 14.418 24.737V39.563C14.4755 45.2641 19.1468 49.8718 24.9266 49.9286H45.0734C50.8532 49.8718 55.5245 45.2641 55.582 39.563C55.6792 38.7043 56.4151 38.055 57.291 38.055C58.1669 38.055 58.9028 38.7043 59 39.563C58.9767 47.1402 52.7552 53.277 45.0734 53.3H24.9266C17.24 53.2885 11.0117 47.1449 11 39.563V24.737C11 17.1503 17.2351 11 24.9266 11H45.0734Z" fill="black"/>
<path d="M49.9917 33.1157C49.942 33.5582 49.8923 34.0008 49.8344 34.4433C49.5693 36.3939 48.8984 38.2051 47.8383 39.8688C46.6622 41.7292 45.1548 43.2864 43.2747 44.4666C42.2891 45.0812 41.2455 45.573 40.1439 45.9336C39.5311 46.1385 39.1087 45.827 39.1087 45.1878C39.1004 43.9338 39.1087 42.6881 39.1087 41.4342C39.1087 40.672 39.0258 39.918 38.6034 39.2542C38.4792 39.0575 38.3218 38.8854 38.181 38.6969C38.7442 38.5903 39.3157 38.5166 39.8623 38.3772C41.3449 38.0084 42.6618 37.361 43.5646 36.0825C44.2272 35.14 44.5336 34.0663 44.6661 32.9436C44.7738 32.0666 44.7987 31.1897 44.6164 30.321C44.4259 29.444 44.045 28.6654 43.4569 27.9852C43.3078 27.8213 43.283 27.682 43.3575 27.4689C43.7468 26.3051 43.5811 25.1659 43.1505 24.0513C43.1256 23.9858 43.0179 23.9284 42.9351 23.9202C42.4216 23.8464 41.9329 23.9858 41.4857 24.1988C40.7568 24.5431 40.0446 24.9365 39.324 25.2889C39.1998 25.3462 39.0341 25.3872 38.9099 25.3626C36.6405 24.7971 34.3794 24.7971 32.11 25.3626C31.9775 25.3954 31.787 25.3544 31.6711 25.2807C30.7517 24.6988 29.7744 24.2398 28.7225 23.9612C28.706 23.953 28.6894 23.953 28.6646 23.9448C28.002 23.8137 27.8777 23.8874 27.6872 24.5185C27.3808 25.5429 27.3228 26.5674 27.6872 27.6C27.7121 27.682 27.6789 27.8213 27.621 27.8869C26.4283 29.2309 26.1467 30.8209 26.2958 32.542C26.3869 33.5828 26.6271 34.5827 27.0992 35.5252C27.7535 36.8283 28.855 37.615 30.1885 38.0822C31.025 38.3772 31.9112 38.5248 32.7975 38.746C32.8057 38.7051 32.8057 38.7378 32.7975 38.7542C32.3419 39.2214 32.0935 39.7787 31.9858 40.4179C31.9692 40.4999 31.9195 40.6146 31.8533 40.6392C30.8428 41.0162 29.8324 41.2129 28.8385 40.6064C28.383 40.336 28.0517 39.9344 27.7866 39.4918C27.3725 38.787 26.7762 38.2789 25.9893 38.0412C25.7077 37.9593 25.3764 37.9756 25.0783 38.0002C24.8712 38.0084 24.805 38.1641 24.9458 38.3363C25.07 38.492 25.2025 38.6723 25.3764 38.7706C26.1384 39.205 26.5691 39.9016 26.917 40.6556C27.124 41.1064 27.3062 41.5653 27.6872 41.9095C28.3001 42.4586 29.0455 42.6717 29.8407 42.7045C30.5115 42.7373 31.1907 42.7127 31.903 42.7127C31.903 42.7045 31.9195 42.7701 31.9195 42.8438C31.9278 43.5978 31.9361 44.36 31.9444 45.114C31.9527 45.8516 31.4971 46.163 30.7931 45.9172C27.1157 44.6551 24.4157 42.2619 22.6101 38.8772C21.2104 36.3201 20.788 33.5828 21.0944 30.7225C21.4092 27.7312 22.6101 25.1168 24.6062 22.8712C26.6933 20.519 29.2857 18.9619 32.3916 18.339C36.8973 17.4293 41.0219 18.339 44.6247 21.2075C47.3579 23.3793 49.0475 26.2068 49.735 29.6161C49.8344 30.1161 49.8758 30.6324 49.942 31.1405C49.9586 31.2389 49.9752 31.3372 50 31.4356C49.9917 32.0011 49.9917 32.5584 49.9917 33.1157Z" fill="black"/>
</svg>
