<svg width="71" height="65" viewBox="0 0 71 65" fill="none" xmlns="http://www.w3.org/2000/svg">
<rect width="71" height="65" rx="21" fill="white"/>
<path d="M46.0734 11C53.7552 11.023 59.9767 17.1598 60 24.737V28.1713L59.9845 28.3986C59.872 29.2163 59.1615 29.8465 58.3016 29.8465L58.2804 29.8047L58.0131 29.7838C57.6617 29.7285 57.3343 29.5653 57.0795 29.314C56.761 28.9998 56.582 28.5737 56.582 28.1294V24.737C56.5245 19.0359 51.8532 14.4282 46.0734 14.3714H25.9266C20.1468 14.4282 15.4755 19.0359 15.418 24.737V39.563C15.4755 45.2641 20.1468 49.8718 25.9266 49.9286H46.0734C51.8532 49.8718 56.5245 45.2641 56.582 39.563C56.6792 38.7043 57.4151 38.055 58.291 38.055C59.1669 38.055 59.9028 38.7043 60 39.563C59.9767 47.1402 53.7552 53.277 46.0734 53.3H25.9266C18.24 53.2885 12.0117 47.1449 12 39.563V24.737C12 17.1503 18.2351 11 25.9266 11H46.0734Z" fill="black"/>
<path d="M24.1924 23.128C24.1924 22.3173 24.459 21.6347 24.9924 21.08C25.547 20.5253 26.2724 20.248 27.1684 20.248C28.0644 20.248 28.779 20.5253 29.3124 21.08C29.867 21.6347 30.1444 22.3173 30.1444 23.128C30.1444 23.9387 29.867 24.6213 29.3124 25.176C28.779 25.7307 28.0644 26.008 27.1684 26.008C26.2724 26.008 25.547 25.7307 24.9924 25.176C24.459 24.6213 24.1924 23.9387 24.1924 23.128ZM29.8884 42.968C29.6537 43.0107 29.3017 43.064 28.8324 43.128C28.3844 43.2133 27.9257 43.256 27.4564 43.256C26.987 43.256 26.5604 43.224 26.1764 43.16C25.8137 43.096 25.5044 42.968 25.2484 42.776C24.9924 42.584 24.7897 42.328 24.6404 42.008C24.5124 41.6667 24.4484 41.2293 24.4484 40.696V27.672C24.683 27.6293 25.0244 27.576 25.4724 27.512C25.9417 27.4267 26.411 27.384 26.8804 27.384C27.3497 27.384 27.7657 27.416 28.1284 27.48C28.5124 27.544 28.8324 27.672 29.0884 27.864C29.3444 28.056 29.5364 28.3227 29.6644 28.664C29.8137 28.984 29.8884 29.4107 29.8884 29.944V42.968Z" fill="black"/>
<path d="M43.2076 33.144C43.2076 32.4827 43.0156 32.0027 42.6316 31.704C42.269 31.384 41.7676 31.224 41.1276 31.224C40.701 31.224 40.2743 31.2773 39.8476 31.384C39.4423 31.4907 39.0903 31.6507 38.7916 31.864V42.968C38.5783 43.032 38.237 43.096 37.7676 43.16C37.3196 43.224 36.8503 43.256 36.3596 43.256C35.8903 43.256 35.4636 43.224 35.0796 43.16C34.717 43.096 34.4076 42.968 34.1516 42.776C33.8956 42.584 33.693 42.328 33.5436 42.008C33.4156 41.6667 33.3516 41.2293 33.3516 40.696V31.096C33.3516 30.52 33.469 30.0507 33.7036 29.688C33.9596 29.3253 34.301 28.9947 34.7276 28.696C35.453 28.184 36.3596 27.768 37.4476 27.448C38.557 27.128 39.7836 26.968 41.1276 26.968C43.5383 26.968 45.3943 27.5013 46.6956 28.568C47.997 29.6133 48.6476 31.0747 48.6476 32.952V42.968C48.4343 43.032 48.093 43.096 47.6236 43.16C47.1756 43.224 46.7063 43.256 46.2156 43.256C45.7463 43.256 45.3196 43.224 44.9356 43.16C44.573 43.096 44.2636 42.968 44.0076 42.776C43.7516 42.584 43.549 42.328 43.3996 42.008C43.2716 41.6667 43.2076 41.2293 43.2076 40.696V33.144Z" fill="black"/>
</svg>
