<?xml version="1.0" encoding="UTF-8"?>
<svg width="88px" height="88px" viewBox="0 0 88 88" version="1.1" xmlns="http://www.w3.org/2000/svg" xmlns:xlink="http://www.w3.org/1999/xlink">
    <title>reduce.logo</title>
    <g id="analysis" stroke="none" stroke-width="1" fill="none" fill-rule="evenodd">
        <g id="Desktop-HD" transform="translate(-101.000000, -4701.000000)">
            <g id="reduce.logo" transform="translate(101.000000, 4701.000000)">
                <rect id="Rectangle-Copy-9" x="0" y="0" width="88" height="88"></rect>
                <path d="M43.5761719,18.2128906 C45.5976562,18.2128906 47.2089844,16.5722656 47.2089844,14.5507812 C47.2089844,12.5292969 45.5683594,10.9179688 43.5761719,10.9179688 C41.5253906,10.9179688 39.9433594,12.5585938 39.9433594,14.5507812 C39.9433594,16.6015625 41.5546875,18.2128906 43.5761719,18.2128906 Z M66.0175781,27.5292969 C68.0390625,27.5292969 69.6503906,25.8886719 69.6503906,23.8964844 C69.6503906,21.8457031 68.0097656,20.2636719 66.0175781,20.2636719 C63.9667969,20.2636719 62.3554688,21.875 62.3554688,23.8964844 C62.3554688,25.9179688 63.9960938,27.5292969 66.0175781,27.5292969 Z M21.1054688,27.5878906 C23.1269531,27.5878906 24.7382812,25.9472656 24.7382812,23.9550781 C24.7382812,21.9042969 23.0976562,20.3222656 21.1054688,20.3222656 C19.0839844,20.3222656 17.4726562,21.9335938 17.4726562,23.9550781 C17.4726562,25.9765625 19.1132812,27.5878906 21.1054688,27.5878906 Z M43.5761719,67.5488281 C55.3242188,67.5488281 64.875,58.0566406 64.875,46.2207031 C64.875,34.4433594 55.3242188,24.9511719 43.5761719,24.9511719 C31.828125,24.9511719 22.2480469,34.4433594 22.2480469,46.2207031 C22.2480469,58.0566406 31.828125,67.5488281 43.5761719,67.5488281 Z M43.5761719,62.7734375 C39.6796875,62.7734375 36.1054688,61.4257812 33.2929688,59.1992188 L45.1582031,47.3046875 C46.0371094,46.4257812 46.0371094,45.1367188 45.1582031,44.1992188 C44.3964844,43.3789062 42.9316406,43.3789062 42.1113281,44.1992188 L30.2460938,56.0351562 C28.2246094,53.3105469 26.9941406,49.9121094 26.9941406,46.2207031 C26.9941406,37.109375 34.4355469,29.6972656 43.5761719,29.6972656 C52.7167969,29.6972656 60.1289062,37.109375 60.1289062,46.2207031 C60.1289062,55.3613281 52.7167969,62.7734375 43.5761719,62.7734375 Z M75.2460938,49.8828125 C77.2675781,49.8828125 78.9082031,48.2128906 78.9082031,46.2207031 C78.9082031,44.1699219 77.2382812,42.5878906 75.2460938,42.5878906 C73.1953125,42.5878906 71.5839844,44.2285156 71.5839844,46.2207031 C71.5839844,48.2421875 73.2539062,49.8828125 75.2460938,49.8828125 Z M11.90625,49.8828125 C13.9277344,49.8828125 15.5390625,48.2128906 15.5390625,46.2207031 C15.5390625,44.1699219 13.8691406,42.5878906 11.90625,42.5878906 C9.88476562,42.5878906 8.24414062,44.2285156 8.24414062,46.2207031 C8.24414062,48.2421875 9.9140625,49.8828125 11.90625,49.8828125 Z M21.1054688,72.1777344 C23.1269531,72.1777344 24.7382812,70.5664062 24.7382812,68.5449219 C24.7382812,66.5234375 23.0976562,64.9121094 21.1054688,64.9121094 C19.0839844,64.9121094 17.4726562,66.5527344 17.4726562,68.5449219 C17.4726562,70.5957031 19.1132812,72.1777344 21.1054688,72.1777344 Z M65.9882812,72.2070312 C68.0097656,72.2070312 69.6210938,70.5957031 69.6210938,68.5742188 C69.6210938,66.5527344 67.9804688,64.9414062 65.9882812,64.9414062 C63.9375,64.9414062 62.3261719,66.5820312 62.3261719,68.5742188 C62.3261719,70.625 63.9667969,72.2070312 65.9882812,72.2070312 Z" id="ô€º" fill="#FFFFFF" fill-rule="nonzero"></path>
            </g>
        </g>
    </g>
</svg>