<?xml version="1.0" encoding="UTF-8"?>
<svg width="88px" height="88px" viewBox="0 0 88 88" version="1.1" xmlns="http://www.w3.org/2000/svg" xmlns:xlink="http://www.w3.org/1999/xlink">
    <title>unified.logo</title>
    <g id="analysis" stroke="none" stroke-width="1" fill="none" fill-rule="evenodd">
        <g id="Desktop-HD" transform="translate(-74.000000, -4838.000000)">
            <g id="unified.logo" transform="translate(74.000000, 4838.000000)">
                <rect id="Rectangle-Copy-10" x="0" y="0" width="88" height="88"></rect>
                <path d="M54.8984375,74.84375 C59.6738281,74.84375 62.8671875,71.796875 62.8671875,67.2265625 L62.8671875,20.4394531 C62.8671875,15.8691406 59.6738281,12.8222656 54.8984375,12.8222656 L33.1894531,12.8222656 C28.4140625,12.8222656 25.2207031,15.8691406 25.2207031,20.4394531 L25.2207031,67.2265625 C25.2207031,71.796875 28.4140625,74.84375 33.1894531,74.84375 L54.8984375,74.84375 Z M54.3125,70.1269531 L33.8046875,70.1269531 C31.3144531,70.1269531 29.9375,68.8085938 29.9375,66.4648438 L29.9375,21.2011719 C29.9375,18.8574219 31.3144531,17.5390625 33.8046875,17.5390625 L34.9765625,17.5390625 L34.9765625,18.8867188 C34.9765625,20.1171875 35.7675781,20.9375 36.9980469,20.9375 L51.1484375,20.9375 C52.3496094,20.9375 53.140625,20.1171875 53.140625,18.8867188 L53.140625,17.5390625 L54.3125,17.5390625 C56.7734375,17.5390625 58.1503906,18.8574219 58.1503906,21.2011719 L58.1503906,66.4648438 C58.1503906,68.8085938 56.7734375,70.1269531 54.3125,70.1269531 Z M51.7929688,67.9882812 C52.5839844,67.9882812 53.140625,67.4316406 53.140625,66.6113281 C53.140625,65.7910156 52.5839844,65.2636719 51.7929688,65.2636719 L36.3535156,65.2636719 C35.5625,65.2636719 34.9765625,65.7910156 34.9765625,66.6113281 C34.9765625,67.4316406 35.5625,67.9882812 36.3535156,67.9882812 L51.7929688,67.9882812 Z" id="􀟜" fill="#FFFFFF" fill-rule="nonzero"></path>
            </g>
        </g>
    </g>
</svg>