<svg width="57" height="48" viewBox="0 0 57 48" fill="none" xmlns="http://www.w3.org/2000/svg">
<path d="M0 23.9995C0 22.6597 0.989022 21.5529 2.26606 21.3905L2.59091 21.37H54.4091C55.4593 21.37 56.4024 22.0116 56.8031 22.9968C56.9344 23.3193 57 23.6594 57 23.9995C57 24.5692 56.8177 25.134 56.467 25.5966L56.2365 25.8611L35.3365 46.9844C34.3244 48.0081 32.6835 48.0046 31.6747 46.9774C30.7501 46.0325 30.673 44.5545 31.4489 43.5261L31.6816 43.2576L48.1356 26.6289H2.59091C1.16073 26.6289 0 25.4509 0 23.9995ZM31.6813 4.74242C30.6657 3.71869 30.6657 2.05337 31.6744 1.02263C32.599 0.0809898 34.0549 -0.000425845 35.0734 0.781079L35.3397 1.01561L46.864 12.6658C47.3753 13.1812 47.6275 13.8543 47.6275 14.531C47.6275 15.2006 47.3753 15.8703 46.8709 16.3856C45.9463 17.3305 44.4933 17.4122 43.4753 16.628L43.2091 16.3926L31.6813 4.74242Z" fill="black"/>
</svg>
