<svg width="772" height="400" viewBox="0 0 772 400" fill="none" xmlns="http://www.w3.org/2000/svg">
<rect x="208.726" y="30.3611" width="533.981" height="136.175" transform="rotate(-1.00448 208.726 30.3611)" fill="#FF6A65"/>
<path d="M83.0469 55.0608H62.5625V110.608H46.1094V55.0608H26V42.3577H83.0469V55.0608Z" fill="black"/>
<path d="M147.078 110.608H130.719V82.1077H106.484V110.608H90.0312V42.3577H106.484V69.4514H130.719V42.3577H147.078V110.608Z" fill="black"/>
<path d="M199.859 81.6858H173.984V97.9514H204.547V110.608H157.531V42.3577H204.641V55.0608H173.984V69.4514H199.859V81.6858Z" fill="black"/>
<path d="M273.922 97.8577H251.375L247.438 110.608H229.859L254.891 42.3577H270.359L295.578 110.608H277.906L273.922 97.8577ZM255.312 85.1545H269.984L262.625 61.4827L255.312 85.1545Z" fill="black"/>
<path d="M348.547 55.0608H328.062V110.608H311.609V55.0608H291.5V42.3577H348.547V55.0608Z" fill="black"/>
<path d="M409.859 55.0608H389.375V110.608H372.922V55.0608H352.812V42.3577H409.859V55.0608Z" fill="black"/>
<path d="M434.375 110.608H417.969V42.3577H434.375V110.608Z" fill="black"/>
<path d="M497.984 55.0608H477.5V110.608H461.047V55.0608H440.938V42.3577H497.984V55.0608Z" fill="black"/>
<path d="M558.5 42.3577V87.0295C558.5 92.092 557.422 96.4827 555.266 100.201C553.109 103.889 550.016 106.701 545.984 108.639C541.953 110.576 537.188 111.545 531.688 111.545C523.375 111.545 516.828 109.389 512.047 105.076C507.266 100.764 504.828 94.8577 504.734 87.3577V42.3577H521.281V87.6858C521.469 95.1545 524.938 98.8889 531.688 98.8889C535.094 98.8889 537.672 97.9514 539.422 96.0764C541.172 94.2014 542.047 91.1545 542.047 86.9358V42.3577H558.5Z" fill="black"/>
<path d="M568.812 110.608V42.3577H590.797C596.828 42.3577 602.25 43.7327 607.062 46.4827C611.875 49.2014 615.625 53.0608 618.312 58.0608C621.031 63.0295 622.406 68.6077 622.438 74.7952V77.9358C622.438 84.1858 621.109 89.7952 618.453 94.7639C615.828 99.7014 612.109 103.576 607.297 106.389C602.516 109.17 597.172 110.576 591.266 110.608H568.812ZM585.266 55.0608V97.9514H590.984C595.703 97.9514 599.328 96.2795 601.859 92.9358C604.391 89.5608 605.656 84.5608 605.656 77.9358V74.9827C605.656 68.3889 604.391 63.4202 601.859 60.0764C599.328 56.7327 595.641 55.0608 590.797 55.0608H585.266Z" fill="black"/>
<path d="M673.203 81.6858H647.328V97.9514H677.891V110.608H630.875V42.3577H677.984V55.0608H647.328V69.4514H673.203V81.6858Z" fill="black"/>
<path d="M83.0469 135.061H62.5625V190.608H46.1094V135.061H26V122.358H83.0469V135.061Z" fill="black"/>
<path d="M146.516 157.889C146.516 164.545 145.281 170.436 142.812 175.561C140.344 180.686 136.828 184.639 132.266 187.42C127.734 190.17 122.562 191.545 116.75 191.545C110.938 191.545 105.781 190.217 101.281 187.561C96.7812 184.873 93.2656 181.045 90.7344 176.076C88.2344 171.108 86.9219 165.405 86.7969 158.967V155.123C86.7969 148.436 88.0156 142.545 90.4531 137.451C92.9219 132.326 96.4375 128.373 101 125.592C105.594 122.811 110.812 121.42 116.656 121.42C122.438 121.42 127.594 122.795 132.125 125.545C136.656 128.295 140.172 132.217 142.672 137.311C145.203 142.373 146.484 148.186 146.516 154.748V157.889ZM129.781 155.03C129.781 148.248 128.641 143.108 126.359 139.608C124.109 136.076 120.875 134.311 116.656 134.311C108.406 134.311 104.047 140.498 103.578 152.873L103.531 157.889C103.531 164.576 104.641 169.717 106.859 173.311C109.078 176.905 112.375 178.701 116.75 178.701C120.906 178.701 124.109 176.936 126.359 173.405C128.609 169.873 129.75 164.795 129.781 158.17V155.03Z" fill="black"/>
<path d="M207.875 165.155L215.703 122.358H232.016L217.531 190.608H200.469L191.328 151.701L182.375 190.608H165.359L150.828 122.358H167.188L175.016 165.155L184.391 122.358H198.359L207.875 165.155Z" fill="black"/>
<path d="M275.141 177.858H252.594L248.656 190.608H231.078L256.109 122.358H271.578L296.797 190.608H279.125L275.141 177.858ZM256.531 165.155H271.203L263.844 141.483L256.531 165.155Z" fill="black"/>
<path d="M327.172 166.514H318.266V190.608H301.812V122.358H328.672C336.766 122.358 343.094 124.155 347.656 127.748C352.219 131.342 354.5 136.42 354.5 142.983C354.5 147.733 353.531 151.67 351.594 154.795C349.688 157.92 346.688 160.451 342.594 162.389L356.844 189.905V190.608H339.219L327.172 166.514ZM318.266 153.811H328.672C331.797 153.811 334.141 152.998 335.703 151.373C337.297 149.717 338.094 147.42 338.094 144.483C338.094 141.545 337.297 139.248 335.703 137.592C334.109 135.905 331.766 135.061 328.672 135.061H318.266V153.811Z" fill="black"/>
<path d="M364.438 190.608V122.358H386.422C392.453 122.358 397.875 123.733 402.688 126.483C407.5 129.201 411.25 133.061 413.938 138.061C416.656 143.03 418.031 148.608 418.062 154.795V157.936C418.062 164.186 416.734 169.795 414.078 174.764C411.453 179.701 407.734 183.576 402.922 186.389C398.141 189.17 392.797 190.576 386.891 190.608H364.438ZM380.891 135.061V177.951H386.609C391.328 177.951 394.953 176.28 397.484 172.936C400.016 169.561 401.281 164.561 401.281 157.936V154.983C401.281 148.389 400.016 143.42 397.484 140.076C394.953 136.733 391.266 135.061 386.422 135.061H380.891Z" fill="black"/>
<path d="M461.703 172.467C461.703 170.061 460.844 168.186 459.125 166.842C457.438 165.498 454.453 164.108 450.172 162.67C445.891 161.233 442.391 159.842 439.672 158.498C430.828 154.155 426.406 148.186 426.406 140.592C426.406 136.811 427.5 133.483 429.688 130.608C431.906 127.701 435.031 125.451 439.062 123.858C443.094 122.233 447.625 121.42 452.656 121.42C457.562 121.42 461.953 122.295 465.828 124.045C469.734 125.795 472.766 128.295 474.922 131.545C477.078 134.764 478.156 138.451 478.156 142.608H461.75C461.75 139.826 460.891 137.67 459.172 136.139C457.484 134.608 455.188 133.842 452.281 133.842C449.344 133.842 447.016 134.498 445.297 135.811C443.609 137.092 442.766 138.733 442.766 140.733C442.766 142.483 443.703 144.076 445.578 145.514C447.453 146.92 450.75 148.389 455.469 149.92C460.188 151.42 464.062 153.045 467.094 154.795C474.469 159.045 478.156 164.905 478.156 172.373C478.156 178.342 475.906 183.03 471.406 186.436C466.906 189.842 460.734 191.545 452.891 191.545C447.359 191.545 442.344 190.561 437.844 188.592C433.375 186.592 430 183.873 427.719 180.436C425.469 176.967 424.344 172.983 424.344 168.483H440.844C440.844 172.139 441.781 174.842 443.656 176.592C445.562 178.311 448.641 179.17 452.891 179.17C455.609 179.17 457.75 178.592 459.312 177.436C460.906 176.248 461.703 174.592 461.703 172.467Z" fill="black"/>
<path d="M47 270.608H30.5938V202.358H47V270.608Z" fill="black"/>
<path d="M115.438 270.608H99.0781L74.8906 228.139V270.608H58.4375V202.358H74.8906L99.0312 244.826V202.358H115.438V270.608Z" fill="black"/>
<path d="M178.016 215.061H157.531V270.608H141.078V215.061H120.969V202.358H178.016V215.061Z" fill="black"/>
<path d="M227.328 241.686H201.453V257.951H232.016V270.608H185V202.358H232.109V215.061H201.453V229.451H227.328V241.686Z" fill="black"/>
<path d="M264.078 246.514H255.172V270.608H238.719V202.358H265.578C273.672 202.358 280 204.155 284.562 207.748C289.125 211.342 291.406 216.42 291.406 222.983C291.406 227.733 290.438 231.67 288.5 234.795C286.594 237.92 283.594 240.451 279.5 242.389L293.75 269.905V270.608H276.125L264.078 246.514ZM255.172 233.811H265.578C268.703 233.811 271.047 232.998 272.609 231.373C274.203 229.717 275 227.42 275 224.483C275 221.545 274.203 219.248 272.609 217.592C271.016 215.905 268.672 215.061 265.578 215.061H255.172V233.811Z" fill="black"/>
<path d="M340.109 257.858H317.562L313.625 270.608H296.047L321.078 202.358H336.547L361.766 270.608H344.094L340.109 257.858ZM321.5 245.155H336.172L328.812 221.483L321.5 245.155Z" fill="black"/>
<path d="M420.969 247.498C420.75 252.248 419.469 256.451 417.125 260.108C414.781 263.733 411.484 266.545 407.234 268.545C403.016 270.545 398.188 271.545 392.75 271.545C383.781 271.545 376.719 268.623 371.562 262.78C366.406 256.936 363.828 248.686 363.828 238.03V234.655C363.828 227.967 364.984 222.123 367.297 217.123C369.641 212.092 373 208.217 377.375 205.498C381.75 202.748 386.812 201.373 392.562 201.373C400.844 201.373 407.5 203.561 412.531 207.936C417.562 212.28 420.422 218.28 421.109 225.936H404.703C404.578 221.78 403.531 218.795 401.562 216.983C399.594 215.17 396.594 214.264 392.562 214.264C388.469 214.264 385.469 215.795 383.562 218.858C381.656 221.92 380.656 226.811 380.562 233.53V238.358C380.562 245.639 381.469 250.842 383.281 253.967C385.125 257.092 388.281 258.655 392.75 258.655C396.531 258.655 399.422 257.764 401.422 255.983C403.422 254.201 404.484 251.373 404.609 247.498H420.969Z" fill="black"/>
<path d="M480.922 215.061H460.438V270.608H443.984V215.061H423.875V202.358H480.922V215.061Z" fill="black"/>
<path d="M505.438 270.608H489.031V202.358H505.438V270.608Z" fill="black"/>
<path d="M574.672 237.889C574.672 244.545 573.438 250.436 570.969 255.561C568.5 260.686 564.984 264.639 560.422 267.42C555.891 270.17 550.719 271.545 544.906 271.545C539.094 271.545 533.938 270.217 529.438 267.561C524.938 264.873 521.422 261.045 518.891 256.076C516.391 251.108 515.078 245.405 514.953 238.967V235.123C514.953 228.436 516.172 222.545 518.609 217.451C521.078 212.326 524.594 208.373 529.156 205.592C533.75 202.811 538.969 201.42 544.812 201.42C550.594 201.42 555.75 202.795 560.281 205.545C564.812 208.295 568.328 212.217 570.828 217.311C573.359 222.373 574.641 228.186 574.672 234.748V237.889ZM557.938 235.03C557.938 228.248 556.797 223.108 554.516 219.608C552.266 216.076 549.031 214.311 544.812 214.311C536.562 214.311 532.203 220.498 531.734 232.873L531.688 237.889C531.688 244.576 532.797 249.717 535.016 253.311C537.234 256.905 540.531 258.701 544.906 258.701C549.062 258.701 552.266 256.936 554.516 253.405C556.766 249.873 557.906 244.795 557.938 238.17V235.03Z" fill="black"/>
<path d="M640.156 270.608H623.797L599.609 228.139V270.608H583.156V202.358H599.609L623.75 244.826V202.358H640.156V270.608Z" fill="black"/>
<path d="M29.4688 350.608V282.358H51.4531C57.4844 282.358 62.9062 283.733 67.7188 286.483C72.5312 289.201 76.2812 293.061 78.9688 298.061C81.6875 303.03 83.0625 308.608 83.0938 314.795V317.936C83.0938 324.186 81.7656 329.795 79.1094 334.764C76.4844 339.701 72.7656 343.576 67.9531 346.389C63.1719 349.17 57.8281 350.576 51.9219 350.608H29.4688ZM45.9219 295.061V337.951H51.6406C56.3594 337.951 59.9844 336.28 62.5156 332.936C65.0469 329.561 66.3125 324.561 66.3125 317.936V314.983C66.3125 308.389 65.0469 303.42 62.5156 300.076C59.9844 296.733 56.2969 295.061 51.4531 295.061H45.9219Z" fill="black"/>
<path d="M133.859 321.686H107.984V337.951H138.547V350.608H91.5312V282.358H138.641V295.061H107.984V309.451H133.859V321.686Z" fill="black"/>
<path d="M180.453 332.467C180.453 330.061 179.594 328.186 177.875 326.842C176.188 325.498 173.203 324.108 168.922 322.67C164.641 321.233 161.141 319.842 158.422 318.498C149.578 314.155 145.156 308.186 145.156 300.592C145.156 296.811 146.25 293.483 148.438 290.608C150.656 287.701 153.781 285.451 157.812 283.858C161.844 282.233 166.375 281.42 171.406 281.42C176.312 281.42 180.703 282.295 184.578 284.045C188.484 285.795 191.516 288.295 193.672 291.545C195.828 294.764 196.906 298.451 196.906 302.608H180.5C180.5 299.826 179.641 297.67 177.922 296.139C176.234 294.608 173.938 293.842 171.031 293.842C168.094 293.842 165.766 294.498 164.047 295.811C162.359 297.092 161.516 298.733 161.516 300.733C161.516 302.483 162.453 304.076 164.328 305.514C166.203 306.92 169.5 308.389 174.219 309.92C178.938 311.42 182.812 313.045 185.844 314.795C193.219 319.045 196.906 324.905 196.906 332.373C196.906 338.342 194.656 343.03 190.156 346.436C185.656 349.842 179.484 351.545 171.641 351.545C166.109 351.545 161.094 350.561 156.594 348.592C152.125 346.592 148.75 343.873 146.469 340.436C144.219 336.967 143.094 332.983 143.094 328.483H159.594C159.594 332.139 160.531 334.842 162.406 336.592C164.312 338.311 167.391 339.17 171.641 339.17C174.359 339.17 176.5 338.592 178.062 337.436C179.656 336.248 180.453 334.592 180.453 332.467Z" fill="black"/>
<path d="M222.875 350.608H206.469V282.358H222.875V350.608Z" fill="black"/>
<path d="M290.188 342.17C287.656 344.983 283.953 347.248 279.078 348.967C274.203 350.686 268.859 351.545 263.047 351.545C254.109 351.545 246.969 348.811 241.625 343.342C236.281 337.873 233.422 330.264 233.047 320.514L233 314.608C233 307.889 234.188 302.03 236.562 297.03C238.938 291.998 242.328 288.139 246.734 285.451C251.172 282.733 256.297 281.373 262.109 281.373C270.609 281.373 277.203 283.326 281.891 287.233C286.609 291.108 289.359 296.905 290.141 304.623H274.297C273.734 300.811 272.516 298.092 270.641 296.467C268.766 294.842 266.109 294.03 262.672 294.03C258.547 294.03 255.359 295.78 253.109 299.28C250.859 302.78 249.719 307.78 249.688 314.28V318.405C249.688 325.217 250.844 330.342 253.156 333.78C255.5 337.186 259.172 338.889 264.172 338.889C268.453 338.889 271.641 337.936 273.734 336.03V325.436H262.297V314.139H290.188V342.17Z" fill="black"/>
<path d="M356.75 350.608H340.391L316.203 308.139V350.608H299.75V282.358H316.203L340.344 324.826V282.358H356.75V350.608Z" fill="black"/>
<path d="M376.203 335.28C378.703 335.28 380.781 336.03 382.438 337.53C384.094 338.998 384.922 340.889 384.922 343.201C384.922 345.514 384.094 347.42 382.438 348.92C380.781 350.389 378.703 351.123 376.203 351.123C373.672 351.123 371.578 350.373 369.922 348.873C368.297 347.373 367.484 345.483 367.484 343.201C367.484 340.92 368.297 339.03 369.922 337.53C371.578 336.03 373.672 335.28 376.203 335.28Z" fill="black"/>
</svg>
