<?xml version="1.0" standalone="no"?>
<!DOCTYPE svg PUBLIC "-//W3C//DTD SVG 20010904//EN"
 "http://www.w3.org/TR/2001/REC-SVG-20010904/DTD/svg10.dtd">
<svg version="1.0" xmlns="http://www.w3.org/2000/svg"
 width="700.000000pt" height="700.000000pt" viewBox="0 0 700.000000 700.000000"
 preserveAspectRatio="xMidYMid meet">
<metadata>
Created by potrace 1.11, written by Peter Selinger 2001-2013
</metadata>
<g transform="translate(0.000000,700.000000) scale(0.100000,-0.100000)"
fill="#000000" stroke="none">
<path d="M3215 6989 c-748 -64 -1435 -351 -1995 -835 -551 -475 -938 -1101
-1114 -1799 -34 -137 -72 -346 -88 -490 -17 -155 -17 -575 0 -730 63 -570 255
-1100 567 -1570 270 -405 644 -771 1047 -1024 457 -287 944 -456 1503 -523
139 -16 595 -16 730 0 847 103 1555 446 2131 1034 204 208 346 389 490 623
269 439 429 910 496 1460 16 130 16 600 0 730 -73 596 -246 1079 -557 1555
-139 213 -239 336 -449 548 -657 668 -1554 1038 -2496 1031 -91 -1 -210 -6
-265 -10z m-277 -1629 c608 -47 945 -299 1038 -776 23 -118 23 -347 0 -465
-73 -384 -294 -649 -631 -759 l-70 -23 87 -23 c251 -67 460 -208 602 -407 204
-286 242 -682 95 -996 -163 -348 -543 -578 -1030 -621 -63 -5 -431 -10 -826
-10 l-713 0 0 120 0 120 175 0 175 0 0 1805 0 1805 -175 0 -175 0 0 120 0 120
658 0 c361 0 717 -5 790 -10z m2487 -2821 c186 -58 342 -225 391 -419 22 -87
15 -242 -15 -324 -62 -173 -202 -311 -373 -367 -100 -33 -251 -34 -353 -2
-169 53 -314 196 -376 369 -30 82 -37 237 -15 324 57 228 249 405 476 440 73
11 191 2 265 -21z"/>
<path d="M2082 4293 l3 -838 390 -3 c412 -3 540 4 670 38 304 78 521 307 591
622 23 101 23 338 1 433 -63 263 -212 434 -449 515 -181 62 -190 63 -721 67
l-487 4 2 -838z"/>
<path d="M2080 2371 l0 -851 456 0 c507 0 591 7 764 62 241 77 426 221 524
408 95 181 111 434 40 632 -41 111 -90 186 -188 283 -159 157 -317 231 -621
292 -63 12 -174 16 -527 20 l-448 5 0 -851z"/>
</g>
</svg>
