<?xml version="1.0" encoding="utf-8"?>
<!-- Generator: Adobe Illustrator 24.3.0, SVG Export Plug-In . SVG Version: 6.00 Build 0)  -->
<svg version="1.1" id="Layer_1" xmlns="http://www.w3.org/2000/svg" xmlns:xlink="http://www.w3.org/1999/xlink" x="0px" y="0px"
	 viewBox="0 0 1120 1120" style="enable-background:new 0 0 1120 1120;" xml:space="preserve">
<style type="text/css">
	.st0{fill:#FFFFFF;}
</style>
<g transform="translate(0.000000,1120.000000) scale(0.100000,-0.100000)">
	<path class="st0" d="M4038,11195c-2-2-44-6-93-9c-159-9-248-18-272-27c-15-5-23-5-23,2c0,6-5,7-11,4c-5-4-25-9-42-11
		c-18-3-61-9-97-14c-61-9-78-12-162-25c-18-3-64-12-103-20c-38-8-81-17-95-19c-22-5-138-32-152-37c-2,0-10-2-18-4c-8-1-42-10-75-20
		c-33-9-67-17-75-19c-8-1-35-8-60-16c-25-7-50-14-55-15c-54-12-430-146-531-191c-16-7-66-29-111-48c-176-75-522-255-643-334
		c-14-9-28-15-32-14c-5,1-8-2-8-8c0-5-7-10-15-10s-15-3-15-8c0-4-16-16-35-26l-35-19v-259v-258l733-1c402,0,752-2,777-4s77-6,115-9
		c39-2,70-5,70-6s23-3,50-5c50-4,65-6,180-27c33-6,70-12,82-13c11-2,30-6,42-10c11-3,33-8,48-11c16-3,59-14,96-25c37-12,73-22,80-23
		c7-2,26-8,42-15c17-6,44-16,60-22c83-30,304-138,325-159c3-3,17-11,32-19s36-22,45-31c10-9,26-21,34-26c58-33,228-195,305-289
		c45-55,112-155,148-220c41-73,44-79,67-130c12-27,27-61,34-75c14-28,63-168,68-196c2-11,7-26,10-34c8-21,25-88,32-129
		c3-19,8-38,10-42c3-4,7-24,10-45c3-22,8-52,11-69c2-16,7-46,9-65s6-44,9-56c18-85,26-484,13-632c-7-79-50-317-57-317c-1,0-3-7-5-15
		s-6-24-9-35c-23-94-144-354-199-430c-4-5-30-41-57-80c-27-38-60-83-72-99c-37-47-220-229-263-261c-22-17-45-35-52-41
		c-29-27-220-148-292-185l-44-22l39-14c22-8,47-19,56-24c10-5,23-9,30-9s43-16,81-35c37-18,67-31,67-28s8-1,18-9c9-8,46-32,82-54
		c77-45,204-147,275-218c57-58,180-209,212-262c70-114,108-180,108-186c0-4,6-13,13-19c6-7,12-17,12-22c0-4,10-29,22-55s22-49,23-52
		s8-21,17-40c8-19,20-53,27-75s15-47,18-55c7-19,8-22,29-95c18-66,17-63,29-120c5-22,10-42,10-45c3-10,18-106,21-125c1-11,3-20,4-20
		c13,0,34-553,22-578c-2-5-6-41-8-80c-3-78-11-160-18-193c-2-12-7-45-11-75s-9-57-11-60s-6-24-8-45c-7-50-50-218-78-297
		c-11-34-21-68-21-74c0-7-4-13-9-13c-4,0-7-3-6-8c6-31-137-318-218-434c-131-188-268-334-434-461c-30-23-58-46-62-52c-4-5-8-6-8-1
		s-9,1-21-10c-60-55-373-207-489-239c-14-3-34-10-45-15c-25-11-156-44-220-56c-16-3-48-10-70-15c-22-6-47-10-55-10s-46-5-85-10
		c-96-14-206-22-292-23c-40-1-73-5-73-9s-8-4-17,2c-10,5-26,5-40,0c-13-5-23-5-23-1s-13,7-29,7s-27-3-24-7c2-5-6-4-19,1
		c-15,5-31,5-41,0c-11-7-17-6-17,0c0,7-8,7-25,1c-14-5-25-6-25-2s-25,7-55,7s-55-3-55-7s-10-4-23,1c-14,5-30,5-40,0c-11-7-17-6-17,0
		c0,7-8,7-25,1c-14-5-25-6-25-2s-25,7-55,7s-55-4-55-8c0-5-4-5-10-2c-15,9-80,12-80,3c0-4-11-3-25,2c-16,6-25,6-25,0s-9-6-22-2
		c-23,9-76,7-85-2c-3-3-16-1-29,4c-14,6-26,6-29-1c-4-5-11-6-18-2c-16,10-57,10-57,0c0-4-9-3-19,3c-14,7-22,7-26,0s-11-7-18-2
		s-21,6-32,2s-29-4-40,0s-29,4-40,0s-30-4-42,1c-13,5-25,4-28-2c-4-5-11-6-18-2c-16,10-57,10-57,0c0-4-8-3-18,2c-13,7-22,7-29,0
		c-8-8-13-8-17,0c-5,7-15,7-32,1c-14-6-23-6-20-1c4,5-3,7-14,4c-20-5-20-14-20-357V895l35-22c19-13,39-23,45-23c5,0,10-4,10-10
		c0-5,7-10,15-10s15-4,15-9s8-11,17-14c10-4,38-18,63-33c115-68,185-107,355-193c77-39,143-71,146-71c4,0,45-17,91-39
		c82-38,365-151,379-151c4,0,20-5,36-12c15-6,30-12,33-12c3-1,11-5,18-9c6-5,12-6,12-3s16-2,35-10s35-11,35-7s5,2,12-5s20-12,30-12
		s26-4,36-9c13-7,93-31,122-36c15-3,97-27,110-32c8-3,19-5,24-4s21-2,35-7c24-9,85-23,151-37c14-2,59-11,100-20c41-8,86-17,100-20
		s45-8,70-11s52-7,60-9c8-3,42-7,74-11c33-3,69-8,80-10c46-9,110-16,306-31c138-10,626-10,765,0c168,13,207,16,240,21
		c27,4,62,8,160,20c17,2,50,7,75,11s56,9,70,11c38,5,92,14,120,20c14,3,39,8,55,11c17,2,77,16,135,30c58,13,112,26,120,28
		c56,12,193,49,230,62c25,8,52,16,60,18c40,9,360,119,388,134c9,5,44,20,77,32c67,25,137,56,240,105c88,42,128,58,138,56
		c4-1,7,2,7,7s16,15,35,22s35,17,35,21s3,7,8,6c7-3,182,90,192,101c3,3,12,7,20,9s22,9,30,16s38,26,65,42c80,46,82,47,147,88
		c35,22,65,42,68,46c3,3,23,17,45,30s45,28,50,32c9,8,160,119,225,165c27,20,245,199,271,223c9,8,54,49,99,90
		c296,267,630,651,835,960c28,41,53,77,56,80s38,59,79,125c40,66,81,132,91,147c11,15,19,29,19,32s14,28,30,56
		c36,62,157,299,198,390c16,36,39,86,50,111c12,25,31,70,42,100c12,30,27,65,33,79c5,14,11,30,13,35c4,13,53,145,61,165
		c3,8,7,20,8,25c0,6,6,23,13,38c7,16,12,34,12,41c0,6,5,17,12,24s9,12,5,12c-3,0,1,19,9,43c9,23,18,51,20,62c7,27,8,32,28,96
		c9,31,18,65,20,75c2,11,14,55,25,99c12,44,24,96,27,115s12,62,19,95c16,69,24,109,30,145c2,14,6,39,9,55c2,17,10,66,16,110
		s13,96,16,115s7,58,10,85c2,28,7,68,9,90c14,121,20,269,19,520c0,359-12,548-55,825c-5,36-11,79-14,95c-4,35-9,64-30,165
		c-9,41-18,89-21,105c-3,17-12,57-21,90c-8,33-16,69-18,80s-9,36-15,55s-13,46-16,60c-8,38-34,132-44,155c-6,17-25,76-36,120
		c-21,81-174,467-188,477c-6,4-8,8-4,8c17,0-197,433-279,562c-12,21-23,40-23,42c0,15-263,418-292,447c-8,8-23,29-33,47
		c-11,17-23,32-27,32s-8,4-8,10c0,9-17,31-55,74c-5,6-23,29-39,51c-17,22-32,42-35,45c-4,3-28,32-56,65c-204,245-494,532-734,725
		c-24,19-48,40-55,45c-38,34-256,195-264,195c-6,0-12,4-14,8c-4,10-167,122-178,122c-5,0-10,4-12,8c-3,8-115,78-203,127
		c-22,13-83,47-135,76c-132,75-362,187-500,244c-136,57-236,97-250,100c-14,4-273,91-315,106c-20,7-101,31-120,35c-5,1-39,10-75,19
		s-75,19-87,21s-35,9-50,15c-16,6-29,10-31,9s-29,4-132,25c-31,7-115,23-155,30c-16,2-41,7-55,10c-13,2-42,7-65,10c-22,3-58,8-80,12
		s-56,8-75,9s-35,3-35,4c0,3-43,8-135,15c-47,4-103,9-125,11C4676,11192,4043,11200,4038,11195z M6935,3836c55-4,111-9,125-11
		s41-7,60-10s42-9,50-12s24-8,34-10c11-2,33-10,49-18c17-8,34-15,38-15s20-5,36-11c15-6,30-10,32-9s7-2,10-7s36-26,73-46
		c36-20,90-55,120-78c66-51,218-208,218-226c0-7,4-13,8-13c8,0,112-173,112-187c0-5,10-26,21-48c12-22,21-40,19-40c-1,0,4-20,11-45
		c17-62,16-59,28-120c6-30,12-75,15-98c2-24,7-46,10-49c2-3,1-16-4-29c-6-14-6-26,1-29c5-4,7-11,3-17c-3-5-8-35-9-66
		c-16-312-186-626-440-814c-27-21-55-41-60-45c-38-29-225-119-267-129c-10-2-27-6-38-8c-11-3-24-7-28-10c-4-2-27-7-52-11
		c-24-4-51-10-60-14c-8-3-50-6-92-6c-43,0-78-4-78-8c0-5-5-5-10-2c-6,4-40,8-76,11c-57,3-118,12-189,28c-32,7-117,36-152,52
		c-17,8-34,14-38,14c-13,0-185,104-185,112c0,4-7,8-15,8c-9,0-18,7-21,15c-4,8-11,15-17,15c-32,0-267,280-267,318c0,6-3,12-7,14
		c-7,3-43,72-64,123c-15,36-41,120-45,145c-3,14-7,31-9,38c-26,72-26,452-1,452c5,0,7,3,4,6c-4,3-2,20,3,37c6,18,12,41,14,52
		c4,18,11,37,31,90c4,11,8,22,9,25c8,33,112,213,126,218c5,2,9,10,9,17c0,25,194,210,275,263c44,29,86,57,93,62c6,6,12,9,12,6
		s26,8,58,23c54,27,107,47,148,56c10,2,34,8,52,14c17,5,32,7,32,5c0-3,5-2,12,2c14,9,40,12,110,16c27,2,48,7,48,11c0,5,3,6,8,4
		C6832,3844,6880,3839,6935,3836z"/>
	<path class="st0" d="M1280,7603c0-1234,1-1303,18-1304c64-4,1379-4,1386,0c6,2,38,6,73,7c34,1,67,6,73,9c6,4,26,9,43,11
		c132,19,349,120,466,219c41,34,125,121,151,155c14,17,32,39,41,48c38,41,133,215,154,282c4,14,11,30,15,35c6,8,21,59,25,85
		c0,3,3,10,7,15c3,6,9,26,12,45s8,46,11,60c34,147,38,506,10,685c-34,205-86,361-168,500c-41,71-154,189-222,234c-22,14-42,29-45,32
		c-21,26-246,119-320,133c-14,3-61,11-105,19c-44,9-87,16-95,16c-56,3-155,10-155,11c0,0-71,2-158,3c-86,1-157-2-157-6c0-5-5-5-11-2
		c-14,9-469,12-469,3c0-4-7-5-15-2c-24,10-465,10-465,1c0-5-5-5-11-1c-7,4-29,7-50,8l-39,1V7603z"/>
	<path class="st0" d="M1327,5432l-47-3l2-1472l3-1472h745c410-1,774,3,810,7c36,5,79,10,95,12c72,8,189,44,295,89c14,6,27,11,30,12
		c14,3,83,43,144,84c85,55,227,196,280,276c22,33,47,71,56,85c30,46,88,174,110,245c12,39,26,79,30,90c8,19,22,83,25,117
		c1,9,5,24,9,33c3,9,9,42,12,73s9,62,12,67c8,12,12,496,5,508c-3,5-7,32-8,60c-4,53-11,113-20,157c-3,14-7,43-10,64
		c-3,22-10,45-15,51c-5,7-8,14-5,17s-4,36-16,74s-22,74-24,79c-3,16-16,46-55,130c-98,214-252,378-450,481c-30,15-58,27-62,26
		c-5-1-8,2-8,8s-3,9-7,8c-11-2-66,13-78,22c-13,10-177,48-236,55c-24,3-96,8-159,11C2667,5432,1407,5437,1327,5432z"/>
</g>
</svg>
