<?xml version="1.0" standalone="no"?>
<!DOCTYPE svg PUBLIC "-//W3C//DTD SVG 20010904//EN"
 "http://www.w3.org/TR/2001/REC-SVG-20010904/DTD/svg10.dtd">
<svg version="1.0" xmlns="http://www.w3.org/2000/svg"
 width="1120.000000pt" height="1120.000000pt" viewBox="0 0 1120.000000 1120.000000"
 preserveAspectRatio="xMidYMid meet">
<metadata>
Created by potrace 1.11, written by Peter Selinger 2001-2013
</metadata>
<g transform="translate(0.000000,1120.000000) scale(0.100000,-0.100000)"
fill="#000000" stroke="none">
<path d="M4038 11195 c-2 -2 -44 -6 -93 -9 -159 -9 -248 -18 -272 -27 -15 -5
-23 -5 -23 2 0 6 -5 7 -11 4 -5 -4 -25 -9 -42 -11 -18 -3 -61 -9 -97 -14 -61
-9 -78 -12 -162 -25 -18 -3 -64 -12 -103 -20 -38 -8 -81 -17 -95 -19 -22 -5
-138 -32 -152 -37 -2 0 -10 -2 -18 -4 -8 -1 -42 -10 -75 -20 -33 -9 -67 -17
-75 -19 -8 -1 -35 -8 -60 -16 -25 -7 -50 -14 -55 -15 -54 -12 -430 -146 -531
-191 -16 -7 -66 -29 -111 -48 -176 -75 -522 -255 -643 -334 -14 -9 -28 -15
-32 -14 -5 1 -8 -2 -8 -8 0 -5 -7 -10 -15 -10 -8 0 -15 -3 -15 -8 0 -4 -16
-16 -35 -26 l-35 -19 0 -259 0 -258 733 -1 c402 0 752 -2 777 -4 25 -2 77 -6
115 -9 39 -2 70 -5 70 -6 0 -1 23 -3 50 -5 50 -4 65 -6 180 -27 33 -6 70 -12
82 -13 11 -2 30 -6 42 -10 11 -3 33 -8 48 -11 16 -3 59 -14 96 -25 37 -12 73
-22 80 -23 7 -2 26 -8 42 -15 17 -6 44 -16 60 -22 83 -30 304 -138 325 -159 3
-3 17 -11 32 -19 15 -8 36 -22 45 -31 10 -9 26 -21 34 -26 58 -33 228 -195
305 -289 45 -55 112 -155 148 -220 41 -73 44 -79 67 -130 12 -27 27 -61 34
-75 14 -28 63 -168 68 -196 2 -11 7 -26 10 -34 8 -21 25 -88 32 -129 3 -19 8
-38 10 -42 3 -4 7 -24 10 -45 3 -22 8 -52 11 -69 2 -16 7 -46 9 -65 2 -19 6
-44 9 -56 18 -85 26 -484 13 -632 -7 -79 -50 -317 -57 -317 -1 0 -3 -7 -5 -15
-2 -8 -6 -24 -9 -35 -23 -94 -144 -354 -199 -430 -4 -5 -30 -41 -57 -80 -27
-38 -60 -83 -72 -99 -37 -47 -220 -229 -263 -261 -22 -17 -45 -35 -52 -41 -29
-27 -220 -148 -292 -185 l-44 -22 39 -14 c22 -8 47 -19 56 -24 10 -5 23 -9 30
-9 7 0 43 -16 81 -35 37 -18 67 -31 67 -28 0 3 8 -1 18 -9 9 -8 46 -32 82 -54
77 -45 204 -147 275 -218 57 -58 180 -209 212 -262 70 -114 108 -180 108 -186
0 -4 6 -13 13 -19 6 -7 12 -17 12 -22 0 -4 10 -29 22 -55 12 -26 22 -49 23
-52 1 -3 8 -21 17 -40 8 -19 20 -53 27 -75 7 -22 15 -47 18 -55 7 -19 8 -22
29 -95 18 -66 17 -63 29 -120 5 -22 10 -42 10 -45 3 -10 18 -106 21 -125 1
-11 3 -20 4 -20 13 0 34 -553 22 -578 -2 -5 -6 -41 -8 -80 -3 -78 -11 -160
-18 -193 -2 -12 -7 -45 -11 -75 -4 -30 -9 -57 -11 -60 -2 -3 -6 -24 -8 -45 -7
-50 -50 -218 -78 -297 -11 -34 -21 -68 -21 -74 0 -7 -4 -13 -9 -13 -4 0 -7 -3
-6 -8 6 -31 -137 -318 -218 -434 -131 -188 -268 -334 -434 -461 -30 -23 -58
-46 -62 -52 -4 -5 -8 -6 -8 -1 0 5 -9 1 -21 -10 -60 -55 -373 -207 -489 -239
-14 -3 -34 -10 -45 -15 -25 -11 -156 -44 -220 -56 -16 -3 -48 -10 -70 -15 -22
-6 -47 -10 -55 -10 -8 0 -46 -5 -85 -10 -96 -14 -206 -22 -292 -23 -40 -1 -73
-5 -73 -9 0 -4 -8 -4 -17 2 -10 5 -26 5 -40 0 -13 -5 -23 -5 -23 -1 0 4 -13 7
-29 7 -16 0 -27 -3 -24 -7 2 -5 -6 -4 -19 1 -15 5 -31 5 -41 0 -11 -7 -17 -6
-17 0 0 7 -8 7 -25 1 -14 -5 -25 -6 -25 -2 0 4 -25 7 -55 7 -30 0 -55 -3 -55
-7 0 -4 -10 -4 -23 1 -14 5 -30 5 -40 0 -11 -7 -17 -6 -17 0 0 7 -8 7 -25 1
-14 -5 -25 -6 -25 -2 0 4 -25 7 -55 7 -30 0 -55 -4 -55 -8 0 -5 -4 -5 -10 -2
-15 9 -80 12 -80 3 0 -4 -11 -3 -25 2 -16 6 -25 6 -25 0 0 -6 -9 -6 -22 -2
-23 9 -76 7 -85 -2 -3 -3 -16 -1 -29 4 -14 6 -26 6 -29 -1 -4 -5 -11 -6 -18
-2 -16 10 -57 10 -57 0 0 -4 -9 -3 -19 3 -14 7 -22 7 -26 0 -4 -7 -11 -7 -18
-2 -7 5 -21 6 -32 2 -11 -4 -29 -4 -40 0 -11 4 -29 4 -40 0 -11 -4 -30 -4 -42
1 -13 5 -25 4 -28 -2 -4 -5 -11 -6 -18 -2 -16 10 -57 10 -57 0 0 -4 -8 -3 -18
2 -13 7 -22 7 -29 0 -8 -8 -13 -8 -17 0 -5 7 -15 7 -32 1 -14 -6 -23 -6 -20
-1 4 5 -3 7 -14 4 -20 -5 -20 -14 -20 -357 l0 -351 35 -22 c19 -13 39 -23 45
-23 5 0 10 -4 10 -10 0 -5 7 -10 15 -10 8 0 15 -4 15 -9 0 -5 8 -11 17 -14 10
-4 38 -18 63 -33 115 -68 185 -107 355 -193 77 -39 143 -71 146 -71 4 0 45
-17 91 -39 82 -38 365 -151 379 -151 4 0 20 -5 36 -12 15 -6 30 -12 33 -12 3
-1 11 -5 18 -9 6 -5 12 -6 12 -3 0 3 16 -2 35 -10 19 -8 35 -11 35 -7 0 4 5 2
12 -5 7 -7 20 -12 30 -12 10 0 26 -4 36 -9 13 -7 93 -31 122 -36 15 -3 97 -27
110 -32 8 -3 19 -5 24 -4 5 1 21 -2 35 -7 24 -9 85 -23 151 -37 14 -2 59 -11
100 -20 41 -8 86 -17 100 -20 14 -3 45 -8 70 -11 25 -3 52 -7 60 -9 8 -3 42
-7 74 -11 33 -3 69 -8 80 -10 46 -9 110 -16 306 -31 138 -10 626 -10 765 0
168 13 207 16 240 21 27 4 62 8 160 20 17 2 50 7 75 11 25 4 56 9 70 11 38 5
92 14 120 20 14 3 39 8 55 11 17 2 77 16 135 30 58 13 112 26 120 28 56 12
193 49 230 62 25 8 52 16 60 18 40 9 360 119 388 134 9 5 44 20 77 32 67 25
137 56 240 105 88 42 128 58 138 56 4 -1 7 2 7 7 0 5 16 15 35 22 19 7 35 17
35 21 0 4 3 7 8 6 7 -3 182 90 192 101 3 3 12 7 20 9 8 2 22 9 30 16 8 7 38
26 65 42 80 46 82 47 147 88 35 22 65 42 68 46 3 3 23 17 45 30 22 13 45 28
50 32 9 8 160 119 225 165 27 20 245 199 271 223 9 8 54 49 99 90 296 267 630
651 835 960 28 41 53 77 56 80 3 3 38 59 79 125 40 66 81 132 91 147 11 15 19
29 19 32 0 3 14 28 30 56 36 62 157 299 198 390 16 36 39 86 50 111 12 25 31
70 42 100 12 30 27 65 33 79 5 14 11 30 13 35 4 13 53 145 61 165 3 8 7 20 8
25 0 6 6 23 13 38 7 16 12 34 12 41 0 6 5 17 12 24 7 7 9 12 5 12 -3 0 1 19 9
43 9 23 18 51 20 62 7 27 8 32 28 96 9 31 18 65 20 75 2 11 14 55 25 99 12 44
24 96 27 115 3 19 12 62 19 95 16 69 24 109 30 145 2 14 6 39 9 55 2 17 10 66
16 110 6 44 13 96 16 115 3 19 7 58 10 85 2 28 7 68 9 90 14 121 20 269 19
520 0 359 -12 548 -55 825 -5 36 -11 79 -14 95 -4 35 -9 64 -30 165 -9 41 -18
89 -21 105 -3 17 -12 57 -21 90 -8 33 -16 69 -18 80 -2 11 -9 36 -15 55 -6 19
-13 46 -16 60 -8 38 -34 132 -44 155 -6 17 -25 76 -36 120 -21 81 -174 467
-188 477 -6 4 -8 8 -4 8 17 0 -197 433 -279 562 -12 21 -23 40 -23 42 0 15
-263 418 -292 447 -8 8 -23 29 -33 47 -11 17 -23 32 -27 32 -4 0 -8 4 -8 10 0
9 -17 31 -55 74 -5 6 -23 29 -39 51 -17 22 -32 42 -35 45 -4 3 -28 32 -56 65
-204 245 -494 532 -734 725 -24 19 -48 40 -55 45 -38 34 -256 195 -264 195 -6
0 -12 4 -14 8 -4 10 -167 122 -178 122 -5 0 -10 4 -12 8 -3 8 -115 78 -203
127 -22 13 -83 47 -135 76 -132 75 -362 187 -500 244 -136 57 -236 97 -250
100 -14 4 -273 91 -315 106 -20 7 -101 31 -120 35 -5 1 -39 10 -75 19 -36 9
-75 19 -87 21 -12 2 -35 9 -50 15 -16 6 -29 10 -31 9 -2 -1 -29 4 -132 25 -31
7 -115 23 -155 30 -16 2 -41 7 -55 10 -13 2 -42 7 -65 10 -22 3 -58 8 -80 12
-22 4 -56 8 -75 9 -19 1 -35 3 -35 4 0 3 -43 8 -135 15 -47 4 -103 9 -125 11
-49 6 -682 14 -687 9z m2897 -7359 c55 -4 111 -9 125 -11 14 -2 41 -7 60 -10
19 -3 42 -9 50 -12 8 -3 24 -8 34 -10 11 -2 33 -10 49 -18 17 -8 34 -15 38
-15 4 0 20 -5 36 -11 15 -6 30 -10 32 -9 2 1 7 -2 10 -7 3 -5 36 -26 73 -46
36 -20 90 -55 120 -78 66 -51 218 -208 218 -226 0 -7 4 -13 8 -13 8 0 112
-173 112 -187 0 -5 10 -26 21 -48 12 -22 21 -40 19 -40 -1 0 4 -20 11 -45 17
-62 16 -59 28 -120 6 -30 12 -75 15 -98 2 -24 7 -46 10 -49 2 -3 1 -16 -4 -29
-6 -14 -6 -26 1 -29 5 -4 7 -11 3 -17 -3 -5 -8 -35 -9 -66 -16 -312 -186 -626
-440 -814 -27 -21 -55 -41 -60 -45 -38 -29 -225 -119 -267 -129 -10 -2 -27 -6
-38 -8 -11 -3 -24 -7 -28 -10 -4 -2 -27 -7 -52 -11 -24 -4 -51 -10 -60 -14 -8
-3 -50 -6 -92 -6 -43 0 -78 -4 -78 -8 0 -5 -5 -5 -10 -2 -6 4 -40 8 -76 11
-57 3 -118 12 -189 28 -32 7 -117 36 -152 52 -17 8 -34 14 -38 14 -13 0 -185
104 -185 112 0 4 -7 8 -15 8 -9 0 -18 7 -21 15 -4 8 -11 15 -17 15 -32 0 -267
280 -267 318 0 6 -3 12 -7 14 -7 3 -43 72 -64 123 -15 36 -41 120 -45 145 -3
14 -7 31 -9 38 -26 72 -26 452 -1 452 5 0 7 3 4 6 -4 3 -2 20 3 37 6 18 12 41
14 52 4 18 11 37 31 90 4 11 8 22 9 25 8 33 112 213 126 218 5 2 9 10 9 17 0
25 194 210 275 263 44 29 86 57 93 62 6 6 12 9 12 6 0 -3 26 8 58 23 54 27
107 47 148 56 10 2 34 8 52 14 17 5 32 7 32 5 0 -3 5 -2 12 2 14 9 40 12 110
16 27 2 48 7 48 11 0 5 3 6 8 4 4 -3 52 -8 107 -11z"/>
<path d="M1280 7603 c0 -1234 1 -1303 18 -1304 64 -4 1379 -4 1386 0 6 2 38 6
73 7 34 1 67 6 73 9 6 4 26 9 43 11 132 19 349 120 466 219 41 34 125 121 151
155 14 17 32 39 41 48 38 41 133 215 154 282 4 14 11 30 15 35 6 8 21 59 25
85 0 3 3 10 7 15 3 6 9 26 12 45 3 19 8 46 11 60 34 147 38 506 10 685 -34
205 -86 361 -168 500 -41 71 -154 189 -222 234 -22 14 -42 29 -45 32 -21 26
-246 119 -320 133 -14 3 -61 11 -105 19 -44 9 -87 16 -95 16 -56 3 -155 10
-155 11 0 0 -71 2 -158 3 -86 1 -157 -2 -157 -6 0 -5 -5 -5 -11 -2 -14 9 -469
12 -469 3 0 -4 -7 -5 -15 -2 -24 10 -465 10 -465 1 0 -5 -5 -5 -11 -1 -7 4
-29 7 -50 8 l-39 1 0 -1302z"/>
<path d="M1327 5432 l-47 -3 2 -1472 3 -1472 745 0 c410 -1 774 3 810 7 36 5
79 10 95 12 72 8 189 44 295 89 14 6 27 11 30 12 14 3 83 43 144 84 85 55 227
196 280 276 22 33 47 71 56 85 30 46 88 174 110 245 12 39 26 79 30 90 8 19
22 83 25 117 1 9 5 24 9 33 3 9 9 42 12 73 3 31 9 62 12 67 8 12 12 496 5 508
-3 5 -7 32 -8 60 -4 53 -11 113 -20 157 -3 14 -7 43 -10 64 -3 22 -10 45 -15
51 -5 7 -8 14 -5 17 3 3 -4 36 -16 74 -12 38 -22 74 -24 79 -3 16 -16 46 -55
130 -98 214 -252 378 -450 481 -30 15 -58 27 -62 26 -5 -1 -8 2 -8 8 0 6 -3 9
-7 8 -11 -2 -66 13 -78 22 -13 10 -177 48 -236 55 -24 3 -96 8 -159 11 -123 6
-1383 11 -1463 6z"/>
</g>
</svg>
