<svg width="71" height="65" viewBox="0 0 71 65" fill="none" xmlns="http://www.w3.org/2000/svg">
<rect width="71" height="65" rx="21" fill="white"/>
<path d="M45.9959 11C53.6445 11.0228 59.8392 17.1161 59.8624 24.6396V28.0495L59.847 28.2752C59.735 29.0871 59.0275 29.7129 58.1714 29.7129L58.1503 29.6713L57.8841 29.6506C57.5342 29.5957 57.2082 29.4337 56.9545 29.1841C56.6374 28.8722 56.4592 28.4491 56.4592 28.0079V24.6396C56.4019 18.9789 51.7507 14.4039 45.9959 14.3475H25.9359C20.181 14.4039 15.5298 18.9789 15.4726 24.6396V39.3604C15.5298 45.0211 20.181 49.5961 25.9359 49.6525H45.9959C51.7507 49.5961 56.4019 45.0211 56.4592 39.3604C56.556 38.5079 57.2887 37.8631 58.1608 37.8631C59.0329 37.8631 59.7657 38.5079 59.8624 39.3604C59.8392 46.8839 53.6445 52.9772 45.9959 53H25.9359C18.2824 52.9885 12.081 46.8886 12.0693 39.3604V24.6396C12.0693 17.1067 18.2776 11 25.9359 11H45.9959ZM22.3315 23.5695C22.7767 23.5226 23.2223 23.6534 23.5684 23.9327L33.5033 31.6673C34.7443 32.6251 36.4899 32.6251 37.7309 31.6673L47.5601 23.9327H47.5812L47.7885 23.7935C48.5026 23.3855 49.4304 23.5361 49.9698 24.1822C50.2525 24.5287 50.3825 24.972 50.3309 25.4133C50.2793 25.8547 50.0503 26.2574 49.695 26.5317L39.8659 34.2871C37.3666 36.2654 33.8042 36.2654 31.305 34.2871L21.4546 26.5317L21.2727 26.3616C20.7173 25.7605 20.6721 24.8367 21.201 24.1822C21.4791 23.8371 21.8864 23.6164 22.3315 23.5695Z" fill="black"/>
</svg>
