<svg width="580" height="380" viewBox="0 0 580 380" fill="none" xmlns="http://www.w3.org/2000/svg">
<g clip-path="url(#clip0)">
<path d="M458.15 261.699C455.97 283.673 443.578 305.761 440.365 308.407C437.038 311.053 431.415 309.557 427.399 309.557C418.105 309.557 109.567 309.557 109.567 309.557C109.452 309.327 109.338 309.212 109.338 309.212C101.421 295.407 92.4708 281.947 87.996 266.416C75.4892 223.274 115.304 194.053 140.891 166.442C155.578 150.681 156.726 127.903 169.462 110.991C186.903 87.8673 216.391 75.7876 244.502 73.9469C276.859 71.7611 304.282 83.4956 323.903 109.726C340.082 131.354 349.261 164.717 374.619 177.717C383.683 182.434 394.239 182.894 404.107 185.655C436.349 194.398 461.477 227.761 458.15 261.699Z" fill="#FDD8C2"/>
<path d="M344.556 161.15C344.442 162.071 344.442 162.991 344.442 163.911L344.556 161.15Z" fill="#F4A171"/>
<path d="M453.331 309.097C454.593 308.637 455.855 308.637 457.002 308.637C458.265 308.637 459.527 308.752 460.674 308.982C461.248 309.097 461.592 309.557 461.477 310.133C461.363 310.593 461.133 310.823 460.674 310.938C459.412 311.168 458.15 311.283 457.002 311.283C455.74 311.283 454.478 311.283 453.331 310.823C452.872 310.708 452.642 310.133 452.757 309.673C452.872 309.327 453.101 309.097 453.331 309.097Z" fill="#91755D"/>
<path d="M115.419 309.097C129.303 308.752 143.072 308.637 156.955 308.637H198.491L281.564 308.522L364.636 308.407H406.172C420.056 308.407 433.825 308.407 447.708 308.752C448.282 308.752 448.741 309.212 448.741 309.788C448.741 310.363 448.282 310.823 447.708 310.823C433.825 311.168 420.056 311.168 406.172 311.168H364.636L281.564 311.053L198.491 310.938H156.955C143.072 310.938 129.303 310.938 115.419 310.478C114.96 310.478 114.616 310.133 114.616 309.673C114.616 309.442 114.96 309.097 115.419 309.097Z" fill="#91755D"/>
<path d="M107.158 308.752C107.387 308.752 107.502 308.752 107.731 308.752C107.846 308.752 107.961 308.752 107.961 308.867C108.076 308.867 108.19 308.867 108.19 308.982C108.764 309.327 108.879 310.018 108.649 310.593C108.535 310.708 108.42 310.938 108.19 311.053C108.076 311.053 107.961 311.168 107.961 311.168C107.846 311.168 107.731 311.283 107.731 311.283C107.502 311.283 107.387 311.283 107.158 311.283C106.469 311.168 106.125 310.478 106.24 309.903C106.355 309.097 106.699 308.752 107.158 308.752Z" fill="#91755D"/>
<path d="M93.8477 308.982C94.7656 308.752 95.6836 308.752 96.4867 308.637C97.4047 308.637 98.3226 308.637 99.1258 308.867C99.6995 308.982 99.929 309.557 99.8142 310.133C99.6995 310.478 99.47 310.708 99.1258 310.823C98.2079 311.053 97.2899 311.053 96.4867 311.053C95.5688 311.053 94.6509 310.938 93.8477 310.708C93.3887 310.593 93.0445 310.133 93.1593 309.673C93.274 309.327 93.6182 309.097 93.8477 308.982Z" fill="#91755D"/>
<path d="M243.355 326.814C247.715 326.469 251.961 326.354 256.321 326.354L269.286 326.239L295.218 326.124H321.149H334.115C338.475 326.124 342.721 326.124 347.081 326.469C347.654 326.469 348.113 327.044 347.999 327.619C347.999 328.195 347.54 328.54 347.081 328.54C342.721 328.885 338.475 328.885 334.115 328.885H321.149H295.218L269.286 328.77L256.321 328.655C251.961 328.655 247.715 328.655 243.355 328.195C242.896 328.195 242.552 327.735 242.667 327.274C242.667 327.159 242.896 326.814 243.355 326.814Z" fill="#91755D"/>
<path d="M200.671 326.699C205.146 326.469 209.507 326.469 213.981 326.354C218.456 326.354 222.816 326.354 227.291 326.584C227.865 326.584 228.209 327.044 228.209 327.619C228.209 328.08 227.75 328.54 227.291 328.54C222.816 328.77 218.456 328.77 213.981 328.77C209.507 328.77 205.146 328.655 200.671 328.425C200.213 328.425 199.868 327.965 199.868 327.504C199.868 327.159 200.213 326.814 200.671 326.699Z" fill="#91755D"/>
<path d="M123.336 93.3894C125.554 93.3894 127.352 91.5866 127.352 89.3628C127.352 87.139 125.554 85.3363 123.336 85.3363C121.118 85.3363 119.32 87.139 119.32 89.3628C119.32 91.5866 121.118 93.3894 123.336 93.3894Z" fill="#FDD8C2"/>
<path d="M355.457 71.7611C359.703 71.7611 363.144 68.3101 363.144 64.0531C363.144 59.7961 359.703 56.3451 355.457 56.3451C351.211 56.3451 347.769 59.7961 347.769 64.0531C347.769 68.3101 351.211 71.7611 355.457 71.7611Z" fill="#FDD8C2"/>
<path d="M424.99 158.85C428.348 158.85 431.071 156.12 431.071 152.752C431.071 149.385 428.348 146.655 424.99 146.655C421.631 146.655 418.908 149.385 418.908 152.752C418.908 156.12 421.631 158.85 424.99 158.85Z" fill="#FDD8C2"/>
<path d="M127.696 148.15C130.548 148.15 132.86 145.833 132.86 142.973C132.86 140.114 130.548 137.796 127.696 137.796C124.845 137.796 122.533 140.114 122.533 142.973C122.533 145.833 124.845 148.15 127.696 148.15Z" fill="#FDD8C2"/>
<path d="M348.687 128.248C350.525 128.248 352.015 126.754 352.015 124.912C352.015 123.069 350.525 121.575 348.687 121.575C346.849 121.575 345.36 123.069 345.36 124.912C345.36 126.754 346.849 128.248 348.687 128.248Z" fill="#FDD8C2"/>
<path d="M449.43 190.372C451.267 190.372 452.757 188.878 452.757 187.035C452.757 185.193 451.267 183.699 449.43 183.699C447.592 183.699 446.102 185.193 446.102 187.035C446.102 188.878 447.592 190.372 449.43 190.372Z" fill="#FDD8C2"/>
<path d="M385.748 100.062C387.459 100.062 388.846 98.6712 388.846 96.9557C388.846 95.2402 387.459 93.8495 385.748 93.8495C384.037 93.8495 382.65 95.2402 382.65 96.9557C382.65 98.6712 384.037 100.062 385.748 100.062Z" fill="#FDD8C2"/>
<path d="M463.313 48.7522C464.897 48.7522 466.182 47.4645 466.182 45.8761C466.182 44.2877 464.897 43 463.313 43C461.729 43 460.445 44.2877 460.445 45.8761C460.445 47.4645 461.729 48.7522 463.313 48.7522Z" fill="#FDD8C2"/>
<path d="M155.578 109.496C157.163 109.496 158.447 108.208 158.447 106.619C158.447 105.031 157.163 103.743 155.578 103.743C153.994 103.743 152.71 105.031 152.71 106.619C152.71 108.208 153.994 109.496 155.578 109.496Z" fill="#FDD8C2"/>
<path d="M183.46 52.8938C185.045 52.8938 186.329 51.6061 186.329 50.0177C186.329 48.4293 185.045 47.1416 183.46 47.1416C181.876 47.1416 180.592 48.4293 180.592 50.0177C180.592 51.6061 181.876 52.8938 183.46 52.8938Z" fill="#FDD8C2"/>
<path d="M55.8685 133.77C57.4528 133.77 58.737 132.482 58.737 130.894C58.737 129.305 57.4528 128.018 55.8685 128.018C54.2843 128.018 53 129.305 53 130.894C53 132.482 54.2843 133.77 55.8685 133.77Z" fill="#FDD8C2"/>
<path d="M286.612 91.0885C286.957 91.4336 287.416 91.8938 287.76 92.2389C289.94 94.4248 292.349 96.7257 294.529 99.1416C295.562 100.177 296.251 100.292 297.627 99.6018C302.217 97.4159 306.807 95.4602 311.626 93.3894C311.626 89.5929 311.511 85.4513 311.511 81.1947C321.379 81.0796 331.132 81.0796 340.999 80.9646C340.999 85.1062 341.114 89.2478 341.114 92.9292C341.917 93.2743 342.721 93.6195 343.524 93.9646M263.09 137.566C264.926 137.566 266.762 137.566 268.713 137.566C269.286 135.841 269.631 134.23 270.319 132.619C271.696 129.398 273.073 126.177 274.565 123.071C275.138 121.92 275.023 121.23 274.106 120.425C271.467 118.009 268.827 115.478 266.303 113.062C270.893 108.345 275.368 103.743 279.957 99.1416L263.09 137.566ZM256.321 138.602C256.321 138.257 256.321 137.911 256.321 137.566C256.55 137.566 256.665 137.566 256.894 137.566L256.321 138.602ZM353.965 98.4513C354.768 98.7965 355.572 99.1416 356.375 99.4867C356.834 99.7168 357.752 99.2566 358.211 98.9115C360.735 96.3805 363.259 93.7345 365.669 91.2035C372.783 98.3363 379.667 105.124 386.781 112.372C384.142 114.903 381.159 117.779 378.405 120.425C380.815 126.062 382.995 131.239 385.289 136.646C389.076 136.646 393.207 136.531 397.567 136.531C397.567 137.681 397.567 138.372 397.567 139.177C397.681 148.15 397.681 157.009 397.796 166.212C393.551 166.212 389.42 166.327 385.519 166.327C383.339 171.85 381.159 177.142 378.864 182.779C381.618 185.31 384.716 188.186 387.699 190.947C380.7 198.195 373.93 205.097 366.931 212.345C364.407 209.814 361.882 207.398 359.473 204.752C358.555 203.717 357.866 203.602 356.489 204.292C351.9 206.478 347.31 208.434 342.376 210.619C342.376 214.301 342.491 218.442 342.491 222.699C332.623 222.814 322.87 222.814 312.888 222.929C312.888 218.788 312.773 214.646 312.773 210.965C307.495 208.664 302.676 206.478 297.742 204.522C297.283 204.292 296.251 204.637 295.792 205.097C293.153 207.628 290.743 210.274 288.219 212.92C281.22 205.903 274.335 199 267.106 191.752C269.401 189.566 271.926 186.92 274.565 184.504C275.597 183.584 275.597 182.779 275.023 181.513C272.843 176.911 270.893 172.31 268.713 167.363C265.041 167.363 260.91 167.478 256.665 167.478C256.55 160 256.55 152.522 256.435 145.044L353.965 98.4513Z" stroke="#91755D" stroke-width="3.0862" stroke-miterlimit="10" stroke-linecap="round" stroke-linejoin="round"/>
<path d="M308.757 133.77C308.872 133.655 308.987 133.54 309.102 133.425" stroke="#91755D" stroke-width="3.0862" stroke-miterlimit="10" stroke-linecap="round" stroke-linejoin="round"/>
<path d="M315.757 128.938C318.969 127.442 322.526 126.637 326.313 126.522C340.426 126.407 352.015 137.796 352.129 152.062C352.244 166.327 340.885 177.832 326.657 177.947C312.429 178.062 300.955 166.673 300.84 152.407C300.84 147 302.447 142.053 305.2 137.912" stroke="#91755D" stroke-width="3.0862" stroke-miterlimit="10" stroke-linecap="round" stroke-linejoin="round"/>
<path opacity="0.3" d="M342.721 109.726C342.95 109.841 343.294 109.956 343.524 110.071" stroke="#D6AB85" stroke-width="2.0575" stroke-miterlimit="10" stroke-linecap="round" stroke-linejoin="round"/>
<path opacity="0.3" d="M296.251 118.354C299.349 115.593 302.906 113.177 306.921 111.221C315.412 107.08 324.592 105.929 333.312 107.195" stroke="#D6AB85" stroke-width="2.0575" stroke-miterlimit="10" stroke-linecap="round" stroke-linejoin="round"/>
<path opacity="0.3" d="M295.103 185.195C291.202 181.513 287.989 177.027 285.58 171.965C280.302 161.035 279.843 148.956 283.285 138.257" stroke="#D6AB85" stroke-width="2.0575" stroke-miterlimit="10" stroke-linecap="round" stroke-linejoin="round"/>
<path opacity="0.3" d="M355.686 117.434C360.505 121.46 364.521 126.522 367.39 132.619C378.29 155.283 368.767 182.434 346.163 193.363C334.803 198.77 322.411 199.115 311.511 195.319" stroke="#D6AB85" stroke-width="2.0575" stroke-miterlimit="10" stroke-linecap="round" stroke-linejoin="round"/>
<path d="M426.481 161.15C426.481 161.381 426.596 161.726 426.596 161.956C426.94 163.566 427.285 165.292 427.514 167.018C427.629 167.823 427.973 168.053 428.776 168.168C431.415 168.513 434.054 169.088 436.808 169.549C437.955 167.823 439.103 165.982 440.365 164.142C444.725 167.018 449.085 169.894 453.56 172.885C452.298 174.726 451.151 176.566 450.003 178.177C450.233 178.522 450.462 178.982 450.806 179.327M402.271 174.726C403.074 175.301 403.877 175.761 404.795 176.336C405.484 175.761 406.172 175.071 406.975 174.611C408.467 173.575 410.073 172.54 411.68 171.619C412.254 171.274 412.368 170.929 412.254 170.354C411.795 168.513 411.336 166.558 410.991 164.717C414.434 164.027 417.761 163.336 421.203 162.646L402.271 174.726ZM398.944 173.115C399.058 173 399.173 172.77 399.288 172.655C399.403 172.77 399.517 172.77 399.517 172.885L398.944 173.115ZM454.134 184.389C454.363 184.735 454.593 185.195 454.937 185.54C455.052 185.77 455.626 185.885 455.97 185.77C457.92 185.425 459.756 184.965 461.592 184.619C462.625 189.912 463.657 194.973 464.69 200.265C462.739 200.611 460.559 200.956 458.609 201.301C458.035 204.522 457.461 207.398 456.888 210.504C458.609 211.655 460.445 212.805 462.395 214.071C462.051 214.531 461.822 214.876 461.592 215.221C458.953 219.248 456.314 223.159 453.675 227.301C451.839 226.035 450.003 224.885 448.167 223.735C445.528 225.575 443.004 227.186 440.365 229.027C440.824 230.982 441.398 233.168 441.857 235.239C436.579 236.389 431.53 237.425 426.252 238.46C425.908 236.619 425.449 234.779 425.219 232.823C425.104 232.133 424.875 231.788 424.072 231.673C421.433 231.327 418.794 230.752 415.925 230.292C414.893 231.903 413.63 233.743 412.368 235.699C408.008 232.823 403.648 229.947 399.173 226.956C400.32 225.115 401.583 223.274 402.615 221.664C401.009 219.133 399.403 216.717 397.911 214.301C397.796 214.071 397.222 213.956 396.878 213.956C394.928 214.301 393.092 214.761 391.256 215.106C390.223 209.929 389.191 204.752 388.158 199.46C389.879 199.115 391.715 198.77 393.666 198.425C394.469 198.31 394.583 197.965 394.698 197.274C395.042 194.628 395.616 191.982 396.075 189.106C394.469 188.071 392.633 186.805 390.682 185.54C392.862 182.204 395.042 178.867 397.222 175.531L454.134 184.389Z" stroke="#91755D" stroke-width="3.0862" stroke-miterlimit="10" stroke-linecap="round" stroke-linejoin="round"/>
<path d="M423.613 186.575C423.728 186.575 423.842 186.575 423.842 186.575" stroke="#91755D" stroke-width="3.0862" stroke-miterlimit="10" stroke-linecap="round" stroke-linejoin="round"/>
<path d="M428.202 186.575C430.038 186.92 431.874 187.611 433.595 188.646C439.906 192.788 441.627 201.301 437.496 207.628C433.366 213.956 424.875 215.681 418.564 211.54C412.254 207.398 410.532 198.885 414.663 192.558C416.269 190.142 418.45 188.416 420.859 187.381" stroke="#91755D" stroke-width="3.0862" stroke-miterlimit="10" stroke-linecap="round" stroke-linejoin="round"/>
<path d="M401.124 239.956V221.549C401.124 220.513 401.927 219.593 403.074 219.593H474.673C475.705 219.593 476.623 220.398 476.623 221.549V307.602C476.623 308.637 475.82 309.558 474.673 309.558H403.074C402.042 309.558 401.124 308.752 401.124 307.602V248.929" fill="white"/>
<path d="M400.435 239.956C399.976 236.619 399.861 233.283 399.861 229.947V225V222.469V221.894V221.549C399.861 221.434 399.861 221.204 399.861 221.088C399.976 220.398 400.32 219.823 400.779 219.363C401.238 218.903 401.927 218.558 402.615 218.558C402.96 218.558 403.189 218.558 403.418 218.558H403.992H406.516H411.45H421.433L461.133 218.442H471.116H473.64H474.214C474.443 218.442 474.558 218.442 475.017 218.442C475.705 218.558 476.394 218.788 476.853 219.363C477.312 219.823 477.656 220.513 477.771 221.204C477.771 221.319 477.771 221.549 477.771 221.664V222.009V222.584V225.115V245.018L477.885 284.823V304.726V307.257V307.602V307.717V307.947C477.885 308.292 477.771 308.637 477.656 308.982C477.312 309.673 476.853 310.248 476.164 310.593C475.82 310.823 475.476 310.938 475.131 310.938C474.902 310.938 474.787 310.938 474.558 310.938H474.214H472.951H470.427H460.445L420.744 311.053H410.762H405.828H403.304H402.615C402.271 311.053 401.927 310.938 401.583 310.823C400.894 310.593 400.32 310.018 399.861 309.442C399.632 309.097 399.517 308.752 399.403 308.407C399.288 308.062 399.288 307.602 399.288 307.487V306.221V303.69V298.743V288.734V248.929C399.288 248.124 399.976 247.434 400.779 247.434C401.583 247.434 402.271 248.124 402.271 248.929V288.734V298.743V303.69V306.221V307.487C402.271 307.717 402.271 307.717 402.271 307.832V307.947C402.271 308.062 402.386 308.062 402.501 308.062H402.615H403.189H405.713H410.647H420.63L460.33 308.177H470.312H472.837H474.099H474.443C474.443 308.177 474.443 308.177 474.558 308.177H474.673C474.787 308.177 474.787 308.062 474.902 307.947V307.832V307.717V307.372V304.841V284.938L475.017 245.133V225.23V222.699V222.124V221.779V221.664C475.017 221.549 474.902 221.434 474.787 221.319C474.673 221.204 474.558 221.204 474.443 221.204H473.296H470.771H460.789L421.089 221.088H411.106H406.172H403.648H402.501C402.386 221.088 402.156 221.204 402.042 221.319C401.927 221.434 401.812 221.549 401.812 221.664V221.779V222.124V222.699V225.23V230.177C401.812 233.513 401.697 236.85 401.238 240.186C401.238 240.531 400.894 240.761 400.55 240.761C400.779 240.416 400.55 240.186 400.435 239.956Z" fill="#91755D"/>
<path d="M401.583 248.929H476.394" stroke="#91755D" stroke-width="2.5719" stroke-miterlimit="10" stroke-linecap="round" stroke-linejoin="round"/>
<path d="M408.697 277.345C414.319 276.31 419.941 276.54 425.678 276.425L442.66 276.31C453.904 276.31 465.264 276.31 476.508 276.425C477.312 276.425 478 277.115 478 277.92C478 278.726 477.312 279.416 476.508 279.416C465.264 279.646 453.904 279.531 442.66 279.531L425.678 279.416C420.056 279.301 414.434 279.531 408.697 278.496C408.352 278.381 408.123 278.15 408.238 277.805C408.238 277.575 408.467 277.345 408.697 277.345Z" fill="#91755D"/>
<path d="M462.625 238.805C465.033 238.805 466.985 236.848 466.985 234.434C466.985 232.019 465.033 230.062 462.625 230.062C460.217 230.062 458.265 232.019 458.265 234.434C458.265 236.848 460.217 238.805 462.625 238.805Z" fill="#FFBB94" stroke="#91755D" stroke-width="2.5719" stroke-miterlimit="10" stroke-linecap="round" stroke-linejoin="round"/>
<path d="M449.2 234.779C446.446 234.894 443.693 235.009 441.053 235.124C438.3 235.239 435.546 235.239 432.907 235.239C430.153 235.239 427.399 235.239 424.76 235.239C422.007 235.239 419.253 235.124 416.614 234.434C416.269 234.319 416.04 233.973 416.155 233.628C416.269 233.398 416.384 233.168 416.614 233.168C419.367 232.478 422.121 232.363 424.76 232.363C427.514 232.363 430.268 232.363 432.907 232.363C435.661 232.363 438.414 232.478 441.053 232.478C443.807 232.593 446.561 232.708 449.2 232.823C449.774 232.823 450.118 233.283 450.118 233.858C450.003 234.319 449.659 234.664 449.2 234.779Z" fill="#91755D"/>
<path d="M462.625 268.602C465.033 268.602 466.985 266.645 466.985 264.23C466.985 261.816 465.033 259.858 462.625 259.858C460.217 259.858 458.265 261.816 458.265 264.23C458.265 266.645 460.217 268.602 462.625 268.602Z" fill="#FFBB94" stroke="#91755D" stroke-width="2.5719" stroke-miterlimit="10" stroke-linecap="round" stroke-linejoin="round"/>
<path d="M449.2 264.345C446.446 264.575 443.693 264.69 441.053 264.805C438.3 264.92 435.546 264.92 432.907 265.035C430.153 265.035 427.399 265.035 424.76 265.035C422.007 264.92 419.253 264.805 416.614 264.23C416.269 264.115 416.04 263.77 416.155 263.425C416.155 263.195 416.384 262.965 416.614 262.965C419.367 262.389 422.121 262.159 424.76 262.159C427.514 262.159 430.268 262.159 432.907 262.159C435.661 262.159 438.414 262.274 441.053 262.389C443.807 262.504 446.561 262.619 449.2 262.85C449.659 262.85 450.003 263.31 450.003 263.77C449.889 264 449.544 264.345 449.2 264.345Z" fill="#91755D"/>
<path d="M462.625 298.398C465.033 298.398 466.985 296.441 466.985 294.027C466.985 291.612 465.033 289.655 462.625 289.655C460.217 289.655 458.265 291.612 458.265 294.027C458.265 296.441 460.217 298.398 462.625 298.398Z" fill="#FFBB94" stroke="#91755D" stroke-width="2.5719" stroke-miterlimit="10" stroke-linecap="round" stroke-linejoin="round"/>
<path d="M449.2 293.912C446.446 294.142 443.693 294.257 441.054 294.487C438.3 294.602 435.546 294.717 432.907 294.832C430.153 294.947 427.399 294.947 424.76 294.947C422.007 294.947 419.253 294.832 416.614 294.257C416.155 294.142 415.925 293.796 416.04 293.336C416.155 292.991 416.384 292.761 416.614 292.761C419.367 292.186 422.121 292.071 424.76 292.071C427.514 292.071 430.268 292.071 432.907 292.186C435.661 292.301 438.414 292.301 441.054 292.531C443.807 292.646 446.561 292.876 449.2 293.106C449.544 293.106 449.659 293.336 449.659 293.681C449.659 293.681 449.43 293.796 449.2 293.912Z" fill="#91755D"/>
<path d="M435.316 208.664L435.431 303.92C435.431 306.912 433.022 309.212 430.153 309.212H333.197C330.214 309.212 327.919 306.796 327.919 303.92V186.575C327.919 183.584 330.329 181.283 333.197 181.283H408.238" fill="#FDD8C2"/>
<path d="M408.926 181.168L436.005 208.204" stroke="#91755D" stroke-width="2.5719" stroke-miterlimit="10" stroke-linecap="round" stroke-linejoin="round"/>
<path d="M437.497 208.664V258.018V282.753V295.063V301.275V302.771C437.497 303.346 437.497 303.691 437.497 304.496C437.382 305.762 436.808 307.027 436.005 308.063C435.202 309.098 434.054 309.903 432.792 310.249C432.218 310.479 431.53 310.594 430.842 310.594C430.268 310.594 429.809 310.594 429.235 310.594H423.039H410.991H386.322H337.098H334C332.853 310.594 331.361 310.249 330.329 309.558C329.181 308.868 328.263 307.833 327.69 306.682C327.345 306.107 327.231 305.417 327.116 304.841C327.001 304.496 327.001 304.151 327.001 303.806V303.001V290.691V265.957V216.718V191.983V188.877V187.381V186.576C327.001 186.346 327.001 185.886 327.116 185.656C327.46 183.01 329.411 180.709 331.935 180.018C332.509 179.788 333.197 179.788 333.886 179.788H335.377H338.475H344.671C352.933 179.788 361.079 179.788 369.34 179.788L381.618 179.903C385.748 179.903 389.879 180.018 393.895 180.479C394.354 180.479 394.698 180.939 394.698 181.399C394.698 181.859 394.354 182.089 393.895 182.204C389.764 182.549 385.634 182.664 381.618 182.779L369.34 182.895C361.079 183.01 352.933 182.895 344.671 182.895H338.475H335.377H333.886C333.541 182.895 333.197 182.895 332.738 183.01C331.361 183.47 330.214 184.735 329.984 186.231C329.984 186.461 329.984 186.576 329.984 186.806V187.611V189.107V192.213V216.718V266.072V290.806V303.116V303.806C329.984 304.036 329.984 304.151 329.984 304.381C329.984 304.726 330.099 305.072 330.329 305.417C330.673 306.107 331.132 306.682 331.82 307.027C332.509 307.372 333.197 307.603 334 307.603H337.098H386.322H410.991H423.269H429.465C429.924 307.603 430.497 307.603 430.956 307.603C431.301 307.603 431.645 307.487 432.104 307.372C432.792 307.142 433.481 306.682 433.94 306.107C434.399 305.532 434.743 304.841 434.743 304.036C434.743 303.691 434.743 303.116 434.743 302.656V301.16V294.948V282.638V257.903V208.549C434.743 207.744 435.431 207.054 436.234 207.054C436.923 207.169 437.497 207.744 437.497 208.664Z" fill="#91755D"/>
<path d="M410.418 181.168V208.204L408.926 206.708C411.336 206.708 413.745 206.823 416.27 206.938C417.532 206.938 418.679 207.053 419.941 207.053C421.203 207.168 422.351 207.283 423.613 207.283C424.072 207.283 424.416 207.628 424.416 208.088C424.416 208.549 424.072 208.894 423.613 208.894C422.351 208.894 421.203 209.009 419.941 209.124C418.679 209.239 417.532 209.239 416.27 209.239C413.86 209.354 411.45 209.469 408.926 209.469C408.123 209.469 407.434 208.894 407.434 208.088V181.053C407.434 180.248 408.123 179.558 408.926 179.558C409.729 179.558 410.418 180.363 410.418 181.168Z" fill="#91755D"/>
<path d="M379.323 226.611C382.421 226.15 385.519 226.035 388.732 226.035L398.14 226.15C401.238 226.15 404.336 226.265 407.549 226.38C410.647 226.496 413.745 226.611 416.958 226.726C417.417 226.726 417.646 227.071 417.646 227.531C417.646 227.876 417.302 228.221 416.958 228.221C413.86 228.336 410.762 228.566 407.549 228.566C404.451 228.681 401.353 228.796 398.14 228.796L388.732 228.911C385.634 228.911 382.536 228.911 379.323 228.336C378.749 228.221 378.405 227.761 378.52 227.301C378.634 226.956 378.864 226.726 379.323 226.611Z" fill="#D6AB85"/>
<path d="M379.897 238.92C384.83 238 389.65 238.23 394.583 238.23C399.517 238.345 404.336 238.575 409.27 238.92C409.614 238.92 409.959 239.265 409.959 239.726C409.959 240.071 409.614 240.301 409.27 240.416C404.336 240.876 399.517 241.106 394.583 241.106C389.65 241.106 384.83 241.336 379.897 240.416C379.438 240.301 379.208 239.956 379.208 239.496C379.323 239.265 379.667 239.035 379.897 238.92Z" fill="#D6AB85"/>
<path d="M344.097 286.549C346.048 285.858 347.999 285.973 349.949 285.973C351.9 286.088 353.85 286.203 355.801 286.549C356.26 286.664 356.604 287.124 356.489 287.584C356.375 287.929 356.145 288.274 355.801 288.274C353.85 288.619 351.9 288.734 349.949 288.849C347.999 288.849 346.048 288.965 344.097 288.274C343.638 288.044 343.409 287.584 343.524 287.124C343.638 286.779 343.868 286.664 344.097 286.549Z" fill="#D6AB85"/>
<path d="M343.524 274.009C346.278 273.894 349.146 273.664 351.9 273.664C354.654 273.549 357.522 273.434 360.276 273.434L368.652 273.319C371.406 273.204 374.274 273.319 377.028 273.779C377.602 273.894 377.946 274.354 377.831 274.929C377.717 275.389 377.372 275.734 377.028 275.734C374.274 276.195 371.406 276.195 368.652 276.195L360.276 276.08C357.522 276.08 354.654 275.965 351.9 275.85C349.146 275.734 346.278 275.619 343.524 275.504C343.18 275.504 342.835 275.159 342.835 274.814C342.835 274.354 343.18 274.009 343.524 274.009Z" fill="#D6AB85"/>
<path d="M379.323 214.531C381.618 214.416 383.798 214.186 386.093 214.186C388.387 214.071 390.568 213.956 392.862 213.956C395.157 213.841 397.337 213.841 399.632 213.841C401.927 213.841 404.107 213.841 406.402 214.301C406.976 214.416 407.32 214.991 407.205 215.566C407.09 215.911 406.746 216.257 406.402 216.372C404.107 216.832 401.927 216.832 399.632 216.832C397.337 216.832 395.157 216.717 392.862 216.717C390.568 216.717 388.387 216.602 386.093 216.487C383.798 216.372 381.618 216.257 379.323 216.142C378.979 216.142 378.635 215.796 378.635 215.451C378.749 214.876 378.979 214.531 379.323 214.531Z" fill="#D6AB85"/>
<path d="M343.294 261.354C346.163 261.124 349.031 261.009 351.9 260.894C354.768 260.779 357.637 260.664 360.505 260.664C366.242 260.549 371.865 260.319 377.602 261.239C378.061 261.354 378.405 261.699 378.29 262.274C378.29 262.619 377.946 262.965 377.602 262.965C371.865 263.77 366.242 263.54 360.505 263.54C357.637 263.54 354.768 263.425 351.9 263.31C349.031 263.195 346.163 263.08 343.294 262.85C342.95 262.85 342.721 262.504 342.721 262.159C342.835 261.699 343.065 261.354 343.294 261.354Z" fill="#D6AB85"/>
<path d="M356.49 216.257C356.375 216.257 356.375 216.257 356.26 216.257C348.572 216.257 342.262 222.584 342.262 230.292C342.262 238 348.572 244.327 356.26 244.327C363.948 244.327 370.258 238 370.258 230.292C370.258 230.177 370.258 230.177 370.258 230.062H356.375V216.257H356.49Z" fill="#D6AB85"/>
<path d="M359.932 212.345V226.265H373.815C373.701 218.673 367.505 212.46 359.932 212.345Z" fill="#FFA672"/>
<path d="M395.387 262.619H389.076V290.92H395.387V262.619Z" fill="#FFA672"/>
<path d="M404.336 268.142H398.026V290.92H404.336V268.142Z" fill="#D6AB85"/>
<path d="M413.286 279.301H406.975V290.92H413.286V279.301Z" fill="#D6AB85"/>
<path d="M422.121 272.053H415.811V291.035H422.121V272.053Z" fill="#D6AB85"/>
<path d="M212.949 213.265H128.04V212.69C128.04 210.159 125.975 208.088 123.451 208.088H94.7656C92.2413 208.088 90.176 210.159 90.176 212.69V213.265H84.439C80.7673 213.265 77.6693 216.257 77.6693 220.053V305.301C77.6693 307.487 79.3904 309.212 81.5704 309.212H215.932C218.112 309.212 219.833 307.487 219.833 305.301V219.938C219.718 216.257 216.735 213.265 212.949 213.265Z" fill="#FFBB94"/>
<path d="M218.915 219.708C218.571 217.982 217.653 216.487 216.276 215.566C215.588 215.106 214.785 214.876 214.096 214.761C213.637 214.761 213.293 214.646 212.949 214.646H211.457H199.524H175.658H128.04C127.237 214.646 126.549 213.956 126.549 213.15V212.46C126.549 212.345 126.549 212.115 126.549 212C126.549 211.655 126.434 211.425 126.205 211.08C125.975 210.504 125.516 210.044 124.942 209.699C124.713 209.584 124.369 209.469 124.025 209.354C123.68 209.354 123.451 209.239 122.992 209.239H120.238H109.108H97.9784H95.2246C94.6509 209.239 94.4214 209.239 94.1919 209.354C93.8477 209.469 93.6182 209.584 93.274 209.699C92.7003 210.044 92.2413 210.504 92.0119 211.08C91.8971 211.31 91.7824 211.655 91.6676 212C91.6676 212.115 91.6676 212.345 91.6676 212.46V213.15C91.6676 213.956 90.9792 214.646 90.176 214.646H85.1274H84.5537H84.0947C83.7505 214.646 83.4063 214.761 83.1768 214.876C82.6031 215.106 81.9147 215.336 81.4557 215.681C80.423 216.487 79.6198 217.637 79.3904 218.903C79.2756 219.248 79.2756 219.593 79.2756 219.938V221.204V223.735V243.867V284.248V304.381C79.2756 305.416 79.2756 305.761 79.5051 306.221C79.7346 306.681 80.0788 307.142 80.5378 307.372C80.7673 307.487 80.9967 307.602 81.2262 307.602C81.341 307.602 81.4557 307.602 81.5704 307.602H82.1441H84.6684H94.7656H135.04H215.473C215.932 307.602 216.161 307.602 216.391 307.487C216.62 307.487 216.85 307.372 217.079 307.142C217.538 306.912 217.883 306.451 218.112 305.991C218.227 305.761 218.227 305.531 218.227 305.186C218.227 304.841 218.227 304.381 218.227 304.035V301.504V291.381V271.248V230.867C218.227 230.062 218.915 229.372 219.718 229.372C220.522 229.372 221.21 230.062 221.21 230.867V271.248V291.381V301.504V304.035C221.21 304.496 221.21 304.841 221.21 305.301C221.21 305.876 221.095 306.451 220.866 307.027C220.407 308.062 219.718 309.097 218.686 309.673C218.227 310.018 217.653 310.248 217.079 310.363C216.506 310.478 215.817 310.478 215.473 310.478H135.04H94.7656H84.6684H82.1441H81.5704C81.341 310.478 80.9967 310.478 80.7673 310.363C80.1935 310.248 79.6198 310.133 79.1609 309.788C78.1282 309.212 77.325 308.407 76.7513 307.372C76.5218 306.796 76.2924 306.336 76.2924 305.646C76.2924 304.956 76.2924 304.611 76.2924 304.266V284.133V243.752V223.619V221.319V220.053C76.2924 219.593 76.2924 219.018 76.4071 218.558C76.7513 216.487 77.8987 214.646 79.5051 213.496C80.3083 212.92 81.2262 212.46 82.2589 212.115C82.7178 212 83.2915 211.885 83.7505 211.885H84.5537H85.1274H90.176L88.6844 213.381V212.69C88.6844 212.345 88.6844 212.115 88.7991 211.77C88.9139 211.195 89.0286 210.619 89.3728 210.044C89.9465 208.894 90.7497 208.088 91.8971 207.398C92.4708 207.053 93.0445 206.938 93.6182 206.823C94.1919 206.708 94.8804 206.708 95.3393 206.708H98.0931H109.223H120.353H123.107C123.451 206.708 124.254 206.708 124.828 206.823C125.401 206.938 125.975 207.168 126.549 207.398C127.582 207.973 128.499 208.894 129.073 210.044C129.303 210.619 129.532 211.195 129.647 211.77C129.647 212.115 129.762 212.345 129.762 212.69V213.381L128.27 211.885H175.887H199.753H211.687H213.178C213.752 211.885 214.326 212 214.899 212.115C216.047 212.345 217.194 212.92 218.112 213.726C219.948 215.221 220.981 217.522 220.866 219.823C220.866 220.283 220.407 220.513 220.063 220.513C219.259 220.283 219.03 220.053 218.915 219.708Z" fill="#91755D"/>
<path d="M220.981 226.035H121.156V223.504C121.156 220.973 119.091 218.903 116.566 218.903H87.8812C85.3569 218.903 83.2916 220.973 83.2916 223.504V226.035H74.3418C70.6701 226.035 67.5721 229.027 67.5721 232.823L74.9155 304.956C75.145 307.602 77.4398 309.558 80.0788 309.558H215.932C218.571 309.558 220.751 307.487 221.095 304.841L227.75 232.708C227.636 229.027 224.652 226.035 220.981 226.035Z" fill="#FDD8C2"/>
<path d="M149.497 227.071C148.694 227.531 148.005 227.646 147.202 227.646C146.399 227.646 145.711 227.531 144.907 227.186C144.334 226.841 144.219 226.15 144.448 225.69C144.563 225.46 144.678 225.345 144.907 225.23C145.711 224.77 146.399 224.77 147.202 224.77C148.005 224.77 148.694 224.885 149.497 225.345C149.956 225.575 150.185 226.265 149.841 226.726C149.841 226.841 149.726 226.956 149.497 227.071Z" fill="#91755D"/>
<path d="M73.7681 288.159C74.3418 289.31 74.686 290.575 74.9155 291.841C75.0302 293.106 75.145 294.372 75.2597 295.637L76.0629 303.115L76.2924 304.956C76.2924 305.416 76.5219 305.876 76.6366 306.221C77.0956 307.027 77.784 307.602 78.5872 307.947C79.0462 308.062 79.3904 308.177 79.8494 308.177H81.6852H85.4717H115.534H175.543H205.605H213.063H214.899H215.817C216.047 308.177 216.276 308.177 216.506 308.062C217.424 307.947 218.227 307.372 218.686 306.681C218.915 306.336 219.145 305.876 219.259 305.531C219.374 305.301 219.374 305.071 219.374 304.841L219.489 303.92L219.833 300.124L220.522 292.646L226.259 232.823V232.938C226.259 231.673 225.8 230.407 224.996 229.487C224.193 228.566 223.046 227.876 221.784 227.646C221.44 227.531 221.21 227.646 220.751 227.531H219.604H217.194H212.375H193.213H174.052C167.626 227.531 161.201 227.531 154.89 227.071C154.431 227.071 153.972 226.611 153.972 226.035C153.972 225.575 154.431 225.23 154.89 225.115C161.315 224.77 167.741 224.77 174.052 224.655H193.213H212.375H217.194H219.604H220.751C221.095 224.655 221.669 224.655 222.128 224.77C224.079 225 225.8 226.035 227.062 227.531C228.324 229.027 229.012 230.867 229.012 232.823V232.938L223.505 292.876L222.816 300.354L222.472 304.15L222.357 305.071C222.357 305.416 222.243 305.876 222.128 306.221C221.898 307.027 221.554 307.717 221.095 308.407C220.177 309.673 218.686 310.593 217.079 310.938C216.735 311.053 216.276 311.053 215.932 311.053H215.014H213.178H205.72H175.658H115.648H85.5864H81.8H79.9641C79.1609 311.053 78.3577 310.938 77.5545 310.593C76.0629 310.018 74.8008 308.867 73.9976 307.487C73.6534 306.796 73.4239 305.991 73.3091 305.186L73.0797 303.345L72.2765 295.867C72.1617 294.602 72.047 293.336 71.8175 292.071C71.8175 290.805 71.9322 289.54 72.2765 288.274C72.3912 287.929 72.7354 287.584 73.1944 287.699C73.5386 287.814 73.6534 287.929 73.7681 288.159Z" fill="#91755D"/>
<path d="M128.844 226.841C127.582 227.301 126.205 227.416 124.942 227.646C124.254 227.761 123.68 227.761 122.992 227.761C122.303 227.761 121.73 227.761 121.041 227.646L120.697 227.531C120.009 227.416 119.664 226.841 119.664 226.265V224.77C119.664 224.31 119.664 223.735 119.664 223.389C119.55 222.699 119.32 222.009 118.746 221.549C118.288 220.973 117.599 220.628 116.911 220.513C116.681 220.513 116.566 220.513 116.337 220.513H115.534H114.042H102.109H90.0613H88.5696H87.7664C87.537 220.513 87.4222 220.513 87.1927 220.513C86.5043 220.628 85.8159 220.973 85.3569 221.549C84.8979 222.009 84.5537 222.699 84.439 223.389C84.439 223.619 84.439 224.31 84.439 224.77V226.265C84.439 227.071 83.8653 227.646 83.0621 227.646H78.1282H75.7187C74.9155 227.646 73.9975 227.646 73.4238 227.646C72.1617 227.761 70.8995 228.451 70.0964 229.372C69.2932 230.292 68.7195 231.558 68.7195 232.938V232.823L71.0143 256.522L72.1617 268.372L72.7354 274.354C72.9649 276.31 73.1944 278.265 72.9649 280.336C72.9649 280.796 72.5059 281.142 72.047 281.142C71.7027 281.142 71.3585 280.796 71.2438 280.566C70.6701 278.611 70.4406 276.655 70.2111 274.699L69.6374 268.717L68.3752 256.867L65.851 233.168V233.053C65.851 231.097 66.5394 229.142 67.9163 227.646C69.1784 226.15 71.129 225.23 73.0796 225C74.1123 224.885 74.8007 225 75.7187 225H78.1282H83.0621L81.6852 226.381V224.885C81.6852 224.31 81.6852 223.965 81.6852 223.274C81.7999 222.009 82.3736 220.743 83.2916 219.708C84.2095 218.788 85.3569 218.097 86.7338 217.867C87.078 217.752 87.4222 217.752 87.6517 217.752H88.5696H90.0613H102.109H114.157H115.648H116.452C116.796 217.752 117.14 217.752 117.37 217.867C118.632 218.097 119.894 218.673 120.812 219.708C121.73 220.628 122.303 221.894 122.418 223.274C122.418 223.965 122.418 224.425 122.418 224.885V226.381L121.041 225C121.73 224.885 122.303 224.885 122.992 224.885C123.68 224.885 124.254 224.885 124.942 225C126.205 225.115 127.582 225.345 128.844 225.805C129.188 225.92 129.417 226.266 129.303 226.611C129.188 226.611 129.073 226.726 128.844 226.841Z" fill="#91755D"/>
<path d="M329.411 160.805H369.34C374.504 160.805 378.749 165.062 378.749 170.239V280.796V290.46V298.628H155.808V226.381V209.009V170.239C155.808 165.062 160.053 160.805 165.216 160.805H314.38H329.411Z" fill="white"/>
<path d="M380.241 296.327V299.204C380.241 300.009 379.552 300.699 378.749 300.699H155.923C155.119 300.699 154.431 300.009 154.431 299.204C154.431 293.221 154.316 287.124 154.431 281.142L154.546 263.08C154.546 257.097 154.66 251 154.66 245.018C154.775 239.035 154.89 232.938 155.119 226.956C155.119 226.496 155.464 226.15 155.923 226.15C156.381 226.15 156.726 226.496 156.726 226.956C156.955 232.938 157.07 239.035 157.185 245.018C157.299 251 157.299 257.097 157.299 263.08L157.414 281.142C157.414 287.124 157.414 293.221 157.414 299.204L155.923 297.708H378.749L377.258 299.204V296.327C377.258 295.522 377.946 294.832 378.749 294.832C379.552 294.832 380.241 295.522 380.241 296.327Z" fill="#91755D"/>
<path d="M329.525 160.92C336.41 160.69 343.294 160.575 350.179 160.46L360.505 160.345L365.669 160.23H368.193H369.455C369.914 160.23 370.373 160.23 370.947 160.345C372.897 160.575 374.733 161.381 376.225 162.646C377.717 163.912 378.864 165.522 379.552 167.363C379.897 168.283 380.126 169.319 380.126 170.239C380.126 170.699 380.126 171.159 380.126 171.619V172.885V178.062L380.241 198.77C380.241 212.575 380.126 226.266 380.011 240.071C380.011 246.973 379.897 253.876 379.782 260.779C379.667 267.681 379.552 274.584 379.323 281.487C379.323 281.832 378.979 282.062 378.634 282.062C378.29 282.062 378.061 281.832 378.061 281.487C377.831 274.584 377.717 267.681 377.602 260.779C377.487 253.876 377.372 246.973 377.372 240.071C377.258 226.266 377.143 212.575 377.143 198.77L377.258 178.062V172.885V171.619C377.258 171.159 377.258 170.699 377.258 170.354C377.258 169.664 377.143 168.858 376.913 168.168C375.995 165.407 373.471 163.106 370.488 162.761C370.144 162.646 369.799 162.646 369.34 162.646H368.078H365.554L360.391 162.531L350.064 162.416C343.18 162.301 336.295 162.186 329.411 161.956C329.066 161.956 328.837 161.726 328.837 161.381C328.952 161.15 329.181 160.92 329.525 160.92Z" fill="#91755D"/>
<path d="M155.578 209.584C155.119 205.327 154.89 201.071 154.66 196.929C154.546 192.673 154.66 188.416 154.546 184.274V171.619V170.814V169.894C154.66 169.319 154.66 168.743 154.89 168.168C155.234 167.018 155.693 165.867 156.382 164.832C157.758 162.876 159.824 161.381 162.119 160.575C163.266 160.23 164.528 160.115 165.676 160.115H168.888H175.199H187.82H213.178C230.045 160.115 246.912 160 263.779 160.115C280.646 160.23 297.513 160.46 314.38 160.805C314.839 160.805 315.068 161.15 315.068 161.611C315.068 161.956 314.724 162.301 314.38 162.301C297.513 162.646 280.646 162.876 263.779 162.991C246.912 163.106 230.045 162.991 213.178 162.991H187.82H175.199H168.888H165.676C164.643 162.991 163.84 163.106 162.922 163.336C161.201 163.912 159.709 164.947 158.676 166.442C158.217 167.248 157.758 168.053 157.529 168.858C157.414 169.319 157.299 169.779 157.299 170.239V170.929V171.735V184.389C157.299 188.646 157.299 192.903 157.185 197.044C157.07 201.301 156.84 205.558 156.267 209.699C156.267 209.929 156.037 210.044 155.808 210.044C155.693 209.929 155.578 209.814 155.578 209.584Z" fill="#91755D"/>
<path d="M154.431 219.363C154.431 219.018 154.431 218.558 154.431 218.212C154.546 217.407 155.234 216.832 156.037 216.947C156.726 217.062 157.185 217.522 157.299 218.212C157.299 218.558 157.299 219.018 157.299 219.363C157.299 220.168 156.726 220.858 155.923 220.858C155.119 220.858 154.431 220.168 154.431 219.363Z" fill="#91755D"/>
<path d="M395.387 291.035V297.363C395.387 297.708 395.387 298.053 395.387 298.398C394.813 304.496 389.764 309.212 383.568 309.212H151.103C144.907 309.212 139.859 304.496 139.285 298.398C139.285 298.053 139.285 297.708 139.285 297.363V291.035H241.29C241.29 293.221 243.126 295.062 245.42 295.062H289.251C290.399 295.062 291.431 294.602 292.235 293.796C292.923 293.106 293.382 292.071 293.497 291.035H395.387Z" fill="white"/>
<path d="M324.821 291.035H325.739" stroke="#91755D" stroke-width="2.5719" stroke-miterlimit="10" stroke-linecap="round" stroke-linejoin="round"/>
<path d="M388.158 298.398C392.403 298.398 394.354 303.805 391.141 306.451C389.076 308.177 386.437 309.212 383.568 309.212H151.103C148.235 309.212 145.596 308.177 143.531 306.451C140.203 303.69 142.268 298.398 146.514 298.398H388.158Z" fill="#FDD8C2"/>
<path d="M138.367 298.513C138.023 297.018 138.023 295.867 137.908 294.602C137.908 293.911 137.793 293.336 137.793 292.646C137.793 291.496 138.597 290.23 139.744 289.885C139.974 289.77 140.318 289.655 140.662 289.655H141.236H142.154H144.104C145.366 289.655 146.628 289.54 147.891 289.54C150.415 289.54 153.054 289.655 155.578 289.77C158.103 289.885 160.742 290.115 163.266 290.69C163.495 290.69 163.725 291.035 163.61 291.265C163.61 291.496 163.381 291.611 163.266 291.611C160.742 292.071 158.103 292.416 155.578 292.531C153.054 292.646 150.415 292.761 147.891 292.761C146.628 292.761 145.366 292.761 144.104 292.646L140.777 292.531C140.662 292.531 140.662 292.646 140.547 292.646L140.432 294.487L140.318 296.442L140.088 298.283V298.398C140.088 298.858 139.629 299.204 139.17 299.204C138.826 299.204 138.482 298.858 138.367 298.513Z" fill="#91755D"/>
<path d="M286.727 294.372L288.907 294.142C289.366 294.142 289.481 294.027 289.825 294.027C290.055 293.912 290.399 293.796 290.628 293.681C291.087 293.336 291.431 292.991 291.661 292.531C291.89 292.071 292.005 291.611 291.89 291.035C291.89 290.23 292.579 289.655 293.382 289.655L385.06 289.77H390.797H393.665C394.469 289.77 395.387 290.115 395.846 290.805C396.075 291.15 396.305 291.496 396.419 291.841C396.534 292.071 396.534 292.301 396.534 292.416V292.761V292.991V295.867V297.248C396.534 297.823 396.534 298.283 396.419 298.858C396.19 300.929 395.387 303 394.239 304.726C391.83 308.292 387.699 310.478 383.454 310.478H371.979H326.083H234.405H188.509H165.561H154.087H151.218C150.3 310.478 149.153 310.363 148.12 310.133C146.055 309.673 144.219 308.637 142.842 307.027C142.613 306.796 142.613 306.336 142.957 306.106C143.186 305.876 143.531 305.876 143.76 305.991C145.366 306.912 146.973 307.602 148.694 307.832C149.612 307.947 150.415 308.062 151.333 308.062H154.201H165.675H188.624H234.52H326.198H372.094H383.568C387.011 308.062 390.338 306.336 392.174 303.46C393.207 302.08 393.78 300.469 393.895 298.743C394.01 298.283 393.895 297.938 394.01 297.478V296.097V293.221V292.991C394.01 292.991 394.01 292.991 394.01 292.876C394.01 292.876 394.01 292.761 393.895 292.761C393.78 292.646 393.665 292.646 393.551 292.646H390.682H384.945L293.267 292.761L294.759 291.266C294.644 292.301 294.3 293.221 293.726 294.027C293.153 294.832 292.349 295.407 291.546 295.752C291.087 295.982 290.628 296.097 290.169 296.097C289.71 296.212 289.137 296.097 288.907 296.097L286.727 295.867C286.268 295.867 286.039 295.522 286.039 295.062C286.039 294.717 286.383 294.372 286.727 294.372Z" fill="#91755D"/>
<path d="M173.937 290.23C179.559 289.77 185.181 289.655 190.804 289.655L207.671 289.54H224.538L241.404 289.655C242.208 289.655 242.896 290.345 242.896 291.035C242.896 292.071 243.584 292.991 244.617 293.336C245.076 293.566 245.42 293.566 246.453 293.566H248.863H258.501L268.139 293.681C271.352 293.796 274.565 293.681 277.777 294.372C278.121 294.487 278.351 294.832 278.236 295.177C278.236 295.407 278.007 295.637 277.777 295.637C274.565 296.443 271.352 296.327 268.139 296.327L258.501 296.443H248.863H246.453C245.994 296.443 245.765 296.443 245.076 296.443C244.502 296.327 244.043 296.212 243.47 296.097C241.404 295.292 240.028 293.221 240.028 291.035L241.519 292.531L224.652 292.646H207.785L190.918 292.531C185.296 292.531 179.674 292.416 174.052 291.956C173.593 291.956 173.248 291.496 173.248 291.035C173.134 290.575 173.478 290.23 173.937 290.23Z" fill="#91755D"/>
<path d="M343.868 161.381C343.753 162.301 343.753 163.221 343.753 164.142L343.868 161.381Z" fill="#F4A171"/>
<path opacity="0.2" d="M200.098 124.336L198.032 126.522L192.066 120.885L191.263 121.805C194.59 117.434 196.426 111.911 196.426 106.044C196.426 96.1504 190.918 87.4071 182.887 82.9203H182.313C178.641 80.9646 174.511 79.9292 170.036 79.9292C167.282 79.9292 164.643 80.3894 162.118 81.1947H161.545C150.989 84.646 143.53 94.7699 143.645 106.504C143.875 120.195 154.775 131.699 168.429 132.504C176.232 132.965 183.231 129.973 188.394 125.027L188.279 125.142L193.787 131.009L192.295 132.619L209.621 148.496C211.801 150.566 215.243 150.451 217.309 148.265L221.439 144.009L200.098 124.336ZM170.15 124.451C158.791 124.451 149.612 115.248 149.612 103.858C149.612 92.469 158.791 83.2655 170.15 83.2655C181.51 83.2655 190.689 92.469 190.689 103.858C190.689 115.248 181.51 124.451 170.15 124.451Z" fill="#BA5A25"/>
<path d="M201.245 123.991L197.459 127.788L188.279 119.619L192.066 115.363L201.245 123.991Z" fill="#FFBB94" stroke="#91755D" stroke-width="3.0862" stroke-miterlimit="10" stroke-linecap="round" stroke-linejoin="round"/>
<path d="M208.015 142.858L192.295 127.097L200.098 118.699L220.751 138.947C223.046 141.248 223.046 144.929 220.751 147.345C218.8 149.301 215.932 149.531 213.637 148.265" fill="#FFBB94"/>
<path d="M207.556 143.319C205.605 142.628 204.114 141.478 202.851 140.212C201.475 138.947 200.098 137.681 198.721 136.416C197.344 135.15 196.082 133.885 194.705 132.504C193.443 131.124 192.181 129.858 190.918 128.363L190.804 128.248C190.23 127.558 190.23 126.522 190.804 125.832L198.606 117.434C199.295 116.743 200.442 116.628 201.13 117.319C203.884 119.965 206.638 122.611 209.392 125.257L217.538 133.31L221.554 137.336C221.669 137.451 221.898 137.681 222.128 138.027C222.357 138.257 222.472 138.487 222.702 138.832C223.046 139.407 223.275 139.867 223.505 140.558C223.964 141.708 224.079 142.973 223.849 144.239C223.505 146.655 221.784 148.956 219.604 149.991C218.456 150.451 217.309 150.796 216.047 150.681C214.899 150.566 213.637 149.991 212.949 149.071C212.604 148.726 212.719 148.035 213.063 147.805C213.293 147.69 213.408 147.575 213.637 147.575H213.752C214.67 147.575 215.358 147.575 216.047 147.46C216.735 147.345 217.424 147.23 217.997 146.885C219.259 146.31 220.063 145.044 220.177 143.664C220.292 142.973 220.177 142.283 219.948 141.708C219.833 141.363 219.718 141.133 219.489 140.788C219.374 140.673 219.259 140.557 219.145 140.442C219.03 140.327 218.915 140.212 218.8 139.982L214.67 136.071L206.523 128.018C203.769 125.372 201.13 122.611 198.377 119.85H200.901L193.099 128.248V125.832C194.475 127.097 195.852 128.363 197.229 129.628C198.606 130.894 199.868 132.274 201.13 133.655C202.393 135.035 203.655 136.416 204.917 137.796C206.179 139.177 207.326 140.558 208.015 142.513C208.13 142.858 207.9 143.204 207.671 143.319C207.9 143.319 207.785 143.319 207.556 143.319Z" fill="#91755D"/>
<path d="M170.036 74.292C155.578 74.292 143.76 86.0265 143.76 100.637C143.76 115.133 155.578 126.982 170.036 126.982C184.493 126.982 196.311 115.248 196.311 100.637C196.311 86.1416 184.608 74.292 170.036 74.292ZM170.036 121.345C158.676 121.345 149.382 112.027 149.382 100.637C149.382 89.2478 158.676 79.9292 170.036 79.9292C181.395 79.9292 190.689 89.2478 190.689 100.637C190.689 112.027 181.51 121.345 170.036 121.345Z" fill="#FDD8C2"/>
<path d="M177.264 74.4071C178.985 74.177 180.707 74.5221 182.313 75.2124C183.116 75.5575 183.805 75.9027 184.493 76.3628C185.181 76.708 185.985 77.1681 186.673 77.6283C189.427 79.5841 191.836 82 193.672 84.7611C197.344 90.3982 198.95 97.3009 198.147 103.858C197.344 110.531 194.131 116.858 189.197 121.345C184.263 125.832 177.723 128.593 171.068 128.708C164.413 128.938 157.644 126.637 152.48 122.381C147.317 118.124 143.645 112.027 142.498 105.469C141.35 98.9115 142.613 91.8938 145.94 86.1416C147.661 83.2655 149.841 80.7345 152.366 78.6637C154.89 76.5929 157.988 74.9823 161.201 74.4071C161.774 74.292 162.348 74.6372 162.348 75.2124C162.463 75.6726 162.233 76.1327 161.774 76.2478C159.135 77.7434 156.611 79.2389 154.316 81.0796C152.021 82.9204 150.185 85.2212 148.694 87.7522C145.711 92.8142 144.678 98.9115 145.825 104.664C146.858 110.416 150.071 115.708 154.546 119.389C159.02 123.071 164.872 125.027 170.724 124.912C176.576 124.796 182.313 122.381 186.558 118.469C190.918 114.558 193.672 109.035 194.361 103.168C195.049 97.4159 193.672 91.3186 190.23 86.6018C188.624 84.1858 186.558 82.115 184.263 80.3894C183.116 79.469 181.854 78.7788 180.592 77.9735C179.33 77.1681 178.182 76.4779 176.805 75.5575C176.461 75.3274 176.346 74.8673 176.576 74.5221C176.805 74.5221 177.035 74.4071 177.264 74.4071Z" fill="#91755D"/>
<path d="M171.412 72.9115L173.019 72.5664C174.052 72.3363 175.084 73.0265 175.314 73.9469C175.543 74.9823 174.855 76.0177 173.937 76.2478C173.478 76.3628 173.134 76.2478 172.675 76.1327L171.298 75.4425H171.183C170.495 75.0973 170.265 74.4071 170.609 73.7168C170.724 73.2566 171.068 72.9115 171.412 72.9115Z" fill="#91755D"/>
<path d="M178.297 80.8495C181.28 81.3097 183.919 83.0354 185.985 85.1062C186.558 85.5664 187.017 86.2566 187.476 86.7168C187.935 87.292 188.394 87.8672 188.738 88.5575C189.542 89.823 190.23 91.2035 190.804 92.5841C191.377 93.9646 191.722 95.4602 191.951 96.9557C192.181 98.4513 192.295 99.9469 192.181 101.442C192.066 104.434 191.263 107.425 190 110.186C187.361 115.708 182.428 120.08 176.576 121.805C173.707 122.726 170.609 122.956 167.511 122.611C166.02 122.381 164.528 122.035 163.036 121.575C161.66 121 160.283 120.195 159.479 118.814C159.25 118.469 159.365 118.009 159.709 117.894C159.824 117.779 159.938 117.779 160.053 117.779C161.66 117.779 162.807 118.009 164.069 118.354C165.331 118.699 166.593 118.929 167.856 119.044C170.38 119.274 172.904 118.929 175.314 118.239C180.133 116.743 184.378 113.292 186.673 108.69C188.968 104.204 189.312 98.5664 187.476 93.8495C186.558 91.4336 185.181 89.2478 183.46 87.292C181.739 85.3363 179.674 83.9557 177.494 82.115C177.15 81.8849 177.15 81.3097 177.379 80.9646C177.838 80.8495 178.067 80.8495 178.297 80.8495Z" fill="#91755D"/>
<path d="M149.497 105.699C148.579 104.319 148.12 102.823 147.891 101.212C147.661 99.6017 147.891 97.9911 148.005 96.4955C148.464 93.3893 149.726 90.2832 151.562 87.7522C153.398 85.1062 155.808 82.9203 158.562 81.4247C161.315 79.9292 164.413 78.8938 167.511 79.2389C167.97 79.2389 168.314 79.6991 168.2 80.1593C168.2 80.5044 167.97 80.7345 167.741 80.8495C165.102 81.8849 162.577 82.8053 160.283 84.3009C157.988 85.7964 156.037 87.6371 154.66 89.938C153.169 92.1239 152.136 94.6548 151.562 97.1858C151.103 99.8318 151.103 102.478 150.759 105.354C150.759 105.814 150.3 106.044 149.956 106.044C149.841 106.044 149.612 105.929 149.497 105.699Z" fill="#91755D"/>
<path d="M341.573 277.46H216.276C213.752 277.46 211.801 275.504 211.801 272.973V182.204C211.801 179.673 213.752 177.717 216.276 177.717H341.688C344.212 177.717 346.163 179.673 346.163 182.204V272.973C346.048 275.504 344.097 277.46 341.573 277.46Z" fill="white"/>
<path d="M344.786 178.522H213.178V192.212H344.786V178.522Z" fill="#FFBB94"/>
<path d="M341.573 277.46H216.276C213.752 277.46 211.801 275.504 211.801 272.973V182.204C211.801 179.673 213.752 177.717 216.276 177.717H341.688C344.212 177.717 346.163 179.673 346.163 182.204V272.973C346.048 275.504 344.097 277.46 341.573 277.46Z" stroke="#91755D" stroke-width="2.2632" stroke-miterlimit="10" stroke-linecap="round" stroke-linejoin="round"/>
<path d="M346.048 193.478L316.101 193.593H286.153L256.206 193.478H241.29C236.356 193.478 231.307 193.478 226.373 192.903C226.029 192.903 225.8 192.558 225.8 192.212C225.8 191.867 226.029 191.637 226.373 191.637C231.307 190.947 236.356 191.062 241.29 191.062H256.206L286.153 190.947H316.101L346.048 191.062C346.736 191.062 347.31 191.637 347.31 192.327C347.425 192.903 346.851 193.478 346.048 193.478Z" fill="#91755D"/>
<path d="M219.374 186.69C220.325 186.69 221.095 185.918 221.095 184.965C221.095 184.012 220.325 183.239 219.374 183.239C218.424 183.239 217.653 184.012 217.653 184.965C217.653 185.918 218.424 186.69 219.374 186.69Z" fill="#91755D"/>
<path d="M225.341 186.69C226.291 186.69 227.062 185.918 227.062 184.965C227.062 184.012 226.291 183.239 225.341 183.239C224.39 183.239 223.62 184.012 223.62 184.965C223.62 185.918 224.39 186.69 225.341 186.69Z" fill="#91755D"/>
<path d="M231.307 186.69C232.258 186.69 233.028 185.918 233.028 184.965C233.028 184.012 232.258 183.239 231.307 183.239C230.357 183.239 229.586 184.012 229.586 184.965C229.586 185.918 230.357 186.69 231.307 186.69Z" fill="#91755D"/>
<path d="M277.318 226.726C278.695 226.726 279.154 227.876 279.269 229.257V260.434C279.269 261.814 278.81 262.965 277.433 262.965L227.521 263.08C226.144 263.08 225.685 261.929 225.57 260.549V229.372C225.57 227.991 226.029 226.841 227.406 226.841L277.318 226.726Z" fill="white"/>
<path d="M277.318 226.726C278.695 226.726 279.154 227.876 279.269 229.257V260.434C279.269 261.814 278.81 262.965 277.433 262.965L227.521 263.08C226.144 263.08 225.685 261.929 225.57 260.549V229.372C225.57 227.991 226.029 226.841 227.406 226.841L277.318 226.726Z" fill="#FFBB94"/>
<path d="M279.269 251.575L279.154 254.221L279.039 261.009L278.351 262.965L229.012 262.619L233.487 257.903L241.749 250.31L250.239 257.212L268.024 240.761L279.269 251.575Z" fill="#FFA672"/>
<path d="M242.437 241.912C245.225 241.912 247.486 239.645 247.486 236.85C247.486 234.054 245.225 231.788 242.437 231.788C239.649 231.788 237.388 234.054 237.388 236.85C237.388 239.645 239.649 241.912 242.437 241.912Z" fill="white"/>
<path d="M333.886 215.451H227.062C225.8 215.451 224.767 214.416 224.767 213.15V208.779C224.767 207.513 225.8 206.478 227.062 206.478H333.886C335.148 206.478 336.18 207.513 336.18 208.779V213.15C336.295 214.416 335.148 215.451 333.886 215.451Z" fill="#FFBB94"/>
<path d="M288.792 229.717C296.136 229.602 303.479 229.602 310.823 229.602L321.838 229.717C325.509 229.717 329.181 229.717 332.853 230.407C333.197 230.407 333.427 230.752 333.312 231.097C333.312 231.327 333.082 231.558 332.853 231.558C329.181 232.133 325.509 232.248 321.838 232.248L310.823 232.363C303.479 232.363 296.136 232.363 288.792 232.248C288.104 232.248 287.53 231.673 287.53 230.982C287.53 230.292 288.104 229.717 288.792 229.717Z" fill="#FFA672"/>
<path d="M288.792 257.903C293.153 257.788 297.513 257.788 301.873 257.788C304.053 257.788 306.233 257.788 308.413 257.903C310.593 257.903 312.773 258.018 314.953 258.593C315.298 258.708 315.527 259.053 315.412 259.398C315.298 259.628 315.183 259.743 314.953 259.858C312.773 260.434 310.593 260.549 308.413 260.549C306.233 260.549 304.053 260.664 301.873 260.664C297.513 260.664 293.153 260.664 288.792 260.549C288.104 260.549 287.53 259.973 287.53 259.168C287.53 258.478 288.104 258.018 288.792 257.903Z" fill="#FFA672"/>
<path d="M313.232 243.982C314.839 243.637 316.445 243.407 318.166 243.292C319.772 243.177 321.379 243.177 323.1 243.177C324.706 243.177 326.313 243.177 328.034 243.292C329.64 243.407 331.246 243.522 332.968 243.752C333.427 243.867 333.656 244.212 333.541 244.673C333.427 245.018 333.197 245.248 332.968 245.248C331.361 245.593 329.755 245.708 328.034 245.708C326.427 245.823 324.821 245.823 323.1 245.823C321.493 245.823 319.887 245.708 318.166 245.708C316.56 245.593 314.953 245.478 313.232 245.018C312.888 244.903 312.773 244.673 312.773 244.327C312.888 244.212 313.003 243.982 313.232 243.982Z" fill="#FFA672"/>
<path d="M287.874 243.982C289.481 243.637 291.087 243.407 292.808 243.292C294.415 243.177 296.021 243.177 297.742 243.177C299.349 243.177 300.955 243.177 302.676 243.292C304.282 243.407 305.889 243.522 307.61 243.752C308.069 243.867 308.298 244.212 308.184 244.673C308.069 245.018 307.839 245.248 307.61 245.248C306.004 245.593 304.397 245.708 302.676 245.708C301.07 245.823 299.463 245.823 297.742 245.823C296.136 245.823 294.529 245.708 292.808 245.708C291.202 245.593 289.596 245.478 287.874 245.018C287.53 244.903 287.416 244.673 287.416 244.327C287.53 244.212 287.645 243.982 287.874 243.982Z" fill="#FFA672"/>
<path opacity="0.2" d="M252.764 241.221H158.217C155.464 241.221 153.284 239.035 153.284 236.274V208.319C153.284 205.558 155.464 203.372 158.217 203.372H252.764C255.518 203.372 257.698 205.558 257.698 208.319V236.274C257.698 239.035 255.518 241.221 252.764 241.221Z" fill="#BA5A25"/>
<path d="M246.797 233.973H152.251C149.497 233.973 147.317 231.788 147.317 229.027V201.071C147.317 198.31 149.497 196.124 152.251 196.124H246.797C249.551 196.124 251.731 198.31 251.731 201.071V229.027C251.731 231.788 249.551 233.973 246.797 233.973Z" fill="white" stroke="#91755D" stroke-width="2.5719" stroke-miterlimit="10" stroke-linecap="round" stroke-linejoin="round"/>
<path d="M240.372 210.389C236.012 210.504 231.537 210.735 227.177 210.735C222.816 210.85 218.342 210.965 213.981 210.965L200.786 211.08C196.426 211.195 191.951 211.08 187.591 210.619C187.017 210.504 186.673 210.044 186.673 209.469C186.673 209.009 187.132 208.664 187.591 208.549C191.951 208.088 196.426 208.089 200.786 208.089L213.981 208.204C218.342 208.204 222.816 208.319 227.177 208.434C231.537 208.549 236.012 208.664 240.372 208.779C240.716 208.779 241.06 209.124 241.06 209.469C240.945 210.159 240.716 210.389 240.372 210.389Z" fill="#D6AB85"/>
<path d="M223.39 221.204C220.407 221.319 217.424 221.549 214.44 221.549C211.457 221.664 208.474 221.779 205.491 221.779L196.541 221.894C193.558 222.009 190.574 221.894 187.591 221.434C187.017 221.319 186.673 220.858 186.788 220.283C186.903 219.823 187.247 219.478 187.591 219.478C190.574 219.018 193.558 219.018 196.541 219.018L205.491 219.133C208.474 219.133 211.457 219.248 214.44 219.363C217.424 219.478 220.407 219.593 223.39 219.708C223.734 219.708 224.079 220.053 224.079 220.398C223.964 220.973 223.734 221.204 223.39 221.204Z" fill="#D6AB85"/>
<path d="M156.152 215.336L162.233 205.097C162.922 203.832 164.758 203.832 165.561 205.097L171.642 215.336C172.445 216.602 171.527 218.212 170.036 218.212H157.758C156.267 218.327 155.349 216.602 156.152 215.336Z" fill="#FFA672"/>
<path d="M173.707 225.805C178.016 225.805 181.51 222.303 181.51 217.982C181.51 213.662 178.016 210.159 173.707 210.159C169.398 210.159 165.905 213.662 165.905 217.982C165.905 222.303 169.398 225.805 173.707 225.805Z" fill="#EB889A"/>
</g>
<defs>
<clipPath id="clip0">
<rect width="425" height="286" fill="white" transform="translate(53 43)"/>
</clipPath>
</defs>
</svg>
