<svg width="580" height="380" viewBox="0 0 580 380" fill="none" xmlns="http://www.w3.org/2000/svg">
<g clip-path="url(#clip0)">
<path d="M85.263 229.485C126.547 215.074 171.687 230.279 213.084 223.357C224.085 221.542 238.716 217.797 247.336 208.492C251.646 203.84 218.641 182.961 181.1 175.472C165.222 172.295 146.055 174.791 131.764 164.465C121.783 157.203 114.411 140.749 118.608 126.906C131.424 85.3747 190.968 119.19 245.975 125.771C317.881 134.281 371.301 102.509 437.876 106.934C467.592 108.977 493.791 154.366 451.6 163.217C436.062 166.508 416.781 168.664 402.831 178.082C395.345 183.188 391.602 194.195 397.5 202.819C403.284 211.329 415.874 210.648 424.153 212.237C445.249 216.209 467.138 220.634 484.377 237.314C501.39 253.768 506.267 283.384 489.595 302.334C473.036 321.284 412.131 341.255 347.483 317.88C324.573 309.597 302.57 292.235 278.412 292.008C258.337 291.781 239.624 304.036 220.683 312.547C155.014 342.617 85.263 323.554 65.415 303.242C43.4122 280.775 48.7428 242.307 85.263 229.485Z" fill="#E5EEFD"/>
<path d="M84.1288 159.359C77.097 164.579 68.5907 166.167 61.2186 163.103C58.0429 161.742 55.0941 159.586 52.4855 156.522C45.4536 148.125 43.0719 135.189 46.5878 123.955C50.3306 111.927 61.2186 100.807 72.3335 103.19C82.3142 105.232 95.0169 119.416 97.512 131.331C99.7804 142.224 91.2741 154.139 84.1288 159.359Z" fill="#E5EEFD"/>
<path d="M198.68 116.92C200.041 113.97 202.763 111.587 205.939 110.679C207.527 110.225 209.228 110.112 210.816 110.225C212.517 110.338 214.105 110.679 215.693 111.246C218.755 112.494 221.477 114.764 223.065 117.601C224.766 120.438 225.446 123.955 224.879 127.132C224.426 130.423 222.838 133.487 220.456 135.756C218.074 138.026 214.899 139.501 211.61 139.841C208.32 140.182 204.918 139.274 202.196 137.458C199.474 135.643 197.319 132.92 196.185 129.742C195.958 128.948 196.298 128.154 197.092 127.927C197.886 127.7 198.68 128.04 198.907 128.835C199.814 131.331 201.515 133.6 203.784 135.076C206.052 136.551 208.774 137.231 211.496 137.005C214.105 136.778 216.713 135.643 218.641 133.714C220.57 131.898 221.931 129.402 222.271 126.679C222.724 124.069 222.157 121.232 220.796 118.962C219.435 116.579 217.28 114.764 214.785 113.743C212.29 112.721 209.455 112.608 206.959 113.516C204.464 114.31 202.083 115.672 199.928 117.601C199.701 117.828 199.247 117.828 199.02 117.601C198.68 117.487 198.567 117.147 198.68 116.92Z" fill="#717791"/>
<path d="M108.4 151.983L197.432 129.515" stroke="#717791" stroke-width="2.5" stroke-miterlimit="10" stroke-linecap="round" stroke-linejoin="round"/>
<path d="M80.9532 215.414C78.5714 217.457 76.8702 219.953 75.736 222.563C75.1689 223.925 74.8287 225.286 74.7152 226.761C74.6018 228.236 74.8287 229.712 75.1689 231.073C75.9628 233.91 77.7775 236.406 80.1593 238.109C82.541 239.811 85.4899 240.718 88.4387 240.492C91.3875 240.378 94.223 239.243 96.3779 237.314C98.6462 235.385 100.121 232.662 100.688 229.825C101.255 226.988 100.801 223.925 99.4402 221.315C98.0791 218.705 95.8108 216.549 93.2022 215.414C92.5217 215.074 92.1815 214.279 92.5217 213.485C92.862 212.691 93.6559 212.464 94.4498 212.804C97.7389 214.279 100.461 216.889 102.049 219.953C103.75 223.13 104.317 226.875 103.637 230.279C102.956 233.797 101.141 237.087 98.4194 239.357C95.6974 241.626 92.2949 243.101 88.6655 243.215C85.1496 243.442 81.5203 242.307 78.5714 240.265C75.6226 238.222 73.4677 235.158 72.4469 231.754C71.8798 230.052 71.7664 228.236 71.8798 226.534C71.9932 224.719 72.3335 223.017 72.9006 221.315C74.1482 218.024 76.9836 215.301 80.2727 214.166C80.6129 214.052 80.9532 214.279 81.0666 214.62C81.2934 214.96 81.18 215.187 80.9532 215.414Z" fill="#717791"/>
<path d="M127.114 120.551L93.8827 214.166" stroke="#717791" stroke-width="2.5" stroke-miterlimit="10" stroke-linecap="round" stroke-linejoin="round"/>
<path d="M66.7761 94.6792C65.8687 92.7502 64.7346 91.3885 63.3736 90.1403C62.126 88.7787 60.3113 88.0978 58.4966 87.9844C56.682 87.8709 54.7539 88.3248 53.2794 89.346C51.805 90.2538 50.6709 91.8424 50.1038 93.5445C49.5367 95.2466 49.5367 97.1756 50.2172 98.9912C50.7843 100.693 52.1453 102.168 53.6197 103.19C55.2075 104.097 57.0222 104.551 58.8369 104.324C60.6516 104.097 62.3528 103.303 63.7138 101.941C64.2809 101.374 65.1882 101.374 65.7553 101.941C66.3224 102.509 66.3224 103.417 65.7553 103.984C64.0541 105.686 61.6723 106.821 59.2905 107.161C56.7954 107.502 54.3002 106.934 52.2587 105.686C50.2172 104.438 48.5159 102.395 47.6086 100.126C46.7013 97.8565 46.7013 95.2466 47.4952 92.8637C48.2891 90.4808 49.7635 88.4383 51.805 87.0766C53.8465 85.7149 56.3417 85.0341 58.8369 85.261C60.0845 85.3745 61.3321 85.7149 62.3528 86.1688C63.487 86.6227 64.5077 87.3035 65.5285 88.0978C67.3432 89.7999 68.3639 92.2963 68.1371 94.6792C68.1371 95.0197 67.7968 95.3601 67.3432 95.2466C67.1163 95.0197 66.8895 94.9062 66.7761 94.6792Z" fill="#717791"/>
<path d="M114.978 145.402L64.7346 102.849" stroke="#717791" stroke-width="2.5" stroke-miterlimit="10" stroke-linecap="round" stroke-linejoin="round"/>
<path d="M163.18 148.465C163.18 160.153 158.871 170.706 151.725 178.876C143.333 188.408 130.97 194.422 117.247 194.422C103.523 194.422 91.1607 188.408 82.7679 178.876C75.6226 170.819 71.3127 160.153 71.3127 148.465C71.3127 123.047 91.8412 102.509 117.247 102.509C142.652 102.509 163.18 123.047 163.18 148.465Z" fill="white" stroke="#717791" stroke-width="2.5" stroke-miterlimit="10" stroke-linecap="round" stroke-linejoin="round"/>
<path d="M158.417 148.465C158.417 157.997 155.128 166.734 149.797 173.77C142.312 164.124 130.516 157.883 117.247 157.883C104.09 157.883 92.2949 164.124 84.696 173.77C79.2519 166.734 76.0763 157.997 76.0763 148.465C76.0763 125.771 94.5632 107.275 117.247 107.275C140.043 107.275 158.417 125.657 158.417 148.465Z" fill="#B8D4FF"/>
<path d="M117.247 148.465C124.826 148.465 130.97 142.318 130.97 134.735C130.97 127.152 124.826 121.005 117.247 121.005C109.667 121.005 103.523 127.152 103.523 134.735C103.523 142.318 109.667 148.465 117.247 148.465Z" fill="white" stroke="#717791" stroke-width="2.5" stroke-miterlimit="10" stroke-linecap="round" stroke-linejoin="round"/>
<path d="M85.0362 173.429C85.4899 172.748 85.8301 172.181 86.3972 171.614C86.8509 170.933 87.3045 170.366 87.8716 169.798C88.8924 168.55 89.9131 167.415 91.1607 166.394C93.5425 164.238 96.1511 162.422 98.8731 160.947C104.431 157.997 110.782 156.408 117.133 156.408C123.485 156.408 129.836 157.884 135.393 160.834C140.951 163.671 145.828 168.21 149.117 173.429C149.344 173.77 149.23 174.11 148.89 174.337C148.663 174.451 148.323 174.451 148.096 174.224C145.941 171.954 143.9 169.912 141.518 168.096C139.136 166.281 136.641 164.692 134.032 163.444C128.815 160.834 122.917 159.586 117.02 159.586C111.122 159.586 105.338 160.947 100.121 163.671C97.5121 165.032 95.0169 166.621 92.7486 168.55C91.6144 169.458 90.4802 170.479 89.4595 171.5C88.8924 171.954 88.4387 172.522 87.8716 173.089C87.3045 173.656 86.7375 174.224 86.2838 174.791C85.9435 175.131 85.3765 175.131 85.1496 174.791C84.8094 174.224 84.8094 173.77 85.0362 173.429Z" fill="#717791"/>
<path opacity="0.3" d="M298.714 137.231L215.919 117.374L269.566 49.5171L298.714 137.231Z" stroke="#7282C4" stroke-width="2.5" stroke-miterlimit="10" stroke-linecap="round" stroke-linejoin="round" stroke-dasharray="8.81 8.81"/>
<path d="M240.758 122.253C240.758 130.083 237.809 137.118 233.045 142.565C227.375 148.919 219.208 153.004 210.022 153.004C200.835 153.004 192.555 148.919 186.998 142.565C182.235 137.118 179.286 130.083 179.286 122.253C179.286 105.232 193.009 91.502 210.022 91.502C227.034 91.502 240.758 105.346 240.758 122.253Z" fill="white" stroke="#717791" stroke-width="2.5" stroke-miterlimit="10" stroke-linecap="round" stroke-linejoin="round"/>
<path d="M237.582 122.253C237.582 128.608 235.427 134.508 231.798 139.16C226.807 132.693 218.868 128.494 210.022 128.494C201.175 128.494 193.349 132.693 188.246 139.16C184.616 134.508 182.461 128.608 182.461 122.253C182.461 107.048 194.824 94.6792 210.022 94.6792C225.22 94.7927 237.582 107.048 237.582 122.253Z" fill="#D5BEFD"/>
<path d="M210.022 122.253C215.095 122.253 219.208 118.138 219.208 113.062C219.208 107.985 215.095 103.87 210.022 103.87C204.948 103.87 200.835 107.985 200.835 113.062C200.835 118.138 204.948 122.253 210.022 122.253Z" fill="white" stroke="#717791" stroke-width="2.5" stroke-miterlimit="10" stroke-linecap="round" stroke-linejoin="round"/>
<path d="M188.246 138.82C188.472 138.366 188.813 138.026 189.04 137.572C189.38 137.118 189.607 136.664 189.947 136.324C190.627 135.529 191.308 134.735 192.102 133.941C193.69 132.465 195.504 131.217 197.319 130.196C201.062 128.154 205.485 127.019 209.795 127.019C214.105 127.019 218.415 128.04 222.271 130.083C226.014 132.012 229.303 135.189 231.344 138.706C231.571 139.047 231.458 139.387 231.117 139.614C230.89 139.728 230.55 139.728 230.323 139.501C228.849 138.026 227.488 136.777 225.9 135.529C224.312 134.395 222.724 133.373 220.91 132.465C217.394 130.763 213.538 129.969 209.795 129.969C205.939 129.969 202.083 130.877 198.68 132.579C196.979 133.487 195.391 134.508 193.803 135.756C193.009 136.324 192.329 137.004 191.535 137.685C191.194 138.026 190.854 138.366 190.514 138.706C190.174 139.047 189.72 139.387 189.38 139.841C189.04 140.182 188.472 140.068 188.246 139.728C188.132 139.501 188.132 139.16 188.246 138.82Z" fill="#717791"/>
<path d="M291.682 53.2618C291.682 58.8219 289.64 63.8147 286.238 67.6728C282.268 72.2117 276.371 75.0485 269.792 75.0485C263.214 75.0485 257.43 72.2117 253.347 67.6728C249.944 63.8147 247.903 58.7085 247.903 53.2618C247.903 41.2337 257.657 31.3616 269.792 31.3616C281.928 31.3616 291.682 41.2337 291.682 53.2618Z" fill="white" stroke="#717791" stroke-width="2.5" stroke-miterlimit="10" stroke-linecap="round" stroke-linejoin="round"/>
<path d="M288.733 53.1482C288.733 57.4602 287.259 61.5452 284.763 64.7224C281.361 60.297 275.917 57.4602 269.906 57.4602C263.895 57.4602 258.451 60.297 255.048 64.7224C252.553 61.5452 251.079 57.5737 251.079 53.1482C251.079 42.7087 259.472 34.3118 269.906 34.3118C280.227 34.3118 288.733 42.7087 288.733 53.1482Z" fill="#FDD1BE"/>
<path d="M269.792 53.3752C273.425 53.3752 276.371 50.4286 276.371 46.7938C276.371 43.159 273.425 40.2124 269.792 40.2124C266.159 40.2124 263.214 43.159 263.214 46.7938C263.214 50.4286 266.159 53.3752 269.792 53.3752Z" fill="white" stroke="#717791" stroke-width="2.5" stroke-miterlimit="10" stroke-linecap="round" stroke-linejoin="round"/>
<path d="M254.254 64.8361C254.368 64.4957 254.595 64.2687 254.821 63.9283C255.048 63.5879 255.275 63.2475 255.502 62.907C255.956 62.3397 256.523 61.6588 257.09 61.205C258.224 60.0702 259.472 59.2759 260.833 58.4816C263.555 57.0065 266.73 56.2122 269.906 56.2122C273.082 56.2122 276.144 57.0065 278.979 58.4816C281.701 59.9568 284.083 62.2262 285.444 64.9495C285.557 65.29 285.444 65.6304 285.217 65.7439C284.99 65.8573 284.65 65.8573 284.537 65.6304C283.403 64.6091 282.382 63.8148 281.248 63.0205C280.113 62.2262 278.979 61.5454 277.732 60.978C275.35 59.8433 272.628 59.2759 270.019 59.2759C267.411 59.2759 264.689 59.9568 262.307 61.0915C261.059 61.6588 260.039 62.4532 258.904 63.2475C258.337 63.7013 257.884 64.0418 257.317 64.4957L256.523 65.1765C256.296 65.4034 255.956 65.7439 255.615 65.9708C255.275 66.3112 254.708 66.1977 254.481 65.8573C254.028 65.5169 254.028 65.1765 254.254 64.8361Z" fill="#717791"/>
<path d="M339.998 143.019C339.998 152.096 336.595 160.493 331.038 166.848C324.459 174.337 314.819 179.103 304.044 179.103C293.27 179.103 283.629 174.337 277.051 166.848C271.494 160.493 268.091 152.21 268.091 143.019C268.091 123.161 284.196 107.048 304.044 107.048C323.892 107.048 339.998 123.161 339.998 143.019Z" fill="white" stroke="#717791" stroke-width="2.5" stroke-miterlimit="10" stroke-linecap="round" stroke-linejoin="round"/>
<path d="M336.255 143.019C336.255 150.508 333.76 157.316 329.45 162.763C323.552 155.16 314.365 150.281 303.931 150.281C293.61 150.281 284.423 155.16 278.412 162.763C274.102 157.316 271.607 150.394 271.607 143.019C271.607 125.204 286.011 110.792 303.818 110.792C321.851 110.792 336.255 125.204 336.255 143.019Z" fill="#B8D4FF"/>
<path d="M304.044 143.019C309.995 143.019 314.819 138.192 314.819 132.239C314.819 126.285 309.995 121.459 304.044 121.459C298.094 121.459 293.27 126.285 293.27 132.239C293.27 138.192 298.094 143.019 304.044 143.019Z" fill="white" stroke="#717791" stroke-width="2.5" stroke-miterlimit="10" stroke-linecap="round" stroke-linejoin="round"/>
<path d="M278.639 162.422C278.979 161.968 279.319 161.515 279.66 160.947C280 160.493 280.34 159.926 280.794 159.472C281.588 158.564 282.382 157.543 283.289 156.749C285.104 155.047 287.259 153.685 289.414 152.437C293.837 150.054 298.827 148.806 303.818 148.806C308.808 148.806 313.912 150.054 318.335 152.323C322.758 154.593 326.614 158.224 328.996 162.309C329.223 162.649 329.11 162.99 328.769 163.217C328.542 163.33 328.202 163.33 327.975 163.103C326.274 161.401 324.686 159.813 322.758 158.451C320.944 157.089 319.015 155.841 316.974 154.82C312.891 152.777 308.354 151.869 303.818 151.869C299.281 151.869 294.744 152.891 290.661 155.047C288.62 156.068 286.692 157.316 284.99 158.791C284.083 159.472 283.176 160.266 282.382 161.061C281.928 161.401 281.588 161.855 281.134 162.309C280.681 162.763 280.227 163.217 279.773 163.557C279.433 163.898 278.866 163.898 278.639 163.557C278.412 163.217 278.412 162.763 278.639 162.422Z" fill="#717791"/>
<path d="M89.2326 53.9425C92.068 53.3751 95.0169 53.1482 97.8523 52.9213C100.688 52.6943 103.637 52.6943 106.472 52.8078L104.771 54.1694C105.338 51.3326 106.018 48.3823 107.72 45.5455C109.421 42.8222 112.029 40.4393 115.432 39.645C117.133 39.3045 118.948 39.418 120.536 39.8719C122.237 40.4393 123.711 41.4605 124.846 42.9357C125.98 44.4108 126.433 46.2264 126.547 47.815C126.66 49.4036 126.66 50.9922 126.547 52.4674C126.433 53.3751 125.639 54.056 124.732 54.056C123.938 53.829 123.258 53.1482 123.258 52.3539C123.031 50.1979 123.598 48.0419 124.846 46.2264C125.526 45.3186 126.32 44.5243 127.227 43.9569C128.248 43.3896 129.269 43.0491 130.403 42.9357C131.537 42.8222 132.671 42.9357 133.805 43.2761C134.94 43.6165 135.96 44.4108 136.641 45.3186C138.115 47.1341 138.682 49.6305 137.662 52.0135C137.321 52.9213 136.301 53.2617 135.393 52.9213C134.486 52.5808 134.146 51.5596 134.486 50.6518C134.94 49.744 135.734 49.0632 136.527 48.7228C137.321 48.3823 138.229 48.3823 139.023 48.6093C140.724 49.0632 141.745 50.3114 142.312 51.5596C142.879 52.8078 142.992 54.056 142.992 55.3042C142.879 56.5524 142.539 57.8006 141.972 58.9353L140.497 56.4389C143.106 56.3254 145.714 56.4389 148.436 56.4389C151.045 56.5524 153.653 56.5524 156.375 56.6658C161.593 56.8928 166.923 57.1197 172.14 57.5736C172.481 57.5736 172.708 57.914 172.708 58.141C172.708 58.3679 172.481 58.5949 172.14 58.7084C166.923 59.1622 161.593 59.3892 156.375 59.6161C153.767 59.7296 151.158 59.8431 148.436 59.8431C145.828 59.8431 143.219 59.9566 140.497 59.8431C139.59 59.8431 138.796 59.0488 138.796 58.0275C138.796 57.8006 138.909 57.4602 139.023 57.2332C139.363 56.5524 139.59 55.8715 139.703 55.0772C139.703 54.2829 139.59 53.6021 139.363 52.9213C139.136 52.3539 138.682 51.9 138.342 51.9C138.229 51.9 138.002 51.9 137.888 51.9C137.775 51.9 137.775 52.0135 137.775 52.0135L134.713 50.6518C135.166 49.744 134.94 48.3823 134.146 47.4746C133.465 46.5668 132.218 46.1129 130.97 46.3398C129.722 46.4533 128.588 47.1341 127.794 48.2689C127 49.2901 126.66 50.7653 126.774 52.1269H123.371C123.598 49.4036 123.598 46.6803 122.35 44.9782C121.103 43.2761 118.494 42.4818 116.339 43.0491C114.071 43.503 112.029 45.2051 110.782 47.3611C109.534 49.5171 108.854 52.1269 108.287 54.9638C108.173 55.7581 107.493 56.212 106.812 56.3254H106.585C103.75 56.4389 100.801 56.3254 97.9657 56.212C95.1303 55.985 92.1814 55.7581 89.346 55.1907C89.0058 55.0772 88.8924 54.8503 88.8924 54.5099C88.7789 54.1695 89.0058 53.9425 89.2326 53.9425Z" fill="#717791"/>
<path d="M458.405 327.638C459.426 327.185 460.56 327.185 461.581 327.185C462.601 327.185 463.736 327.298 464.756 327.525C465.323 327.638 465.55 328.092 465.437 328.66C465.323 329 465.097 329.341 464.756 329.341C463.736 329.568 462.601 329.681 461.581 329.681C460.56 329.681 459.426 329.681 458.405 329.227C457.951 329 457.724 328.546 457.951 328.092C457.951 327.979 458.178 327.752 458.405 327.638Z" fill="#717791"/>
<path d="M167.831 327.752C179.739 327.412 191.648 327.298 203.557 327.412H239.283L310.736 327.298L382.189 327.185H417.915C429.824 327.185 441.733 327.185 453.641 327.525C454.208 327.525 454.662 327.979 454.662 328.546C454.662 329.114 454.208 329.454 453.641 329.567C441.733 329.908 429.824 329.908 417.915 329.908H382.189L310.736 329.794L239.283 329.681H203.557C191.648 329.681 179.739 329.681 167.831 329.341C167.377 329.341 167.037 329 167.037 328.546C167.15 328.092 167.49 327.752 167.831 327.752Z" fill="#717791"/>
<path d="M160.799 327.411C160.912 327.411 161.139 327.411 161.252 327.411C161.366 327.411 161.366 327.411 161.479 327.411C161.593 327.411 161.593 327.412 161.706 327.525C162.273 327.865 162.387 328.66 162.046 329.114C161.933 329.227 161.819 329.341 161.706 329.454C161.593 329.454 161.593 329.567 161.479 329.567C161.366 329.567 161.366 329.681 161.252 329.567C161.139 329.567 160.912 329.567 160.799 329.567C160.118 329.454 159.778 328.773 159.891 328.206C160.005 327.752 160.345 327.411 160.799 327.411Z" fill="#717791"/>
<path d="M149.344 327.638C150.138 327.412 150.931 327.412 151.612 327.298C152.406 327.298 153.2 327.298 153.88 327.525C154.334 327.639 154.674 328.206 154.561 328.773C154.447 329.114 154.221 329.341 153.88 329.454C153.086 329.681 152.292 329.681 151.612 329.681C150.818 329.681 150.024 329.568 149.344 329.341C148.89 329.227 148.663 328.773 148.777 328.319C148.89 327.979 149.117 327.752 149.344 327.638Z" fill="#717791"/>
<path d="M277.845 342.957C281.588 342.617 285.331 342.503 288.96 342.503L300.075 342.39L322.418 342.276H344.761H355.876C359.619 342.276 363.361 342.276 366.991 342.617C367.558 342.617 367.898 343.184 367.898 343.752C367.898 344.206 367.444 344.659 366.991 344.659C363.248 345 359.505 345 355.876 345H344.761H322.418L300.075 344.886L288.96 344.773C285.217 344.773 281.474 344.773 277.845 344.319C277.391 344.319 277.165 343.865 277.165 343.525C277.165 343.298 277.505 342.957 277.845 342.957Z" fill="#717791"/>
<path d="M241.098 342.844C244.954 342.617 248.697 342.617 252.553 342.503C256.409 342.503 260.152 342.503 264.008 342.73C264.462 342.73 264.915 343.184 264.915 343.752C264.915 344.206 264.462 344.546 264.008 344.659C260.152 344.886 256.409 344.886 252.553 344.886C248.697 344.886 244.954 344.773 241.098 344.546C240.644 344.546 240.304 344.092 240.304 343.638C240.417 343.184 240.758 342.957 241.098 342.844Z" fill="#717791"/>
<path d="M264.913 325.041L410.54 325.041L410.54 98.323L264.913 98.323L264.913 325.041Z" fill="white"/>
<path d="M303.25 171.273C310.509 170.819 317.881 170.819 325.14 170.819L347.029 171.046C354.288 171.046 361.66 171.273 368.919 171.386C376.178 171.5 383.55 171.727 390.808 171.84C391.262 171.84 391.602 172.181 391.602 172.635C391.602 173.089 391.262 173.429 390.808 173.429C383.55 173.542 376.178 173.656 368.919 173.769C361.66 173.769 354.288 173.883 347.029 173.883H325.14C317.881 173.883 310.509 173.769 303.25 173.202C302.683 173.202 302.343 172.748 302.343 172.181C302.343 171.727 302.797 171.273 303.25 171.273Z" fill="#A3ACD6"/>
<path d="M363.021 185.117C367.671 184.209 372.321 184.436 376.858 184.55C381.508 184.663 386.158 184.89 390.695 185.344C391.035 185.344 391.375 185.684 391.375 186.138C391.375 186.479 391.035 186.705 390.695 186.819C386.045 187.273 381.395 187.386 376.858 187.5C372.208 187.5 367.558 187.727 363.021 186.819C362.568 186.705 362.341 186.252 362.341 185.911C362.454 185.457 362.681 185.117 363.021 185.117Z" fill="#A3ACD6"/>
<path d="M344.761 184.89C346.689 184.209 348.617 184.323 350.545 184.323C352.473 184.436 354.402 184.549 356.33 184.89C356.783 185.003 357.124 185.457 357.01 186.025C356.897 186.365 356.67 186.705 356.216 186.705C354.288 187.046 352.36 187.159 350.432 187.273C348.504 187.273 346.576 187.386 344.648 186.705C344.194 186.479 343.854 185.911 344.081 185.457C344.307 185.23 344.534 185.003 344.761 184.89Z" fill="#A3ACD6"/>
<path d="M385.364 198.733C386.272 198.166 387.179 198.053 388.086 197.939C388.54 197.939 388.994 197.826 389.447 197.939C389.901 198.053 390.355 198.166 390.808 198.506C391.375 198.847 391.489 199.641 391.035 200.095C390.922 200.209 390.922 200.322 390.808 200.322C390.355 200.662 389.901 200.776 389.447 200.889C388.994 201.003 388.54 200.889 388.086 200.889C387.179 200.776 386.272 200.549 385.364 199.982C385.024 199.755 384.911 199.301 385.138 198.96C385.138 198.847 385.251 198.847 385.364 198.733Z" fill="#A3ACD6"/>
<path d="M344.761 198.507C347.483 198.393 350.319 198.28 353.041 198.166C355.763 198.053 358.598 197.939 361.32 197.939L369.599 197.826C372.321 197.826 375.157 197.826 377.879 198.28C378.446 198.393 378.786 198.96 378.673 199.528C378.559 199.982 378.219 200.322 377.879 200.322C375.157 200.776 372.321 200.776 369.599 200.776L361.32 200.549C358.598 200.549 355.763 200.322 353.041 200.322C350.319 200.209 347.483 200.095 344.761 199.868C344.421 199.868 344.081 199.528 344.081 199.074C344.081 198.847 344.421 198.507 344.761 198.507Z" fill="#A3ACD6"/>
<path d="M303.25 211.783C310.509 211.329 317.881 211.329 325.14 211.329L347.029 211.556C354.288 211.556 361.66 211.783 368.919 211.896C376.178 212.01 383.55 212.237 390.808 212.35C391.262 212.35 391.602 212.691 391.602 213.145C391.602 213.598 391.262 213.939 390.808 213.939C383.55 214.052 376.178 214.166 368.919 214.279C361.66 214.279 354.288 214.393 347.029 214.393H325.14C317.881 214.393 310.509 214.279 303.25 213.712C302.683 213.712 302.343 213.258 302.343 212.691C302.343 212.123 302.797 211.783 303.25 211.783Z" fill="#A3ACD6"/>
<path d="M363.021 225.513C367.671 224.605 372.321 224.832 376.858 224.946C381.508 225.059 386.158 225.286 390.695 225.74C391.035 225.74 391.375 226.08 391.375 226.534C391.375 226.875 391.035 227.102 390.695 227.215C386.045 227.669 381.395 227.782 376.858 227.896C372.208 227.896 367.558 228.123 363.021 227.215C362.568 227.102 362.341 226.648 362.341 226.307C362.454 225.853 362.681 225.626 363.021 225.513Z" fill="#A3ACD6"/>
<path d="M344.761 225.286C346.689 224.605 348.617 224.719 350.545 224.719C352.473 224.832 354.402 224.946 356.33 225.286C356.783 225.4 357.124 225.853 357.01 226.421C356.897 226.761 356.67 227.102 356.216 227.102C354.288 227.442 352.36 227.556 350.432 227.669C348.504 227.669 346.576 227.783 344.648 227.102C344.194 226.875 343.854 226.307 344.081 225.853C344.307 225.627 344.534 225.4 344.761 225.286Z" fill="#A3ACD6"/>
<path d="M385.364 239.13C386.272 238.562 387.179 238.449 388.086 238.335C388.54 238.335 388.994 238.222 389.447 238.335C389.901 238.449 390.355 238.562 390.808 238.903C391.375 239.243 391.489 240.038 391.035 240.491C390.922 240.605 390.922 240.718 390.808 240.718C390.355 241.059 389.901 241.172 389.447 241.286C388.994 241.399 388.54 241.286 388.086 241.286C387.179 241.172 386.272 240.945 385.364 240.378C385.024 240.151 384.911 239.697 385.138 239.357C385.138 239.357 385.251 239.243 385.364 239.13Z" fill="#A3ACD6"/>
<path d="M344.761 238.903C347.483 238.789 350.319 238.676 353.041 238.562C355.763 238.449 358.598 238.335 361.32 238.335L369.599 238.222C372.321 238.222 375.157 238.222 377.879 238.676C378.446 238.789 378.786 239.357 378.673 239.924C378.559 240.378 378.219 240.718 377.879 240.718C375.157 241.172 372.321 241.172 369.599 241.172L361.32 240.945C358.598 240.945 355.763 240.718 353.041 240.718C350.319 240.605 347.483 240.491 344.761 240.264C344.421 240.264 344.081 239.924 344.081 239.47C344.081 239.243 344.421 238.903 344.761 238.903Z" fill="#A3ACD6"/>
<path d="M303.25 252.179C310.509 251.725 317.881 251.725 325.14 251.725L347.029 251.952C354.288 251.952 361.66 252.179 368.919 252.293C376.178 252.406 383.55 252.633 390.808 252.746C391.262 252.746 391.602 253.087 391.602 253.541C391.602 253.995 391.262 254.335 390.808 254.335C383.55 254.449 376.178 254.562 368.919 254.676C361.66 254.676 354.288 254.789 347.029 254.789H325.14C317.881 254.789 310.509 254.676 303.25 254.108C302.683 254.108 302.343 253.654 302.343 253.087C302.343 252.52 302.797 252.179 303.25 252.179Z" fill="#A3ACD6"/>
<path d="M363.021 265.909C367.671 265.001 372.321 265.228 376.858 265.342C381.508 265.455 386.158 265.682 390.695 266.136C391.035 266.136 391.375 266.477 391.375 266.93C391.375 267.271 391.035 267.498 390.695 267.611C386.045 268.065 381.395 268.179 376.858 268.292C372.208 268.292 367.558 268.519 363.021 267.611C362.568 267.498 362.341 267.044 362.341 266.704C362.454 266.25 362.681 266.023 363.021 265.909Z" fill="#A3ACD6"/>
<path d="M344.761 265.796C346.689 265.115 348.617 265.228 350.545 265.228C352.473 265.342 354.402 265.455 356.33 265.796C356.783 265.909 357.124 266.363 357.01 266.931C356.897 267.271 356.67 267.611 356.216 267.611C354.288 267.952 352.36 268.065 350.432 268.179C348.504 268.179 346.576 268.292 344.648 267.611C344.194 267.384 343.854 266.817 344.081 266.363C344.307 266.023 344.534 265.909 344.761 265.796Z" fill="#A3ACD6"/>
<path d="M385.364 279.639C386.272 279.072 387.179 278.959 388.086 278.845C388.54 278.845 388.994 278.732 389.447 278.845C389.901 278.959 390.355 279.072 390.808 279.412C391.375 279.753 391.489 280.547 391.035 281.001C390.922 281.115 390.922 281.228 390.808 281.228C390.355 281.568 389.901 281.682 389.447 281.795C388.994 281.909 388.54 281.795 388.086 281.795C387.179 281.682 386.272 281.455 385.364 280.888C385.024 280.661 384.911 280.207 385.138 279.866C385.138 279.753 385.251 279.639 385.364 279.639Z" fill="#A3ACD6"/>
<path d="M344.761 279.413C347.483 279.299 350.319 279.186 353.041 279.072C355.763 278.959 358.598 278.845 361.32 278.845L369.599 278.732C372.321 278.732 375.157 278.732 377.879 279.186C378.446 279.299 378.786 279.866 378.673 280.434C378.559 280.888 378.219 281.228 377.879 281.228C375.157 281.682 372.321 281.682 369.599 281.682L361.32 281.455C358.598 281.455 355.763 281.228 353.041 281.228C350.319 281.115 347.483 281.001 344.761 280.774C344.421 280.774 344.081 280.434 344.081 279.98C344.081 279.639 344.421 279.413 344.761 279.413Z" fill="#A3ACD6"/>
<path opacity="0.6" d="M346.122 167.529H364.836C366.764 167.529 368.238 169.117 368.238 170.933V324.915L357.01 324.575L342.946 167.529H346.122Z" fill="#C9D7ED"/>
<path d="M276.484 249.796H264.915V100.807" fill="white"/>
<path d="M276.484 252.066H264.915C263.668 252.066 262.647 251.044 262.647 249.796L262.534 212.577V175.358L262.647 138.139L262.761 119.53C262.874 113.289 262.534 107.161 263.554 100.92C263.668 100.126 264.462 99.5583 265.256 99.7853C265.823 99.8988 266.39 100.353 266.39 100.92C267.411 107.161 267.07 113.289 267.184 119.53L267.297 138.139L267.411 175.358V212.577L267.297 249.796L265.029 247.527H276.597C277.845 247.527 278.866 248.548 278.866 249.796C278.752 251.044 277.732 252.066 276.484 252.066Z" fill="#717791"/>
<path d="M291.115 97.5159C300.982 96.6081 310.849 96.2677 320.717 96.1542C330.584 96.0408 340.451 96.0408 350.319 96.0408C360.186 96.0408 370.053 96.1542 379.92 96.1542C384.797 96.1542 389.788 96.2677 394.665 96.2677C399.541 96.3812 404.532 96.3812 409.409 96.4947C410.429 96.4947 411.11 97.289 411.11 98.3102V181.713V265.115C411.11 266.136 410.316 266.931 409.295 266.931C408.275 266.931 407.481 266.136 407.481 265.115V181.713V98.3102L409.295 100.126C404.418 100.239 399.428 100.353 394.551 100.353C389.674 100.466 384.684 100.466 379.807 100.466C369.94 100.466 360.072 100.58 350.205 100.58C340.338 100.58 330.471 100.466 320.603 100.466C310.736 100.353 300.869 100.012 291.001 99.1045C290.548 99.1045 290.094 98.6506 290.208 98.0833C290.321 97.8563 290.661 97.5159 291.115 97.5159Z" fill="#717791"/>
<path d="M282.382 127.246L297.466 144.948L310.736 138.593C310.736 138.593 322.645 143.132 322.078 143.132C321.511 143.132 336.709 127.473 336.709 127.473L344.761 131.104L355.989 128.154L368.352 147.104L385.931 128.948" stroke="#A9EBC8" stroke-width="4.0236" stroke-miterlimit="10" stroke-linecap="round" stroke-linejoin="round"/>
<path d="M280.68 142.337L294.971 120.21C295.652 119.189 297.013 118.849 298.033 119.53C298.374 119.756 298.6 119.983 298.714 120.21V120.324L306.54 133.146L303.137 132.579L315.953 122.253C316.86 121.572 318.108 121.572 318.902 122.366L339.884 141.316L337.276 140.976L351.793 133.6C352.36 133.26 352.927 133.26 353.494 133.487L368.012 138.139L365.403 139.047L373.909 125.77L374.023 125.657C374.703 124.636 376.064 124.295 377.085 124.976C377.198 125.09 377.312 125.09 377.425 125.203L394.891 141.997C395.345 142.451 395.345 143.132 394.891 143.586C394.551 144.04 393.871 144.04 393.417 143.699L374.363 128.721L377.765 128.267L369.259 141.543C368.692 142.451 367.558 142.791 366.651 142.451L352.133 137.799L353.834 137.685L339.317 145.061C338.41 145.515 337.389 145.288 336.708 144.72L315.84 125.657L318.789 125.77L305.972 136.097C304.952 136.891 303.591 136.777 302.797 135.756C302.683 135.643 302.683 135.643 302.683 135.529L294.858 122.707L298.714 122.82L282.609 143.699C282.155 144.267 281.474 144.38 280.907 143.926C280.454 143.586 280.34 142.905 280.68 142.337Z" fill="#6BA6FF"/>
<path d="M357.804 158.678V324.121L219.095 319.695V158.678H357.804Z" fill="white"/>
<path d="M358.485 157.43V157.883C358.938 171.273 359.278 185.003 359.392 198.847C359.505 205.769 359.278 212.804 359.278 219.84V240.718L359.392 324.121C359.392 325.029 358.711 325.709 357.804 325.709L219.095 321.284C218.301 321.284 217.621 320.603 217.621 319.695V239.13V219.045C217.621 212.35 217.621 205.655 217.394 198.961C217.28 192.266 217.054 185.571 216.94 178.876C216.94 172.181 216.94 165.486 216.94 158.791C216.94 157.543 217.961 156.635 219.095 156.635L254.141 156.749L289.187 156.976L358.485 157.43ZM357.124 159.812H356.67L287.712 160.493L253.46 160.72L219.208 160.834L221.363 158.678C221.363 165.373 221.477 172.068 221.363 178.762C221.363 185.457 221.137 192.152 220.91 198.847C220.683 205.542 220.683 212.237 220.683 218.932V239.016V319.582L219.208 317.993L357.917 322.419L356.33 324.007L356.443 241.853V221.315C356.443 214.506 356.33 207.811 356.33 200.89C356.33 187.5 356.67 173.77 357.124 159.812Z" fill="#717791"/>
<path d="M416.1 315.497C416.214 316.518 416.214 317.539 416.327 318.674L416.1 315.497Z" fill="#93B9F4"/>
<path d="M425.968 307.213C426.081 308.121 426.194 309.029 426.194 309.937L425.968 307.213Z" fill="#93B9F4"/>
<path d="M252.213 198.507L257.657 202.251L253.687 202.478L264.008 193.173C264.802 192.493 265.936 192.606 266.617 193.287C267.184 193.968 267.184 194.989 266.617 195.67L257.77 206.45L257.657 206.563C256.75 207.585 255.275 207.811 254.141 206.904C254.027 206.79 253.914 206.677 253.801 206.45L249.718 201.117C249.151 200.322 249.264 199.188 250.058 198.507C250.738 198.053 251.532 198.166 252.213 198.507Z" fill="#9FC3FD"/>
<path d="M271.834 203.726C271.721 205.315 271.267 207.017 270.586 208.606C270.246 209.4 269.792 210.081 269.339 210.875C269.112 211.216 268.885 211.556 268.545 211.896C268.205 212.237 267.978 212.464 267.638 212.804C265.029 215.074 261.626 216.549 258.224 216.662C254.821 216.889 251.305 215.981 248.357 214.052C245.521 212.123 243.253 209.287 242.119 205.996C240.985 202.705 240.985 199.074 242.005 195.783C242.572 194.195 243.366 192.606 244.387 191.244C245.408 189.883 246.769 188.635 248.13 187.727C250.965 185.798 254.481 184.89 257.884 185.117C261.286 185.23 264.689 186.819 266.503 189.656C266.617 189.883 266.617 190.223 266.39 190.45C266.277 190.564 266.05 190.564 265.936 190.45C264.462 189.883 263.214 189.429 261.853 189.088C260.492 188.748 259.245 188.408 257.884 188.408C255.162 188.294 252.44 189.088 250.285 190.677C248.13 192.266 246.429 194.535 245.635 197.032C244.727 199.528 244.841 202.365 245.748 204.861C246.542 207.358 248.357 209.627 250.512 211.102C252.78 212.577 255.502 213.372 258.11 213.145C260.832 213.031 263.441 211.896 265.369 210.081C265.823 209.627 266.39 209.173 266.844 208.719C267.297 208.265 267.751 207.698 268.205 207.131C268.999 205.996 269.679 204.748 270.246 203.386C270.473 202.932 270.927 202.705 271.38 202.819C271.607 202.932 271.834 203.273 271.834 203.726Z" fill="#717791"/>
<path d="M283.516 192.833C285.784 191.812 288.053 191.698 290.207 191.698C292.476 191.698 294.744 191.585 297.013 191.585C299.281 191.585 301.549 191.585 303.818 191.698C306.086 191.812 308.354 191.925 310.623 192.039C311.417 192.152 311.87 192.72 311.87 193.514C311.757 194.195 311.303 194.649 310.736 194.762C308.468 195.103 306.199 195.216 303.931 195.443C301.663 195.67 299.394 195.783 297.126 195.897C294.858 196.01 292.589 196.124 290.321 196.124C288.053 196.237 285.784 196.124 283.516 195.216C282.835 194.989 282.495 194.195 282.835 193.514C283.062 193.174 283.289 192.947 283.516 192.833Z" fill="#717791"/>
<path d="M283.743 203.046C286.692 202.365 289.527 202.251 292.476 202.138C295.425 202.024 298.26 202.024 301.209 202.024C304.158 202.024 306.993 202.024 309.942 202.024C312.891 202.024 315.726 202.024 318.675 202.138C319.469 202.138 320.036 202.819 320.036 203.5C320.036 204.18 319.469 204.748 318.789 204.861C315.84 205.088 313.004 205.202 310.055 205.429C307.107 205.542 304.271 205.656 301.322 205.769C298.374 205.882 295.538 205.883 292.589 205.996C289.64 206.109 286.805 206.109 283.856 205.542C283.176 205.429 282.722 204.748 282.949 204.18C282.949 203.5 283.289 203.159 283.743 203.046Z" fill="#717791"/>
<path d="M316.18 192.039C317.201 191.698 318.221 191.698 319.242 191.585L322.418 191.471C324.459 191.471 326.614 191.471 328.656 191.471C329.45 191.471 330.017 192.152 329.903 192.833C329.903 193.514 329.336 194.081 328.656 194.081C326.614 194.195 324.459 194.308 322.418 194.422L319.242 194.535C318.221 194.535 317.201 194.535 316.067 194.308C315.386 194.081 315.046 193.514 315.159 192.833C315.499 192.493 315.726 192.152 316.18 192.039Z" fill="#717791"/>
<path d="M254.254 287.81L259.698 291.554L255.729 291.668L266.05 282.363C266.844 281.682 267.978 281.796 268.658 282.476C269.225 283.157 269.225 284.179 268.658 284.859L259.812 295.639L259.698 295.753C258.791 296.774 257.317 297.001 256.182 296.093C256.069 295.98 255.956 295.866 255.842 295.639L251.759 290.306C251.192 289.512 251.305 288.377 252.099 287.696C252.666 287.356 253.574 287.469 254.254 287.81Z" fill="#9FC3FD"/>
<path d="M273.762 293.029C273.649 294.618 273.195 296.32 272.514 297.909C272.174 298.703 271.721 299.384 271.267 300.178C271.04 300.519 270.813 300.859 270.473 301.199C270.133 301.54 269.906 301.767 269.566 302.107C266.957 304.377 263.555 305.852 260.152 305.965C256.749 306.192 253.234 305.284 250.285 303.355C247.449 301.426 245.181 298.59 244.047 295.299C242.913 292.008 242.913 288.377 243.933 285.086C244.5 283.498 245.294 281.909 246.315 280.547C247.336 279.186 248.697 277.938 250.058 277.03C252.893 275.101 256.409 274.193 259.812 274.42C263.214 274.533 266.617 276.122 268.431 278.959C268.545 279.186 268.545 279.526 268.318 279.753C268.205 279.867 267.978 279.867 267.864 279.753C266.39 279.186 265.142 278.732 263.781 278.391C262.42 278.051 261.173 277.711 259.812 277.711C257.09 277.597 254.368 278.391 252.213 279.98C250.058 281.569 248.357 283.838 247.563 286.335C246.655 288.831 246.769 291.668 247.676 294.164C248.47 296.661 250.285 298.93 252.44 300.405C254.708 301.88 257.43 302.675 260.039 302.448C262.761 302.334 265.369 301.199 267.297 299.384C267.751 298.93 268.318 298.476 268.772 298.022C269.225 297.568 269.679 297.001 270.133 296.434C270.927 295.299 271.607 294.051 272.174 292.689C272.401 292.235 272.855 292.008 273.308 292.122C273.535 292.235 273.762 292.576 273.762 293.029Z" fill="#717791"/>
<path d="M285.557 282.136C287.826 281.115 290.094 281.001 292.249 281.001C294.517 281.001 296.786 280.888 299.054 280.888C301.322 280.888 303.591 280.888 305.859 281.001C308.127 281.115 310.396 281.228 312.664 281.342C313.458 281.455 313.912 282.023 313.912 282.817C313.798 283.498 313.345 283.952 312.778 284.065C310.509 284.405 308.241 284.519 305.972 284.746C303.704 284.973 301.436 285.086 299.167 285.2C296.899 285.313 294.631 285.427 292.362 285.427C290.094 285.54 287.826 285.427 285.557 284.519C284.877 284.292 284.537 283.498 284.877 282.817C284.99 282.476 285.217 282.249 285.557 282.136Z" fill="#717791"/>
<path d="M285.784 292.349C288.733 291.668 291.569 291.554 294.517 291.441C297.466 291.327 300.302 291.327 303.25 291.327C306.199 291.327 309.035 291.327 311.984 291.327C314.932 291.327 317.768 291.327 320.717 291.441C321.511 291.441 322.078 292.122 322.078 292.803C322.078 293.483 321.511 294.051 320.83 294.164C317.881 294.391 315.046 294.505 312.097 294.732C309.148 294.845 306.313 294.959 303.364 295.072C300.415 295.185 297.58 295.185 294.631 295.299C291.682 295.412 288.847 295.412 285.898 294.845C285.217 294.732 284.764 294.051 284.99 293.483C284.99 292.803 285.331 292.462 285.784 292.349Z" fill="#717791"/>
<path d="M318.108 281.342C319.129 281.001 320.15 281.001 321.17 280.888L324.346 280.774C326.388 280.774 328.542 280.774 330.584 280.774C331.378 280.774 331.945 281.455 331.832 282.136C331.832 282.817 331.264 283.384 330.584 283.384C328.542 283.498 326.388 283.611 324.346 283.725L321.17 283.838C320.15 283.838 319.129 283.838 317.995 283.611C317.314 283.384 316.974 282.817 317.087 282.136C317.428 281.796 317.768 281.455 318.108 281.342Z" fill="#717791"/>
<path d="M221.704 213.598C220.116 213.031 219.208 211.329 218.982 209.74C218.755 208.152 219.095 206.45 219.322 204.748C220.002 199.187 219.095 193.514 216.827 188.408C215.125 184.549 212.403 180.805 208.661 178.876C204.918 176.833 199.928 176.833 196.525 179.557C193.009 182.394 192.102 187.273 191.535 191.698C190.968 195.329 190.514 198.847 189.947 202.478C189.607 204.407 189.38 206.563 190.06 208.379C190.854 210.762 192.896 212.35 194.71 214.166C197.546 217.003 199.587 220.52 202.083 223.584C204.578 226.648 207.753 229.485 211.723 230.279C213.311 230.619 215.012 230.506 216.373 229.712C218.528 228.35 219.208 225.627 219.662 223.13C220.343 219.386 221.023 215.641 221.817 211.896" fill="white"/>
<path d="M223.859 320.603C223.632 321.624 223.405 322.759 222.838 323.667C222.271 324.575 221.137 325.256 220.116 325.029C218.755 324.802 218.074 323.326 217.621 322.078C216.146 317.766 216.033 313.114 216.033 308.575C215.919 299.838 215.693 291.214 215.579 282.476C212.744 283.611 209.568 283.611 206.846 282.59C205.485 292.689 203.784 302.674 201.742 312.547C200.722 317.426 199.474 322.532 196.185 326.277C192.102 316.972 191.648 306.646 191.194 296.66C190.854 288.717 190.514 280.774 190.06 272.718C189.947 270.789 189.834 268.746 190.287 266.817C190.741 264.888 191.875 263.073 193.576 262.165C196.298 260.803 199.474 261.938 202.423 262.619C209.568 264.434 217.167 263.98 223.972 261.257C224.993 260.803 226.127 260.349 227.261 260.236C228.849 260.122 229.983 260.576 229.983 262.051C229.983 263.98 229.756 265.909 229.756 267.838C229.529 272.15 229.303 276.462 228.962 280.661C228.282 289.171 227.374 297.568 226.127 305.965C225.56 311.071 224.766 315.837 223.859 320.603Z" fill="white"/>
<path d="M227.715 210.875C230.55 211.216 231.231 215.074 233.612 216.662C235.994 218.137 237.809 221.542 237.128 224.265C236.561 226.648 233.386 230.392 231.004 230.96C228.622 231.641 229.416 225.4 227.148 224.946C231.117 233.57 233.386 242.988 234.066 252.406C234.293 255.13 234.18 258.08 232.365 260.122C231.117 261.597 229.076 262.278 227.261 262.846C215.466 266.363 202.876 268.633 191.081 265.682C189.38 265.229 187.679 264.661 186.658 263.3C185.637 261.824 185.75 260.009 185.977 258.193C186.431 252.406 186.998 246.619 187.452 240.718C187.565 239.357 187.679 237.768 186.885 236.633C186.431 236.066 185.864 235.612 185.297 235.272C182.461 233.343 179.513 231.527 176.677 229.598C179.286 224.605 182.348 219.84 185.977 215.528C187.679 213.485 189.607 211.443 192.215 211.102C194.597 210.762 196.865 211.896 199.02 213.031C201.515 214.279 204.011 215.641 206.166 217.457C208.32 219.272 210.022 221.655 210.475 224.492C212.063 224.038 212.744 222.222 212.971 220.52C213.197 218.818 213.084 217.116 213.991 215.755C215.579 213.485 218.641 213.031 220.343 210.762C221.363 209.514 221.59 209.74 223.178 210.081C224.539 210.535 226.127 210.762 227.715 210.875Z" fill="#B8D4FF"/>
<path d="M230.664 262.051C229.756 280.093 225.22 325.936 220.229 325.936C215.693 325.936 216.033 299.838 216.033 284.973" stroke="#717791" stroke-width="2.6902" stroke-miterlimit="10" stroke-linecap="round" stroke-linejoin="round"/>
<path d="M218.982 280.661C212.063 283.838 211.156 283.044 206.506 282.022C205.939 292.575 200.041 325.823 195.958 325.823C192.102 325.823 190.968 315.043 191.081 265.115" stroke="#717791" stroke-width="2.6902" stroke-miterlimit="10" stroke-linecap="round" stroke-linejoin="round"/>
<path d="M227.601 225.513C230.664 231.981 233.953 243.782 234.52 257.966C234.52 259.441 233.612 260.917 232.251 261.484C219.095 266.817 215.579 267.271 205.145 266.817C197.773 266.477 192.215 265.569 189.266 264.888C187.905 264.548 186.885 263.413 186.885 262.051C186.544 256.264 186.091 240.491 189.38 230.052" stroke="#717791" stroke-width="2.6902" stroke-miterlimit="10" stroke-linecap="round" stroke-linejoin="round"/>
<path d="M191.308 212.123C185.524 216.095 178.832 222.676 176.337 229.825C182.915 234.591 185.864 235.839 185.864 235.839" stroke="#717791" stroke-width="2.6902" stroke-miterlimit="10" stroke-linecap="round" stroke-linejoin="round"/>
<path d="M219.889 209.287C219.889 197.372 217.507 180.805 206.506 178.082C203.217 177.287 199.02 178.422 196.525 180.691C190.401 186.252 190.401 203.953 191.194 211.783" stroke="#717791" stroke-width="2.6902" stroke-miterlimit="10" stroke-linecap="round" stroke-linejoin="round"/>
<path d="M214.445 205.882C214.218 207.017 213.424 207.698 212.744 208.152C211.95 208.606 211.156 208.833 210.362 208.946C208.774 209.173 207.073 208.719 205.939 207.584C205.598 207.244 205.598 206.677 205.939 206.223C206.166 205.996 206.506 205.882 206.846 205.996H206.959C207.98 206.223 209.001 206.336 210.022 206.109C210.475 205.996 211.042 205.882 211.383 205.769C211.836 205.542 212.063 205.428 212.29 205.315L212.857 204.975C213.311 204.634 213.878 204.861 214.218 205.315C214.445 205.428 214.558 205.655 214.445 205.882Z" fill="#717791"/>
<path d="M206.846 218.705C205.598 218.478 204.351 218.024 203.217 217.57C202.082 217.116 200.948 216.662 199.814 216.095C197.659 214.96 195.504 213.712 193.69 211.896C193.349 211.556 193.349 210.989 193.69 210.648C193.916 210.421 194.37 210.308 194.71 210.421C196.865 211.442 198.907 212.464 201.062 213.372C203.217 214.279 205.372 215.074 207.527 215.641C208.32 215.868 208.888 216.662 208.661 217.457C208.434 218.478 207.64 218.932 206.846 218.705Z" fill="#717791"/>
<path d="M212.177 214.847C213.197 214.506 214.218 213.939 215.239 213.372C216.26 212.804 217.28 212.123 218.188 211.329C218.528 210.989 219.095 211.102 219.435 211.443C219.662 211.783 219.662 212.237 219.435 212.577C218.528 213.485 217.734 214.393 216.713 215.187C215.806 216.095 214.785 216.889 213.651 217.57C212.971 218.024 211.95 217.797 211.496 217.116C211.042 216.435 211.269 215.414 211.95 214.96C211.95 214.96 212.063 214.96 212.177 214.847Z" fill="#717791"/>
<path d="M224.993 266.25C225.333 268.292 227.715 270.335 228.622 270.335" stroke="#717791" stroke-width="2.6902" stroke-miterlimit="10" stroke-linecap="round" stroke-linejoin="round"/>
<path d="M197.432 268.065C196.979 270.108 194.937 272.037 193.236 272.037" stroke="#717791" stroke-width="2.6902" stroke-miterlimit="10" stroke-linecap="round" stroke-linejoin="round"/>
<path d="M212.63 216.435C211.95 219.159 210.589 225.513 210.362 230.392C209.228 223.357 208.547 220.18 207.186 217.343" stroke="#717791" stroke-width="2.6902" stroke-miterlimit="10" stroke-linecap="round" stroke-linejoin="round"/>
<path d="M205.598 220.407V220.52" stroke="#717791" stroke-width="2.6902" stroke-miterlimit="10" stroke-linecap="round" stroke-linejoin="round"/>
<path d="M205.598 225.513V225.627" stroke="#717791" stroke-width="2.6902" stroke-miterlimit="10" stroke-linecap="round" stroke-linejoin="round"/>
<path d="M133.579 264.775L213.878 291.668C217.28 292.802 221.023 290.987 222.157 287.583L230.777 261.938C231.911 258.534 230.097 254.789 226.694 253.654L146.395 226.761C142.992 225.627 139.249 227.442 138.115 230.846L129.496 256.491C128.361 260.009 130.176 263.64 133.579 264.775Z" fill="white" stroke="#717791" stroke-width="2.5" stroke-miterlimit="10" stroke-linecap="round" stroke-linejoin="round"/>
<path d="M165.109 257.853C163.974 260.236 161.819 262.505 159.211 263.526C156.489 264.434 153.54 264.548 150.818 263.753C148.096 262.959 145.714 261.144 144.013 258.874C142.425 256.605 141.518 253.654 141.631 250.818C141.745 247.981 142.765 245.144 144.58 242.988C146.395 240.718 149.003 239.243 151.725 238.562C154.447 237.995 157.396 238.336 160.005 239.47C162.613 240.605 164.768 242.874 165.335 245.598C165.335 245.825 165.222 246.052 164.995 246.165C164.882 246.165 164.655 246.165 164.655 246.052C162.727 244.35 161.139 242.874 158.984 241.967C156.943 241.059 154.561 240.832 152.406 241.399C150.251 241.967 148.323 243.215 146.962 244.917C145.601 246.619 144.807 248.775 144.694 250.931C144.58 253.087 145.261 255.356 146.508 257.172C147.756 258.988 149.684 260.349 151.725 261.03C153.88 261.711 156.149 261.597 158.19 260.917C160.232 260.236 162.273 259.101 163.861 257.285C164.088 256.945 164.541 256.945 164.882 257.172C165.222 257.172 165.335 257.512 165.109 257.853Z" fill="#A3ACD6"/>
<path d="M177.471 252.974C179.513 252.86 181.214 253.427 183.028 254.108C184.73 254.789 186.544 255.356 188.246 256.037C189.947 256.718 191.648 257.399 193.463 258.193C195.164 258.874 196.865 259.668 198.567 260.463C199.134 260.69 199.36 261.37 199.02 261.938C198.793 262.392 198.226 262.619 197.773 262.505C195.958 262.051 194.143 261.597 192.442 261.03C190.627 260.463 188.926 259.895 187.111 259.328C185.297 258.761 183.596 258.08 181.894 257.512C180.193 256.945 178.378 256.151 176.904 254.789C176.45 254.449 176.45 253.768 176.791 253.314C176.904 253.087 177.131 252.974 177.471 252.974Z" fill="#A3ACD6"/>
<path d="M174.522 260.917C176.904 261.257 179.286 262.051 181.441 262.846L188.246 265.342C190.514 266.136 192.669 267.044 194.937 267.952C197.206 268.86 199.361 269.767 201.629 270.675C202.196 270.902 202.423 271.583 202.196 272.15C201.969 272.718 201.402 272.945 200.835 272.831C198.567 272.15 196.298 271.356 194.03 270.675C191.762 269.881 189.493 269.2 187.225 268.292L180.42 265.909C178.152 265.115 175.883 264.207 173.842 262.959C173.388 262.619 173.275 262.051 173.501 261.597C173.842 261.03 174.182 260.803 174.522 260.917Z" fill="#A3ACD6"/>
<path d="M202.65 262.165C203.557 262.278 204.351 262.505 205.145 262.732L207.527 263.64C209.114 264.207 210.702 264.888 212.29 265.569C212.857 265.796 213.084 266.477 212.857 267.044C212.63 267.611 212.063 267.838 211.496 267.725C209.795 267.271 208.207 266.704 206.619 266.136L204.237 265.229C203.443 264.888 202.65 264.661 201.969 264.094C201.515 263.753 201.402 263.186 201.742 262.732C201.969 262.278 202.309 262.165 202.65 262.165Z" fill="#A3ACD6"/>
<path d="M181.327 234.137C176.791 240.491 172.821 247.981 176.904 268.973C174.295 269.427 173.048 270.562 172.934 272.604" stroke="#717791" stroke-width="2.6902" stroke-miterlimit="10" stroke-linecap="round" stroke-linejoin="round"/>
<path d="M221.59 210.194C231.231 212.123 236.221 216.889 238.376 224.378C234.86 228.236 232.478 230.279 231.231 231.3" stroke="#717791" stroke-width="2.6902" stroke-miterlimit="10" stroke-linecap="round" stroke-linejoin="round"/>
<path d="M234.86 228.01C239.624 233.797 243.82 241.172 241.778 261.37C244.387 261.484 245.748 262.619 246.088 264.661" stroke="#717791" stroke-width="2.6902" stroke-miterlimit="10" stroke-linecap="round" stroke-linejoin="round"/>
<path d="M397.613 186.251C396.593 189.202 396.139 192.266 395.685 195.443C395.232 198.733 394.778 202.024 394.324 205.315C394.097 207.244 393.757 209.286 394.438 211.215C395.118 213.371 396.933 215.073 398.634 216.662C400.109 218.024 401.47 219.272 403.171 220.293C404.872 221.201 406.8 221.768 408.728 221.428C410.203 221.201 411.45 220.407 412.811 219.726C415.987 217.91 419.276 216.095 422.452 214.279C423.246 213.825 424.153 213.371 424.607 212.577C425.287 211.556 425.287 210.194 425.287 208.946C425.287 204.974 425.287 201.116 425.287 197.145C425.287 192.266 425.174 186.932 422.111 183.074C419.957 180.237 416.441 178.649 413.038 178.081C410.203 177.628 406.914 177.514 404.078 178.195C402.264 178.649 400.789 180.805 399.768 182.166C398.861 183.301 398.18 184.776 397.613 186.251Z" fill="white"/>
<path d="M391.149 320.49C391.375 321.624 391.602 322.646 392.169 323.553C392.736 324.461 393.871 325.142 394.891 324.915C396.252 324.688 397.046 323.213 397.387 321.965C398.861 317.539 398.974 312.887 398.974 308.235C399.088 299.384 399.315 290.533 399.428 281.682C402.263 282.817 405.439 282.817 408.388 281.795C409.749 292.008 411.45 302.221 413.605 312.32C414.626 317.312 415.874 322.532 419.276 326.277C423.359 316.858 423.926 306.419 424.38 296.093C424.72 288.036 425.174 279.866 425.514 271.81C425.627 269.767 425.741 267.838 425.174 265.796C424.607 263.753 423.586 261.938 421.771 261.03C419.049 259.555 415.76 260.69 412.698 261.484C405.439 263.413 397.613 262.846 390.695 260.009C389.561 259.555 388.54 259.101 387.292 258.987C385.705 258.874 384.57 259.328 384.57 260.916C384.57 262.846 384.797 264.888 384.797 266.817C385.024 271.129 385.251 275.554 385.591 279.866C386.272 288.49 387.179 297.001 388.427 305.625C389.447 310.731 390.241 315.61 391.149 320.49Z" fill="#B8D4FF"/>
<path d="M386.612 206.563C383.777 206.904 381.055 206.677 378.673 208.152C376.178 209.74 377.539 213.712 378.219 216.549C378.786 218.932 378.446 222.79 380.828 223.471C383.209 224.151 385.705 223.811 388.2 223.357C384.23 232.208 381.848 241.626 381.168 251.271C380.941 253.995 381.054 257.058 382.869 259.101C384.23 260.576 386.158 261.257 388.086 261.824C399.995 265.455 412.811 267.725 424.947 264.661C426.648 264.207 428.463 263.64 429.37 262.165C430.391 260.69 430.277 258.761 430.051 257.058C429.484 251.158 429.03 245.257 428.463 239.357C428.349 237.882 428.236 236.406 429.143 235.158C429.597 234.591 429.03 233.116 428.916 232.435C428.123 227.782 424.493 225.626 427.442 223.697C424.833 218.591 425.627 220.407 424.38 213.145C423.926 210.535 426.535 209.513 423.926 209.173C421.544 208.833 419.163 209.967 417.008 211.102C414.513 212.464 411.904 213.712 409.749 215.641C407.594 217.456 405.779 219.953 405.326 222.79C403.738 222.336 402.944 220.52 402.831 218.818C402.604 217.116 402.717 215.3 401.81 213.939C400.222 211.669 397.16 211.102 395.345 208.946C394.324 207.698 394.097 207.811 392.51 208.265C390.695 208.606 388.2 206.336 386.612 206.563Z" fill="white"/>
<path d="M385.818 260.916C386.385 269.994 387.179 279.072 388.086 288.036C389.107 297.114 390.128 306.079 391.943 314.929C392.396 317.085 392.85 319.355 393.53 321.397C393.871 322.419 394.211 323.44 394.665 324.121C394.778 324.348 394.891 324.461 395.005 324.461C395.118 324.461 394.891 324.461 394.778 324.461H394.665L394.778 324.348C394.778 324.348 394.891 324.234 394.891 324.121C395.345 323.44 395.685 322.419 395.912 321.397C396.139 320.376 396.366 319.241 396.479 318.22C396.819 316.064 397.046 313.795 397.16 311.525C397.5 306.986 397.613 302.447 397.727 297.909C397.84 293.37 397.727 288.831 398.407 284.292C398.407 283.951 398.748 283.724 399.088 283.724C399.315 283.724 399.542 283.951 399.655 284.292C400.335 288.831 400.222 293.37 400.222 298.022C400.222 302.561 400.109 307.213 399.882 311.752C399.768 314.022 399.541 316.291 399.315 318.674C399.201 319.809 398.974 320.944 398.748 322.192C398.407 323.326 398.18 324.575 397.387 325.823C397.273 325.936 397.16 326.163 397.046 326.277C396.933 326.39 396.706 326.617 396.593 326.731C396.366 326.844 396.139 327.071 395.912 327.184C395.685 327.298 395.345 327.411 395.005 327.411C394.665 327.411 394.211 327.411 393.984 327.184C393.644 327.071 393.417 326.844 393.19 326.731C392.85 326.39 392.623 326.05 392.396 325.823C391.602 324.575 391.262 323.553 390.808 322.419C390.014 320.149 389.561 317.88 388.994 315.61C387.179 306.532 386.045 297.455 384.911 288.377C383.89 279.299 383.096 270.221 382.642 261.03C382.642 260.122 383.209 259.441 384.117 259.441C385.024 259.328 385.818 260.009 385.818 260.916Z" fill="#717791"/>
<path d="M396.479 279.072C398.521 279.753 400.676 280.434 402.49 280.661C403.398 280.774 404.305 280.661 405.212 280.434C406.233 280.207 407.254 279.98 408.388 279.866C409.182 279.64 410.089 280.207 410.203 281.115C410.203 281.228 410.203 281.228 410.203 281.342C410.543 285.767 411.11 290.306 411.904 294.731C412.584 299.27 413.492 303.696 414.399 308.121C415.42 312.547 416.441 316.972 417.915 321.057C418.255 322.078 418.709 323.1 419.276 323.894C419.389 324.121 419.503 324.234 419.616 324.348C419.73 324.461 419.843 324.461 419.616 324.348C419.616 324.348 419.503 324.348 419.389 324.348C419.389 324.348 419.389 324.348 419.503 324.348C419.503 324.348 419.616 324.348 419.616 324.234C419.957 323.894 420.41 322.873 420.637 321.851C420.864 320.83 421.091 319.809 421.318 318.674C421.998 314.249 422.111 309.71 422.338 305.171C422.565 300.632 422.565 296.093 422.679 291.554C422.792 282.476 422.792 273.285 422.792 264.207C422.792 263.299 423.472 262.619 424.38 262.619C425.287 262.619 425.968 263.299 425.968 264.207C425.968 273.399 425.968 282.476 425.854 291.668C425.741 296.207 425.741 300.859 425.514 305.398C425.287 309.937 425.174 314.589 424.493 319.241C424.38 320.376 424.153 321.624 423.813 322.759C423.472 323.894 423.132 325.256 421.885 326.504C421.544 326.844 421.091 327.071 420.637 327.298C420.41 327.412 420.07 327.412 419.843 327.412C419.73 327.412 419.616 327.412 419.389 327.412C419.163 327.412 418.936 327.412 418.822 327.298C418.028 327.071 417.688 326.731 417.461 326.39C417.121 326.05 417.008 325.823 416.781 325.482C416.1 324.348 415.647 323.213 415.193 322.078C413.605 317.653 412.584 313.114 411.564 308.689C410.543 304.15 409.749 299.724 409.068 295.185C408.388 290.646 407.707 286.107 407.367 281.455L409.295 282.93C408.275 283.271 407.254 283.498 406.006 283.725C404.872 283.952 403.398 283.952 402.15 283.611C400.902 283.384 399.768 282.93 398.748 282.363C397.727 281.909 396.706 281.342 395.799 280.661C395.345 280.434 395.232 279.753 395.458 279.413C395.572 279.072 396.026 278.959 396.479 279.072Z" fill="#717791"/>
<path d="M395.458 208.833C393.984 209.059 392.51 209.286 391.035 209.286C389.561 209.4 387.973 209.4 386.499 209.173C384.911 208.946 383.55 208.492 382.416 208.492C381.281 208.379 380.034 208.719 378.786 209.059L379.807 208.038C379.353 209.513 379.126 211.215 379.126 212.918C379.013 214.62 379.126 216.322 379.353 217.91L379.013 217.116C379.58 217.683 380.261 218.364 380.941 218.818C381.622 219.385 382.302 219.839 383.096 220.293C384.57 221.088 386.158 221.655 387.746 221.541C388.653 221.541 389.334 222.222 389.447 223.13C389.447 223.357 389.447 223.697 389.334 223.924C387.292 228.236 385.818 232.889 384.684 237.655C383.55 242.42 382.869 247.186 382.416 252.066C382.302 253.314 382.189 254.449 382.189 255.697V256.604V257.058C382.189 257.172 382.189 257.285 382.189 257.285C382.189 257.626 382.302 257.966 382.529 258.307C382.756 258.647 382.983 258.874 383.323 258.987C383.436 259.101 383.777 259.214 384.003 259.328L384.911 259.668L388.313 261.03C392.85 262.732 397.5 264.207 402.15 264.434C404.532 264.548 406.914 264.548 409.409 264.434C411.904 264.321 414.286 264.207 416.667 263.98C419.049 263.753 421.544 263.413 423.926 262.959L425.741 262.619C426.421 262.505 426.535 262.392 426.875 262.278C427.102 262.051 427.329 261.824 427.442 261.597C427.442 261.484 427.555 261.257 427.555 261.143L427.669 260.236C428.009 255.356 428.236 250.363 428.236 245.484C428.236 243.101 428.236 240.605 428.123 238.222C427.782 235.839 427.669 233.343 427.669 230.846C427.669 230.506 428.009 230.165 428.349 230.165C428.69 230.165 428.916 230.392 429.03 230.619C429.37 231.867 429.71 233.002 429.937 234.25C430.051 234.818 430.277 235.499 430.391 236.066C430.504 236.633 430.504 237.314 430.618 237.995C430.958 240.491 431.298 242.988 431.298 245.484C431.412 250.477 431.185 255.47 430.845 260.463V261.37C430.845 261.824 430.731 262.278 430.504 262.732C430.164 263.64 429.597 264.321 428.803 264.888C428.463 265.115 428.009 265.342 427.555 265.455C427.102 265.569 426.762 265.682 426.421 265.682L424.607 266.023C422.111 266.477 419.616 266.817 417.121 267.044C414.626 267.271 412.131 267.498 409.636 267.611C407.14 267.725 404.645 267.725 402.037 267.611C399.428 267.498 396.933 267.044 394.438 266.363C391.943 265.682 389.561 264.888 387.292 263.98L383.777 262.619L382.869 262.278C382.642 262.165 382.302 262.051 381.848 261.824C381.055 261.37 380.374 260.803 379.92 260.122C379.467 259.441 379.126 258.534 379.013 257.626C379.013 257.399 379.013 257.172 379.013 256.945V256.491V255.583C379.013 254.335 379.126 253.087 379.24 251.839C379.694 246.846 380.487 241.853 381.622 236.974C382.756 232.094 384.23 227.215 386.499 222.563L387.973 224.832C385.705 224.946 383.55 224.151 381.735 223.13C380.828 222.676 379.92 221.995 379.126 221.428C378.333 220.747 377.539 220.18 376.858 219.272C376.631 219.045 376.518 218.705 376.518 218.478C376.178 216.549 376.178 214.733 376.291 212.804C376.404 210.989 376.518 209.059 377.198 207.13C377.312 206.677 377.765 206.223 378.219 206.109C379.694 205.655 381.281 205.315 382.983 205.428C384.684 205.542 386.045 205.996 387.292 206.223C388.54 206.45 389.901 206.45 391.262 206.336C392.623 206.223 393.984 206.109 395.345 205.882C396.139 205.769 396.933 206.336 397.16 207.244C397.387 208.152 396.366 208.719 395.458 208.833Z" fill="#717791"/>
<path d="M420.297 216.662C419.163 218.137 418.255 219.726 417.461 221.428C416.667 223.13 415.987 224.832 415.42 226.648L414.966 224.832C415.533 225.286 416.441 225.853 417.121 226.307C417.915 226.761 418.709 227.329 419.503 227.782C421.091 228.69 422.792 229.598 424.38 230.506L422.565 230.846C423.926 229.371 425.174 227.555 426.421 225.853C426.762 225.399 426.988 224.946 427.329 224.492L427.555 224.151C427.555 224.038 427.669 223.924 427.669 223.811C427.782 223.584 427.896 223.357 428.009 223.13C428.349 222.222 428.69 221.314 428.803 220.407C429.03 218.591 428.576 216.662 427.669 214.96C426.762 213.371 425.174 211.783 423.699 210.988C423.132 210.648 422.792 210.081 422.905 209.513C423.472 202.932 423.359 196.237 422.338 189.769C421.771 186.592 420.977 183.415 419.389 180.805C418.596 179.557 417.688 178.649 416.327 177.968C415.08 177.287 413.605 176.833 412.131 176.72C410.656 176.606 409.295 176.72 407.934 177.287C406.573 177.854 405.326 178.649 404.305 179.67C402.15 181.713 400.676 184.663 399.655 187.727C398.634 190.79 397.954 193.968 397.613 197.258C397.387 198.847 397.273 200.549 397.046 202.138C396.933 203.726 396.706 205.428 396.366 207.13C396.252 207.698 395.685 208.038 395.118 207.925C394.665 207.811 394.438 207.471 394.324 207.13C393.984 205.428 393.871 203.726 393.984 202.024C394.097 200.322 394.211 198.62 394.438 196.918C394.891 193.514 395.572 190.109 396.706 186.819C397.84 183.528 399.428 180.237 402.15 177.628C403.511 176.379 405.099 175.245 406.8 174.564C407.708 174.223 408.615 173.996 409.522 173.769C410.543 173.656 411.45 173.656 412.358 173.769C414.286 173.996 416.1 174.564 417.688 175.472C418.482 175.925 419.276 176.493 420.07 177.174C420.864 177.854 421.431 178.649 421.885 179.443C422.905 181.032 423.586 182.734 424.04 184.436C424.607 186.138 424.947 187.84 425.287 189.542C425.854 192.946 426.081 196.35 426.194 199.755C426.308 203.159 426.194 206.563 425.854 209.967L425.06 208.492C426.194 209.173 427.215 209.854 428.009 210.762C428.803 211.669 429.597 212.577 430.278 213.712C431.525 215.868 432.092 218.478 431.865 220.974C431.752 222.222 431.412 223.47 430.845 224.605C430.731 224.946 430.618 225.173 430.391 225.399C430.277 225.513 430.277 225.74 430.164 225.853L429.937 226.194C429.597 226.648 429.257 227.215 429.03 227.669C427.782 229.484 426.535 231.3 424.833 233.116C424.38 233.57 423.586 233.683 423.019 233.456C421.318 232.548 419.616 231.64 417.915 230.619C417.121 230.165 416.214 229.598 415.42 229.031C414.626 228.463 413.832 228.009 412.925 227.329H412.811C412.244 226.875 412.131 226.194 412.471 225.626C413.378 223.811 414.286 222.109 415.42 220.52C416.554 218.818 417.802 217.343 419.163 215.981C419.389 215.754 419.843 215.754 420.183 215.981C420.524 216.095 420.524 216.435 420.297 216.662Z" fill="#717791"/>
<path d="M402.831 203.273C402.944 203.386 403.284 203.726 403.738 203.953C404.192 204.18 404.645 204.294 405.212 204.521C405.779 204.634 406.346 204.634 406.914 204.634C407.481 204.634 408.048 204.521 408.615 204.294C408.955 204.18 409.409 204.407 409.522 204.748C409.636 204.975 409.522 205.315 409.295 205.429C408.728 205.996 408.048 206.336 407.254 206.563C406.46 206.79 405.666 206.79 404.985 206.79C404.192 206.79 403.398 206.563 402.717 206.109C402.037 205.655 401.243 205.088 400.902 203.953C400.789 203.386 401.129 202.819 401.696 202.705C402.037 202.592 402.377 202.705 402.717 202.932L402.831 203.273Z" fill="#717791"/>
<path d="M407.821 213.939C408.842 213.712 409.976 213.371 411.11 212.918C412.244 212.577 413.378 212.123 414.399 211.669C415.533 211.215 416.554 210.762 417.688 210.308C418.822 209.854 419.843 209.286 420.864 208.833C421.204 208.606 421.658 208.833 421.771 209.173C421.885 209.513 421.885 209.854 421.658 209.967C420.75 210.875 419.73 211.556 418.709 212.237C417.688 212.918 416.554 213.598 415.533 214.166C414.399 214.733 413.265 215.3 412.131 215.754C410.997 216.208 409.749 216.662 408.501 216.889C407.708 217.116 406.8 216.549 406.687 215.641C406.46 214.96 406.914 214.166 407.821 213.939Z" fill="#717791"/>
<path d="M401.583 215.868C400.449 215.074 399.428 214.279 398.407 213.372C397.387 212.577 396.479 211.669 395.572 210.762C395.232 210.421 395.232 209.74 395.572 209.4C395.912 209.06 396.593 209.06 396.933 209.4C397.84 210.194 398.748 210.989 399.768 211.556C400.789 212.237 401.81 212.804 402.944 213.031C403.738 213.258 404.305 214.166 404.078 214.96C403.851 215.754 402.944 216.322 402.15 216.095C402.037 216.095 401.81 215.981 401.583 215.868Z" fill="#717791"/>
<path d="M390.014 265.229C389.674 267.384 387.179 269.314 386.385 269.314" stroke="#717791" stroke-width="2.735" stroke-miterlimit="10" stroke-linecap="round" stroke-linejoin="round"/>
<path d="M418.595 266.931C418.822 267.271 419.163 267.611 419.389 267.952C419.73 268.292 419.957 268.519 420.297 268.746C420.977 269.2 421.658 269.54 422.111 269.767L422.452 269.994C423.019 270.335 423.246 271.016 423.019 271.583C422.792 271.923 422.452 272.15 422.111 272.264C421.318 272.377 420.637 272.15 419.957 271.81C419.389 271.469 418.822 271.129 418.482 270.562C417.688 269.654 417.121 268.406 417.235 267.158C417.235 266.817 417.575 266.477 417.915 266.477C418.255 266.59 418.482 266.704 418.595 266.931Z" fill="#717791"/>
<path d="M402.604 214.506C403.284 217.23 404.645 223.698 404.872 228.69C406.006 221.542 406.687 218.364 408.048 215.414" stroke="#717791" stroke-width="2.735" stroke-miterlimit="10" stroke-linecap="round" stroke-linejoin="round"/>
<path d="M410.77 218.932V219.045" stroke="#717791" stroke-width="2.735" stroke-miterlimit="10" stroke-linecap="round" stroke-linejoin="round"/>
<path d="M409.749 223.924V224.038" stroke="#717791" stroke-width="2.735" stroke-miterlimit="10" stroke-linecap="round" stroke-linejoin="round"/>
<path d="M428.576 186.932C428.349 184.322 429.143 186.592 426.648 180.578C426.648 180.578 425.968 179.443 425.287 178.762C424.607 178.081 425.287 178.762 424.04 177.401C423.019 176.379 422.225 175.585 419.73 174.791C419.049 174.564 414.286 173.316 412.017 172.975C403.511 171.5 406.12 171.387 401.47 173.202L399.995 174.11C398.974 171.954 399.428 173.769 398.748 173.316C397.727 172.635 396.479 175.131 397.954 182.28C397.84 183.642 396.933 183.074 398.634 184.549C398.748 184.776 398.861 184.89 398.974 185.117L399.088 184.776L401.016 183.982C401.016 183.982 401.47 182.847 401.923 182.847C402.377 182.847 402.49 182.28 403.398 182.847C404.305 183.528 405.212 184.209 406.006 184.776C406.8 185.23 406.233 185.571 408.161 186.025C410.203 186.478 409.862 186.819 411.677 186.592C413.038 186.365 416.1 185.684 418.709 186.138C420.07 186.365 419.843 184.209 420.297 186.478C420.75 188.748 420.864 188.18 421.091 189.769C421.318 191.358 420.864 192.152 421.091 192.719C422.225 195.102 420.07 194.535 422.452 197.145C422.452 197.145 422.565 198.28 424.153 199.755C424.493 200.095 424.72 199.528 424.72 199.528C425.06 198.733 424.833 200.095 425.174 199.414C426.648 196.351 426.988 194.308 428.123 191.585C428.916 189.542 428.803 188.861 428.576 186.932Z" fill="#B8D4FF"/>
<path d="M408.728 172.521C407.367 171.841 405.326 171.841 403.625 172.181C402.831 172.408 402.037 172.635 401.243 173.089C400.562 173.543 399.995 174.11 399.542 174.791C398.634 176.152 398.067 177.855 398.18 179.557C398.18 180.351 398.407 181.259 398.748 181.94C399.088 182.734 399.541 183.415 399.768 184.322V184.436C399.882 185.003 399.542 185.684 398.974 185.798C398.748 185.911 398.407 185.798 398.18 185.684C397.16 185.117 396.593 183.982 396.252 182.961C395.799 181.94 395.572 180.805 395.458 179.67C395.345 177.401 396.026 175.018 397.387 173.202C398.067 172.294 398.974 171.387 399.995 170.819C401.016 170.252 402.15 169.911 403.171 169.798C404.305 169.685 405.326 169.685 406.46 169.798C407.481 170.025 408.615 170.252 409.636 171.046C409.976 171.387 410.089 171.841 409.862 172.294C409.636 172.635 409.069 172.748 408.728 172.521Z" fill="#717791"/>
<path d="M404.872 182.62C405.893 183.415 407.14 183.982 408.388 184.322C409.636 184.663 410.997 184.663 412.358 184.663C413.719 184.663 415.193 184.436 416.554 184.322L420.864 183.982C421.544 183.982 422.111 184.436 422.111 185.117V185.571C422.111 186.478 421.998 187.386 421.998 188.294C421.998 189.202 421.885 190.11 421.998 191.017C421.998 191.925 422.225 192.833 422.338 193.741C422.565 194.649 422.905 195.443 423.246 196.351V196.464C423.359 196.804 423.246 197.145 422.905 197.258C422.679 197.372 422.452 197.258 422.338 197.145C421.544 196.464 420.75 195.556 420.183 194.649C419.616 193.627 419.276 192.606 419.049 191.471C418.822 190.337 418.709 189.315 418.822 188.181C418.936 187.046 419.163 186.025 419.616 184.89L420.864 186.478L416.554 186.592C415.08 186.592 413.719 186.705 412.244 186.705C410.77 186.705 409.182 186.478 407.707 186.025C406.233 185.571 404.872 184.776 403.738 183.755C403.398 183.415 403.398 182.961 403.625 182.62C404.078 182.393 404.532 182.393 404.872 182.62Z" fill="#717791"/>
<path d="M398.974 184.776C399.428 184.096 400.109 183.528 400.676 183.074C401.243 182.507 401.923 182.053 402.717 181.713C402.944 181.599 403.284 181.713 403.398 182.053C403.511 182.167 403.398 182.394 403.398 182.507C403.057 183.301 402.49 183.982 401.923 184.663C401.356 185.23 400.676 185.798 399.882 186.138C399.428 186.365 398.974 186.138 398.748 185.798C398.748 185.344 398.861 185.003 398.974 184.776Z" fill="#717791"/>
<path d="M411.11 172.067C414.286 171.954 417.575 172.635 420.637 173.883C423.699 175.131 426.648 177.401 428.236 180.578C429.03 182.166 429.597 183.869 429.824 185.571C430.051 187.273 429.937 188.975 429.71 190.677C429.143 193.968 427.896 197.031 425.968 199.868C425.741 200.322 425.174 200.436 424.72 200.095C424.38 199.868 424.266 199.414 424.38 198.96V198.847C425.627 196.124 426.535 193.173 426.875 190.223C427.215 187.273 426.875 184.436 425.514 181.94C424.833 180.691 424.04 179.67 423.019 178.649C421.998 177.628 420.75 176.833 419.503 176.039C418.255 175.245 416.781 174.791 415.42 174.337C414.739 174.11 413.945 173.996 413.265 173.77L410.997 173.429C410.656 173.316 410.316 172.975 410.43 172.635C410.43 172.294 410.77 172.067 411.11 172.067Z" fill="#717791"/>
<path opacity="0.2" d="M355.536 221.882V273.171L264.916 256.378C260.492 255.583 257.543 251.271 258.337 246.846L264.575 213.371C265.369 208.946 269.679 205.996 274.102 206.79L355.536 221.882Z" fill="#3F72BA"/>
<path d="M374.136 268.746L269.566 249.342C265.142 248.548 262.194 244.236 262.987 239.811L269.225 206.336C270.019 201.911 274.329 198.96 278.752 199.755L383.323 219.159C387.746 219.953 390.695 224.265 389.901 228.69L383.663 262.165C382.756 266.59 378.559 269.54 374.136 268.746Z" fill="white" stroke="#717791" stroke-width="2.6206" stroke-miterlimit="10" stroke-linecap="round" stroke-linejoin="round"/>
<path d="M292.476 226.194L297.353 231.073L293.27 230.392L305.519 222.903C306.426 222.336 307.56 222.676 308.127 223.471C308.581 224.265 308.468 225.286 307.787 225.853L296.786 235.158L296.672 235.272C295.538 236.179 293.95 236.066 293.043 234.931C292.93 234.818 292.816 234.591 292.703 234.477L289.64 228.35C289.187 227.442 289.527 226.307 290.434 225.853C291.115 225.4 291.909 225.627 292.476 226.194Z" fill="#9FC3FD"/>
<path d="M311.416 235.045C310.963 236.747 310.282 238.335 309.262 239.697C308.808 240.378 308.127 241.059 307.56 241.74C307.22 242.08 306.88 242.42 306.54 242.647C306.199 242.874 305.746 243.101 305.405 243.328C302.343 245.144 298.6 245.938 295.084 245.484C291.569 245.144 288.166 243.442 285.557 240.945C282.949 238.449 281.248 235.158 280.68 231.641C280.113 228.123 280.794 224.378 282.495 221.201C283.402 219.612 284.423 218.137 285.784 217.003C287.145 215.754 288.62 214.847 290.321 214.166C293.61 212.691 297.353 212.464 300.755 213.371C304.158 214.166 307.447 216.435 308.694 219.612C308.808 219.953 308.694 220.18 308.354 220.407C308.127 220.52 308.014 220.407 307.901 220.407C305.179 218.705 302.797 217.343 299.961 216.662C297.239 216.095 294.291 216.322 291.795 217.57C289.3 218.818 287.145 220.747 285.784 223.13C284.423 225.513 283.97 228.463 284.423 231.187C284.763 233.91 286.124 236.52 288.166 238.449C290.094 240.378 292.816 241.626 295.538 241.967C298.26 242.307 301.096 241.74 303.477 240.264C304.044 239.811 304.725 239.584 305.292 239.13C305.859 238.789 306.426 238.335 306.993 237.768C308.014 236.86 308.921 235.612 309.715 234.364C309.942 233.91 310.509 233.797 310.963 234.023C311.416 234.25 311.53 234.704 311.416 235.045Z" fill="#717791"/>
<path d="M325.48 226.194C327.975 225.626 330.244 225.853 332.512 226.307C334.78 226.648 337.162 227.102 339.43 227.556C341.699 228.009 343.967 228.463 346.349 228.917C348.617 229.371 350.886 229.938 353.154 230.619C353.948 230.846 354.288 231.641 354.175 232.321C353.948 233.002 353.381 233.343 352.7 233.343C350.318 233.229 348.05 233.002 345.668 232.775C343.287 232.548 341.018 232.208 338.75 231.867C336.482 231.527 334.1 231.187 331.832 230.846C329.563 230.506 327.181 230.052 325.14 228.69C324.573 228.35 324.346 227.442 324.686 226.875C324.8 226.534 325.14 226.307 325.48 226.194Z" fill="#717791"/>
<path d="M323.779 236.633C326.841 236.52 329.903 236.86 332.852 237.428C335.801 237.882 338.75 238.449 341.812 238.903C344.761 239.357 347.71 240.037 350.659 240.491C353.608 241.059 356.556 241.626 359.505 242.307C360.299 242.42 360.753 243.215 360.526 244.009C360.413 244.69 359.732 245.144 359.052 245.144C356.103 244.803 353.041 244.463 350.092 244.009C347.143 243.555 344.081 243.215 341.132 242.761C338.183 242.307 335.121 241.853 332.172 241.286C329.223 240.832 326.274 240.264 323.325 239.13C322.645 238.903 322.418 238.108 322.645 237.541C322.872 236.974 323.325 236.747 323.779 236.633Z" fill="#717791"/>
<path d="M358.825 231.641C359.959 231.527 360.98 231.641 362.114 231.868L365.29 232.435C367.444 232.775 369.486 233.229 371.641 233.683C372.435 233.797 372.889 234.591 372.662 235.385C372.548 236.066 371.868 236.52 371.187 236.52C369.032 236.293 366.877 235.953 364.722 235.612L361.547 235.045C360.526 234.818 359.392 234.704 358.371 234.137C357.691 233.797 357.464 233.116 357.804 232.435C357.917 231.981 358.371 231.754 358.825 231.641Z" fill="#717791"/>
<path d="M417.915 229.144C417.461 230.279 417.008 231.3 416.327 232.321C416.327 232.321 416.327 232.435 416.214 232.435C412.017 239.811 405.553 242.647 390.355 237.541C392.963 237.995 389.334 244.917 386.045 243.215" stroke="#717791" stroke-width="2.735" stroke-miterlimit="10" stroke-linecap="round" stroke-linejoin="round"/>
<path d="M376.404 211.442C370.393 208.265 352.36 202.932 347.029 208.833C343.287 208.492 341.585 209.967 341.926 213.598" stroke="#717791" stroke-width="2.735" stroke-miterlimit="10" stroke-linecap="round" stroke-linejoin="round"/>
<path d="M514.66 169.344C513.526 169.571 512.391 169.685 511.257 169.798C510.123 169.912 508.989 170.025 507.855 170.025C506.721 170.025 505.586 170.139 504.452 170.139C503.318 170.139 502.184 170.139 501.05 170.139H500.936C500.369 170.139 500.029 169.685 499.916 169.231C499.462 166.961 498.895 164.805 497.874 163.103C496.853 161.401 495.152 159.926 493.337 159.586C491.523 159.132 489.368 159.812 488.347 161.288C487.213 162.763 487.326 164.919 487.44 167.188H485.171C485.285 166.053 484.944 164.919 484.377 164.011C483.81 163.103 482.79 162.536 481.655 162.422C480.521 162.309 479.5 162.649 478.933 163.444C478.253 164.238 478.026 165.373 478.48 166.167L476.438 167.075C476.438 167.075 476.325 166.961 476.211 166.848C476.098 166.734 475.871 166.734 475.758 166.848C475.417 166.961 475.077 167.302 474.85 167.756C474.624 168.323 474.51 168.89 474.51 169.571C474.51 170.252 474.737 170.819 475.077 171.387C475.417 171.954 475.191 172.635 474.624 172.975C474.51 173.089 474.283 173.089 474.056 173.089C469.86 173.202 465.664 173.089 461.467 172.975C457.271 172.862 453.074 172.635 448.878 172.408C448.651 172.408 448.538 172.181 448.538 171.954C448.538 171.727 448.651 171.614 448.878 171.614C453.074 171.387 457.271 171.16 461.467 171.046C465.664 170.933 469.86 170.819 474.056 170.933L473.036 172.635C472.582 171.727 472.242 170.819 472.242 169.912C472.242 168.89 472.355 167.983 472.695 167.075C473.149 166.167 473.83 165.146 475.191 164.805C475.758 164.692 476.438 164.692 477.005 164.919C477.572 165.146 478.253 165.6 478.48 166.28C478.707 166.848 478.48 167.529 477.913 167.756C477.346 167.983 476.665 167.756 476.438 167.188C475.644 165.373 476.098 163.444 477.232 162.082C477.799 161.401 478.593 160.834 479.387 160.493C480.181 160.153 481.088 160.153 481.996 160.153C483.697 160.38 485.285 161.288 486.305 162.763C487.213 164.124 487.666 165.827 487.553 167.529C487.553 168.209 486.986 168.663 486.305 168.55C485.738 168.55 485.285 168.096 485.285 167.529C485.171 166.394 485.058 165.146 485.285 163.898C485.398 162.649 485.738 161.288 486.646 160.153C488.347 157.883 491.296 157.089 494.018 157.657C496.626 158.224 498.781 160.153 500.029 162.309C501.39 164.465 501.844 166.961 502.297 169.117L501.163 168.209C502.297 168.209 503.431 168.209 504.566 168.209C505.7 168.209 506.834 168.323 507.968 168.323C509.102 168.436 510.236 168.436 511.371 168.55C512.505 168.663 513.639 168.777 514.773 169.004C515 169.004 515.113 169.231 515.113 169.458C515 169.231 514.773 169.344 514.66 169.344Z" fill="#717791"/>
</g>
<defs>
<clipPath id="clip0">
<rect width="470" height="315" fill="white" transform="translate(45 30)"/>
</clipPath>
</defs>
</svg>
