<svg width="580" height="380" viewBox="0 0 580 380" fill="none" xmlns="http://www.w3.org/2000/svg">
<path d="M473.971 277.113C471.877 298.39 459.779 319.783 456.638 322.34C453.381 324.898 447.913 323.503 443.958 323.503C435.001 323.503 135.22 323.503 135.22 323.503C135.104 323.271 134.988 323.154 134.988 323.154C127.31 309.784 118.585 296.762 114.281 281.764C102.183 240.025 140.804 211.772 165.698 185.031C180.007 169.684 181.054 147.71 193.385 131.317C210.253 108.994 238.87 97.2512 266.207 95.5072C297.616 93.4145 324.255 104.692 343.333 130.154C359.038 151.082 367.995 183.404 392.657 196.077C401.498 200.611 411.735 201.192 421.274 203.75C452.799 212.005 477.228 244.327 473.971 277.113Z" fill="#FDCFBA"/>
<path d="M456.987 323.736C458.15 323.27 459.43 323.27 460.593 323.27C461.757 323.27 463.036 323.387 464.199 323.619C464.781 323.736 465.13 324.201 465.014 324.782C464.897 325.131 464.665 325.479 464.199 325.596C463.036 325.828 461.757 325.945 460.593 325.945C459.43 325.945 458.15 325.945 456.987 325.479C456.522 325.363 456.289 324.782 456.405 324.317C456.522 324.084 456.638 323.852 456.987 323.736Z" fill="#916F58"/>
<path d="M128.706 323.852C142.2 323.503 155.578 323.387 169.072 323.503H209.438L290.171 323.387L370.903 323.27H411.27C424.764 323.27 438.142 323.27 451.636 323.619C452.218 323.619 452.683 324.084 452.683 324.666C452.683 325.247 452.218 325.596 451.636 325.712C438.142 326.061 424.764 326.061 411.27 326.061H370.903L290.171 325.945L209.438 325.828H169.072C155.578 325.828 142.2 325.828 128.706 325.479C128.24 325.479 127.891 325.131 127.891 324.666C128.008 324.201 128.357 323.852 128.706 323.852Z" fill="#916F58"/>
<path d="M120.795 323.503C121.028 323.503 121.144 323.503 121.377 323.503C121.493 323.503 121.61 323.503 121.61 323.503C121.726 323.503 121.842 323.503 121.842 323.619C122.424 323.968 122.54 324.666 122.191 325.247C122.075 325.363 121.959 325.596 121.842 325.596C121.726 325.596 121.61 325.712 121.61 325.712C121.493 325.712 121.377 325.828 121.377 325.712C121.144 325.712 121.028 325.712 120.795 325.712C120.097 325.596 119.748 324.898 119.865 324.317C119.981 323.852 120.33 323.503 120.795 323.503Z" fill="#916F58"/>
<g opacity="0.4">
<path opacity="0.4" d="M104.16 306.18H58.9082C57.8612 306.18 57.0469 305.366 57.0469 304.319V267.231C57.0469 266.184 57.8612 265.37 58.9082 265.37H104.16C105.207 265.37 106.022 266.184 106.022 267.231V304.319C106.022 305.366 105.207 306.18 104.16 306.18Z" stroke="#D6A37F" stroke-width="1.9719" stroke-miterlimit="10" stroke-linecap="round" stroke-linejoin="round"/>
<path opacity="0.4" d="M104.16 306.18H58.9082C57.8612 306.18 57.0469 305.366 57.0469 304.319V267.231C57.0469 266.184 57.8612 265.37 58.9082 265.37H104.16C105.207 265.37 106.022 266.184 106.022 267.231V304.319C106.022 305.366 105.207 306.18 104.16 306.18Z" stroke="#D6A37F" stroke-width="1.9719" stroke-miterlimit="10" stroke-linecap="round" stroke-linejoin="round"/>
<g opacity="0.4">
<path opacity="0.4" d="M81.7088 278.276C84.7333 277.578 87.7579 277.811 90.6661 277.811C92.1784 277.811 93.6907 277.927 95.203 278.043C96.7153 278.16 98.2275 278.276 99.7398 278.392C100.089 278.392 100.205 278.741 100.205 278.973C100.205 279.206 99.9725 279.439 99.7398 279.439C98.2275 279.555 96.7153 279.671 95.203 279.787C93.6907 279.904 92.1784 279.904 90.6661 279.904C87.6416 279.904 84.617 280.02 81.7088 279.322C81.3598 279.206 81.1271 278.857 81.2435 278.625C81.3598 278.508 81.4761 278.276 81.7088 278.276Z" fill="#D6A37F"/>
</g>
<g opacity="0.4">
<path opacity="0.4" d="M63.5614 278.16C65.7716 277.578 67.8656 277.695 70.0758 277.695C72.2861 277.695 74.38 277.927 76.5903 278.16C76.9392 278.16 77.2882 278.508 77.1719 278.974C77.1719 279.322 76.8229 279.555 76.5903 279.555C74.38 279.787 72.2861 279.904 70.0758 280.02C67.8656 280.02 65.7716 280.136 63.5614 279.555C63.2124 279.439 62.9797 279.09 63.0961 278.741C63.0961 278.392 63.3287 278.16 63.5614 278.16Z" fill="#D6A37F"/>
</g>
<g opacity="0.4">
<path opacity="0.4" d="M81.7088 284.438C84.7333 283.74 87.7579 283.973 90.6661 283.973C92.1784 283.973 93.6907 284.089 95.203 284.205C96.7153 284.322 98.2275 284.438 99.7398 284.554C100.089 284.554 100.205 284.903 100.205 285.136C100.205 285.368 99.9725 285.601 99.7398 285.601C98.2275 285.717 96.7153 285.833 95.203 285.949C93.6907 286.066 92.1784 286.066 90.6661 286.066C87.6416 286.066 84.617 286.182 81.7088 285.484C81.3598 285.368 81.1271 285.019 81.2435 284.787C81.3598 284.67 81.4761 284.554 81.7088 284.438Z" fill="#D6A37F"/>
</g>
<g opacity="0.4">
<path opacity="0.4" d="M63.5614 284.322C65.7716 283.74 67.8656 283.857 70.0758 283.857C72.2861 283.857 74.38 284.089 76.5903 284.322C76.9392 284.322 77.2882 284.67 77.1719 285.136C77.1719 285.484 76.8229 285.717 76.5903 285.717C74.38 285.949 72.2861 286.066 70.0758 286.182C67.8656 286.182 65.7716 286.298 63.5614 285.717C63.2124 285.601 62.9797 285.252 63.0961 284.903C63.0961 284.554 63.3287 284.438 63.5614 284.322Z" fill="#D6A37F"/>
</g>
<g opacity="0.4">
<path opacity="0.4" d="M81.7088 290.716C84.7333 290.019 87.7579 290.251 90.6661 290.251C92.1784 290.251 93.6907 290.368 95.203 290.484C96.7153 290.6 98.2275 290.716 99.7398 290.833C100.089 290.833 100.205 291.181 100.205 291.414C100.205 291.646 99.9725 291.879 99.7398 291.879C98.2275 291.995 96.7153 292.111 95.203 292.228C93.6907 292.344 92.1784 292.344 90.6661 292.344C87.6416 292.344 84.617 292.46 81.7088 291.763C81.3598 291.646 81.1271 291.298 81.2435 291.065C81.3598 290.949 81.4761 290.716 81.7088 290.716Z" fill="#D6A37F"/>
</g>
<g opacity="0.4">
<path opacity="0.4" d="M63.5614 290.6C65.7716 290.019 67.8656 290.135 70.0758 290.135C72.2861 290.135 74.38 290.368 76.5903 290.6C76.9392 290.6 77.2882 290.949 77.1719 291.414C77.1719 291.763 76.8229 291.995 76.5903 291.995C74.38 292.228 72.2861 292.344 70.0758 292.46C67.8656 292.46 65.7716 292.577 63.5614 291.995C63.2124 291.879 62.9797 291.53 63.0961 291.181C63.0961 290.833 63.3287 290.6 63.5614 290.6Z" fill="#D6A37F"/>
</g>
<g opacity="0.4">
<path opacity="0.4" d="M81.7087 296.878C83.3373 296.181 84.9659 296.297 86.7109 296.413C88.3395 296.53 89.9681 296.646 91.713 296.995C92.062 297.111 92.1783 297.343 92.1783 297.692C92.1783 297.925 91.9457 298.041 91.713 298.157C90.0844 298.506 88.4558 298.622 86.7109 298.739C85.0823 298.739 83.4537 298.855 81.7087 298.274C81.3597 298.157 81.2434 297.808 81.3597 297.46C81.4761 297.111 81.5924 296.995 81.7087 296.878Z" fill="#D6A37F"/>
</g>
<g opacity="0.4">
<path opacity="0.4" d="M63.5614 296.762C64.9573 296.181 66.2369 296.297 67.6329 296.297C68.9125 296.297 70.3085 296.529 71.5881 296.762C71.9371 296.878 72.1697 297.227 72.1697 297.576C72.1697 297.808 71.9371 298.041 71.5881 298.157C70.1921 298.39 68.9125 298.506 67.5166 298.622C66.2369 298.622 64.841 298.739 63.5614 298.157C63.2124 298.041 62.9797 297.576 63.0961 297.227C63.2124 296.995 63.3287 296.878 63.5614 296.762Z" fill="#D6A37F"/>
</g>
<g opacity="0.4">
<path opacity="0.4" d="M63.5614 272.811C66.5859 272.695 69.6105 272.579 72.7514 272.579L81.9414 272.463L91.1314 272.346C94.156 272.346 97.1805 272.346 100.321 272.695C100.787 272.695 101.019 273.16 101.019 273.625C101.019 273.974 100.67 274.207 100.321 274.323C97.2969 274.672 94.2723 274.672 91.1314 274.672L81.9414 274.555L72.7514 274.323C69.7268 274.207 66.7023 274.09 63.5614 273.974C63.2124 273.974 63.0961 273.742 63.0961 273.393C62.9797 273.044 63.2124 272.811 63.5614 272.811Z" fill="#D6A37F"/>
</g>
</g>
<g opacity="0.4">
<path opacity="0.4" d="M140.222 176.776H94.9703C93.9233 176.776 93.109 175.963 93.109 174.916V137.828C93.109 136.781 93.9233 135.967 94.9703 135.967H140.222C141.269 135.967 142.084 136.781 142.084 137.828V174.916C141.967 175.963 141.269 176.776 140.222 176.776Z" stroke="#D6A37F" stroke-width="1.9719" stroke-miterlimit="10" stroke-linecap="round" stroke-linejoin="round"/>
<path opacity="0.4" d="M140.222 176.776H94.9703C93.9233 176.776 93.109 175.963 93.109 174.916V137.828C93.109 136.781 93.9233 135.967 94.9703 135.967H140.222C141.269 135.967 142.084 136.781 142.084 137.828V174.916C141.967 175.963 141.269 176.776 140.222 176.776Z" stroke="#D6A37F" stroke-width="1.9719" stroke-miterlimit="10" stroke-linecap="round" stroke-linejoin="round"/>
<g opacity="0.4">
<path opacity="0.4" d="M117.771 148.757C120.795 148.059 123.82 148.291 126.728 148.291C128.24 148.291 129.753 148.408 131.265 148.524C132.777 148.64 134.29 148.757 135.802 148.873C136.151 148.873 136.267 149.222 136.267 149.454C136.267 149.687 136.035 149.919 135.802 149.919C134.29 150.035 132.777 150.152 131.265 150.268C129.753 150.384 128.24 150.384 126.728 150.384C123.704 150.384 120.679 150.501 117.771 149.803C117.422 149.687 117.189 149.338 117.306 149.105C117.306 148.989 117.538 148.873 117.771 148.757Z" fill="#D6A37F"/>
</g>
<g opacity="0.4">
<path opacity="0.4" d="M99.6234 148.64C101.834 148.059 103.928 148.175 106.138 148.175C108.348 148.175 110.442 148.408 112.652 148.64C113.001 148.64 113.35 148.989 113.234 149.454C113.234 149.803 112.885 150.035 112.652 150.035C110.442 150.268 108.348 150.384 106.138 150.5C103.928 150.5 101.834 150.617 99.6234 150.035C99.2745 149.919 99.0418 149.57 99.1581 149.222C99.1581 148.873 99.3908 148.757 99.6234 148.64Z" fill="#D6A37F"/>
</g>
<g opacity="0.4">
<path opacity="0.4" d="M117.771 155.035C120.795 154.337 123.82 154.57 126.728 154.57C128.24 154.57 129.753 154.686 131.265 154.802C132.777 154.919 134.29 155.035 135.802 155.151C136.151 155.151 136.267 155.5 136.267 155.732C136.267 155.965 136.035 156.198 135.802 156.198C134.29 156.314 132.777 156.43 131.265 156.546C129.753 156.663 128.24 156.663 126.728 156.663C123.704 156.663 120.679 156.779 117.771 156.081C117.422 155.965 117.189 155.616 117.306 155.384C117.422 155.267 117.538 155.035 117.771 155.035Z" fill="#D6A37F"/>
</g>
<g opacity="0.4">
<path opacity="0.4" d="M99.6234 154.919C101.834 154.337 103.928 154.454 106.138 154.454C108.348 154.454 110.442 154.686 112.652 154.919C113.001 154.919 113.35 155.267 113.234 155.732C113.234 156.081 112.885 156.314 112.652 156.314C110.442 156.546 108.348 156.663 106.138 156.779C103.928 156.779 101.834 156.895 99.6234 156.314C99.2745 156.197 99.0418 155.849 99.1581 155.5C99.1581 155.151 99.3908 154.919 99.6234 154.919Z" fill="#D6A37F"/>
</g>
<g opacity="0.4">
<path opacity="0.4" d="M117.771 161.197C120.795 160.499 123.82 160.732 126.728 160.732C128.24 160.732 129.753 160.848 131.265 160.964C132.777 161.081 134.29 161.197 135.802 161.313C136.151 161.313 136.267 161.662 136.267 161.895C136.267 162.127 136.035 162.36 135.802 162.36C134.29 162.476 132.777 162.592 131.265 162.708C129.753 162.825 128.24 162.825 126.728 162.825C123.704 162.825 120.679 162.941 117.771 162.243C117.422 162.127 117.189 161.778 117.306 161.546C117.422 161.429 117.538 161.313 117.771 161.197Z" fill="#D6A37F"/>
</g>
<g opacity="0.4">
<path opacity="0.4" d="M99.6234 161.081C101.834 160.499 103.928 160.616 106.138 160.616C108.348 160.616 110.442 160.848 112.652 161.081C113.001 161.081 113.35 161.429 113.234 161.895C113.234 162.243 112.885 162.476 112.652 162.476C110.442 162.708 108.348 162.825 106.138 162.941C103.928 162.941 101.834 163.057 99.6234 162.476C99.2745 162.36 99.0418 162.011 99.1581 161.662C99.1581 161.313 99.3908 161.197 99.6234 161.081Z" fill="#D6A37F"/>
</g>
<g opacity="0.4">
<path opacity="0.4" d="M117.771 167.475C119.399 166.778 121.028 166.894 122.773 167.01C124.402 167.126 126.03 167.243 127.775 167.592C128.124 167.708 128.24 167.94 128.24 168.289C128.24 168.522 128.008 168.638 127.775 168.754C126.146 169.103 124.518 169.219 122.773 169.335C121.144 169.335 119.516 169.452 117.771 168.87C117.422 168.754 117.305 168.405 117.422 168.057C117.538 167.592 117.654 167.475 117.771 167.475Z" fill="#D6A37F"/>
</g>
<g opacity="0.4">
<path opacity="0.4" d="M99.6234 167.359C101.019 166.778 102.299 166.894 103.695 166.894C104.975 166.894 106.371 167.126 107.65 167.359C107.999 167.475 108.232 167.824 108.232 168.173C108.232 168.405 107.999 168.638 107.65 168.754C106.254 168.987 104.975 169.103 103.579 169.219C102.299 169.219 100.903 169.335 99.6234 168.754C99.2745 168.638 99.0418 168.173 99.1581 167.824C99.2745 167.475 99.3908 167.359 99.6234 167.359Z" fill="#D6A37F"/>
</g>
<g opacity="0.4">
<path opacity="0.4" d="M99.5071 143.408C102.532 143.292 105.556 143.176 108.697 143.176L117.887 143.06L127.077 142.943C130.102 142.943 133.126 142.943 136.267 143.292C136.732 143.292 136.965 143.757 136.965 144.222C136.965 144.571 136.616 144.804 136.267 144.92C133.243 145.269 130.218 145.269 127.077 145.269L117.887 145.152L108.697 144.92C105.673 144.804 102.648 144.687 99.5071 144.571C99.1581 144.571 99.0418 144.338 99.0418 143.99C99.0418 143.525 99.2745 143.408 99.5071 143.408Z" fill="#D6A37F"/>
</g>
</g>
<path d="M107.883 323.736C108.697 323.503 109.628 323.503 110.442 323.387C111.256 323.387 112.187 323.387 113.001 323.619C113.467 323.736 113.816 324.317 113.699 324.782C113.583 325.131 113.35 325.363 113.001 325.48C112.187 325.712 111.256 325.712 110.442 325.712C109.628 325.712 108.697 325.596 107.883 325.363C107.417 325.247 107.069 324.782 107.185 324.317C107.301 324.084 107.534 323.852 107.883 323.736Z" fill="#916F58"/>
<path d="M253.062 341.059C257.25 340.71 261.437 340.594 265.625 340.594L278.189 340.478L303.432 340.361H328.676H341.239C345.427 340.361 349.615 340.361 353.803 340.71C354.385 340.71 354.85 341.292 354.734 341.757C354.734 342.222 354.268 342.687 353.803 342.687C349.615 343.036 345.427 343.036 341.239 343.036H328.676H303.432L278.189 342.919L265.625 342.803C261.437 342.803 257.25 342.803 253.062 342.338C252.596 342.338 252.364 341.873 252.364 341.524C252.364 341.292 252.596 341.059 253.062 341.059Z" fill="#916F58"/>
<path d="M211.532 340.943C215.836 340.71 220.141 340.71 224.445 340.594C228.749 340.594 233.053 340.594 237.357 340.826C237.823 340.826 238.288 341.292 238.288 341.873C238.288 342.338 237.823 342.687 237.357 342.803C233.053 343.035 228.749 343.035 224.445 343.035C220.141 343.035 215.836 342.919 211.532 342.687C211.067 342.687 210.718 342.222 210.718 341.757C210.718 341.292 211.067 340.943 211.532 340.943Z" fill="#916F58"/>
<path d="M222.235 148.408H113.118C111.605 148.408 110.326 147.129 110.326 145.617V63.3018C110.326 61.7903 111.605 60.5114 113.118 60.5114H222.118C223.63 60.5114 224.91 61.7903 224.91 63.3018V145.734C225.026 147.245 223.747 148.408 222.235 148.408Z" fill="white"/>
<path d="M223.863 61.209H111.489V72.8356H223.863V61.209Z" fill="#FFAF8D"/>
<path d="M222.235 148.408H113.118C111.605 148.408 110.326 147.129 110.326 145.617V63.3018C110.326 61.7903 111.605 60.5114 113.118 60.5114H222.118C223.63 60.5114 224.91 61.7903 224.91 63.3018V145.734C225.026 147.245 223.747 148.408 222.235 148.408Z" stroke="#916F58" stroke-width="2.4851" stroke-miterlimit="10" stroke-linecap="round" stroke-linejoin="round"/>
<path d="M225.026 73.9981L199.434 74.1144H173.842L148.249 73.9981H135.453C131.149 73.9981 126.961 73.9981 122.657 73.4168C122.308 73.4168 122.075 73.068 122.191 72.7192C122.191 72.4867 122.424 72.2542 122.657 72.2542C126.961 71.6728 131.149 71.6728 135.453 71.6728H148.249L173.842 71.5566H199.434L225.026 71.6728C225.724 71.6728 226.19 72.2542 226.19 72.8355C226.19 73.4168 225.608 73.9981 225.026 73.9981Z" fill="#916F58"/>
<path d="M116.84 68.1849C117.675 68.1849 118.352 67.5082 118.352 66.6734C118.352 65.8387 117.675 65.162 116.84 65.162C116.005 65.162 115.328 65.8387 115.328 66.6734C115.328 67.5082 116.005 68.1849 116.84 68.1849Z" fill="#916F58"/>
<path d="M121.959 68.1849C122.794 68.1849 123.471 67.5082 123.471 66.6734C123.471 65.8387 122.794 65.162 121.959 65.162C121.123 65.162 120.446 65.8387 120.446 66.6734C120.446 67.5082 121.123 68.1849 121.959 68.1849Z" fill="#916F58"/>
<path d="M127.077 68.1849C127.912 68.1849 128.589 67.5082 128.589 66.6734C128.589 65.8387 127.912 65.162 127.077 65.162C126.242 65.162 125.565 65.8387 125.565 66.6734C125.565 67.5082 126.242 68.1849 127.077 68.1849Z" fill="#916F58"/>
<path d="M166.978 96.9025L155.81 115.156C159.649 117.365 160.813 120.388 161.511 124.922L166.629 125.039H166.978H167.327L172.446 124.922C173.144 120.388 174.307 117.481 178.146 115.156L166.978 96.9025Z" fill="white" stroke="#916F58" stroke-width="2.043" stroke-miterlimit="10" stroke-linecap="round" stroke-linejoin="round"/>
<path d="M166.978 110.04V96.9025" stroke="#916F58" stroke-width="2.043" stroke-miterlimit="10" stroke-linecap="round" stroke-linejoin="round"/>
<path d="M167.005 88.915L162.727 93.1899L167.005 97.4649L171.282 93.1899L167.005 88.915Z" fill="white" stroke="#916F58" stroke-width="2.043" stroke-miterlimit="10" stroke-linecap="round" stroke-linejoin="round"/>
<path d="M140.556 114.807L136.279 119.082L140.556 123.357L144.834 119.082L140.556 114.807Z" fill="white" stroke="#916F58" stroke-width="2.043" stroke-miterlimit="10" stroke-linecap="round" stroke-linejoin="round"/>
<path d="M140.455 115.389C140.455 93.0657 164.768 93.0657 162.79 93.0657H140.455" fill="white"/>
<path d="M140.455 115.389C140.455 93.0657 164.768 93.0657 162.79 93.0657H140.455" stroke="#916F58" stroke-width="2.043" stroke-miterlimit="10" stroke-linecap="round" stroke-linejoin="round"/>
<path d="M156.741 130.852H176.982" stroke="#916F58" stroke-width="2.043" stroke-miterlimit="10" stroke-linecap="round" stroke-linejoin="round"/>
<path d="M137.198 96.3211C138.997 96.3211 140.455 94.8636 140.455 93.0657C140.455 91.2677 138.997 89.8102 137.198 89.8102C135.399 89.8102 133.941 91.2677 133.941 93.0657C133.941 94.8636 135.399 96.3211 137.198 96.3211Z" fill="white" stroke="#916F58" stroke-width="2.043" stroke-miterlimit="10" stroke-linecap="round" stroke-linejoin="round"/>
<path d="M189.529 119.099L193.807 123.374L198.084 119.099L193.807 114.824L189.529 119.099Z" fill="white" stroke="#916F58" stroke-width="2.043" stroke-miterlimit="10" stroke-linecap="round" stroke-linejoin="round"/>
<path d="M193.85 115.389C193.85 93.0657 169.537 93.0657 171.515 93.0657H193.966" fill="white"/>
<path d="M193.85 115.389C193.85 93.0657 169.537 93.0657 171.515 93.0657H193.966" stroke="#916F58" stroke-width="2.043" stroke-miterlimit="10" stroke-linecap="round" stroke-linejoin="round"/>
<path d="M197.224 96.3211C199.023 96.3211 200.481 94.8636 200.481 93.0657C200.481 91.2677 199.023 89.8102 197.224 89.8102C195.425 89.8102 193.966 91.2677 193.966 93.0657C193.966 94.8636 195.425 96.3211 197.224 96.3211Z" fill="white" stroke="#916F58" stroke-width="2.043" stroke-miterlimit="10" stroke-linecap="round" stroke-linejoin="round"/>
<path d="M205.716 265.37H94.0397C91.8294 265.37 89.9681 263.51 89.9681 261.301V180.729C89.9681 178.52 91.8294 176.66 94.0397 176.66H205.716C207.926 176.66 209.787 178.52 209.787 180.729V261.301C209.787 263.51 208.042 265.37 205.716 265.37Z" fill="white"/>
<path d="M208.624 177.474H91.2477V189.566H208.624V177.474Z" fill="#FFAF8D"/>
<path d="M205.716 265.37H94.0397C91.8294 265.37 89.9681 263.51 89.9681 261.301V180.729C89.9681 178.52 91.8294 176.66 94.0397 176.66H205.716C207.926 176.66 209.787 178.52 209.787 180.729V261.301C209.787 263.51 208.042 265.37 205.716 265.37Z" stroke="#916F58" stroke-width="2.2" stroke-miterlimit="10" stroke-linecap="round" stroke-linejoin="round"/>
<path d="M209.787 190.845L183.148 190.961H156.508L129.869 190.845H116.491C112.071 190.845 107.65 190.845 103.113 190.263C102.764 190.263 102.532 189.914 102.532 189.566C102.532 189.333 102.764 189.101 103.113 188.984C107.534 188.403 111.954 188.403 116.491 188.403H129.869L156.508 188.287H183.148L209.787 188.403C210.485 188.403 211.067 188.984 211.067 189.682C211.067 190.263 210.485 190.845 209.787 190.845Z" fill="#916F58"/>
<path d="M96.8315 184.682C97.731 184.682 98.4602 183.954 98.4602 183.055C98.4602 182.156 97.731 181.427 96.8315 181.427C95.9321 181.427 95.2029 182.156 95.2029 183.055C95.2029 183.954 95.9321 184.682 96.8315 184.682Z" fill="#916F58"/>
<path d="M102.183 184.682C103.082 184.682 103.811 183.954 103.811 183.055C103.811 182.156 103.082 181.427 102.183 181.427C101.283 181.427 100.554 182.156 100.554 183.055C100.554 183.954 101.283 184.682 102.183 184.682Z" fill="#916F58"/>
<path d="M107.418 184.682C108.317 184.682 109.046 183.954 109.046 183.055C109.046 182.156 108.317 181.427 107.418 181.427C106.518 181.427 105.789 182.156 105.789 183.055C105.789 183.954 106.518 184.682 107.418 184.682Z" fill="#916F58"/>
<path d="M148.482 220.26C149.761 220.26 150.227 221.306 150.227 222.469V250.256C150.227 251.535 149.761 252.465 148.598 252.465L104.16 252.581C102.881 252.581 102.415 251.535 102.415 250.372V222.585C102.415 221.306 102.881 220.376 104.044 220.376L148.482 220.26Z" fill="white"/>
<path d="M148.482 220.26C149.761 220.26 150.227 221.306 150.227 222.469V250.256C150.227 251.535 149.761 252.465 148.598 252.465L104.16 252.581C102.881 252.581 102.415 251.535 102.415 250.372V222.585C102.415 221.306 102.881 220.376 104.044 220.376L148.482 220.26Z" fill="#FFAF8D"/>
<path d="M150.227 242.35L150.11 244.675V250.721L149.412 252.465L105.44 252.116H105.324H105.44L109.395 247.931L116.724 241.187L124.402 247.349L140.222 232.7L150.227 242.35Z" fill="#FF976B"/>
<path d="M117.422 233.63C119.863 233.63 121.842 231.652 121.842 229.212C121.842 226.772 119.863 224.794 117.422 224.794C114.98 224.794 113.001 226.772 113.001 229.212C113.001 231.652 114.98 233.63 117.422 233.63Z" fill="white"/>
<path d="M198.969 210.261H103.811C102.648 210.261 101.717 209.331 101.717 208.168V204.331C101.717 203.169 102.648 202.238 103.811 202.238H198.969C200.132 202.238 201.063 203.169 201.063 204.331V208.168C201.063 209.214 200.132 210.261 198.969 210.261Z" fill="#FFAF8D"/>
<path d="M158.719 222.701C165.233 222.585 171.864 222.585 178.378 222.585L188.15 222.701C191.407 222.701 194.665 222.701 197.922 223.399C198.271 223.515 198.503 223.747 198.387 224.096C198.387 224.329 198.154 224.561 197.922 224.561C194.665 225.143 191.407 225.259 188.15 225.259L178.378 225.375C171.864 225.375 165.233 225.375 158.719 225.259C158.021 225.259 157.439 224.678 157.439 223.98C157.439 223.282 158.021 222.701 158.719 222.701Z" fill="#FF976B"/>
<path d="M158.719 247.814C162.558 247.698 166.513 247.698 170.352 247.698L176.168 247.814C178.146 247.814 180.007 247.814 181.985 248.512C182.334 248.628 182.45 248.977 182.45 249.326C182.334 249.558 182.217 249.675 181.985 249.791C180.007 250.372 178.146 250.488 176.168 250.488L170.352 250.605C166.513 250.605 162.558 250.605 158.719 250.488C158.021 250.488 157.439 249.907 157.555 249.21C157.555 248.396 158.021 247.931 158.719 247.814Z" fill="#FF976B"/>
<path d="M180.472 235.49C181.985 235.142 183.381 234.909 184.893 234.793C186.405 234.676 187.801 234.676 189.313 234.676C190.826 234.676 192.222 234.676 193.734 234.793C195.246 234.909 196.642 235.025 198.154 235.258C198.62 235.374 198.852 235.723 198.736 236.188C198.62 236.537 198.387 236.769 198.154 236.769C196.642 237.118 195.246 237.234 193.734 237.234C192.222 237.234 190.826 237.351 189.313 237.351C187.801 237.351 186.405 237.234 184.893 237.234C183.381 237.118 181.985 237.002 180.472 236.537C180.123 236.42 180.007 236.188 180.007 235.839C180.123 235.723 180.356 235.607 180.472 235.49Z" fill="#FF976B"/>
<path d="M157.904 235.49C159.417 235.142 160.813 234.909 162.325 234.793C163.837 234.676 165.233 234.676 166.745 234.676C168.258 234.676 169.654 234.676 171.166 234.793C172.678 234.909 174.074 235.025 175.587 235.258C176.052 235.374 176.284 235.723 176.168 236.188C176.052 236.537 175.819 236.769 175.587 236.769C174.074 237.118 172.678 237.234 171.166 237.234C169.654 237.234 168.258 237.351 166.745 237.351C165.233 237.351 163.837 237.234 162.325 237.234C160.813 237.118 159.417 237.002 157.904 236.537C157.555 236.42 157.439 236.188 157.439 235.839C157.555 235.723 157.672 235.607 157.904 235.49Z" fill="#FF976B"/>
<mask id="mask0" mask-type="alpha" maskUnits="userSpaceOnUse" x="170" y="119" width="142" height="206">
<rect x="170.003" y="119.458" width="141.922" height="204.627" fill="#C4C4C4"/>
</mask>
<g mask="url(#mask0)">
<path d="M262.135 204.099C264.229 185.613 260.856 166.545 252.713 149.803C250.27 144.804 247.362 139.92 243.174 136.2C238.986 132.479 233.518 129.922 228.051 130.27C222.351 130.619 217.232 133.875 213.161 137.711C205.832 144.687 200.946 154.337 199.55 164.452C198.62 171.312 199.318 178.172 200.016 185.031C200.714 192.24 201.412 199.332 202.11 206.54C202.226 207.935 202.342 209.331 203.04 210.493C204.32 213.051 207.344 213.981 210.136 214.795C217.698 216.888 225.492 218.632 233.169 219.911C240.033 221.073 247.245 221.887 253.992 220.027C260.739 218.167 267.021 213.051 268.301 206.191C268.883 203.517 268.534 200.495 266.905 198.169C265.276 195.844 262.368 194.449 259.693 195.263" fill="white"/>
<path d="M286.797 314.783C284.122 339.431 281.446 364.08 278.771 388.728C276.793 406.865 274.815 425.119 268.534 442.21C266.323 442.442 264.229 441.047 263.066 439.07C261.903 437.21 261.437 434.885 261.088 432.792C257.25 410.12 256.203 386.984 257.831 363.963C258.064 360.824 258.297 357.336 256.319 354.895C253.992 351.872 249.688 351.523 245.849 351.523C242.825 351.407 239.451 351.523 237.125 353.499C234.449 355.825 234.1 359.778 233.867 363.266C232.355 390.937 226.422 418.375 216.302 444.186C211.416 442.442 209.671 436.513 208.74 431.397C205.599 412.678 205.018 393.495 204.436 374.543C203.854 355.476 203.389 336.408 202.807 317.341C219.326 318.504 235.961 319.783 252.364 318.039C263.648 316.876 274.932 314.318 285.634 310.481C286.681 313.388 287.728 316.295 288.775 319.317" fill="#FFAF8D"/>
<path d="M277.956 229.445C288.193 243.048 301.804 291.065 316.345 298.39C318.671 299.552 315.298 300.948 316.461 298.739C318.09 295.832 330.537 289.902 328.327 287.461C326 284.903 329.141 287.345 326.117 285.136C323.325 283.159 323.906 283.74 320.533 280.02C309.132 267.463 297.267 215.26 281.446 204.099C277.026 200.96 271.209 197.472 265.974 198.983C256.901 201.657 253.876 214.33 244.802 217.353C238.986 219.33 232.704 216.423 227.702 212.935C222.7 209.447 217.93 205.145 211.998 203.517C204.32 201.425 196.06 204.564 190.244 209.912C184.428 215.26 181.519 224.329 178.727 231.654C172.329 248.512 174.889 259.325 176.168 270.602C176.866 276.299 185.591 289.554 190.011 293.855C191.291 295.134 198.852 298.855 199.201 300.599C200.597 306.18 204.901 310.481 209.206 306.761C211.881 304.436 200.597 304.552 201.644 301.18C206.414 285.252 196.642 308.854 201.412 292.925C197.922 301.994 195.246 283.508 194.199 299.436C193.967 303.04 192.803 308.97 194.897 311.877C197.107 315.248 202.342 314.318 206.297 315.016C230.145 319.666 255.039 318.387 278.305 311.411C282.609 310.133 287.03 308.505 290.403 305.598C298.198 298.855 294.126 287.345 292.614 278.508C290.752 267.58 288.077 256.883 284.587 246.419C283.656 243.513 282.609 240.722 281.446 237.816C280.981 236.886 278.771 229.561 277.956 229.445Z" fill="#FFAF8D"/>
<path d="M226.771 300.715C230.61 301.18 234.798 301.761 239.219 302.343C239.451 306.993 241.429 309.435 245.035 310.016" stroke="#916F58" stroke-width="2.5351" stroke-miterlimit="10" stroke-linecap="round" stroke-linejoin="round"/>
<path d="M287.844 308.505C287.495 317.922 286.914 327.34 286.216 336.757C285.518 346.175 284.82 355.592 283.889 365.01C282.958 374.427 281.911 383.845 280.748 393.146C279.585 402.563 278.189 411.864 276.328 421.166C275.397 425.816 274.35 430.467 272.838 435.117C272.489 436.28 272.023 437.443 271.558 438.605C271.093 439.768 270.511 440.931 269.813 441.977C269.348 442.558 268.999 443.14 268.301 443.605C267.952 443.837 267.487 444.07 267.021 444.186C266.789 444.186 266.44 444.302 266.207 444.302C265.974 444.302 265.742 444.302 265.509 444.302C264.578 444.186 263.764 443.605 263.182 443.14C262.601 442.558 262.135 441.977 261.787 441.396C260.391 439.07 259.809 436.745 259.227 434.304C258.646 431.978 258.18 429.537 257.831 427.211C257.133 422.445 256.668 417.794 256.319 413.027C254.923 394.076 254.807 375.241 255.272 356.406C255.272 355.941 255.621 355.708 256.086 355.708C256.435 355.708 256.784 356.057 256.784 356.406C257.715 375.241 257.831 394.076 259.227 412.911C259.576 417.561 260.042 422.212 260.74 426.863C261.089 429.188 261.554 431.397 262.019 433.722C262.601 435.931 263.182 438.14 264.229 439.884C264.695 440.698 265.393 441.396 265.858 441.396H265.974C265.974 441.396 265.974 441.396 266.091 441.396C266.207 441.396 266.207 441.396 266.44 441.163C266.672 441.047 267.021 440.582 267.254 440.233C267.836 439.419 268.301 438.373 268.766 437.327C269.232 436.28 269.581 435.234 269.93 434.071C271.326 429.653 272.372 425.119 273.303 420.468C275.048 411.283 276.444 401.982 277.607 392.564C278.771 383.263 279.818 373.846 280.632 364.428C282.377 345.71 283.889 326.875 284.82 308.04C284.82 307.226 285.518 306.645 286.332 306.645C287.263 306.993 287.844 307.691 287.844 308.505Z" fill="#916F58"/>
<path d="M262.717 348.035C260.623 349.081 258.646 350.128 256.435 351.058C254.341 351.988 252.131 352.802 249.688 353.267C248.525 353.499 247.245 353.616 246.082 353.616C244.919 353.616 243.639 353.499 242.476 353.383C240.149 353.034 237.939 352.569 235.612 352.22L237.357 350.825C236.776 360.359 235.612 369.776 234.216 379.194C232.82 388.611 231.192 398.029 229.331 407.33C228.4 411.981 227.353 416.631 226.19 421.282C225.026 425.932 223.747 430.467 222.118 435.117C221.304 437.443 220.373 439.652 219.094 441.861C218.745 442.442 218.396 442.907 217.814 443.489C217.349 443.954 216.767 444.535 215.72 444.884C215.487 445 215.138 445 214.906 445C214.673 445 214.44 445 214.324 445C213.975 445 213.51 444.884 213.161 444.767C212.696 444.651 212.463 444.419 211.998 444.302C211.649 444.07 211.416 443.837 211.067 443.605C209.904 442.558 209.322 441.396 208.74 440.233C208.275 439.07 207.81 437.908 207.461 436.629C206.763 434.304 206.297 431.862 205.948 429.537C204.436 420.003 203.971 410.586 203.389 401.052C202.924 391.518 202.575 382.101 202.342 372.567C201.877 353.616 201.644 334.664 201.412 315.597C201.412 314.783 202.11 314.086 202.924 314.086C203.738 314.086 204.436 314.783 204.436 315.597C204.669 334.548 204.901 353.499 205.367 372.451C205.599 381.868 205.948 391.402 206.414 400.819C206.879 410.237 207.461 419.77 208.973 428.955C209.322 431.281 209.787 433.49 210.369 435.699C210.951 437.792 211.765 440.117 213.044 441.279C213.161 441.396 213.393 441.512 213.51 441.628C213.626 441.745 213.859 441.861 213.975 441.861C214.091 441.861 214.324 441.977 214.557 441.977H214.789C214.789 441.977 214.789 441.977 214.906 441.977C215.022 441.977 215.371 441.745 215.72 441.396C216.069 441.047 216.302 440.582 216.651 440.233C217.814 438.373 218.628 436.164 219.443 434.071C221.071 429.653 222.235 425.119 223.398 420.584C224.561 416.05 225.492 411.399 226.539 406.749C228.4 397.448 230.029 388.146 231.425 378.845C232.82 369.544 233.984 360.126 234.565 350.709C234.565 349.895 235.263 349.314 236.078 349.314C236.194 349.314 236.194 349.314 236.31 349.314C238.521 349.779 240.847 350.476 242.941 350.942C243.988 351.174 245.151 351.29 246.198 351.407C247.245 351.407 248.292 351.407 249.456 351.29C251.666 350.942 253.76 350.36 255.854 349.546C257.948 348.732 260.042 347.802 262.135 346.989C262.484 346.872 262.833 346.989 263.066 347.337C263.182 347.454 262.95 347.919 262.717 348.035Z" fill="#916F58"/>
<path d="M278.887 228.747C281.562 232.002 282.958 235.839 284.471 239.56C285.867 243.396 287.146 247.233 288.193 251.07C290.403 258.86 292.032 266.766 293.428 274.672C294.708 282.694 295.522 290.716 295.987 298.739C296.104 301.064 295.289 303.505 293.661 305.366C292.846 306.296 291.916 306.993 290.869 307.458C290.287 307.691 289.938 307.924 289.357 308.04L287.961 308.621C284.238 310.133 280.515 311.644 276.793 313.039C269.232 315.83 261.437 318.387 253.178 319.317C249.107 319.783 245.035 319.899 240.964 319.899C236.892 319.899 232.937 319.783 228.865 319.55C220.839 319.201 212.696 318.387 204.785 317.108C202.808 316.76 200.83 316.411 198.852 316.062C196.526 315.597 194.199 314.086 193.152 311.877C192.92 311.295 192.687 310.714 192.571 310.133C192.454 309.551 192.338 308.854 192.338 308.389C192.338 307.342 192.338 306.412 192.338 305.366C192.454 303.273 192.454 301.413 192.803 299.32C192.803 298.971 193.152 298.739 193.501 298.739C193.734 298.739 193.967 298.971 194.083 299.204C194.548 301.18 194.781 303.273 195.013 305.133C195.13 306.18 195.246 307.11 195.246 308.156C195.246 308.737 195.362 308.97 195.362 309.435C195.479 309.784 195.595 310.133 195.828 310.481C196.526 311.877 197.922 312.807 199.434 313.155C201.412 313.504 203.389 313.853 205.25 314.202C213.161 315.364 221.071 316.178 228.982 316.527C236.892 316.76 244.919 317.108 252.829 316.295C260.623 315.481 268.185 313.039 275.746 310.249C279.469 308.854 283.191 307.342 286.914 305.831L288.31 305.249C288.775 305.017 289.24 304.901 289.589 304.668C290.287 304.319 290.985 303.854 291.567 303.273C292.614 302.11 293.312 300.483 293.195 298.855C292.846 290.949 291.916 282.927 290.752 275.137C289.473 267.231 287.844 259.441 285.518 251.884C284.471 248.047 283.075 244.327 281.795 240.606C280.515 236.886 278.771 233.281 277.84 229.328C277.724 228.98 277.956 228.514 278.422 228.514C278.422 228.398 278.654 228.514 278.887 228.747Z" fill="#916F58"/>
<path d="M268.534 197.123C273.187 197.82 277.84 199.681 281.679 202.471C285.634 205.261 288.775 209.098 291.334 213.051C296.453 221.073 299.71 230.026 302.734 238.746C305.759 247.466 308.435 256.418 312.39 264.673C314.367 268.742 316.578 272.811 319.253 276.299C322.045 279.787 325.302 282.927 329.141 285.136C329.49 285.368 329.723 285.601 329.839 285.949C330.188 286.88 330.304 288.042 330.072 289.205C329.839 290.251 329.257 291.298 328.56 291.995C327.28 293.39 325.768 294.32 324.255 295.251L319.951 297.692C318.555 298.506 317.276 299.32 316.461 300.366C315.996 300.948 315.065 301.064 314.367 300.599C314.251 300.599 314.251 300.483 314.135 300.366C310.645 296.297 307.388 291.995 304.479 287.577C301.571 283.159 298.896 278.508 296.453 273.742C294.01 268.975 291.799 264.208 289.705 259.325L286.681 252L285.169 248.396C284.703 247.233 284.238 245.954 284.238 244.443C284.238 244.094 284.587 243.745 284.936 243.745C285.052 243.745 285.285 243.861 285.401 243.861C286.565 244.792 287.263 245.954 287.844 247.117L289.473 250.721L292.73 257.93C294.824 262.813 297.034 267.58 299.361 272.23C301.687 276.881 304.247 281.415 307.155 285.833C309.947 290.251 313.204 294.32 316.578 298.274L314.367 298.39C315.647 296.762 317.276 295.948 318.672 295.018L322.976 292.577C324.372 291.763 325.651 290.949 326.582 289.902C327.513 288.856 327.745 287.926 327.28 286.763L327.978 287.577C323.674 285.252 320.067 281.88 317.159 278.16C314.135 274.439 311.808 270.254 309.83 265.952C305.875 257.348 303.083 248.512 300.059 239.676C297.151 230.956 294.01 222.236 289.24 214.563C286.797 210.726 283.889 207.354 280.399 204.564C276.909 201.773 272.838 199.681 268.534 198.402C268.185 198.286 267.952 197.937 268.068 197.588C267.836 197.239 268.185 197.007 268.534 197.123Z" fill="#916F58"/>
<path d="M201.877 203.401C181.752 204.564 145.341 290.135 221.42 306.296C226.771 306.993 226.306 291.065 226.306 291.065C201.412 287.577 188.266 268.51 196.758 252.93" stroke="#916F58" stroke-width="2.5351" stroke-miterlimit="10" stroke-linecap="round" stroke-linejoin="round"/>
<path d="M261.321 196.542C260.623 193.054 260.623 189.682 260.274 186.194C260.042 182.706 259.693 179.334 259.227 175.846C258.297 168.987 256.784 162.243 254.458 155.849C252.131 149.454 248.874 143.292 244.104 138.758C242.941 137.595 241.545 136.665 240.266 135.735C238.87 134.921 237.474 134.107 235.845 133.526C235.496 133.41 235.031 133.177 234.682 133.061L233.518 132.712C232.704 132.479 232.006 132.363 231.192 132.247C229.563 132.014 227.935 132.014 226.306 132.247C219.792 133.061 213.393 136.2 210.136 141.897C208.391 144.687 207.112 147.826 206.181 151.082C205.25 154.337 204.552 157.709 203.971 161.081C202.924 167.824 202.459 174.8 202.342 181.776C202.226 188.752 202.459 195.611 203.156 202.471C203.273 203.285 202.691 203.866 201.877 203.982C201.063 204.099 200.481 203.517 200.365 202.704C199.55 195.728 199.318 188.636 199.318 181.66C199.318 174.684 199.783 167.592 200.83 160.616C201.412 157.128 202.11 153.64 203.156 150.152C204.203 146.664 205.483 143.292 207.461 140.153C208.508 138.642 209.555 137.014 210.951 135.735C212.347 134.456 213.859 133.293 215.487 132.363C218.745 130.503 222.351 129.457 225.957 128.992C227.818 128.759 229.68 128.759 231.541 128.992C232.471 129.108 233.402 129.34 234.333 129.573L235.612 129.922C236.078 130.038 236.427 130.27 236.892 130.387C238.637 130.968 240.266 131.898 241.894 132.828C243.406 133.875 244.919 134.921 246.198 136.316C251.549 141.432 254.923 148.059 257.366 154.686C259.809 161.429 261.205 168.405 262.252 175.381C262.717 178.869 263.066 182.357 263.299 185.845C263.531 189.333 263.764 192.821 263.182 196.425C263.066 196.89 262.601 197.239 262.135 197.239C261.67 197.239 261.321 196.89 261.321 196.542Z" fill="#916F58"/>
<path d="M244.919 216.423C248.409 219.329 250.037 222.934 250.037 222.934L247.362 229.793C247.362 229.793 258.762 263.394 260.74 279.904C260.972 282.229 260.507 284.438 259.227 286.414C253.643 295.599 249.572 298.273 249.572 298.273C249.572 298.273 239.335 289.321 237.59 285.949C235.845 282.694 240.149 230.142 240.149 230.142L236.543 223.399L239.568 216.539L244.919 216.423Z" fill="white"/>
<path d="M260.274 286.763C259.693 287.926 258.995 289.089 258.297 290.251C257.599 291.414 256.901 292.46 256.086 293.623C255.272 294.669 254.458 295.716 253.527 296.762C253.062 297.227 252.596 297.808 252.131 298.274C251.666 298.739 251.201 299.204 250.386 299.669C249.805 300.017 249.107 300.017 248.641 299.552C246.315 297.46 244.104 295.483 241.894 293.274C240.847 292.228 239.684 291.065 238.637 289.902C238.055 289.321 237.59 288.74 237.125 288.042C236.892 287.693 236.659 287.345 236.427 286.88C236.31 286.647 236.194 286.182 236.078 285.949L235.961 285.252C235.729 283.508 235.729 281.996 235.729 280.485C235.729 278.974 235.729 277.462 235.845 275.834C235.961 272.811 236.078 269.672 236.194 266.649C236.892 254.442 237.706 242.35 238.753 230.142L238.87 230.956L235.961 223.864L235.845 223.748C235.729 223.631 235.845 223.399 235.845 223.283L237.125 221.422C237.241 221.306 237.474 221.19 237.59 221.306C237.706 221.422 237.823 221.539 237.706 221.655L237.125 223.864V223.283L241.313 229.677C241.429 229.91 241.545 230.142 241.545 230.375V230.491C240.615 242.583 239.684 254.79 238.986 266.882C238.87 269.905 238.637 272.928 238.637 275.951C238.637 277.462 238.521 278.974 238.521 280.485C238.521 281.996 238.521 283.508 238.637 284.903L238.753 285.368C238.753 285.484 238.753 285.368 238.753 285.484C238.87 285.717 239.102 285.949 239.335 286.298C239.684 286.88 240.266 287.461 240.731 287.926C241.661 288.972 242.825 290.135 243.872 291.181C245.966 293.274 248.292 295.367 250.503 297.343L248.758 297.227C249.107 296.995 249.688 296.53 250.037 296.181C250.503 295.832 250.968 295.367 251.433 294.902C252.364 293.972 253.178 293.042 253.992 292.111C255.621 290.135 257.133 288.042 258.529 285.949C258.762 285.484 259.344 285.368 259.809 285.717C260.391 285.833 260.507 286.298 260.274 286.763Z" fill="#916F58"/>
<path d="M249.921 224.678L248.292 230.026V229.328C249.805 233.165 251.084 237.002 252.364 240.839L254.225 246.652L255.97 252.581C258.297 260.487 260.391 268.393 261.089 276.648C261.089 277.113 260.856 277.462 260.391 277.462C260.042 277.462 259.693 277.23 259.576 276.881L256.435 265.138C255.388 261.185 254.341 257.348 253.178 253.395L246.431 229.91V229.328C246.431 229.328 246.431 229.328 246.431 229.212L248.874 224.096C248.99 223.864 249.339 223.748 249.572 223.864C249.921 224.213 250.037 224.445 249.921 224.678Z" fill="#916F58"/>
<path d="M275.397 316.527C276.095 318.039 277.026 319.317 278.189 320.596C278.771 321.178 279.352 321.759 279.934 322.34C280.516 322.922 281.097 323.503 281.679 324.201L281.795 324.317C282.144 324.666 282.028 325.131 281.679 325.479C281.446 325.596 281.213 325.712 281.097 325.712C279.934 325.596 279.003 325.131 278.189 324.549C277.375 323.968 276.677 323.27 275.979 322.457C275.397 321.643 274.815 320.829 274.35 319.899C274.001 318.969 273.652 317.922 273.652 316.876C273.652 316.411 274.117 316.062 274.583 316.062C274.932 316.062 275.281 316.178 275.397 316.527Z" fill="#916F58"/>
<path d="M216.883 321.41C217.116 322.573 216.883 323.852 216.534 324.898C216.069 326.061 215.371 326.991 214.557 327.921C213.743 328.735 212.696 329.549 211.649 330.014C210.485 330.479 209.206 330.828 207.926 330.595C207.461 330.479 207.112 330.014 207.228 329.549C207.344 329.2 207.461 328.967 207.81 328.851H207.926C209.671 328.27 211.067 327.107 212.463 325.828C213.161 325.131 213.743 324.433 214.324 323.735C215.022 323.038 215.487 322.224 216.302 321.294C216.418 321.178 216.651 321.061 216.883 321.178C216.767 321.294 216.883 321.294 216.883 321.41Z" fill="#916F58"/>
<path d="M227.818 235.955C225.026 236.537 222.234 236.304 219.559 235.839C218.279 235.607 216.883 235.258 215.604 234.909C214.324 234.56 213.044 234.095 211.881 233.63C211.416 233.514 211.3 233.049 211.416 232.584C211.532 232.235 211.997 232.002 212.346 232.119C213.51 232.467 214.789 232.7 216.069 232.933C217.349 233.165 218.512 233.281 219.792 233.398C221.071 233.514 222.234 233.514 223.514 233.398C224.677 233.281 225.957 233.165 227.12 232.933C227.935 232.816 228.633 233.281 228.865 234.095C229.098 235.025 228.516 235.839 227.818 235.955Z" fill="#916F58"/>
<path d="M218.396 301.18C218.396 301.296 218.396 301.529 218.279 301.645C217.814 304.319 218.047 305.947 218.047 306.877C218.047 307.807 222.7 308.621 223.747 308.389C224.794 308.156 229.331 291.414 229.214 291.298C227.237 290.484 223.514 290.367 223.514 290.367L222.933 292.111" fill="#FFAF8D"/>
<path d="M219.21 301.296C219.094 302.808 219.21 304.203 219.443 305.598C219.559 305.947 219.559 306.296 219.559 306.645V306.761C219.559 306.877 219.559 306.645 219.559 306.645C219.559 306.528 219.559 306.528 219.443 306.412C219.326 306.18 219.326 306.18 219.21 306.063C219.21 306.063 219.21 306.063 219.326 306.18C219.792 306.412 220.49 306.528 221.071 306.761C221.769 306.877 222.467 306.993 223.049 306.993C223.165 306.993 223.281 306.993 223.398 306.993C223.398 306.993 223.398 306.993 223.282 306.993C223.165 306.993 222.933 307.11 222.933 307.11C222.7 307.342 222.816 307.226 222.7 307.226C222.816 307.11 222.933 306.761 223.049 306.528C223.63 305.249 224.096 303.854 224.445 302.459C225.375 299.669 226.19 296.878 226.888 293.972L227.469 291.879L227.586 291.414V291.181C227.586 291.181 227.586 291.181 227.586 291.298V291.414C227.586 291.53 227.586 291.995 227.818 292.344C227.935 292.693 228.516 292.925 228.4 292.809H228.284C228.051 292.693 227.702 292.577 227.353 292.577C226.073 292.228 224.561 292.111 223.165 292.111L224.561 291.065L223.979 292.809C223.747 293.507 222.933 293.972 222.235 293.739C221.537 293.507 221.071 292.693 221.304 291.995L221.886 290.251C222.118 289.67 222.7 289.205 223.282 289.321C224.91 289.321 226.422 289.554 227.935 289.902C228.4 290.019 228.749 290.135 229.214 290.251L229.331 290.367C229.214 290.367 229.796 290.6 229.912 290.833C230.145 291.181 230.261 291.646 230.145 291.763V291.879C230.145 291.995 230.145 291.995 230.145 292.111L230.029 292.46L229.912 293.042L229.331 295.251C228.516 298.157 227.818 301.064 226.888 303.854C226.422 305.249 225.957 306.761 225.375 308.156C225.143 308.505 225.026 308.854 224.677 309.435C224.561 309.551 224.561 309.667 224.096 310.016C224.096 310.016 223.747 310.249 223.63 310.249C223.514 310.249 223.514 310.249 223.398 310.249C223.281 310.249 223.165 310.249 223.165 310.249C222.816 310.249 222.584 310.249 222.351 310.249C221.42 310.249 220.722 310.133 219.908 309.9C219.094 309.667 218.396 309.551 217.465 309.086C217.232 308.97 217 308.854 216.651 308.621C216.534 308.505 216.302 308.272 216.069 307.924C216.069 307.807 215.953 307.691 215.953 307.575C215.953 307.458 215.953 307.226 215.953 307.342V307.226C215.953 306.877 215.953 306.412 215.953 306.063C216.185 304.436 216.534 302.924 217 301.529C217.116 301.064 217.581 300.948 217.93 301.064C218.977 300.715 219.21 300.948 219.21 301.296Z" fill="#916F58"/>
<path d="M314.833 290.949C314.716 291.065 314.6 291.181 314.484 291.298C312.739 293.507 312.157 295.134 311.692 296.064C311.226 296.995 315.065 300.017 316.229 300.25C317.392 300.482 329.723 287.228 329.723 287.112C328.327 285.368 324.953 283.508 324.953 283.508L323.557 284.903" fill="#FFAF8D"/>
<path d="M315.531 291.414C314.716 292.809 314.018 294.088 313.669 295.483C313.553 295.832 313.437 296.181 313.32 296.529L313.204 296.646C313.204 296.762 313.204 296.529 313.204 296.529C313.204 296.413 313.204 296.297 313.204 296.297C313.204 296.064 313.204 295.948 313.204 295.948C313.204 295.948 313.204 295.948 313.32 296.064C313.669 296.529 314.135 296.995 314.716 297.46C315.298 297.925 315.88 298.39 316.345 298.622C316.461 298.739 316.578 298.739 316.694 298.739C316.694 298.739 316.81 298.739 316.578 298.739C316.461 298.739 316.229 298.739 316.229 298.739C315.88 298.855 315.996 298.855 315.996 298.855C316.112 298.739 316.461 298.506 316.694 298.39C317.857 297.46 318.904 296.413 320.067 295.367C322.278 293.158 324.372 290.949 326.582 288.74L328.094 286.996L328.443 286.531L328.559 286.414C328.443 286.531 328.327 286.996 328.327 287.345C328.327 287.693 328.792 288.158 328.676 288.158L328.559 288.042C328.327 287.81 328.094 287.577 327.861 287.345C326.815 286.414 325.535 285.601 324.255 284.903L326 284.67L324.604 286.066C324.023 286.647 323.092 286.647 322.51 286.066C321.929 285.484 321.929 284.554 322.51 283.973L323.906 282.578C324.372 282.113 325.07 281.996 325.651 282.345C327.047 283.159 328.443 283.973 329.723 285.135C330.072 285.368 330.421 285.717 330.653 286.066L330.77 286.182C330.653 286.066 331.119 286.531 331.119 286.996C331.235 287.345 331.002 287.926 330.886 287.926V288.042C330.77 288.158 330.77 288.158 330.77 288.158L330.537 288.391L330.188 288.856L328.559 290.6C326.466 292.925 324.255 295.134 322.045 297.343C320.882 298.39 319.835 299.552 318.439 300.599C318.09 300.831 317.741 301.18 317.276 301.413C317.043 301.529 317.043 301.645 316.461 301.645C316.345 301.645 316.112 301.645 315.88 301.645C315.647 301.645 315.763 301.645 315.647 301.645C315.531 301.645 315.414 301.645 315.414 301.529C315.065 301.413 314.949 301.296 314.716 301.18C313.902 300.715 313.204 300.25 312.622 299.669C311.924 299.087 311.343 298.622 310.761 297.692C310.645 297.46 310.412 297.227 310.296 296.762C310.179 296.529 310.179 296.297 310.179 295.832C310.179 295.716 310.179 295.599 310.296 295.483C310.296 295.367 310.412 295.134 310.412 295.251V295.134C310.528 294.786 310.761 294.437 310.994 294.088C311.924 292.693 313.088 291.414 314.135 290.367C314.484 290.019 314.949 290.019 315.298 290.367C315.647 290.716 315.647 291.181 315.531 291.414Z" fill="#916F58"/>
<path d="M260.507 202.82C257.25 206.889 253.76 210.61 249.921 214.214C248.99 215.144 247.943 215.958 247.013 216.888C246.547 217.353 245.966 217.702 245.384 218.167C245.035 218.399 244.802 218.632 244.453 218.748L243.988 219.097C243.639 219.213 243.29 219.329 243.057 219.329C242.011 219.446 241.313 219.329 240.615 219.097C239.917 218.981 239.219 218.748 238.637 218.632C237.357 218.283 236.078 217.818 234.914 217.353C230.029 215.376 225.375 213.051 220.839 210.61C216.302 208.052 211.765 205.61 207.81 202.122C207.577 201.89 207.577 201.657 207.81 201.425C207.926 201.308 208.159 201.192 208.391 201.308C213.045 203.634 217.349 206.192 222.002 208.517C226.539 210.842 231.308 212.935 236.078 214.679C237.241 215.144 238.404 215.493 239.684 215.842C240.266 215.958 240.847 216.19 241.429 216.307C242.011 216.423 242.592 216.423 242.825 216.423C242.941 216.423 242.825 216.423 242.825 216.423L243.174 216.19C243.406 216.074 243.639 215.842 243.872 215.725C244.337 215.376 244.802 215.028 245.268 214.563C246.198 213.749 247.129 212.935 248.06 212.005C251.782 208.517 255.505 204.913 259.693 201.89C260.042 201.657 260.391 201.773 260.623 202.006C260.623 202.239 260.623 202.587 260.507 202.82Z" fill="#916F58"/>
<path d="M223.165 166.196C220.257 167.708 220.839 171.196 213.51 170.847C211.3 170.731 209.089 170.963 207.112 171.428" stroke="#916F58" stroke-width="2.5351" stroke-miterlimit="10" stroke-linecap="round" stroke-linejoin="round"/>
<path d="M245.733 166.196H240.731" stroke="#916F58" stroke-width="2.5351" stroke-miterlimit="10" stroke-linecap="round" stroke-linejoin="round"/>
<path d="M232.355 175.614C237.045 175.614 240.847 171.814 240.847 167.127C240.847 162.439 237.045 158.639 232.355 158.639C227.665 158.639 223.863 162.439 223.863 167.127C223.863 171.814 227.665 175.614 232.355 175.614Z" fill="white" stroke="#916F58" stroke-width="2.5351" stroke-miterlimit="10" stroke-linecap="round" stroke-linejoin="round"/>
<path d="M254.574 175.381C259.264 175.381 263.066 171.581 263.066 166.894C263.066 162.207 259.264 158.407 254.574 158.407C249.884 158.407 246.082 162.207 246.082 166.894C246.082 171.581 249.884 175.381 254.574 175.381Z" fill="white" stroke="#916F58" stroke-width="2.5351" stroke-miterlimit="10" stroke-linecap="round" stroke-linejoin="round"/>
<path d="M253.178 190.379C252.713 192.589 251.666 194.681 250.154 196.193C248.525 197.82 246.431 198.983 244.221 199.332C241.894 199.681 239.568 199.332 237.474 198.169C235.38 197.123 233.751 195.263 232.704 193.17C232.588 192.937 232.355 192.589 232.355 192.123C232.239 191.775 232.239 191.426 232.239 190.961C232.239 190.263 232.471 189.566 232.82 188.752C233.053 188.403 233.402 187.938 233.984 187.705C234.333 187.589 234.682 187.589 234.914 187.589C235.263 187.589 235.612 187.705 235.612 187.822C236.078 187.938 236.543 188.17 237.008 188.287C238.87 188.868 240.731 189.217 242.708 189.101C244.57 188.984 246.431 188.287 248.176 187.473C248.641 187.24 249.107 187.008 249.456 186.775L249.805 186.543C249.921 186.426 250.154 186.31 250.503 186.31C251.084 186.194 251.55 186.426 251.898 186.659C252.596 187.124 252.829 187.705 253.062 188.403C253.178 188.984 253.294 189.682 253.178 190.379ZM251.666 190.031C251.666 189.682 251.666 189.333 251.55 188.984C251.433 188.636 251.201 188.287 250.968 188.17C250.852 188.17 250.852 188.17 250.852 188.17C250.852 188.17 250.852 188.17 250.735 188.17L250.386 188.403C249.921 188.752 249.456 188.984 248.99 189.217C247.129 190.263 245.035 191.193 242.825 191.542C240.615 191.775 238.288 191.542 236.194 190.845C235.612 190.728 235.147 190.496 234.682 190.379C234.449 190.263 234.565 190.379 234.682 190.379C234.798 190.379 234.798 190.379 234.914 190.379C235.031 190.379 235.031 190.263 234.914 190.379C234.798 190.496 234.682 190.845 234.682 191.193C234.682 191.31 234.682 191.542 234.682 191.658C234.682 191.775 234.682 191.891 234.798 192.123C236.31 195.379 239.917 197.704 243.639 197.239C247.478 196.89 250.852 193.867 251.666 190.031Z" fill="#916F58"/>
<path d="M239.8 194.565C240.266 193.867 240.847 193.519 241.545 193.286C242.243 193.054 242.941 192.937 243.639 192.937C245.035 192.821 246.431 193.054 247.594 193.751C247.827 193.867 247.943 194.216 247.827 194.449C247.711 194.565 247.594 194.681 247.362 194.681C246.198 194.798 245.035 195.03 243.988 195.263C243.406 195.379 242.941 195.611 242.476 195.728C242.01 195.844 241.429 195.96 240.847 195.96H240.731C240.266 195.96 239.8 195.495 239.8 195.03C239.684 194.798 239.8 194.681 239.8 194.565Z" fill="#916F58"/>
</g>
<path d="M254.225 312.923H198.736C193.036 312.923 188.383 317.573 188.383 323.27V324.201H250.968" fill="white"/>
<path d="M246.664 313.737C243.988 314.202 241.196 314.202 238.521 314.202H230.378H214.091H205.948H201.877H199.899H198.852H197.922C195.595 314.434 193.385 315.597 191.873 317.341C191.058 318.271 190.593 319.318 190.244 320.364L190.011 321.178L189.895 322.108V323.038V324.084L188.499 322.689H251.084C251.782 322.689 252.48 323.271 252.48 324.084C252.48 324.782 251.898 325.48 251.084 325.48H188.499C187.801 325.48 187.103 324.898 187.103 324.084V323.038L187.219 321.875L187.336 320.713L187.568 319.55C188.034 318.039 188.732 316.76 189.779 315.597C191.756 313.272 194.664 311.644 197.689 311.411C198.038 311.411 198.503 311.411 198.852 311.411H199.899H201.877H205.948H214.091H230.378H238.521C241.196 311.411 243.988 311.528 246.664 311.877C247.129 311.993 247.362 312.342 247.362 312.807C247.245 313.388 247.013 313.621 246.664 313.737Z" fill="#916F58"/>
<path d="M393.471 324.433L412.317 237.002C413.596 231.072 409.059 225.492 403.01 225.492H280.864C276.328 225.492 272.489 228.631 271.558 233.049L251.898 324.084" fill="white"/>
<path d="M393.006 324.317C392.89 320.713 393.471 317.341 394.286 313.853L396.379 303.622C397.892 296.762 399.404 290.019 400.916 283.159C403.941 269.556 406.849 255.953 409.757 242.234L410.804 237.118C410.921 236.653 410.921 236.304 411.037 235.955C411.153 235.607 411.037 235.258 411.153 234.793C411.153 234.095 411.037 233.281 410.804 232.584C409.99 229.677 407.431 227.352 404.523 226.77C403.127 226.538 401.265 226.654 399.52 226.654H394.286H383.816H341.937H300.059H289.589H284.354H281.795C280.865 226.654 280.167 226.654 279.352 226.77C276.328 227.236 273.768 229.445 272.954 232.351C272.721 233.049 272.605 233.979 272.372 234.793L271.791 237.351L270.744 242.466L253.178 324.317C253.062 325.014 252.248 325.48 251.55 325.363C250.852 325.247 250.386 324.433 250.503 323.736L268.068 241.885L269.115 236.769L269.697 234.211C269.93 233.398 270.046 232.584 270.279 231.537C271.442 227.701 274.932 224.678 278.887 224.096C279.352 223.98 279.818 223.98 280.399 223.98C280.864 223.98 281.33 223.98 281.795 223.98H284.354H289.589H300.059H341.937H383.816H394.286H399.52H402.08C402.545 223.98 402.894 223.98 403.476 223.98C403.941 223.98 404.523 224.096 404.988 224.213C408.943 224.91 412.317 228.049 413.364 231.886C413.596 232.816 413.829 233.863 413.829 234.793C413.829 235.258 413.829 235.839 413.713 236.304C413.596 236.769 413.596 237.351 413.48 237.699L412.433 242.815C409.525 256.418 406.5 270.021 403.708 283.74C402.312 290.6 400.916 297.343 399.404 304.203L397.077 314.434C396.379 317.806 395.449 321.178 393.937 324.433C393.82 324.666 393.471 324.782 393.239 324.666C393.122 324.666 393.006 324.433 393.006 324.317Z" fill="#916F58"/>
<path d="M343.682 280.834C342.054 283.392 339.145 285.019 335.888 285.019C330.653 285.019 326.466 280.834 326.466 275.602C326.466 270.37 330.653 266.184 335.888 266.184C339.378 266.184 342.519 268.161 344.148 271.067" fill="white"/>
<path d="M344.148 281.183C343.217 283.159 341.472 284.787 339.262 285.717C337.168 286.647 334.609 286.647 332.398 285.949C330.188 285.252 328.21 283.857 326.815 281.88C325.419 280.02 324.721 277.578 324.837 275.253C324.953 272.928 325.884 270.602 327.28 268.858C328.792 267.114 330.886 265.836 333.096 265.37C335.307 264.905 337.749 265.138 339.843 266.184C341.937 267.231 343.45 268.975 344.264 270.951C344.38 271.184 344.264 271.533 344.031 271.533C343.799 271.649 343.566 271.533 343.45 271.416C341.007 268.393 337.168 266.998 333.794 267.812C332.049 268.277 330.537 269.323 329.49 270.602C328.443 271.998 327.745 273.625 327.745 275.369C327.512 278.857 329.955 282.229 333.213 283.275C336.586 284.438 340.309 283.275 342.984 280.485C343.217 280.252 343.682 280.252 343.915 280.485C344.264 280.601 344.264 280.95 344.148 281.183Z" fill="#916F58"/>
<path d="M421.274 300.715L421.856 309.319L423.019 324.317H447.099L448.03 313.039L449.309 296.646L450.124 286.298H420.111L421.274 300.715Z" fill="white"/>
<path d="M450.356 273.974H446.866C445.819 273.974 445.005 274.904 444.889 276.067H417.668L416.621 286.414H451.868L451.985 275.951C451.868 274.788 451.171 273.974 450.356 273.974Z" fill="#FDCFBA"/>
<path d="M450.124 286.298L449.309 296.646L448.03 313.039L447.099 324.317H423.019L421.856 309.319L421.274 300.715L420.111 286.298" stroke="#916F58" stroke-width="2.5351" stroke-miterlimit="10" stroke-linecap="round" stroke-linejoin="round"/>
<path d="M451.868 275.834C451.868 274.788 451.171 273.974 450.356 273.974H446.866C445.819 273.974 445.005 274.904 444.889 276.067H417.668L416.621 286.414H451.868V275.834Z" stroke="#916F58" stroke-width="2.5351" stroke-miterlimit="10" stroke-linecap="round" stroke-linejoin="round"/>
<path d="M449.309 296.646L448.03 313.039C447.099 313.969 446.052 314.434 445.005 314.434C441.631 314.434 438.956 309.784 438.956 303.97C438.956 298.157 441.631 293.507 445.005 293.507C446.75 293.507 448.262 294.669 449.309 296.646Z" fill="#EB81A4" stroke="#916F58" stroke-width="2.5351" stroke-miterlimit="10" stroke-linecap="round" stroke-linejoin="round"/>
<path d="M421.274 300.715H439.305" stroke="#916F58" stroke-width="2.5351" stroke-miterlimit="10" stroke-linecap="round" stroke-linejoin="round"/>
<path d="M439.77 309.319H421.856" stroke="#916F58" stroke-width="2.5351" stroke-miterlimit="10" stroke-linecap="round" stroke-linejoin="round"/>
<g opacity="0.5">
<path opacity="0.5" d="M449.658 266.417C445.005 261.882 453.73 254.325 449.775 246.187Z" fill="#FDCFBA"/>
<path opacity="0.5" d="M449.309 266.766C448.96 266.417 448.611 266.068 448.379 265.603C448.146 265.138 447.797 264.673 447.797 264.208C447.681 263.975 447.681 263.743 447.564 263.51V262.813C447.448 262.348 447.564 261.883 447.681 261.417C447.913 259.557 448.495 257.813 448.96 256.186C449.426 254.558 449.775 252.93 449.775 251.302C449.775 249.675 449.542 248.163 449.193 246.536C449.077 246.07 449.426 245.722 449.775 245.605C450.124 245.489 450.356 245.722 450.589 245.954C451.752 247.466 452.217 249.558 452.101 251.419C451.985 253.279 451.52 255.139 450.938 256.883C450.356 258.627 449.658 260.139 449.309 261.766C448.96 263.394 449.077 264.905 450.124 266.068V266.184C450.356 266.417 450.356 266.766 450.124 266.998C449.775 267.114 449.426 266.998 449.309 266.766Z" fill="#D6A37F"/>
</g>
<path d="M393.471 186.426H333.445C331.933 186.426 330.653 185.148 330.653 183.636V138.758C330.653 137.246 331.933 135.967 333.445 135.967H393.471C394.984 135.967 396.263 137.246 396.263 138.758V183.52C396.263 185.148 395.1 186.426 393.471 186.426Z" fill="white"/>
<path d="M395.682 136.432H331.235V143.06H395.682V136.432Z" fill="#FFAF8D"/>
<path d="M393.471 186.426H333.445C331.933 186.426 330.653 185.148 330.653 183.636V138.758C330.653 137.246 331.933 135.967 333.445 135.967H393.471C394.984 135.967 396.263 137.246 396.263 138.758V183.52C396.263 185.148 395.1 186.426 393.471 186.426Z" stroke="#916F58" stroke-width="2.4851" stroke-miterlimit="10" stroke-linecap="round" stroke-linejoin="round"/>
<path d="M396.263 144.222L381.722 144.338H367.064L352.407 144.222H345.078C342.635 144.222 340.192 144.222 337.749 143.641C337.401 143.525 337.284 143.292 337.284 142.943C337.284 142.711 337.517 142.595 337.749 142.478C340.192 141.897 342.635 141.897 345.078 141.897H352.407L367.064 141.781H381.722L396.379 141.897C397.077 141.897 397.543 142.478 397.543 143.06C397.426 143.757 396.961 144.222 396.263 144.222Z" fill="#916F58"/>
<path d="M334.376 140.385C334.826 140.385 335.19 140.021 335.19 139.572C335.19 139.122 334.826 138.758 334.376 138.758C333.926 138.758 333.562 139.122 333.562 139.572C333.562 140.021 333.926 140.385 334.376 140.385Z" fill="#916F58"/>
<path d="M337.284 140.385C337.734 140.385 338.099 140.021 338.099 139.572C338.099 139.122 337.734 138.758 337.284 138.758C336.835 138.758 336.47 139.122 336.47 139.572C336.47 140.021 336.835 140.385 337.284 140.385Z" fill="#916F58"/>
<path d="M340.192 140.385C340.642 140.385 341.007 140.021 341.007 139.572C341.007 139.122 340.642 138.758 340.192 138.758C339.743 138.758 339.378 139.122 339.378 139.572C339.378 140.021 339.743 140.385 340.192 140.385Z" fill="#916F58"/>
<path d="M355.315 175.265L344.729 164.801L355.315 154.221" stroke="#916F58" stroke-width="2.4851" stroke-miterlimit="10" stroke-linecap="round" stroke-linejoin="round"/>
<path d="M371.136 175.265L381.606 164.801L371.136 154.221" stroke="#916F58" stroke-width="2.4851" stroke-miterlimit="10" stroke-linecap="round" stroke-linejoin="round"/>
<path d="M366.018 158.174L360.783 170.731" stroke="#916F58" stroke-width="2.4851" stroke-miterlimit="10" stroke-linecap="round" stroke-linejoin="round"/>
<g opacity="0.5">
<path opacity="0.5" d="M319.835 136.084H274.583C273.536 136.084 272.721 135.27 272.721 134.223V97.2512C272.721 96.2048 273.536 95.3909 274.583 95.3909H319.835C320.882 95.3909 321.696 96.2048 321.696 97.2512V134.34C321.696 135.27 320.882 136.084 319.835 136.084Z" stroke="#D6A37F" stroke-width="1.9719" stroke-miterlimit="10" stroke-linecap="round" stroke-linejoin="round"/>
<path opacity="0.5" d="M319.835 136.084H274.583C273.536 136.084 272.721 135.27 272.721 134.223V97.2512C272.721 96.2048 273.536 95.3909 274.583 95.3909H319.835C320.882 95.3909 321.696 96.2048 321.696 97.2512V134.34C321.696 135.27 320.882 136.084 319.835 136.084Z" stroke="#D6A37F" stroke-width="1.9719" stroke-miterlimit="10" stroke-linecap="round" stroke-linejoin="round"/>
<g opacity="0.5">
<path opacity="0.5" d="M297.383 108.18C300.408 107.482 303.432 107.715 306.341 107.715C307.853 107.715 309.365 107.831 310.877 107.948C312.39 108.064 313.902 108.18 315.414 108.296C315.763 108.296 315.88 108.645 315.88 108.878C315.88 109.11 315.647 109.343 315.414 109.343C313.902 109.459 312.39 109.575 310.877 109.692C309.365 109.808 307.853 109.808 306.341 109.808C303.316 109.808 300.291 109.924 297.383 109.226C297.034 109.11 296.802 108.761 296.918 108.529C297.034 108.413 297.151 108.18 297.383 108.18Z" fill="#D6A37F"/>
</g>
<g opacity="0.5">
<path opacity="0.5" d="M279.236 108.064C281.446 107.482 283.54 107.599 285.75 107.599C287.961 107.599 290.055 107.831 292.265 108.064C292.614 108.064 292.963 108.413 292.846 108.878C292.846 109.226 292.497 109.459 292.265 109.459C290.055 109.691 287.961 109.808 285.75 109.924C283.54 109.924 281.446 110.04 279.236 109.459C278.887 109.343 278.654 108.994 278.771 108.645C278.771 108.296 279.003 108.064 279.236 108.064Z" fill="#D6A37F"/>
</g>
<g opacity="0.5">
<path opacity="0.5" d="M297.383 114.342C300.408 113.645 303.432 113.877 306.341 113.877C307.853 113.877 309.365 113.993 310.877 114.11C312.39 114.226 313.902 114.342 315.414 114.458C315.763 114.458 315.88 114.807 315.88 115.04C315.88 115.272 315.647 115.505 315.414 115.505C313.902 115.621 312.39 115.737 310.877 115.854C309.365 115.97 307.853 115.97 306.341 115.97C303.316 115.97 300.291 116.086 297.383 115.389C297.034 115.272 296.802 114.923 296.918 114.691C297.034 114.575 297.151 114.458 297.383 114.342Z" fill="#D6A37F"/>
</g>
<g opacity="0.5">
<path opacity="0.5" d="M279.236 114.226C281.446 113.645 283.54 113.761 285.75 113.761C287.961 113.761 290.055 113.993 292.265 114.226C292.614 114.226 292.963 114.575 292.846 115.04C292.846 115.389 292.497 115.621 292.265 115.621C290.055 115.854 287.961 115.97 285.75 116.086C283.54 116.086 281.446 116.202 279.236 115.621C278.887 115.505 278.654 115.156 278.771 114.807C278.771 114.458 279.003 114.342 279.236 114.226Z" fill="#D6A37F"/>
</g>
<g opacity="0.5">
<path opacity="0.5" d="M297.383 120.62C300.408 119.923 303.432 120.155 306.341 120.155C307.853 120.155 309.365 120.272 310.877 120.388C312.39 120.504 313.902 120.62 315.414 120.737C315.763 120.737 315.88 121.085 315.88 121.318C315.88 121.551 315.647 121.783 315.414 121.783C313.902 121.899 312.39 122.016 310.877 122.132C309.365 122.248 307.853 122.248 306.341 122.248C303.316 122.248 300.291 122.364 297.383 121.667C297.034 121.551 296.802 121.202 296.918 120.969C297.034 120.853 297.151 120.62 297.383 120.62Z" fill="#D6A37F"/>
</g>
<g opacity="0.5">
<path opacity="0.5" d="M279.236 120.504C281.446 119.923 283.54 120.039 285.75 120.039C287.961 120.039 290.055 120.272 292.265 120.504C292.614 120.504 292.963 120.853 292.846 121.318C292.846 121.667 292.497 121.899 292.265 121.899C290.055 122.132 287.961 122.248 285.75 122.364C283.54 122.364 281.446 122.481 279.236 121.899C278.887 121.783 278.654 121.434 278.771 121.086C278.771 120.737 279.003 120.504 279.236 120.504Z" fill="#D6A37F"/>
</g>
<g opacity="0.5">
<path opacity="0.5" d="M297.383 126.783C299.012 126.085 300.64 126.201 302.385 126.317C304.014 126.434 305.643 126.55 307.388 126.899C307.737 127.015 307.853 127.248 307.853 127.596C307.853 127.829 307.62 127.945 307.388 128.061C305.759 128.41 304.13 128.526 302.385 128.643C300.757 128.643 299.128 128.759 297.383 128.178C297.034 128.061 296.918 127.713 297.034 127.364C297.151 127.015 297.267 126.899 297.383 126.783Z" fill="#D6A37F"/>
</g>
<g opacity="0.5">
<path opacity="0.5" d="M279.236 126.666C280.632 126.085 281.911 126.201 283.307 126.201C284.587 126.201 285.983 126.434 287.263 126.666C287.612 126.782 287.844 127.131 287.844 127.48C287.844 127.713 287.612 127.945 287.263 128.061C285.867 128.294 284.587 128.41 283.191 128.526C281.795 128.526 280.515 128.643 279.236 128.061C278.887 127.945 278.654 127.48 278.771 127.131C278.887 126.899 279.003 126.782 279.236 126.666Z" fill="#D6A37F"/>
</g>
<g opacity="0.5">
<path opacity="0.5" d="M279.236 102.716C282.26 102.599 285.285 102.483 288.426 102.483L297.616 102.367L306.806 102.251C309.83 102.251 312.855 102.251 315.996 102.599C316.461 102.599 316.694 103.064 316.694 103.529C316.694 103.878 316.345 104.111 315.996 104.227C312.971 104.576 309.947 104.576 306.806 104.576L297.616 104.46L288.426 104.227C285.401 104.111 282.377 103.995 279.236 103.878C278.887 103.878 278.771 103.646 278.771 103.297C278.654 102.948 278.887 102.716 279.236 102.716Z" fill="#D6A37F"/>
</g>
</g>
<g opacity="0.5">
<path opacity="0.5" d="M356.129 89.8093C356.129 90.5069 356.246 91.2045 356.362 91.9021C356.478 92.5997 356.478 93.2973 356.478 93.9949C356.478 94.8087 356.246 95.8551 354.385 95.8551V97.5991C356.246 97.5991 356.478 98.7617 356.478 99.4593C356.478 100.157 356.362 100.855 356.362 101.552C356.246 102.25 356.129 102.947 356.129 103.645C356.129 106.319 357.758 107.249 360.085 107.249H360.899V105.505H360.434C359.154 105.505 358.572 104.691 358.572 103.412C358.572 102.831 358.689 102.366 358.805 101.785C358.805 101.203 358.921 100.622 358.921 99.8081C358.921 97.9479 358.107 97.134 356.827 96.7852C358.223 96.4364 358.921 95.6226 358.921 93.8786C358.921 93.181 358.805 92.5997 358.805 92.0184C358.689 91.437 358.572 90.8557 358.572 90.3907C358.572 89.1117 359.038 88.2979 360.434 88.2979H360.899V86.4376H360.085C357.642 86.3214 356.129 87.3678 356.129 89.8093Z" fill="#D6A37F"/>
<path opacity="0.5" d="M382.653 97.6V95.856C380.791 95.856 380.559 94.8096 380.559 93.9958C380.559 93.2982 380.675 92.6006 380.675 91.903C380.791 91.2054 380.908 90.5078 380.908 89.8102C380.908 87.3687 379.279 86.3223 376.952 86.3223H376.138V88.1825H376.603C377.999 88.1825 378.465 88.9964 378.465 90.2753C378.465 90.8566 378.348 91.3217 378.232 91.903C378.232 92.4843 378.116 93.0656 378.116 93.7632C378.116 95.6235 378.93 96.4373 380.21 96.6699C378.814 97.0187 378.116 97.8325 378.116 99.6927C378.116 100.39 378.232 101.088 378.232 101.669C378.348 102.251 378.465 102.832 378.465 103.297C378.465 104.576 377.883 105.39 376.603 105.39H376.138V107.25H376.952C379.279 107.25 380.908 106.32 380.908 103.646C380.908 102.948 380.791 102.251 380.675 101.553C380.559 100.855 380.559 100.158 380.559 99.4602C380.559 98.7626 380.791 97.7162 382.653 97.6Z" fill="#D6A37F"/>
<path opacity="0.5" d="M368.46 100.274C367.646 100.274 367.064 100.855 367.064 101.785C367.064 102.599 367.646 103.297 368.46 103.297C369.275 103.297 369.856 102.716 369.856 101.785C369.856 100.855 369.391 100.274 368.46 100.274Z" fill="#D6A37F"/>
<path opacity="0.5" d="M369.391 99.1114L369.74 90.3915H367.297L367.646 99.1114H369.391Z" fill="#D6A37F"/>
</g>
<g opacity="0.5">
<path opacity="0.5" d="M411.619 167.708C413.48 167.708 413.713 166.661 413.713 165.848C413.713 165.15 413.596 164.452 413.596 163.755C413.48 163.057 413.364 162.36 413.364 161.662C413.364 159.22 414.992 158.174 417.319 158.174H418.133V160.034H417.668C416.272 160.034 415.806 160.848 415.806 162.127C415.806 162.708 415.923 163.173 416.039 163.755C416.039 164.336 416.155 164.917 416.155 165.615C416.155 167.475 415.341 168.289 414.062 168.522C415.457 168.87 416.155 169.684 416.155 171.545C416.155 172.242 416.039 172.94 416.039 173.521C415.923 174.102 415.806 174.684 415.806 175.149C415.806 176.428 416.388 177.242 417.668 177.242H418.133V179.102H417.319C414.992 179.102 413.364 178.172 413.364 175.498C413.364 174.8 413.48 174.102 413.596 173.405C413.713 172.707 413.713 172.01 413.713 171.312C413.713 170.498 413.48 169.452 411.619 169.452V167.708Z" fill="#D6A37F"/>
</g>
<g opacity="0.5">
<path opacity="0.5" d="M152.902 257.232C151.041 257.232 150.808 258.395 150.808 259.092C150.808 259.79 150.925 260.487 150.925 261.185C151.041 261.883 151.157 262.58 151.157 263.278C151.157 265.952 149.529 266.882 147.202 266.882H146.388V265.022H146.853C148.133 265.022 148.714 264.208 148.714 262.929C148.714 262.348 148.598 261.883 148.482 261.301C148.482 260.72 148.365 260.139 148.365 259.325C148.365 257.464 149.18 256.651 150.459 256.302C149.063 255.953 148.365 255.139 148.365 253.395C148.365 252.698 148.482 252.116 148.482 251.535C148.598 250.954 148.714 250.372 148.714 249.907C148.714 248.628 148.249 247.814 146.853 247.814H146.388V245.954H147.202C149.529 245.954 151.157 247.001 151.157 249.442C151.157 250.14 151.041 250.837 150.925 251.535C150.808 252.233 150.808 252.93 150.808 253.628C150.808 254.442 151.041 255.488 152.902 255.488V257.232Z" fill="#D6A37F"/>
</g>
<g opacity="0.5">
<path opacity="0.5" d="M290.404 310.598L289.008 310.133C285.285 308.97 283.191 305.017 284.354 301.296L287.844 290.135C289.008 286.414 292.963 284.322 296.685 285.484L298.081 285.949C301.804 287.112 303.898 291.065 302.734 294.786L299.245 305.947C298.198 309.667 294.126 311.76 290.404 310.598Z" stroke="#D6A37F" stroke-width="1.9719" stroke-miterlimit="10" stroke-linecap="round" stroke-linejoin="round"/>
<path opacity="0.5" d="M287.728 290.833L302.618 295.367" stroke="#D6A37F" stroke-width="1.9719" stroke-miterlimit="10" stroke-linecap="round" stroke-linejoin="round"/>
<path opacity="0.5" d="M293.661 290.019C294.239 290.019 294.708 289.55 294.708 288.972C294.708 288.394 294.239 287.926 293.661 287.926C293.083 287.926 292.614 288.394 292.614 288.972C292.614 289.55 293.083 290.019 293.661 290.019Z" fill="#D6A37F"/>
<path opacity="0.5" d="M298.779 291.646C299.357 291.646 299.826 291.178 299.826 290.6C299.826 290.022 299.357 289.554 298.779 289.554C298.201 289.554 297.732 290.022 297.732 290.6C297.732 291.178 298.201 291.646 298.779 291.646Z" fill="#D6A37F"/>
<path opacity="0.5" d="M285.867 295.832L282.842 293.158L278.305 293.507" stroke="#D6A37F" stroke-width="1.9719" stroke-miterlimit="10" stroke-linecap="round" stroke-linejoin="round"/>
<path opacity="0.5" d="M287.263 291.298L284.238 288.624L279.701 288.972" stroke="#D6A37F" stroke-width="1.9719" stroke-miterlimit="10" stroke-linecap="round" stroke-linejoin="round"/>
<path opacity="0.5" d="M284.354 300.831L281.213 298.041L276.793 298.506" stroke="#D6A37F" stroke-width="1.9719" stroke-miterlimit="10" stroke-linecap="round" stroke-linejoin="round"/>
<path opacity="0.5" d="M308.551 302.924L305.526 300.134L301.106 300.599" stroke="#D6A37F" stroke-width="1.9719" stroke-miterlimit="10" stroke-linecap="round" stroke-linejoin="round"/>
<path opacity="0.5" d="M309.947 298.39L306.922 295.599L302.502 296.064" stroke="#D6A37F" stroke-width="1.9719" stroke-miterlimit="10" stroke-linecap="round" stroke-linejoin="round"/>
<path opacity="0.5" d="M307.039 307.923L304.014 305.133L299.477 305.598" stroke="#D6A37F" stroke-width="1.9719" stroke-miterlimit="10" stroke-linecap="round" stroke-linejoin="round"/>
</g>
<g opacity="0.5">
<path opacity="0.3" d="M129.636 101.32C134.648 101.32 138.71 97.2603 138.71 92.2518C138.71 87.2433 134.648 83.1831 129.636 83.1831C124.625 83.1831 120.563 87.2433 120.563 92.2518C120.563 97.2603 124.625 101.32 129.636 101.32Z" fill="#D6A37F" stroke="#D6A37F" stroke-miterlimit="10" stroke-linecap="round" stroke-linejoin="round"/>
<g opacity="0.5">
<g opacity="0.5">
<g opacity="0.5">
<path opacity="0.5" d="M126.379 90.3915L129.636 92.9493H128.008L134.522 87.2523C134.871 87.0198 135.337 87.0198 135.569 87.3686C135.802 87.6011 135.802 88.0662 135.569 88.2987L129.636 94.577C129.287 95.0421 128.589 95.0421 128.124 94.6933V94.577L125.449 91.4379C125.216 91.0891 125.216 90.624 125.565 90.3915C125.798 90.159 126.147 90.159 126.379 90.3915Z" fill="#D6A37F"/>
</g>
</g>
<g opacity="0.5">
<path opacity="0.5" d="M139.175 93.5307C138.943 95.6234 138.012 97.7162 136.267 98.9951C134.522 100.274 132.428 101.088 130.334 101.204C128.24 101.32 126.03 100.739 124.169 99.5765C122.424 98.4138 120.912 96.6698 120.214 94.5771C119.516 92.4843 119.516 90.159 120.33 88.1825C120.679 87.1361 121.261 86.206 121.959 85.3921C122.657 84.5783 123.471 83.8807 124.402 83.4156C126.263 82.3692 128.473 81.9042 130.567 82.0204C132.661 82.1367 134.755 83.1831 135.918 84.9271C136.035 85.0433 135.918 85.2759 135.802 85.3921C135.686 85.5084 135.569 85.5084 135.453 85.3921C133.592 84.6945 132.079 84.1132 130.334 83.9969C128.589 83.8807 126.845 84.3457 125.449 85.1596C124.053 86.0897 122.889 87.3686 122.308 88.8801C121.726 90.3915 121.726 92.1355 122.191 93.6469C122.657 95.1584 123.82 96.5536 125.216 97.4837C126.612 98.4138 128.357 98.8789 129.985 98.7626C131.614 98.6463 133.359 98.065 134.639 97.0186C135.918 96.0885 137.198 94.8096 137.896 93.0656C138.012 92.7168 138.361 92.6006 138.594 92.7168C139.059 93.0656 139.175 93.2981 139.175 93.5307Z" fill="#D6A37F"/>
</g>
</g>
</g>
<g opacity="0.5">
<path opacity="0.3" d="M315.298 80.1602C320.309 80.1602 324.372 76.1001 324.372 71.0916C324.372 66.0831 320.309 62.0229 315.298 62.0229C310.287 62.0229 306.224 66.0831 306.224 71.0916C306.224 76.1001 310.287 80.1602 315.298 80.1602Z" fill="#D6A37F" stroke="#D6A37F" stroke-miterlimit="10" stroke-linecap="round" stroke-linejoin="round"/>
<g opacity="0.5">
<g opacity="0.5">
<g opacity="0.5">
<path opacity="0.5" d="M312.157 69.2313L315.414 71.7891H313.786L320.3 66.0921C320.649 65.8596 321.114 65.8596 321.347 66.2084C321.58 66.4409 321.58 66.906 321.347 67.1385L315.414 73.4168C315.065 73.8819 314.367 73.8819 313.902 73.4168L313.786 73.3005L311.11 70.1614C310.877 69.8126 310.877 69.3475 311.226 69.115C311.459 68.9987 311.808 68.9987 312.157 69.2313Z" fill="#D6A37F"/>
</g>
</g>
<g opacity="0.5">
<path opacity="0.5" d="M324.837 72.3705C324.604 74.4632 323.674 76.556 321.929 77.8349C320.184 79.1138 318.09 79.9277 315.996 80.0439C313.902 80.1602 311.692 79.5789 309.83 78.4162C308.086 77.2536 306.573 75.5096 305.875 73.4168C305.177 71.3241 305.177 68.9988 305.992 67.0223C306.341 65.9759 306.922 65.0458 307.62 64.2319C308.318 63.418 309.132 62.7205 310.063 62.2554C311.924 61.209 314.135 60.7439 316.229 60.8602C318.322 60.9765 320.416 62.0229 321.58 63.7668C321.696 63.8831 321.58 64.1156 321.463 64.2319C321.347 64.3482 321.231 64.3482 321.114 64.2319C319.253 63.5343 317.741 62.953 315.996 62.8367C314.251 62.7205 312.506 63.1855 311.11 63.9994C309.714 64.9295 308.551 66.2084 307.969 67.7199C307.388 69.2313 307.388 70.9753 307.853 72.4867C308.318 73.9982 309.481 75.3933 310.877 76.3235C312.273 77.2536 314.018 77.7186 315.647 77.6024C317.276 77.4861 319.02 76.9048 320.3 75.8584C321.58 74.9283 322.859 73.6494 323.557 71.9054C323.674 71.5566 324.023 71.4403 324.255 71.5566C324.721 71.9054 324.837 72.1379 324.837 72.3705Z" fill="#D6A37F"/>
</g>
</g>
</g>
<g opacity="0.5">
<path opacity="0.3" d="M304.712 185.38C309.723 185.38 313.786 181.32 313.786 176.311C313.786 171.303 309.723 167.243 304.712 167.243C299.701 167.243 295.638 171.303 295.638 176.311C295.638 181.32 299.701 185.38 304.712 185.38Z" fill="#D6A37F" stroke="#D6A37F" stroke-miterlimit="10" stroke-linecap="round" stroke-linejoin="round"/>
<g opacity="0.5">
<g opacity="0.5">
<g opacity="0.5">
<path opacity="0.5" d="M301.455 174.567L304.712 177.125H303.083L309.598 171.428C309.947 171.196 310.412 171.196 310.645 171.545C310.877 171.777 310.877 172.242 310.645 172.475L304.712 178.753C304.363 179.218 303.665 179.218 303.2 178.753L303.083 178.637L300.408 175.498C300.175 175.149 300.175 174.684 300.524 174.451C300.873 174.335 301.222 174.335 301.455 174.567Z" fill="#D6A37F"/>
</g>
</g>
<g opacity="0.5">
<path opacity="0.5" d="M314.251 177.59C314.018 179.683 313.088 181.776 311.343 183.055C309.598 184.334 307.504 185.148 305.41 185.264C303.316 185.38 301.106 184.799 299.245 183.636C297.5 182.473 295.987 180.73 295.289 178.637C294.591 176.544 294.591 174.219 295.406 172.242C295.755 171.196 296.336 170.266 297.034 169.452C297.732 168.638 298.547 167.94 299.477 167.475C301.338 166.429 303.549 165.964 305.643 166.08C307.737 166.196 309.83 167.243 310.994 168.987C311.11 169.103 310.994 169.336 310.877 169.452C310.761 169.568 310.645 169.568 310.528 169.452C308.667 168.754 307.155 168.173 305.41 168.057C303.665 167.94 301.92 168.405 300.524 169.219C299.128 170.149 297.965 171.428 297.383 172.94C296.802 174.451 296.802 176.195 297.267 177.707C297.732 179.218 298.896 180.613 300.291 181.543C301.687 182.474 303.432 182.939 305.061 182.822C306.69 182.706 308.435 182.125 309.714 181.078C310.994 180.148 312.273 178.869 312.971 177.125C313.088 176.777 313.437 176.66 313.669 176.777C314.135 177.125 314.251 177.358 314.251 177.59Z" fill="#D6A37F"/>
</g>
</g>
</g>
<path d="M432.558 190.612L432.325 212.586C432.325 213.749 433.256 214.679 434.419 214.679L476.181 215.028C477.345 215.028 478.275 214.098 478.275 212.935L478.508 187.008C478.508 185.845 477.577 184.915 476.414 184.915L434.652 184.566C434.303 184.566 434.07 184.683 433.721 184.799" fill="#FDCFBA"/>
<path d="M433.14 190.612C433.721 192.123 433.721 193.635 433.721 195.03V199.448L433.605 208.284V212.586C433.605 212.935 433.837 213.167 434.186 213.284C434.303 213.284 434.303 213.284 434.419 213.4C434.535 213.4 434.535 213.4 434.768 213.4H435.931L444.772 213.516L462.571 213.632L471.412 213.749H475.832C476.298 213.749 476.298 213.749 476.53 213.749C476.647 213.749 476.763 213.632 476.879 213.516C477.112 213.284 477.112 213.167 477.112 212.237L477.345 194.449V190.031V187.822C477.345 186.892 477.345 186.775 477.112 186.543C476.996 186.426 476.879 186.31 476.763 186.31C476.647 186.31 476.53 186.31 476.065 186.31H473.855H469.434L451.636 186.078L442.795 185.961L438.374 185.845H436.164H435.001C434.768 185.845 434.768 185.845 434.652 185.845C434.535 185.845 434.535 185.845 434.419 185.961C433.837 186.194 433.256 185.961 433.023 185.38C432.791 184.799 433.023 184.217 433.605 183.985C433.837 183.869 434.186 183.752 434.419 183.752C434.652 183.752 435.001 183.752 435.117 183.752H436.28H438.491H442.911H451.752L469.551 183.869H473.971H476.181C476.414 183.869 477.112 183.869 477.694 184.101C478.275 184.334 478.741 184.682 479.09 185.148C479.439 185.613 479.788 186.194 479.788 186.775C479.904 187.473 479.788 187.705 479.788 188.17V190.379V194.798L479.671 212.586C479.671 212.935 479.671 213.167 479.555 213.865C479.439 214.446 479.206 215.028 478.857 215.493C478.508 215.958 477.926 216.307 477.461 216.539C476.879 216.772 476.181 216.772 475.949 216.772H471.528L462.687 216.655L444.889 216.423L436.048 216.307H434.884C434.768 216.307 434.419 216.307 434.186 216.307C433.954 216.307 433.605 216.19 433.372 216.074C432.325 215.609 431.511 214.563 431.511 213.284C431.511 212.935 431.511 212.819 431.511 212.586V212.005V210.842V208.633L431.627 199.797V195.379C431.627 193.867 431.627 192.472 432.325 190.961C432.442 190.612 432.791 190.496 433.14 190.612C432.907 190.263 433.023 190.379 433.14 190.612Z" fill="#916F58"/>
<path d="M433.488 184.915L452.101 199.564C454.195 201.192 456.987 201.192 459.081 199.681L477.81 185.613" stroke="#916F58" stroke-width="2" stroke-miterlimit="10" stroke-linecap="round" stroke-linejoin="round"/>
<path d="M460.942 199.099C462.454 200.611 463.85 202.122 465.246 203.866C465.944 204.68 466.642 205.494 467.224 206.308C467.922 207.122 468.504 207.936 468.62 209.331C468.62 209.563 468.504 209.796 468.271 209.796H468.155C466.875 209.447 466.177 208.749 465.479 207.936C464.781 207.122 463.967 206.424 463.269 205.61C461.873 203.983 460.477 202.355 459.197 200.611C458.848 200.146 458.965 199.332 459.43 198.983C459.895 198.634 460.593 198.634 460.942 199.099Z" fill="#916F58"/>
<path d="M448.844 202.936C448.728 203.866 448.146 204.331 447.681 204.913C447.215 205.494 446.75 206.075 446.285 206.657C445.819 207.238 445.238 207.703 444.656 208.284C444.074 208.749 443.493 209.214 442.678 209.447C442.446 209.563 442.097 209.447 442.097 209.098C442.097 208.982 442.097 208.866 442.097 208.866C442.329 208.052 442.678 207.354 443.027 206.773C443.493 206.192 443.958 205.61 444.423 205.029C444.889 204.448 445.47 203.982 446.052 203.401C446.634 202.936 447.099 202.238 447.913 202.122C448.262 202.006 448.728 202.238 448.844 202.704C448.844 202.704 448.844 202.82 448.844 202.936Z" fill="#916F58"/>
<path d="M477.81 194.449C482.243 194.449 485.837 190.857 485.837 186.426C485.837 181.996 482.243 178.404 477.81 178.404C473.377 178.404 469.783 181.996 469.783 186.426C469.783 190.857 473.377 194.449 477.81 194.449Z" fill="#82FD5E" stroke="#916F58" stroke-width="2" stroke-miterlimit="10" stroke-linecap="round" stroke-linejoin="round"/>
<path d="M477.345 183.985L475.949 184.682L475.716 183.636L477.577 182.706H478.857V190.379H477.461V183.985H477.345Z" fill="white"/>
<path opacity="0.4" d="M459.43 122.364L443.958 135.735C442.911 136.665 441.399 136.549 440.468 135.502L440.119 135.154C439.189 134.107 439.305 132.596 440.352 131.666L455.824 118.295C456.871 117.365 458.383 117.481 459.314 118.528L459.663 118.877C460.593 119.923 460.477 121.434 459.43 122.364Z" fill="#D6A37F" stroke="#D6A37F" stroke-width="0.3021" stroke-miterlimit="10" stroke-linecap="round" stroke-linejoin="round"/>
<path opacity="0.4" d="M466.526 130.503L451.171 143.874C450.124 144.804 448.611 144.687 447.681 143.641L447.332 143.292C446.401 142.246 446.517 140.734 447.564 139.804L463.036 126.434C464.083 125.504 465.595 125.62 466.526 126.666L466.875 127.015C467.689 128.061 467.573 129.689 466.526 130.503Z" fill="#D6A37F" stroke="#D6A37F" stroke-width="0.3021" stroke-miterlimit="10" stroke-linecap="round" stroke-linejoin="round"/>
<g opacity="0.5">
<path opacity="0.5" d="M446.866 175.381C446.75 173.754 446.634 172.01 446.634 170.382C446.634 168.754 446.517 167.01 446.517 165.383L446.401 160.383C446.401 158.755 446.401 157.011 446.75 155.384C446.866 154.919 447.332 154.686 447.681 154.802C448.03 154.919 448.262 155.151 448.262 155.384C448.611 157.011 448.611 158.755 448.611 160.383L448.495 165.383C448.495 167.01 448.379 168.754 448.262 170.382C448.146 172.01 448.03 173.754 447.913 175.381C447.913 175.73 447.681 175.846 447.332 175.846C447.099 175.846 446.866 175.614 446.866 175.381Z" fill="#D6A37F"/>
</g>
<g opacity="0.5">
<path opacity="0.5" d="M454.428 167.127C454.195 164.452 454.079 161.895 453.963 159.221C453.963 157.942 453.846 156.546 453.846 155.268C453.846 153.989 453.846 152.593 454.195 151.315C454.311 150.849 454.777 150.617 455.242 150.733C455.475 150.849 455.707 151.082 455.824 151.315C456.173 152.593 456.173 153.989 456.173 155.268C456.173 156.546 456.056 157.942 456.056 159.221C455.94 161.895 455.824 164.452 455.475 167.127C455.475 167.475 455.126 167.592 454.893 167.592C454.66 167.592 454.428 167.359 454.428 167.127Z" fill="#D6A37F"/>
</g>
<g opacity="0.5">
<path opacity="0.5" d="M462.571 172.242C462.338 169.684 462.222 167.126 462.106 164.569C462.106 163.29 461.989 162.011 461.989 160.732C461.989 159.453 461.989 158.174 462.338 156.895C462.455 156.43 462.92 156.198 463.385 156.314C463.618 156.43 463.85 156.663 463.967 156.895C464.316 158.174 464.316 159.453 464.316 160.732C464.316 162.011 464.199 163.29 464.199 164.569C464.083 167.126 463.967 169.684 463.618 172.242C463.618 172.591 463.269 172.707 463.036 172.707C462.803 172.707 462.571 172.475 462.571 172.242Z" fill="#D6A37F"/>
</g>
<path opacity="0.4" d="M462.222 137.014L448.844 121.551C447.913 120.504 448.03 118.993 449.077 118.063L449.426 117.714C450.473 116.784 451.985 116.9 452.916 117.946L466.293 133.41C467.224 134.456 467.108 135.967 466.061 136.898L465.712 137.246C464.665 138.06 463.153 137.944 462.222 137.014Z" fill="#D6A37F" stroke="#D6A37F" stroke-width="0.3021" stroke-miterlimit="10" stroke-linecap="round" stroke-linejoin="round"/>
<path opacity="0.4" d="M453.963 144.106L440.585 128.643C439.654 127.596 439.77 126.085 440.817 125.155L441.166 124.806C442.213 123.876 443.726 123.992 444.656 125.039L458.034 140.502C458.965 141.548 458.848 143.06 457.801 143.99L457.452 144.339C456.405 145.152 454.893 145.036 453.963 144.106Z" fill="#D6A37F" stroke="#D6A37F" stroke-width="0.3021" stroke-miterlimit="10" stroke-linecap="round" stroke-linejoin="round"/>
<path d="M120.589 322.905L184.919 322.905L184.919 306.977L120.589 306.977L120.589 322.905Z" fill="white"/>
<path d="M120.679 321.759V306.877H185.009V320.48" fill="white"/>
<path d="M119.748 321.759L119.516 306.877C119.516 306.296 119.865 305.947 120.446 305.831H120.563C125.914 305.366 131.265 305.482 136.616 305.482L152.67 305.598C163.372 305.714 174.074 305.831 184.893 306.063C185.358 306.063 185.707 306.412 185.707 306.877L185.358 320.364C185.358 320.596 185.125 320.829 184.893 320.829C184.66 320.829 184.427 320.596 184.427 320.364L184.079 306.877L184.893 307.691C174.191 307.923 163.488 308.04 152.67 308.156L136.616 308.272C131.265 308.272 125.914 308.389 120.563 307.923L121.61 306.877L121.493 321.759C121.493 322.224 121.144 322.573 120.679 322.573C120.214 322.573 119.865 322.224 119.748 321.759Z" fill="#916F58"/>
<path d="M184.66 303.157C179.309 303.389 174.074 303.505 168.723 303.622L152.786 303.854C147.435 303.97 142.2 303.97 136.849 303.854C131.498 303.854 126.263 303.738 120.912 303.273C120.446 303.273 120.097 302.808 120.097 302.343C120.097 301.878 120.446 301.645 120.912 301.529C126.263 301.064 131.498 300.948 136.849 300.948C142.2 300.948 147.435 300.948 152.786 300.948L168.723 301.18C174.074 301.296 179.309 301.413 184.66 301.645C185.009 301.645 185.358 301.994 185.358 302.343C185.358 302.808 185.009 303.157 184.66 303.157Z" fill="#916F58"/>
<path d="M121.377 297.808C126.728 297.576 131.963 297.46 137.314 297.343L153.251 297.111C158.602 296.995 163.837 296.995 169.188 297.111C174.539 297.111 179.774 297.227 185.125 297.692C185.591 297.692 185.94 298.157 185.94 298.622C185.94 299.087 185.591 299.32 185.125 299.436C179.774 299.901 174.539 300.018 169.188 300.018C163.837 300.018 158.602 300.018 153.251 300.018L137.314 299.669C131.963 299.552 126.728 299.436 121.377 299.204C121.028 299.204 120.679 298.855 120.679 298.506C120.679 298.157 121.028 297.925 121.377 297.808Z" fill="#916F58"/>
<path d="M183.729 295.251C178.146 295.832 172.562 296.064 166.978 295.948C161.394 295.832 155.694 295.483 150.11 294.669C144.527 293.855 138.943 292.576 133.592 290.251C130.916 289.089 128.357 287.577 126.263 285.484C124.169 283.392 122.424 280.717 121.959 277.695C121.842 277.23 122.191 276.764 122.657 276.764C123.122 276.648 123.471 276.997 123.587 277.346C124.402 279.787 126.03 281.88 128.008 283.624C129.985 285.368 132.312 286.647 134.755 287.693C139.757 289.786 145.108 291.065 150.459 291.995C155.927 292.925 161.394 293.39 166.978 293.623C172.562 293.855 178.029 293.972 183.613 293.855C183.962 293.855 184.311 294.204 184.311 294.553C184.311 294.902 184.078 295.134 183.729 295.251Z" fill="#916F58"/>
<path d="M100.903 260.139C101.95 260.604 103.23 261.069 104.858 261.301" stroke="#EDB8A1" stroke-width="1.2658" stroke-miterlimit="10" stroke-linecap="round" stroke-linejoin="round"/>
</svg>
