<svg width="580" height="380" viewBox="0 0 580 380" fill="none" xmlns="http://www.w3.org/2000/svg">
<g clip-path="url(#clip0)">
<path d="M328.5 259.8L428.6 159.7C433.9 154.4 442.6 154.4 447.9 159.7L450.6 162.4C455.9 167.7 455.9 176.4 450.6 181.7L350.5 281.8C345.2 287.1 336.5 287.1 331.2 281.8L328.5 279.1C323.2 273.8 323.2 265.1 328.5 259.8Z" fill="#E5EEFD"/>
<path d="M164.8 181.2L182.5 163.5C187.8 158.2 196.5 158.2 201.8 163.5L204.5 166.2C209.8 171.5 209.8 180.2 204.5 185.5L186.8 203.2C181.5 208.5 172.8 208.5 167.5 203.2L164.8 200.5C159.5 195.2 159.5 186.5 164.8 181.2Z" fill="#E5EEFD"/>
<path d="M336.7 208.4L381.2 163.9C378.2 166.9 376.6 170.9 376.7 174.9C376.7 178.9 378.2 182.9 381.2 185.9C387.3 192 397.1 192 403.2 185.9L358.7 230.4C361.7 227.4 363.3 223.4 363.2 219.4C363.2 215.4 361.7 211.4 358.6 208.4C352.7 202.4 342.8 202.4 336.7 208.4Z" fill="#E5EEFD"/>
<path d="M317.7 140.6L359.4 98.8999C356.4 101.9 354.8 105.9 354.9 109.9C354.9 113.9 356.4 117.9 359.4 120.9C365.5 127 375.3 127 381.4 120.9L339.7 162.6C342.7 159.6 344.3 155.6 344.2 151.6C344.2 147.6 342.7 143.6 339.6 140.6C333.6 134.5 323.8 134.5 317.7 140.6Z" fill="#E5EEFD"/>
<path d="M301.6 199.8L426 75.4C431.3 70.1 440 70.1 445.3 75.4L448 78.1C453.3 83.4 453.3 92.1 448 97.4L323.6 221.8C318.3 227.1 309.6 227.1 304.3 221.8L301.6 219.1C296.3 213.8 296.3 205.1 301.6 199.8Z" fill="#E5EEFD"/>
<path d="M182 232.8L350.4 64.4999C355.7 59.1999 364.4 59.1999 369.7 64.4999L372.4 67.1999C377.7 72.4999 377.7 81.1999 372.4 86.4999L204 254.8C198.7 260.1 190 260.1 184.7 254.8L182 252.1C176.7 246.8 176.7 238.1 182 232.8Z" fill="#E5EEFD"/>
<path d="M211.3 123.7L275.4 59.6C280.7 54.3 289.4 54.3 294.7 59.6L297.4 62.3C302.7 67.6 302.7 76.3 297.4 81.6L233.3 145.7C228 151 219.3 151 214 145.7L211.3 143C206 137.7 206 129.1 211.3 123.7Z" fill="#E5EEFD"/>
<path d="M313 22L316 19C321.3 13.7 330 13.7 335.3 19L338 21.7C343.3 27 343.3 35.7 338 41L335 44C329.7 49.3 321 49.3 315.7 44L313 41.3C307.7 36 307.7 27.4 313 22Z" fill="#E5EEFD"/>
<path d="M265.8 234.5L268.8 231.5C274.1 226.2 282.8 226.2 288.1 231.5L290.8 234.2C296.1 239.5 296.1 248.2 290.8 253.5L287.8 256.5C282.5 261.8 273.8 261.8 268.5 256.5L265.8 253.8C260.5 248.5 260.5 239.9 265.8 234.5Z" fill="#E5EEFD"/>
<g opacity="0.7">
<path opacity="0.7" d="M228.2 116.3V125.3" stroke="#C9D7ED" stroke-width="3.0681" stroke-miterlimit="10" stroke-linecap="round" stroke-linejoin="round"/>
<path opacity="0.7" d="M232.7 120.8H223.6" stroke="#C9D7ED" stroke-width="3.0681" stroke-miterlimit="10" stroke-linecap="round" stroke-linejoin="round"/>
</g>
<path d="M287.7 96.7C288.915 96.7 289.9 95.7151 289.9 94.5C289.9 93.285 288.915 92.3 287.7 92.3C286.485 92.3 285.5 93.285 285.5 94.5C285.5 95.7151 286.485 96.7 287.7 96.7Z" stroke="#9FC3FD" stroke-width="1.9634" stroke-miterlimit="10" stroke-linecap="round" stroke-linejoin="round"/>
<g opacity="0.7">
<path opacity="0.7" d="M416.1 88.3999V97.7999" stroke="#C9D7ED" stroke-width="2.3278" stroke-miterlimit="10" stroke-linecap="round" stroke-linejoin="round"/>
<path opacity="0.7" d="M420.8 93.0999H411.3" stroke="#C9D7ED" stroke-width="2.3278" stroke-miterlimit="10" stroke-linecap="round" stroke-linejoin="round"/>
</g>
<path d="M434.6 119.5C435.649 119.5 436.5 118.649 436.5 117.6C436.5 116.551 435.649 115.7 434.6 115.7C433.551 115.7 432.7 116.551 432.7 117.6C432.7 118.649 433.551 119.5 434.6 119.5Z" stroke="#C9D7ED" stroke-width="2.3278" stroke-miterlimit="10" stroke-linecap="round" stroke-linejoin="round"/>
<path d="M446.9 145.6C447.949 145.6 448.8 144.749 448.8 143.7C448.8 142.651 447.949 141.8 446.9 141.8C445.851 141.8 445 142.651 445 143.7C445 144.749 445.851 145.6 446.9 145.6Z" stroke="#9FC3FD" stroke-width="1.9634" stroke-miterlimit="10" stroke-linecap="round" stroke-linejoin="round"/>
<path d="M388.7 74.3C389.749 74.3 390.6 73.4493 390.6 72.4C390.6 71.3507 389.749 70.5 388.7 70.5C387.651 70.5 386.8 71.3507 386.8 72.4C386.8 73.4493 387.651 74.3 388.7 74.3Z" stroke="#9FC3FD" stroke-width="1.9634" stroke-miterlimit="10" stroke-linecap="round" stroke-linejoin="round"/>
<path d="M481.3 205.6C482.349 205.6 483.2 204.749 483.2 203.7C483.2 202.651 482.349 201.8 481.3 201.8C480.251 201.8 479.4 202.651 479.4 203.7C479.4 204.749 480.251 205.6 481.3 205.6Z" stroke="#9FC3FD" stroke-width="1.9634" stroke-miterlimit="10" stroke-linecap="round" stroke-linejoin="round"/>
<path d="M236.173 174.611L232.327 177.961L235.676 181.807L239.522 178.457L236.173 174.611Z" stroke="#9FC3FD" stroke-width="1.4769" stroke-miterlimit="10" stroke-linecap="round" stroke-linejoin="round"/>
<path d="M447.214 77.2393L448.136 80.6157L451.512 79.6935L450.59 76.317L447.214 77.2393Z" stroke="#9FC3FD" stroke-width="1.4769" stroke-miterlimit="10" stroke-linecap="round" stroke-linejoin="round"/>
<path d="M411.1 220.6C411.1 221.2 411 221.9 411 222.5L411.1 220.6Z" fill="#93B9F4"/>
<path d="M481.2 320.7C482.1 320.3 483.1 320.3 484 320.3C484.9 320.3 485.9 320.4 486.8 320.6C487.3 320.7 487.5 321.1 487.4 321.6C487.3 321.9 487.1 322.2 486.8 322.2C485.9 322.4 484.9 322.5 484 322.5C483.1 322.5 482.1 322.5 481.2 322.1C480.8 321.9 480.6 321.5 480.8 321.1C480.8 320.9 481 320.8 481.2 320.7Z" fill="#717791"/>
<path d="M225.1 320.7C235.6 320.4 246.1 320.3 256.6 320.4H288.1L351.1 320.3L414.1 320.2H445.6C456.1 320.2 466.6 320.2 477.1 320.5C477.6 320.5 478 320.9 478 321.4C478 321.9 477.6 322.2 477.1 322.3C466.6 322.6 456.1 322.6 445.6 322.6H414.1L351.1 322.5L288.1 322.4H256.6C246.1 322.4 235.6 322.4 225.1 322.1C224.7 322.1 224.4 321.8 224.4 321.4C224.4 321 224.7 320.7 225.1 320.7Z" fill="#717791"/>
<path d="M218.9 320.4C219 320.4 219.2 320.4 219.3 320.4C219.4 320.4 219.4 320.4 219.5 320.4C219.6 320.4 219.6 320.4 219.7 320.5C220.2 320.8 220.3 321.5 220 321.9C219.9 322 219.8 322.1 219.7 322.2C219.6 322.2 219.6 322.3 219.5 322.3C219.4 322.3 219.4 322.4 219.3 322.3C219.2 322.3 219 322.3 218.9 322.3C218.3 322.2 218 321.6 218.1 321.1C218.2 320.8 218.5 320.5 218.9 320.4Z" fill="#717791"/>
<path d="M208.8 320.7C209.5 320.5 210.2 320.5 210.8 320.4C211.5 320.4 212.2 320.4 212.8 320.6C213.2 320.7 213.5 321.2 213.4 321.7C213.3 322 213.1 322.2 212.8 322.3C212.1 322.5 211.4 322.5 210.8 322.5C210.1 322.5 209.4 322.4 208.8 322.2C208.4 322.1 208.2 321.7 208.3 321.3C208.3 320.9 208.5 320.7 208.8 320.7Z" fill="#717791"/>
<path d="M322 334.1C325.3 333.8 328.6 333.7 331.8 333.7L341.6 333.6L361.3 333.5H381H390.8C394.1 333.5 397.4 333.5 400.6 333.8C401.1 333.8 401.4 334.3 401.4 334.8C401.4 335.2 401 335.6 400.6 335.6C397.3 335.9 394 335.9 390.8 335.9H381H361.3L341.6 335.8L331.8 335.7C328.5 335.7 325.2 335.7 322 335.3C321.6 335.3 321.4 334.9 321.4 334.6C321.5 334.4 321.7 334.2 322 334.1Z" fill="#717791"/>
<path d="M289.7 334.1C293.1 333.9 296.4 333.9 299.8 333.8C303.2 333.8 306.5 333.8 309.9 334C310.3 334 310.7 334.4 310.7 334.9C310.7 335.3 310.3 335.6 309.9 335.7C306.5 335.9 303.2 335.9 299.8 335.9C296.4 335.9 293.1 335.8 289.7 335.6C289.3 335.6 289 335.2 289 334.8C289 334.4 289.3 334.1 289.7 334.1Z" fill="#717791"/>
<g opacity="0.5">
<path opacity="0.3" d="M213.8 182C219.268 182 223.7 177.568 223.7 172.1C223.7 166.633 219.268 162.2 213.8 162.2C208.332 162.2 203.9 166.633 203.9 172.1C203.9 177.568 208.332 182 213.8 182Z" fill="#A3ACD6" stroke="#A3ACD6" stroke-width="1.4032" stroke-miterlimit="10" stroke-linecap="round" stroke-linejoin="round"/>
<g opacity="0.5">
<g opacity="0.5">
<g opacity="0.5">
<path opacity="0.5" d="M210.4 170L214 172.7H212.1L219.3 166.5C219.7 166.2 220.2 166.2 220.5 166.6C220.8 166.9 220.8 167.5 220.5 167.8L214 174.7L213.9 174.8C213.4 175.3 212.6 175.3 212.1 174.9L212 174.8L209.1 171.4C208.8 171 208.8 170.5 209.2 170.2C209.6 169.8 210 169.8 210.4 170Z" fill="#A3ACD6"/>
</g>
</g>
<g opacity="0.5">
<path opacity="0.5" d="M224.3 173.5C224.1 175.8 223 178.1 221.1 179.6C219.2 181 216.9 181.9 214.5 182C212.1 182.1 209.7 181.5 207.7 180.2C205.7 178.9 204.1 177 203.3 174.7C202.5 172.4 202.5 169.8 203.4 167.6C203.8 166.5 204.5 165.4 205.3 164.5C206.1 163.6 207 162.8 208.1 162.2C210.2 161 212.6 160.5 214.9 160.7C217.2 160.9 219.6 161.9 220.8 163.9C220.9 164.1 220.9 164.4 220.7 164.5C220.6 164.6 220.5 164.6 220.3 164.5C218.3 163.8 216.6 163.2 214.7 163.1C212.9 163 211 163.4 209.5 164.4C208 165.4 206.7 166.8 206.1 168.4C205.4 170.1 205.4 171.9 206 173.6C206.5 175.3 207.8 176.7 209.3 177.7C210.8 178.7 212.7 179.2 214.5 179.1C216.3 179 218.1 178.4 219.5 177.3C219.8 177 220.2 176.7 220.6 176.4C221 176.1 221.3 175.8 221.6 175.4C222.2 174.7 222.7 173.9 223.1 173C223.2 172.6 223.7 172.5 224 172.6C224.1 172.9 224.3 173.2 224.3 173.5Z" fill="#A3ACD6"/>
</g>
</g>
</g>
<g opacity="0.5">
<path opacity="0.3" d="M483 178.6C488.468 178.6 492.9 174.168 492.9 168.7C492.9 163.232 488.468 158.8 483 158.8C477.532 158.8 473.1 163.232 473.1 168.7C473.1 174.168 477.532 178.6 483 178.6Z" fill="#A3ACD6" stroke="#A3ACD6" stroke-width="1.4032" stroke-miterlimit="10" stroke-linecap="round" stroke-linejoin="round"/>
<g opacity="0.5">
<g opacity="0.5">
<g opacity="0.5">
<path opacity="0.5" d="M479.6 166.6L483.2 169.3H481.3L488.5 163.1C488.9 162.8 489.4 162.8 489.7 163.2C490 163.5 490 164.1 489.7 164.4L483.2 171.3L483.1 171.4C482.6 171.9 481.8 171.9 481.3 171.5L481.2 171.4L478.3 168C478 167.6 478 167.1 478.4 166.8C478.8 166.4 479.2 166.4 479.6 166.6Z" fill="#A3ACD6"/>
</g>
</g>
<g opacity="0.5">
<path opacity="0.5" d="M493.5 170.1C493.3 172.4 492.2 174.7 490.3 176.2C488.4 177.6 486.1 178.5 483.7 178.6C481.3 178.7 478.9 178.1 476.9 176.8C474.9 175.5 473.3 173.6 472.5 171.3C471.7 169 471.7 166.4 472.6 164.2C473 163.1 473.7 162 474.5 161.1C475.3 160.2 476.2 159.4 477.3 158.8C479.4 157.6 481.8 157.1 484.1 157.3C486.4 157.5 488.8 158.5 490 160.5C490.1 160.7 490.1 161 489.9 161.1C489.8 161.2 489.7 161.2 489.5 161.1C487.5 160.4 485.8 159.8 483.9 159.7C482.1 159.6 480.2 160 478.7 161C477.2 162 475.9 163.4 475.3 165C474.6 166.7 474.6 168.5 475.2 170.2C475.7 171.9 477 173.3 478.5 174.3C480 175.3 481.9 175.8 483.7 175.7C485.5 175.6 487.3 175 488.7 173.9C489 173.6 489.4 173.3 489.8 173C490.2 172.7 490.5 172.4 490.8 172C491.4 171.3 491.9 170.5 492.3 169.6C492.4 169.2 492.9 169.1 493.2 169.2C493.3 169.5 493.5 169.8 493.5 170.1Z" fill="#A3ACD6"/>
</g>
</g>
</g>
<g opacity="0.5">
<path opacity="0.3" d="M264.7 104.5C270.168 104.5 274.6 100.068 274.6 94.6C274.6 89.1323 270.168 84.7 264.7 84.7C259.232 84.7 254.8 89.1323 254.8 94.6C254.8 100.068 259.232 104.5 264.7 104.5Z" fill="#A3ACD6" stroke="#A3ACD6" stroke-width="1.4032" stroke-miterlimit="10" stroke-linecap="round" stroke-linejoin="round"/>
<g opacity="0.5">
<g opacity="0.5">
<g opacity="0.5">
<path opacity="0.5" d="M261.3 92.5998L264.9 95.2998H263L270.2 89.0998C270.6 88.7998 271.1 88.7998 271.4 89.1998C271.7 89.4998 271.7 90.0998 271.4 90.3998L264.9 97.2998L264.8 97.3998C264.3 97.8998 263.5 97.8998 263 97.4998L262.9 97.3998L260 93.9998C259.7 93.5998 259.7 93.0998 260.1 92.7998C260.5 92.3998 260.9 92.2998 261.3 92.5998Z" fill="#A3ACD6"/>
</g>
</g>
<g opacity="0.5">
<path opacity="0.5" d="M275.2 96.0999C275 98.3999 273.9 100.7 272 102.2C270.1 103.6 267.8 104.5 265.4 104.6C263 104.7 260.6 104.1 258.6 102.8C256.6 101.5 255 99.5999 254.2 97.2999C253.4 94.9999 253.4 92.3999 254.3 90.1999C254.7 89.0999 255.4 87.9999 256.2 87.0999C257 86.1999 257.9 85.3999 259 84.7999C261.1 83.5999 263.5 83.0999 265.8 83.2999C268.1 83.4999 270.5 84.4999 271.7 86.4999C271.8 86.6999 271.8 86.9999 271.6 87.0999C271.5 87.1999 271.4 87.1999 271.2 87.0999C269.2 86.3999 267.5 85.7999 265.6 85.6999C263.8 85.5999 261.9 85.9999 260.4 86.9999C258.9 87.9999 257.6 89.3999 257 90.9999C256.3 92.6999 256.3 94.4999 256.9 96.1999C257.4 97.8999 258.7 99.2999 260.2 100.3C261.7 101.3 263.6 101.8 265.4 101.7C267.2 101.6 269 101 270.4 99.8999C270.7 99.5999 271.1 99.2999 271.5 98.9999C271.9 98.6999 272.2 98.3999 272.5 97.9999C273.1 97.2999 273.6 96.4999 274 95.5999C274.1 95.1999 274.6 95.0999 274.9 95.1999C275 95.4999 275.2 95.7999 275.2 96.0999Z" fill="#A3ACD6"/>
</g>
</g>
</g>
<path d="M397.7 149.1H262.5V321.2H397.7V149.1Z" fill="#E5EEFD"/>
<path d="M387.4 161.4H272.3V309.5H387.4V161.4Z" fill="white"/>
<path d="M303.6 205C310.448 205 316 199.449 316 192.6C316 185.752 310.448 180.2 303.6 180.2C296.752 180.2 291.2 185.752 291.2 192.6C291.2 199.449 296.752 205 303.6 205Z" fill="#A9EBC8"/>
<path d="M299.2 191.2L304 194.8L301.2 194.9L310.5 186.2C311 185.7 311.8 185.7 312.3 186.3C312.7 186.8 312.8 187.5 312.3 188L304.1 197.7L304 197.8C303.4 198.6 302.2 198.6 301.5 198C301.4 197.9 301.3 197.8 301.3 197.8L297.5 193.1C297.1 192.6 297.1 191.7 297.7 191.3C298.1 190.9 298.7 190.9 299.2 191.2Z" fill="#717791"/>
<path d="M317.2 195.6C316.9 198.5 315.6 201.6 313.3 203.6C311 205.6 308 206.9 304.9 207.1C301.8 207.3 298.7 206.5 296.1 204.8C293.5 203.1 291.5 200.5 290.5 197.6C289.5 194.7 289.4 191.4 290.4 188.5C290.9 187 291.6 185.6 292.5 184.4C293.4 183.2 294.6 182.1 295.9 181.2C298.5 179.5 301.6 178.7 304.7 178.8C307.7 178.9 310.8 180.3 312.6 182.8C312.7 183 312.7 183.3 312.5 183.4C312.4 183.5 312.2 183.5 312.1 183.4C309.5 182.3 307.2 181.4 304.6 181.3C302.1 181.2 299.5 181.9 297.5 183.4C295.5 184.9 293.9 186.9 293.1 189.3C292.3 191.7 292.4 194.3 293.2 196.6C294 199 295.6 201 297.7 202.4C299.8 203.8 302.3 204.5 304.8 204.3C307.3 204.2 309.7 203.1 311.6 201.5C312 201 312.5 200.7 313 200.2C313.4 199.8 313.9 199.3 314.2 198.7C315 197.7 315.6 196.5 316 195.2C316.1 194.8 316.5 194.6 316.9 194.8C317 195 317.2 195.3 317.2 195.6Z" fill="#717791"/>
<path d="M328 186.1C330 185.5 332.1 185.3 334.2 185.3C336.3 185.3 338.3 185.2 340.4 185.2C342.5 185.2 344.5 185.2 346.6 185.2C348.7 185.2 350.7 185.3 352.8 185.4C353.3 185.4 353.6 185.8 353.6 186.3C353.6 186.7 353.2 187.1 352.8 187.1C350.7 187.3 348.7 187.4 346.6 187.6C344.5 187.7 342.5 187.8 340.4 187.9C338.3 188 336.3 188 334.2 188.1C332.1 188.2 330.1 188.1 328 187.6C327.6 187.5 327.3 187.1 327.4 186.6C327.6 186.3 327.8 186.1 328 186.1Z" fill="#717791"/>
<path d="M328.2 195.2C330.8 194.7 333.5 194.6 336.2 194.5L344.2 194.3C346.9 194.2 349.5 194.3 352.2 194.2C354.9 194.2 357.5 194.2 360.2 194.3C360.8 194.3 361.2 194.8 361.2 195.3C361.2 195.8 360.8 196.3 360.3 196.3C357.6 196.5 355 196.6 352.3 196.7C349.6 196.8 347 196.9 344.3 197L336.3 197.2C333.6 197.3 331 197.3 328.3 196.9C327.8 196.8 327.5 196.4 327.6 195.9C327.6 195.6 327.9 195.3 328.2 195.2Z" fill="#717791"/>
<path d="M357.7 185.1C358.6 184.8 359.6 184.7 360.5 184.7L363.3 184.6C365.2 184.6 367.1 184.6 369 184.6C369.7 184.6 370.2 185.2 370.2 185.9C370.2 186.5 369.7 187.1 369.1 187.1C367.2 187.3 365.3 187.3 363.4 187.4L360.6 187.5C359.7 187.5 358.7 187.5 357.7 187.3C357.1 187.1 356.7 186.5 356.9 185.9C357.1 185.5 357.4 185.2 357.7 185.1Z" fill="#717791"/>
<path d="M303.6 245.7C310.448 245.7 316 240.148 316 233.3C316 226.452 310.448 220.9 303.6 220.9C296.752 220.9 291.2 226.452 291.2 233.3C291.2 240.148 296.752 245.7 303.6 245.7Z" fill="#A9EBC8"/>
<path d="M299.2 232L304 235.6L301.2 235.7L310.5 227C311 226.5 311.8 226.5 312.3 227.1C312.7 227.6 312.8 228.3 312.3 228.8L304.1 238.5L304 238.6C303.4 239.4 302.2 239.4 301.5 238.8C301.4 238.7 301.3 238.6 301.3 238.6L297.5 233.9C297.1 233.4 297.1 232.5 297.7 232.1C298.1 231.6 298.7 231.6 299.2 232Z" fill="#717791"/>
<path d="M317.2 236.3C316.9 239.2 315.6 242.3 313.3 244.3C311 246.3 308 247.6 304.9 247.8C301.8 248 298.7 247.2 296.1 245.5C293.5 243.8 291.5 241.2 290.5 238.3C289.5 235.4 289.4 232.1 290.4 229.2C290.9 227.7 291.6 226.3 292.5 225.1C293.4 223.9 294.6 222.8 295.9 221.9C298.5 220.2 301.6 219.4 304.7 219.5C307.7 219.6 310.8 221 312.6 223.5C312.7 223.7 312.7 224 312.5 224.1C312.4 224.2 312.2 224.2 312.1 224.1C309.5 223 307.2 222.1 304.6 222C302.1 221.9 299.5 222.6 297.5 224.1C295.5 225.6 293.9 227.6 293.1 230C292.3 232.4 292.4 235 293.2 237.3C294 239.7 295.6 241.7 297.7 243.1C299.8 244.5 302.3 245.2 304.8 245C307.3 244.9 309.7 243.8 311.6 242.2C312 241.7 312.5 241.4 313 240.9C313.4 240.5 313.9 240 314.2 239.4C315 238.4 315.6 237.2 316 235.9C316.1 235.5 316.5 235.3 316.9 235.5C317 235.7 317.2 236 317.2 236.3Z" fill="#717791"/>
<path d="M328 226.8C330 226.2 332.1 226 334.2 226C336.3 226 338.3 225.9 340.4 225.9C342.5 225.9 344.5 225.9 346.6 225.9C348.7 225.9 350.7 226 352.8 226.1C353.3 226.1 353.6 226.5 353.6 227C353.6 227.4 353.2 227.8 352.8 227.8C350.7 228 348.7 228.1 346.6 228.3C344.5 228.4 342.5 228.5 340.4 228.6C338.3 228.7 336.3 228.7 334.2 228.8C332.1 228.9 330.1 228.8 328 228.3C327.6 228.2 327.3 227.8 327.4 227.3C327.6 227 327.8 226.9 328 226.8Z" fill="#717791"/>
<path d="M328.2 236C330.8 235.5 333.5 235.4 336.2 235.3L344.2 235.1C346.9 235 349.5 235.1 352.2 235C354.9 235 357.5 235 360.2 235.1C360.8 235.1 361.2 235.6 361.2 236.1C361.2 236.6 360.8 237.1 360.3 237.1C357.6 237.3 355 237.4 352.3 237.5C349.6 237.6 347 237.7 344.3 237.8L336.3 238C333.6 238.1 331 238.1 328.3 237.7C327.8 237.6 327.5 237.2 327.6 236.7C327.6 236.3 327.9 236 328.2 236Z" fill="#717791"/>
<path d="M357.7 225.8C358.6 225.5 359.6 225.4 360.5 225.4L363.3 225.3C365.2 225.3 367.1 225.3 369 225.3C369.7 225.3 370.2 225.9 370.2 226.6C370.2 227.2 369.7 227.8 369.1 227.8C367.2 228 365.3 228 363.4 228.1L360.6 228.2C359.7 228.2 358.7 228.2 357.7 228C357.1 227.8 356.7 227.2 356.9 226.6C357.1 226.2 357.4 225.9 357.7 225.8Z" fill="#717791"/>
<path d="M303.6 286.4C310.448 286.4 316 280.848 316 274C316 267.152 310.448 261.6 303.6 261.6C296.752 261.6 291.2 267.152 291.2 274C291.2 280.848 296.752 286.4 303.6 286.4Z" fill="#A9EBC8"/>
<path d="M299.2 272.7L304 276.3L301.2 276.4L310.5 267.7C311 267.2 311.8 267.2 312.3 267.8C312.7 268.3 312.8 269 312.3 269.5L304.1 279.2L304 279.3C303.4 280.1 302.2 280.1 301.5 279.5C301.4 279.4 301.3 279.3 301.3 279.3L297.5 274.6C297.1 274.1 297.1 273.2 297.7 272.8C298.1 272.3 298.7 272.3 299.2 272.7Z" fill="#717791"/>
<path d="M317.2 277.1C316.9 280 315.6 283.1 313.3 285.1C311 287.1 308 288.4 304.9 288.6C301.8 288.8 298.7 288 296.1 286.3C293.5 284.6 291.5 282 290.5 279.1C289.5 276.2 289.4 272.9 290.4 270C290.9 268.5 291.6 267.1 292.5 265.9C293.4 264.7 294.6 263.6 295.9 262.7C298.5 261 301.6 260.2 304.7 260.3C307.7 260.4 310.8 261.8 312.6 264.3C312.7 264.5 312.7 264.8 312.5 264.9C312.4 265 312.2 265 312.1 264.9C309.5 263.8 307.2 262.9 304.6 262.8C302.1 262.7 299.5 263.4 297.5 264.9C295.5 266.4 293.9 268.4 293.1 270.8C292.3 273.2 292.4 275.8 293.2 278.1C294 280.5 295.6 282.5 297.7 283.9C299.8 285.3 302.3 286 304.8 285.8C307.3 285.7 309.7 284.6 311.6 283C312 282.5 312.5 282.2 313 281.7C313.4 281.3 313.9 280.8 314.2 280.2C315 279.2 315.6 278 316 276.7C316.1 276.3 316.5 276.1 316.9 276.3C317 276.5 317.2 276.8 317.2 277.1Z" fill="#717791"/>
<path d="M328 267.5C330 266.9 332.1 266.7 334.2 266.7C336.3 266.7 338.3 266.6 340.4 266.6C342.5 266.6 344.5 266.6 346.6 266.6C348.7 266.6 350.7 266.7 352.8 266.8C353.3 266.8 353.6 267.2 353.6 267.7C353.6 268.1 353.2 268.5 352.8 268.5C350.7 268.7 348.7 268.8 346.6 269C344.5 269.1 342.5 269.2 340.4 269.3C338.3 269.4 336.3 269.4 334.2 269.5C332.1 269.6 330.1 269.5 328 269C327.6 268.9 327.3 268.5 327.4 268C327.6 267.8 327.8 267.6 328 267.5Z" fill="#717791"/>
<path d="M328.2 276.7C330.8 276.2 333.5 276.1 336.2 276L344.2 275.8C346.9 275.7 349.5 275.8 352.2 275.7C354.9 275.7 357.5 275.7 360.2 275.8C360.8 275.8 361.2 276.3 361.2 276.8C361.2 277.3 360.8 277.8 360.3 277.8C357.6 278 355 278.1 352.3 278.2C349.6 278.3 347 278.4 344.3 278.5L336.3 278.7C333.6 278.8 331 278.8 328.3 278.4C327.8 278.3 327.5 277.9 327.6 277.4C327.6 277 327.9 276.7 328.2 276.7Z" fill="#717791"/>
<path d="M357.7 266.5C358.6 266.2 359.6 266.1 360.5 266.1L363.3 266C365.2 266 367.1 266 369 266C369.7 266 370.2 266.6 370.2 267.3C370.2 267.9 369.7 268.5 369.1 268.5C367.2 268.7 365.3 268.7 363.4 268.8L360.6 268.9C359.7 268.9 358.7 268.9 357.7 268.7C357.1 268.5 356.7 267.9 356.9 267.3C357.1 266.9 357.4 266.6 357.7 266.5Z" fill="#717791"/>
<path d="M389.7 196.8L389.9 290.8V302.5V305.4V306.9V307.6V308C389.9 308.2 389.9 308.4 389.8 308.6C389.6 309.5 389.1 310.3 388.4 310.8C388 311.1 387.6 311.3 387.2 311.4C387 311.5 386.8 311.5 386.5 311.5H386.1H383.2H359.7H312.7H289.2H277.5H274.6H273.9C273.8 311.5 273.5 311.5 273.3 311.5C273.1 311.5 272.9 311.4 272.7 311.4C271.9 311.1 271.2 310.5 270.8 309.7C270.6 309.3 270.5 308.9 270.4 308.4V308.1V307.9V307.5V306V303.1V256.1V209.1V185.6V173.9C270.4 170 270.5 166.1 271.2 162.2C271.3 161.9 271.6 161.7 271.9 161.7C272.1 161.7 272.3 161.9 272.4 162.2C273.1 166.1 273.2 170 273.2 173.9V185.6V209.1V256.1V303.1V306V307.5V307.9V308.1V308.2C273.2 308.3 273.2 308.3 273.2 308.3C273.2 308.4 273.3 308.5 273.4 308.5C273.4 308.5 273.4 308.5 273.5 308.5C273.5 308.5 273.5 308.5 273.7 308.5H274.4H277.3H289H312.5H359.5H383H385.9C386 308.5 386.2 308.5 386.2 308.5C386.2 308.5 386.2 308.5 386.3 308.5H386.4C386.5 308.5 386.5 308.4 386.5 308.3V302.7V291L386.7 197C386.7 196.2 387.3 195.6 388.1 195.6C389 195.4 389.7 196.1 389.7 196.8Z" fill="#717791"/>
<path d="M261.4 187C260.7 184 260.9 181 260.9 178.1V169.2V151.2C261 150 261.8 148.8 262.9 148.3C263.4 148 264.1 147.9 264.6 147.9H265.7H270.2H279.1H297H368.5H386.4H395.3C395.4 147.9 395.5 147.9 395.7 147.9C395.9 147.9 396 147.9 396.2 148C396.5 148.1 396.8 148.2 397.1 148.3C397.7 148.6 398.1 149 398.5 149.5C398.8 150 399.1 150.6 399.1 151.2C399.1 151.6 399.1 151.7 399.1 151.9V152.5V157V192.8V264.3V300.1V318V318.6C399.1 318.8 399.1 318.9 399.1 319.3C399.1 319.9 398.8 320.5 398.5 321C398.2 321.5 397.7 321.9 397.1 322.2C396.6 322.5 395.9 322.6 395.4 322.6H390.9H382H310.5H274.7H265.8H264.7C264.6 322.6 264.5 322.6 264.3 322.6C264.1 322.6 264 322.6 263.8 322.5C263.5 322.4 263.2 322.3 262.9 322.2C261.8 321.7 261 320.6 260.9 319.3C260.9 319.2 260.9 319 260.9 318.9V318.6V318V316.9V314.7V296.8V261V243.1C260.9 237.1 260.8 231.2 261.4 225.2C261.5 224.7 261.9 224.4 262.4 224.4C262.8 224.4 263.1 224.8 263.2 225.2C263.8 231.2 263.7 237.1 263.7 243.1V261V296.8V314.7V319C263.7 319.3 263.9 319.5 264.1 319.6C264.2 319.6 264.2 319.6 264.3 319.7H264.4C264.4 319.7 264.5 319.7 264.6 319.7H265.7H274.6H310.4H382H390.9H395.4C395.8 319.7 396 319.6 396.1 319.3C396.2 319.2 396.2 319.1 396.2 318.9V318.5V317.9V300V264.2V192.7V156.9V152.4V151.8V151.4C396.2 151.3 396.1 151.1 396.1 151C396 150.9 395.9 150.8 395.8 150.7C395.7 150.7 395.7 150.7 395.6 150.6H395.5C395.5 150.6 395.4 150.6 395.3 150.6H386.4H368.5H297H279.1H270.2H265.7H264.6C264.3 150.6 264.3 150.6 264.2 150.7C264 150.8 263.8 151.1 263.8 151.3V169.1V178C263.8 181 263.9 184 263.3 186.9C263.2 187.4 262.7 187.7 262.2 187.6C261.8 187.6 261.5 187.3 261.4 187Z" fill="#717791"/>
<path d="M261 202C260.9 201.6 260.8 201.3 260.8 200.9C260.8 200.5 260.8 200.2 260.8 199.8C260.9 199.1 261 198.3 261.5 197.6C261.8 197.2 262.3 197.1 262.7 197.3C262.8 197.4 262.9 197.5 263 197.6C263.5 198.3 263.6 199.1 263.7 199.8C263.7 200.2 263.7 200.5 263.7 200.9C263.7 201.3 263.6 201.6 263.5 202C263.3 202.7 262.5 203.1 261.8 202.9C261.5 202.7 261.2 202.4 261 202Z" fill="#717791"/>
<path d="M360.3 140.9H337.4C337.4 136.1 333.5 132.3 328.8 132.3C324 132.3 320.2 136.2 320.2 140.9H297.3C292.2 140.9 288 145.1 288 150.2C288 155.3 292.2 159.5 297.3 159.5H360.2C365.3 159.5 369.5 155.3 369.5 150.2C369.5 145 365.4 140.9 360.3 140.9Z" fill="#B8D4FF" stroke="#717791" stroke-width="2.8" stroke-miterlimit="10" stroke-linecap="round" stroke-linejoin="round"/>
<path d="M328.8 144.8C330.954 144.8 332.7 143.054 332.7 140.9C332.7 138.746 330.954 137 328.8 137C326.646 137 324.9 138.746 324.9 140.9C324.9 143.054 326.646 144.8 328.8 144.8Z" fill="white" stroke="#717791" stroke-width="2.2934" stroke-miterlimit="10" stroke-linecap="round" stroke-linejoin="round"/>
<path opacity="0.2" d="M437.7 204.1V306.8C437.7 314.7 431.3 321.1 423.4 321.1H380.3C373.8 321.1 368.4 316.8 366.6 310.9C366.2 309.6 366 308.3 366 325.5V222.7C366 204 366.1 202.6 366.2 201.8V201.7C367.3 195 373.2 189.8 380.2 189.8H423.3C430.4 189.8 436.2 194.9 437.3 201.7C437.6 202.5 437.7 203.3 437.7 204.1Z" fill="#3F72BA"/>
<path d="M445 203.3V306C445 313.9 438.6 320.3 430.7 320.3H387.6C381.1 320.3 375.7 316 373.9 310.1C373.5 308.8 373.3 307.5 373.3 324.7V221.9C373.3 203.2 373.4 201.8 373.5 201V200.9C374.6 194.2 380.5 189 387.5 189H430.6C437.7 189 443.5 194.1 444.6 200.9C444.9 201.7 445 202.5 445 203.3Z" fill="white"/>
<path d="M445.8 304.3V306.2C445.8 314.1 439.4 320.5 431.5 320.5H388.4C381.9 320.5 376.5 316.2 374.7 310.3V304.4H445.8V304.3Z" fill="#E5EEFD"/>
<path d="M444.7 200.9H373.5C374.6 194.2 380.5 189 387.5 189H430.6C437.7 189.1 443.6 194.2 444.7 200.9Z" fill="#E5EEFD"/>
<path d="M372 244.5C371.9 244.4 372 244.3 372 244.1C372.1 244 372.1 243.9 372.3 243.7C372.8 243.2 373.6 243.2 374.2 243.7C374.3 243.8 374.4 243.9 374.5 244.1C374.6 244.2 374.6 244.3 374.5 244.5C374.1 245.2 373.3 245.5 372.6 245.1C372.4 244.9 372.2 244.7 372 244.5Z" fill="#717791"/>
<path d="M445.7 245.9C446.6 254.2 446.3 262.5 446.3 270.8V295.7V301.9V305C446.3 306 446.3 307.2 446.1 308.3C445.7 310.6 444.9 312.7 443.6 314.7C442.3 316.6 440.6 318.2 438.7 319.4C436.7 320.6 434.5 321.3 432.2 321.6C431.6 321.7 431 321.7 430.5 321.7H428.9H425.8H413.3H388.4C387.4 321.7 386.2 321.7 385.1 321.5C384 321.3 382.9 321 381.8 320.6C379.7 319.8 377.7 318.5 376.1 316.8C374.5 315.1 373.3 313.1 372.6 311C372.2 309.9 372 308.8 371.9 307.6C371.8 307 371.8 306.5 371.8 305.9V304.3V279.4V266.9V260.7C371.8 258.6 371.7 256.5 372.5 254.5C372.6 254.1 373.1 253.9 373.4 254.1C373.6 254.2 373.8 254.3 373.8 254.5C374.6 256.6 374.5 258.7 374.5 260.7V266.9V279.4V304.3V305.9C374.5 306.4 374.5 306.8 374.6 307.3C374.7 308.2 374.9 309.1 375.2 310C375.8 311.8 376.8 313.4 378.1 314.7C379.4 316.1 381 317.1 382.7 317.8C383.6 318.1 384.5 318.4 385.4 318.5C386.3 318.6 387.2 318.6 388.3 318.6H413.2H425.7H428.8H430.4C430.9 318.6 431.3 318.6 431.8 318.5C433.7 318.3 435.5 317.7 437.1 316.8C440.3 314.9 442.6 311.5 443.2 307.8C443.4 306.9 443.4 306 443.4 304.9V301.8V295.6V270.7C443.5 262.4 443.2 254.1 444 245.8C444 245.4 444.4 245.1 444.9 245.1C445.4 245.2 445.7 245.5 445.7 245.9Z" fill="#717791"/>
<path d="M372.5 240.7C372.3 237.4 372.1 234.1 372 230.9C371.9 227.6 371.9 224.3 371.9 221.1V211.3V206.4V203.9C371.9 203.1 371.9 202.1 372 201.3C372.5 197.7 374.3 194.3 376.9 191.9C379.5 189.4 383.1 187.9 386.7 187.8L406.5 187.7H426.2H431.2C433 187.7 434.8 188.1 436.5 188.8C439.9 190.1 442.7 192.7 444.5 195.8C445.4 197.4 446 199.1 446.3 200.9C446.4 201.8 446.5 202.7 446.5 203.6V206.1V215.9V225.7V230.6C446.5 232.2 446.5 233.9 445.8 235.5C445.6 235.9 445.2 236 444.8 235.9C444.6 235.8 444.5 235.7 444.4 235.5C443.7 233.9 443.7 232.2 443.7 230.6V225.7V215.9V206.1V203.6C443.7 202.8 443.6 202.1 443.5 201.4C443.3 199.9 442.8 198.5 442 197.2C440.6 194.6 438.2 192.6 435.5 191.5C434.1 191 432.7 190.7 431.2 190.6H426.3H406.6H387C384.1 190.7 381.2 191.9 379 193.9C376.8 195.9 375.4 198.7 375 201.6C374.9 202.4 374.9 203 374.9 203.9V206.4V211.3V221.1C374.9 224.4 375 227.7 374.8 230.9C374.6 234.2 374.5 237.5 374.3 240.7C374.3 241.1 373.9 241.5 373.5 241.4C372.8 241.4 372.5 241.1 372.5 240.7Z" fill="#717791"/>
<path d="M404.3 194.2C405.1 193.9 406 193.7 406.8 193.7C407.6 193.6 408.5 193.6 409.3 193.6C411 193.7 412.7 193.8 414.3 194.2C414.8 194.3 415.2 194.9 415 195.4C414.9 195.8 414.6 196.1 414.3 196.1C412.6 196.5 410.9 196.7 409.3 196.7C408.5 196.7 407.6 196.7 406.8 196.6C406 196.5 405.1 196.4 404.3 196.1C403.8 195.9 403.5 195.3 403.7 194.7C403.8 194.5 404 194.3 404.3 194.2Z" fill="#717791"/>
<path d="M413.5 315C413.1 316.1 412.1 317.1 410.9 317.5C409.7 318 408.3 317.9 407.1 317.4C405.9 316.9 404.8 316.1 404.2 314.9C403.5 313.8 403.3 312.5 403.5 311.2C403.7 309.9 404.3 308.8 405.2 307.9C406.1 307.1 407.3 306.5 408.5 306.4C409.7 306.3 411 306.6 411.9 307.3C412.9 308 413.6 309 413.8 310.1C413.9 310.4 413.7 310.6 413.4 310.7C413.2 310.7 413 310.7 412.9 310.5C411.9 309 410.2 308.4 408.8 308.7C407.3 309 406.2 310.3 406.2 311.6C406.1 313 406.9 314.3 408.2 314.8C408.8 315.1 409.5 315.1 410.2 315C410.9 314.9 411.6 314.6 412.4 314.2H412.5C412.9 314 413.3 314.1 413.5 314.5C413.6 314.5 413.6 314.8 413.5 315Z" fill="#717791"/>
<path d="M437.6 303.7C438.8 303.3 440 303.1 441.2 303C442.4 302.9 443.6 302.8 444.8 302.9C445.6 303 446.1 303.7 446.1 304.4C446 305.1 445.5 305.6 444.8 305.7C443.6 305.8 442.4 305.7 441.2 305.6C440 305.5 438.8 305.3 437.6 304.9C437.2 304.8 437.1 304.4 437.2 304C437.3 303.9 437.4 303.7 437.6 303.7Z" fill="#717791"/>
<path d="M425.3 303.7C425.6 303.3 426 303.1 426.3 303C426.6 302.9 427 302.8 427.3 303.5C427.6 304.1 427.5 304.7 427.3 305.2C427 305.9 426.6 305.8 426.3 305.7C426 305.6 425.6 305.4 425.3 305C425 304.6 425 304 425.3 303.7Z" fill="#717791"/>
<path d="M373.4 302.9C381.2 302.7 389 302.7 396.8 302.7L408.5 302.8C412.4 302.9 416.3 302.7 420.2 303.7C420.5 303.8 420.7 304.1 420.6 304.4C420.5 304.6 420.4 304.8 420.2 304.8C416.3 305.8 412.4 305.6 408.5 305.7L396.8 305.8C389 305.8 381.2 305.8 373.4 305.6C372.6 305.6 372 304.9 372 304.2C372 303.5 372.7 302.9 373.4 302.9Z" fill="#717791"/>
<path d="M381.5 200.5C386.8 199.7 392 199.8 397.3 199.8L413.1 199.7C423.6 199.7 434.2 199.6 444.7 199.8C445.5 199.8 446.1 200.4 446.1 201.2C446.1 202 445.5 202.6 444.7 202.6C434.2 202.7 423.6 202.7 413.1 202.7L397.3 202.6C392 202.5 386.8 202.6 381.5 201.9C381.2 201.8 380.9 201.5 381 201.2C381 200.7 381.2 200.5 381.5 200.5Z" fill="#717791"/>
<path d="M391.8 231.3C396.439 231.3 400.2 227.539 400.2 222.9C400.2 218.261 396.439 214.5 391.8 214.5C387.161 214.5 383.4 218.261 383.4 222.9C383.4 227.539 387.161 231.3 391.8 231.3Z" fill="#A9EBC8"/>
<path d="M389 221.8L392.4 224.1L389.8 224.2L396.2 218.4C396.7 218 397.4 218 397.9 218.5C398.3 218.9 398.3 219.6 397.9 220L392.4 226.7L392.3 226.8C391.7 227.5 390.7 227.6 390.1 227C390 226.9 389.9 226.8 389.8 226.7L387.3 223.4C386.9 222.9 387 222.1 387.5 221.7C388.1 221.5 388.6 221.5 389 221.8Z" fill="#717791"/>
<path d="M401.1 225C401 227 400.1 229.2 398.5 230.6C396.9 232 394.8 232.9 392.6 233C390.5 233.2 388.3 232.6 386.5 231.4C384.7 230.2 383.3 228.4 382.6 226.4C381.9 224.4 381.9 222.1 382.6 220C383.3 217.9 384.7 216.1 386.4 215C388.2 213.8 390.4 213.2 392.5 213.4C394.6 213.5 396.8 214.5 397.9 216.3C398 216.5 398 216.7 397.8 216.8C397.7 216.9 397.6 216.9 397.5 216.8C395.7 216.1 394.2 215.6 392.5 215.5C390.8 215.4 389.1 215.9 387.8 216.9C386.5 217.9 385.4 219.2 384.9 220.8C384.4 222.4 384.4 224.1 384.9 225.7C385.4 227.3 386.5 228.6 387.9 229.5C389.3 230.4 390.9 230.9 392.6 230.7C394.2 230.6 395.9 229.9 397.1 228.8C398.4 227.8 399.5 226.4 400.1 224.7C400.2 224.4 400.5 224.2 400.8 224.3C401 224.5 401.2 224.7 401.1 225Z" fill="#717791"/>
<path d="M408.4 218.2C409.8 217.6 411.2 217.5 412.6 217.4C414 217.4 415.4 217.3 416.8 217.4C418.2 217.4 419.6 217.4 421 217.5C422.4 217.6 423.8 217.6 425.2 217.7C425.7 217.7 426 218.2 426 218.7C426 219.1 425.6 219.4 425.2 219.5C423.8 219.7 422.4 219.8 421 219.9C419.6 220 418.2 220.1 416.8 220.2C415.4 220.3 414 220.3 412.6 220.3C411.2 220.4 409.8 220.3 408.4 219.7C408 219.5 407.8 219 407.9 218.6C408.1 218.4 408.2 218.3 408.4 218.2Z" fill="#717791"/>
<path d="M408.6 224.5C410.4 224 412.2 224 414 223.9L419.4 223.8C421.2 223.8 423 223.8 424.8 223.8C426.6 223.8 428.4 223.8 430.2 223.9C430.7 223.9 431.1 224.3 431 224.8C431 225.2 430.6 225.6 430.2 225.6C428.4 225.7 426.6 225.8 424.8 225.9C423 226 421.2 226.1 419.4 226.1L414 226.2C412.2 226.3 410.4 226.2 408.6 225.9C408.2 225.8 407.9 225.4 408 225C408 224.8 408.3 224.6 408.6 224.5Z" fill="#717791"/>
<path d="M428.6 217.8C429.2 217.6 429.9 217.5 430.5 217.5H432.4C433.7 217.5 435 217.5 436.3 217.5C436.8 217.5 437.2 217.9 437.1 218.4C437.1 218.8 436.7 219.2 436.3 219.2C435 219.3 433.7 219.4 432.4 219.4H430.5C429.9 219.4 429.2 219.4 428.6 219.2C428.2 219.1 427.9 218.7 428 218.2C428.2 218 428.4 217.8 428.6 217.8Z" fill="#717791"/>
<path d="M391.8 260.6C396.439 260.6 400.2 256.839 400.2 252.2C400.2 247.561 396.439 243.8 391.8 243.8C387.161 243.8 383.4 247.561 383.4 252.2C383.4 256.839 387.161 260.6 391.8 260.6Z" fill="#A9EBC8"/>
<path d="M389 251L392.4 253.3L389.8 253.4L396.2 247.6C396.7 247.2 397.4 247.2 397.9 247.7C398.3 248.1 398.3 248.8 397.9 249.2L392.4 255.9L392.3 256C391.7 256.7 390.7 256.8 390.1 256.2C390 256.1 389.9 256 389.8 255.9L387.3 252.6C386.9 252.1 387 251.3 387.5 250.9C388.1 250.8 388.6 250.8 389 251Z" fill="#717791"/>
<path d="M401.1 254.3C401 256.3 400.1 258.5 398.5 259.9C396.9 261.3 394.8 262.2 392.6 262.3C390.5 262.5 388.3 261.9 386.5 260.7C384.7 259.5 383.3 257.7 382.6 255.7C381.9 253.7 381.9 251.4 382.6 249.3C383.3 247.2 384.7 245.4 386.4 244.3C388.2 243.1 390.4 242.5 392.5 242.7C394.6 242.8 396.8 243.8 397.9 245.6C398 245.8 398 246 397.8 246.1C397.7 246.2 397.6 246.2 397.5 246.1C395.7 245.4 394.2 244.9 392.5 244.8C390.8 244.7 389.1 245.2 387.8 246.2C386.5 247.2 385.4 248.5 384.9 250.1C384.4 251.7 384.4 253.4 384.9 255C385.4 256.6 386.5 257.9 387.9 258.8C389.3 259.7 390.9 260.2 392.6 260C394.2 259.9 395.9 259.2 397.1 258.1C398.4 257.1 399.5 255.7 400.1 254C400.2 253.7 400.5 253.5 400.8 253.6C401 253.8 401.2 254 401.1 254.3Z" fill="#717791"/>
<path d="M408.4 247.5C409.8 246.9 411.2 246.8 412.6 246.7C414 246.7 415.4 246.6 416.8 246.7C418.2 246.7 419.6 246.7 421 246.8C422.4 246.9 423.8 246.9 425.2 247C425.7 247 426 247.5 426 248C426 248.4 425.6 248.7 425.2 248.8C423.8 249 422.4 249.1 421 249.2C419.6 249.3 418.2 249.4 416.8 249.5C415.4 249.6 414 249.6 412.6 249.6C411.2 249.7 409.8 249.6 408.4 249C408 248.8 407.8 248.3 407.9 247.9C408.1 247.7 408.2 247.6 408.4 247.5Z" fill="#717791"/>
<path d="M408.6 253.8C410.4 253.3 412.2 253.3 414 253.2L419.4 253.1C421.2 253.1 423 253.1 424.8 253.1C426.6 253.1 428.4 253.1 430.2 253.2C430.7 253.2 431.1 253.6 431 254.1C431 254.5 430.6 254.9 430.2 254.9C428.4 255 426.6 255.1 424.8 255.2C423 255.3 421.2 255.4 419.4 255.4L414 255.5C412.2 255.6 410.4 255.5 408.6 255.2C408.2 255.1 407.9 254.7 408 254.3C408 254.1 408.3 253.9 408.6 253.8Z" fill="#717791"/>
<path d="M428.6 247C429.2 246.8 429.9 246.7 430.5 246.7H432.4C433.7 246.7 435 246.7 436.3 246.7C436.8 246.7 437.2 247.1 437.1 247.6C437.1 248 436.7 248.4 436.3 248.4C435 248.5 433.7 248.6 432.4 248.6H430.5C429.9 248.6 429.2 248.6 428.6 248.4C428.2 248.3 427.9 247.9 428 247.4C428.2 247.3 428.4 247.1 428.6 247Z" fill="#717791"/>
<path d="M391.8 289.8C396.439 289.8 400.2 286.039 400.2 281.4C400.2 276.761 396.439 273 391.8 273C387.161 273 383.4 276.761 383.4 281.4C383.4 286.039 387.161 289.8 391.8 289.8Z" fill="#A9EBC8"/>
<path d="M389 280.3L392.4 282.6L389.8 282.7L396.2 276.9C396.7 276.5 397.4 276.5 397.9 277C398.3 277.4 398.3 278.1 397.9 278.5L392.4 285.2L392.3 285.3C391.7 286 390.7 286.1 390.1 285.5C390 285.4 389.9 285.3 389.8 285.2L387.3 281.9C386.9 281.4 387 280.6 387.5 280.2C388.1 280 388.6 280 389 280.3Z" fill="#717791"/>
<path d="M401.1 283.5C401 285.5 400.1 287.7 398.5 289.1C396.9 290.5 394.8 291.4 392.6 291.5C390.5 291.7 388.3 291.1 386.5 289.9C384.7 288.7 383.3 286.9 382.6 284.9C381.9 282.9 381.9 280.6 382.6 278.5C383.3 276.4 384.7 274.6 386.4 273.5C388.2 272.3 390.4 271.7 392.5 271.9C394.6 272 396.8 273 397.9 274.8C398 275 398 275.2 397.8 275.3C397.7 275.4 397.6 275.4 397.5 275.3C395.7 274.6 394.2 274.1 392.5 274C390.8 273.9 389.1 274.4 387.8 275.4C386.5 276.4 385.4 277.7 384.9 279.3C384.4 280.9 384.4 282.6 384.9 284.2C385.4 285.8 386.5 287.1 387.9 288C389.3 288.9 390.9 289.4 392.6 289.2C394.2 289.1 395.9 288.4 397.1 287.3C398.4 286.3 399.5 284.9 400.1 283.2C400.2 282.9 400.5 282.7 400.8 282.8C401 283 401.2 283.3 401.1 283.5Z" fill="#717791"/>
<path d="M408.4 276.7C409.8 276.1 411.2 276 412.6 275.9C414 275.9 415.4 275.8 416.8 275.9C418.2 275.9 419.6 275.9 421 276C422.4 276.1 423.8 276.1 425.2 276.2C425.7 276.2 426 276.7 426 277.2C426 277.6 425.6 277.9 425.2 278C423.8 278.2 422.4 278.3 421 278.4C419.6 278.5 418.2 278.6 416.8 278.7C415.4 278.8 414 278.8 412.6 278.8C411.2 278.9 409.8 278.8 408.4 278.2C408 278 407.8 277.5 407.9 277.1C408.1 277 408.2 276.8 408.4 276.7Z" fill="#717791"/>
<path d="M408.6 283.1C410.4 282.6 412.2 282.6 414 282.5L419.4 282.4C421.2 282.4 423 282.4 424.8 282.4C426.6 282.4 428.4 282.4 430.2 282.5C430.7 282.5 431.1 282.9 431 283.4C431 283.8 430.6 284.2 430.2 284.2C428.4 284.3 426.6 284.4 424.8 284.5C423 284.6 421.2 284.7 419.4 284.7L414 284.8C412.2 284.9 410.4 284.8 408.6 284.5C408.2 284.4 407.9 284 408 283.6C408 283.4 408.3 283.1 408.6 283.1Z" fill="#717791"/>
<path d="M428.6 276.3C429.2 276.1 429.9 276 430.5 276H432.4C433.7 276 435 276 436.3 276C436.8 276 437.2 276.4 437.1 276.9C437.1 277.3 436.7 277.7 436.3 277.7C435 277.8 433.7 277.9 432.4 277.9H430.5C429.9 277.9 429.2 277.9 428.6 277.7C428.2 277.6 427.9 277.2 428 276.7C428.2 276.6 428.4 276.4 428.6 276.3Z" fill="#717791"/>
<path opacity="0.2" d="M256.2 321.2C273.542 321.2 287.6 307.142 287.6 289.8C287.6 272.458 273.542 258.4 256.2 258.4C238.858 258.4 224.8 272.458 224.8 289.8C224.8 307.142 238.858 321.2 256.2 321.2Z" fill="#3F72BA"/>
<path d="M252.1 319.4C269.442 319.4 283.5 305.342 283.5 288C283.5 270.658 269.442 256.6 252.1 256.6C234.758 256.6 220.7 270.658 220.7 288C220.7 305.342 234.758 319.4 252.1 319.4Z" fill="#E5EEFD"/>
<path d="M243.1 256.7C246.5 255.2 250.3 254.6 254 254.9C257.7 255.1 261.4 255.9 264.9 257.3C271.8 260.2 277.7 265.5 281.3 272.1C284.9 278.7 286.2 286.5 284.8 293.9C283.4 301.3 279.6 308.3 273.9 313.1C271.1 315.6 267.8 317.5 264.3 318.9C263.4 319.2 262.5 319.6 261.6 319.8L258.9 320.5L256.1 320.9C255.2 321.1 254.2 321 253.3 321.1C249.5 321.2 245.8 320.7 242.2 319.6C238.6 318.5 235.2 316.7 232.2 314.4C229.2 312.1 226.6 309.4 224.5 306.3C222.4 303.2 220.9 299.7 220 296C219.1 292.4 218.7 288.6 219.1 284.8C219.3 282.9 219.6 281.1 220.1 279.3C220.6 277.5 221.4 275.8 222.6 274.3C223 273.8 223.7 273.8 224.1 274.2C224.4 274.4 224.5 274.8 224.5 275.2C224.3 277 223.8 278.6 223.5 280.2C223.1 281.8 222.8 283.5 222.7 285.1C222.4 288.4 222.7 291.8 223.5 295.1C224.3 298.3 225.7 301.4 227.6 304.2C229.5 307 231.8 309.4 234.5 311.4C237.2 313.4 240.2 315 243.4 316C246.6 317 249.9 317.4 253.3 317.3C260 317.2 266.5 314.4 271.6 310.1C276.7 305.8 280.2 299.6 281.4 293.1C282.7 286.5 281.5 279.6 278.4 273.6C275.2 267.7 270 263 263.8 260.3C260.7 259 257.4 258.3 254 258.1C250.6 257.8 247.3 258.2 243.9 258.6C243.3 258.7 242.7 258.2 242.7 257.6C242.4 257.4 242.7 256.9 243.1 256.7Z" fill="#717791"/>
<path d="M228.6 265.8C228.7 265.4 228.9 265.1 229 264.7C229.2 264.4 229.4 264.1 229.6 263.8C230 263.2 230.5 262.7 231.2 262.3C232 261.8 233.1 262.1 233.6 262.9C234 263.6 233.9 264.4 233.4 264.9C233 265.4 232.4 265.8 231.9 266.1C231.6 266.3 231.3 266.4 231 266.6C230.7 266.7 230.4 266.9 230 267C229.4 267.2 228.8 266.8 228.7 266.3C228.5 266.2 228.5 266 228.6 265.8Z" fill="#717791"/>
<path d="M252.1 278.4V290L267.7 300.2" stroke="#717791" stroke-width="3.4666" stroke-miterlimit="10" stroke-linecap="round" stroke-linejoin="round"/>
<path d="M252.1 263.2V265.8" stroke="#717791" stroke-width="3.2761" stroke-miterlimit="10" stroke-linecap="round" stroke-linejoin="round"/>
<path d="M252.1 309.5V312.1" stroke="#717791" stroke-width="3.2761" stroke-miterlimit="10" stroke-linecap="round" stroke-linejoin="round"/>
<path d="M276.5 287.6H274" stroke="#717791" stroke-width="3.2761" stroke-miterlimit="10" stroke-linecap="round" stroke-linejoin="round"/>
<path d="M230.2 287.6H227.6" stroke="#717791" stroke-width="3.2761" stroke-miterlimit="10" stroke-linecap="round" stroke-linejoin="round"/>
<path d="M112 154.5C110.8 154.7 109.6 154.8 108.4 154.9C107.2 155 106 155.1 104.8 155.2C102.4 155.3 100 155.4 97.5 155.3H97.4C96.9 155.3 96.4 154.9 96.3 154.4C95.8 152.1 95.3 149.8 94.1 147.9C93 146.1 91.2 144.6 89.3 144.2C87.4 143.8 85.1 144.4 84 146C82.9 147.5 82.9 149.8 83.1 152.2H80.7C80.8 151 80.5 149.8 79.8 148.8C79.1 147.8 78.1 147.2 77 147.1C75.9 147 74.8 147.3 74.1 148.2C73.4 149 73.2 150.3 73.6 151.1L71.4 152.1C71.4 152.1 71.3 152 71.2 151.9C71 151.8 70.8 151.8 70.7 151.9C70.4 152 70 152.4 69.7 152.9C69.5 153.4 69.3 154.1 69.4 154.8C69.4 155.5 69.6 156.1 70 156.7C70.3 157.3 70.1 158 69.5 158.4C69.3 158.5 69.1 158.5 68.9 158.5C64.5 158.6 60 158.5 55.6 158.3C51.2 158.2 46.7 158 42.3 157.7C42.1 157.7 41.9 157.5 41.9 157.3C41.9 157.1 42.1 156.9 42.3 156.9C46.7 156.6 51.2 156.4 55.6 156.3C60 156.1 64.5 156 68.9 156.1L67.9 157.9C67.4 157 67.1 156 67 155C66.9 154 67.1 153 67.5 152C67.9 151 68.7 150 70.1 149.6C70.8 149.4 71.4 149.5 72.1 149.7C72.7 149.9 73.4 150.4 73.7 151.2C74 151.8 73.7 152.5 73.1 152.8C72.5 153.1 71.8 152.8 71.5 152.2C70.7 150.3 71.2 148.3 72.3 146.8C72.9 146.1 73.7 145.5 74.6 145.2C75.5 144.9 76.4 144.8 77.3 144.9C79.1 145.1 80.8 146.1 81.8 147.6C82.8 149.1 83.2 150.8 83.1 152.6C83 153.3 82.5 153.7 81.8 153.7C81.2 153.6 80.8 153.2 80.7 152.6C80.6 151.4 80.5 150.1 80.7 148.8C80.8 147.5 81.2 146 82.1 144.8C83 143.6 84.3 142.8 85.6 142.3C87 141.9 88.4 141.8 89.8 142.1C92.6 142.7 94.8 144.7 96.2 146.9C97.6 149.2 98.1 151.7 98.6 154.1L97.4 153.2C99.8 153.1 102.2 153.2 104.7 153.3C105.9 153.4 107.1 153.4 108.3 153.6C109.5 153.7 110.7 153.8 111.9 154C112.1 154 112.3 154.2 112.2 154.5C112.3 154.3 112.2 154.5 112 154.5Z" fill="#717791"/>
<path d="M212 113.3C214.5 112.8 217.1 112.6 219.6 112.4C222.1 112.2 224.7 112.2 227.2 112.3L225.7 113.5C226.2 111 226.8 108.4 228.3 105.9C229.8 103.5 232.1 101.4 235.1 100.7C236.6 100.4 238.2 100.5 239.6 100.9C241.1 101.4 242.4 102.3 243.4 103.6C244.4 104.9 244.8 106.4 244.9 107.9C245 109.3 245 110.7 244.9 112C244.8 112.8 244.1 113.4 243.3 113.4C242.6 113.3 242 112.8 241.9 112C241.7 110.1 242.2 108.2 243.3 106.6C243.9 105.8 244.6 105.1 245.4 104.6C246.3 104.1 247.2 103.8 248.2 103.7C249.2 103.6 250.2 103.7 251.2 104C252.2 104.3 253.1 105 253.7 105.8C255 107.4 255.5 109.6 254.6 111.7C254.3 112.5 253.4 112.8 252.6 112.5C251.8 112.2 251.5 111.3 251.8 110.5C252.2 109.7 252.9 109.1 253.6 108.8C254.3 108.5 255.1 108.5 255.8 108.7C257.3 109.1 258.2 110.2 258.7 111.3C259.2 112.4 259.3 113.5 259.3 114.6C259.2 115.7 258.9 116.8 258.4 117.8L257.1 115.6C259.4 115.5 261.7 115.6 264.1 115.6C266.4 115.7 268.7 115.7 271.1 115.8C275.7 116 280.4 116.2 285 116.6C285.3 116.6 285.5 116.9 285.5 117.1C285.5 117.3 285.3 117.5 285 117.6C280.4 118 275.7 118.2 271.1 118.4C268.8 118.5 266.5 118.6 264.1 118.6C261.8 118.6 259.5 118.7 257.1 118.6C256.3 118.6 255.6 117.9 255.6 117C255.6 116.8 255.7 116.5 255.8 116.3C256.1 115.7 256.3 115.1 256.4 114.4C256.4 113.7 256.3 113.1 256.1 112.5C255.9 112 255.5 111.6 255.2 111.6C255.1 111.6 254.9 111.6 254.8 111.6C254.7 111.6 254.7 111.7 254.7 111.7L252 110.5C252.4 109.7 252.2 108.5 251.5 107.7C250.9 106.9 249.8 106.5 248.7 106.7C247.6 106.8 246.6 107.4 245.9 108.4C245.2 109.3 244.9 110.6 245 111.8H242C242.2 109.4 242.2 107 241.1 105.5C240 104 237.7 103.3 235.8 103.8C233.8 104.2 232 105.7 230.9 107.6C229.8 109.5 229.2 111.8 228.7 114.3C228.6 115 228 115.4 227.4 115.5H227.2C224.7 115.6 222.1 115.5 219.6 115.4C217.1 115.2 214.5 115 212 114.5C211.7 114.4 211.6 114.2 211.6 113.9C211.6 113.5 211.8 113.4 212 113.3Z" fill="#717791"/>
<path d="M86.6 321.1H85.6C78.2 321.1 72.2 315.1 72.2 307.7V303.3H89.8V203.9C89.8 199.2 93.6 195.4 98.3 195.4H111L140.1 282.6L113.7 311L86.6 321.1Z" fill="#D0DEF4"/>
<path d="M254.2 188.6H289.7C294.3 188.6 298 192.3 298 196.9V295V303.6V310.9H99.6V246.8V231.4V197C99.6 192.4 103.3 188.7 107.9 188.7H240.7H254.2V188.6Z" fill="white"/>
<path d="M272 206.3H127.3C125.6 206.3 124.3 207.7 124.3 209.3V217.6C124.3 219.3 125.7 220.6 127.3 220.6H272C273.7 220.6 275 219.2 275 217.6V209.3C275 207.7 273.7 206.3 272 206.3Z" fill="#E5EEFD"/>
<path d="M123.9 289.9C123.6 288.4 123.5 287 123.4 285.5C123.4 284.8 123.4 284 123.4 283.3V282.2V281.9V281.8V281.6C123.4 281.3 123.5 281 123.6 280.7C124 279.6 125 278.7 126.1 278.5C126.2 278.5 126.4 278.4 126.5 278.4H126.7H126.8H127.3H128.4H132.8L150.3 278.3H159.1H163.5H165.7C166.9 278.3 168.1 279 168.7 280C169 280.5 169.2 281.1 169.2 281.7V282.8V285V289.4C169.2 292.3 169.3 295.2 168.4 298.2C168.3 298.5 168 298.7 167.7 298.6C167.5 298.5 167.4 298.4 167.3 298.2C166.4 295.3 166.6 292.4 166.5 289.4V285V282.8V281.7C166.5 281.6 166.5 281.5 166.4 281.4C166.3 281.2 166.1 281.1 165.8 281.1H163.6H159.2H150.4L132.9 281H128.5H127.4H126.9H126.8H126.7H126.6C126.3 281 126.1 281.3 126 281.5C126 281.6 126 281.6 126 281.7V281.8V281.9V282.2V283.3C126 284 126 284.8 126 285.5C126 287 125.8 288.4 125.5 289.9C125.4 290.3 125 290.6 124.6 290.5C124.2 290.4 124 290.2 123.9 289.9Z" fill="#C9D7ED"/>
<path d="M176.1 297.5C175.9 296 175.8 294.5 175.8 293V288.5V284V281.8C175.8 280.7 176.4 279.5 177.4 278.9C177.9 278.6 178.5 278.5 179.1 278.5H180.2H182.4H186.9H195.8H213.7H218.2C219.4 278.5 220.5 279.2 221.1 280.2C221.4 280.7 221.5 281.3 221.5 281.9V283V291.9C221.5 292.5 221 293.1 220.3 293.1C219.7 293.1 219.1 292.6 219.1 291.9V283V281.9C219.1 281.7 219.1 281.6 219 281.4C218.8 281.1 218.5 281 218.2 281H213.7H195.8H186.9H182.4H180.2H179.1C178.9 281 178.8 281 178.6 281.1C178.3 281.3 178.1 281.6 178.1 281.9V284.1V288.6V293.1C178.1 294.6 178.1 296.1 177.8 297.6C177.7 298.1 177.3 298.4 176.8 298.3C176.5 298.2 176.2 297.9 176.1 297.5Z" fill="#C9D7ED"/>
<path d="M228.8 297.5C228.6 296.1 228.5 294.7 228.5 293.4V289.3V285.2V283.1V282.1C228.5 282 228.5 281.6 228.6 281.4C228.6 281.1 228.7 280.9 228.8 280.6C229.2 279.6 230.2 278.9 231.3 278.7C231.9 278.6 232.2 278.7 232.5 278.7H233.5H237.6H245.9H262.5H270.8C270.9 278.7 271.3 278.7 271.5 278.8C271.8 278.8 272 278.9 272.3 279C272.8 279.2 273.2 279.6 273.6 280C273.9 280.4 274.1 280.9 274.2 281.5C274.3 282.1 274.2 282.3 274.2 282.7V286.8C274.2 287.4 273.7 288 273 288C272.4 288 271.8 287.5 271.8 286.8V282.7C271.8 281.8 271.8 281.7 271.6 281.4C271.5 281.3 271.4 281.2 271.3 281.1C271.2 281.1 271.2 281 271.1 281C271 281 271 281 270.8 281H262.5H245.9H237.6H233.5H232.5C232.2 281 231.7 281 231.7 281C231.4 281 231.1 281.2 231 281.5C231 281.6 230.9 281.6 230.9 281.7C230.9 281.8 230.9 281.8 230.9 282V283V285.1V289.2V293.3C230.9 294.7 230.9 296.1 230.6 297.4C230.5 297.9 230 298.2 229.6 298.1C229.1 298.2 228.8 297.9 228.8 297.5Z" fill="#C9D7ED"/>
<path d="M123.5 298.5C123.4 298 123.5 297.6 123.6 297.1C123.7 296.6 123.8 296.2 123.9 295.7C124 295.3 124.5 295.1 124.9 295.2C125.1 295.3 125.3 295.5 125.4 295.7C125.6 296.2 125.7 296.6 125.7 297.1C125.8 297.6 125.8 298 125.8 298.5C125.7 299.1 125.1 299.6 124.5 299.5C124 299.4 123.6 299 123.5 298.5Z" fill="#C9D7ED"/>
<path d="M299.6 308.9V311.5C299.6 312.3 298.9 313 298.1 313H99.8C99 313 98.3 312.3 98.3 311.5C98.2 300.8 98.3 290.1 98.4 279.4C98.4 274.1 98.5 268.7 98.6 263.4C98.7 258.1 98.8 252.7 99 247.4C99 246.9 99.4 246.6 99.9 246.6C100.3 246.6 100.7 247 100.7 247.4C100.9 252.7 101 258.1 101.1 263.4C101.2 268.7 101.3 274.1 101.3 279.4C101.4 290.1 101.4 300.8 101.4 311.5L99.9 310H298.3L296.8 311.5V308.9C296.8 308.1 297.5 307.4 298.3 307.4C299.1 307.4 299.6 308.1 299.6 308.9Z" fill="#717791"/>
<path d="M254.3 188.6C260.4 188.4 266.5 188.3 272.6 188.1L281.8 187.9L286.4 187.8H288.7H289.8C290.2 187.8 290.7 187.8 291.1 187.9C292.9 188.1 294.5 188.8 295.9 189.9C297.3 191 298.3 192.5 298.9 194.2C299.2 195 299.4 195.9 299.4 196.8C299.4 197.3 299.4 197.6 299.4 198V199.1V203.7C299.4 209.8 299.5 215.9 299.5 222C299.5 234.2 299.4 246.5 299.3 258.7C299.3 264.8 299.2 270.9 299 277C298.9 283.1 298.7 289.2 298.6 295.3C298.6 295.7 298.3 295.9 297.9 295.9C297.6 295.9 297.3 295.6 297.3 295.3C297.1 289.2 297 283.1 296.9 277C296.8 270.9 296.7 264.8 296.6 258.7C296.5 246.5 296.4 234.2 296.4 222C296.4 215.9 296.5 209.8 296.5 203.7V199.1V198C296.5 197.6 296.5 197.2 296.5 196.9C296.5 196.3 296.4 195.6 296.2 195C295.4 192.6 293.2 190.6 290.6 190.3C290.3 190.2 290 190.2 289.6 190.2H288.5H286.2L281.6 190.1L272.4 189.9C266.3 189.8 260.2 189.6 254.1 189.4C253.8 189.4 253.6 189.1 253.6 188.8C253.8 188.8 254 188.6 254.3 188.6Z" fill="#717791"/>
<path d="M99.4 231.9C98.9 228.1 98.6 224.4 98.5 220.6C98.4 216.8 98.5 213.1 98.4 209.3V198V197.3V196.5C98.5 196 98.5 195.4 98.7 194.9C99 193.8 99.4 192.8 100.1 191.9C101.3 190.1 103.2 188.7 105.3 188.1C106.3 187.8 107.5 187.7 108.5 187.7H111.3H116.9H128.2H150.7C165.7 187.7 180.8 187.6 195.8 187.7C210.8 187.8 225.9 188 240.9 188.4C241.3 188.4 241.6 188.8 241.6 189.2C241.6 189.6 241.3 189.9 240.9 189.9C225.9 190.2 210.8 190.5 195.8 190.6C180.8 190.7 165.7 190.6 150.7 190.6H128.2H116.9H111.3H108.5C108.3 190.6 108 190.6 107.9 190.6C107.7 190.6 107.5 190.6 107.3 190.6C106.9 190.6 106.5 190.7 106.2 190.8C104.7 191.3 103.4 192.2 102.5 193.5C102.1 194.1 101.7 194.9 101.5 195.6C101.4 196 101.3 196.4 101.3 196.8V197.4V198.1V209.4C101.3 213.2 101.4 216.9 101.2 220.7C101.1 224.5 100.8 228.2 100.3 232C100.3 232.2 100.1 232.4 99.9 232.3C99.5 232.2 99.4 232.1 99.4 231.9Z" fill="#717791"/>
<path d="M98.3 240.5C98.3 240.1 98.3 239.8 98.3 239.4C98.4 238.6 99.2 238 100 238.1C100.7 238.2 101.2 238.7 101.3 239.4C101.4 239.8 101.3 240.1 101.3 240.5C101.3 241.3 100.7 242 99.8 242C98.9 242 98.3 241.4 98.3 240.5C98.3 240.6 98.3 240.5 98.3 240.5Z" fill="#717791"/>
<path d="M313 304.2V309.8C313 310.1 313 310.4 313 310.8C312.5 316.2 308 320.4 302.5 320.4H95.5C90 320.4 85.5 316.2 85 310.8C85 310.5 85 310.2 85 309.8V304.2H175.8C175.8 306.2 177.5 307.8 179.5 307.8H218.6C219.6 307.8 220.5 307.4 221.2 306.7C221.9 306.1 222.3 305.2 222.3 304.2H313Z" fill="white"/>
<path d="M250.1 304.2H250.9" stroke="#717791" stroke-width="2" stroke-miterlimit="10" stroke-linecap="round" stroke-linejoin="round"/>
<path d="M330.6 320.4C331.5 320 332.5 320 333.4 320C334.3 320 335.3 320.1 336.2 320.3C336.7 320.4 336.9 320.8 336.8 321.3C336.7 321.6 336.5 321.9 336.2 321.9C335.3 322.1 334.3 322.2 333.4 322.2C332.5 322.2 331.5 322.2 330.6 321.8C330.2 321.6 330 321.2 330.2 320.8C330.3 320.6 330.4 320.4 330.6 320.4Z" fill="#717791"/>
<path d="M74.5 320.4C85 320.1 95.5 320 106 320.1H137.5L200.5 320L263.5 319.9H295C305.5 319.9 316 319.9 326.5 320.2C327 320.2 327.4 320.6 327.4 321.1C327.4 321.6 327 321.9 326.5 322C316 322.3 305.5 322.3 295 322.3H263.5L200.5 322.2L137.5 322.1H106C95.5 322.1 85 322.1 74.5 321.8C74.1 321.8 73.8 321.5 73.8 321.1C73.8 320.7 74.1 320.4 74.5 320.4Z" fill="#717791"/>
<path d="M68.3 320.1C68.4 320.1 68.6 320.1 68.7 320.1C68.8 320.1 68.8 320.1 68.9 320.1C69 320.1 69 320.1 69.1 320.2C69.6 320.5 69.7 321.2 69.4 321.6C69.3 321.7 69.2 321.8 69.1 321.9C69 321.9 69 322 68.9 322C68.8 322 68.8 322.1 68.7 322C68.6 322 68.4 322 68.3 322C67.7 321.9 67.4 321.3 67.5 320.8C67.6 320.5 67.9 320.2 68.3 320.1Z" fill="#717791"/>
<path d="M58.2 320.3C58.9 320.1 59.6 320.1 60.2 320C60.9 320 61.6 320 62.2 320.2C62.6 320.3 62.9 320.8 62.8 321.3C62.7 321.6 62.5 321.8 62.2 321.9C61.5 322.1 60.8 322.1 60.2 322.1C59.5 322.1 58.8 322 58.2 321.8C57.8 321.7 57.6 321.3 57.7 320.9C57.7 320.6 57.9 320.4 58.2 320.3Z" fill="#717791"/>
<path d="M171.5 333.8C174.8 333.5 178.1 333.5 181.3 333.4L191.1 333.3L210.8 333.2H230.5H240.3C243.6 333.2 246.9 333.2 250.1 333.5C250.6 333.5 250.9 334 250.9 334.5C250.9 334.9 250.5 335.3 250.1 335.3C246.8 335.6 243.5 335.6 240.3 335.6H230.5H210.8L191.1 335.5L181.3 335.4C178 335.4 174.7 335.4 171.5 335C171.1 335 170.9 334.6 170.9 334.3C170.9 334.1 171.2 333.8 171.5 333.8Z" fill="#717791"/>
<path d="M139.1 333.8C142.5 333.6 145.8 333.6 149.2 333.5C152.6 333.5 155.9 333.5 159.3 333.7C159.7 333.7 160.1 334.1 160.1 334.6C160.1 335 159.7 335.3 159.3 335.4C155.9 335.6 152.6 335.6 149.2 335.6C145.8 335.6 142.5 335.5 139.1 335.3C138.7 335.3 138.4 334.9 138.4 334.5C138.4 334.1 138.7 333.8 139.1 333.8Z" fill="#717791"/>
<path d="M306.5 310.7C310.3 310.7 312.1 315.5 309.1 317.9C307.3 319.4 304.9 320.3 302.4 320.3H95.5C92.9 320.3 90.6 319.4 88.8 317.9C85.9 315.5 87.7 310.7 91.4 310.7H306.5Z" fill="#EAF1FD"/>
<path d="M84.1 310.8C83.8 309.5 83.8 308.5 83.7 307.3C83.7 306.7 83.6 306.2 83.6 305.6C83.6 304.5 84.3 303.4 85.4 303C85.7 302.9 86 302.8 86.2 302.8H86.7H87.6H89.3C90.4 302.8 91.6 302.7 92.7 302.7C95 302.7 97.2 302.8 99.5 302.9C101.8 303.1 104 303.3 106.3 303.8C106.6 303.9 106.8 304.1 106.7 304.4C106.7 304.6 106.5 304.7 106.3 304.8C104 305.3 101.8 305.6 99.5 305.7C97.2 305.8 95 305.9 92.7 305.9C91.6 305.9 90.4 305.9 89.3 305.8H87.6H86.7H86.4L86.3 307.5L86.1 309.2L86 310C86 310.3 86 310.5 85.9 310.8V310.9C85.8 311.4 85.4 311.7 84.9 311.7C84.4 311.5 84.1 311.2 84.1 310.8Z" fill="#717791"/>
<path d="M216.2 307L218.2 306.8C218.6 306.8 218.7 306.7 219 306.7C219.2 306.6 219.4 306.5 219.6 306.4C220 306.1 220.3 305.8 220.5 305.4C220.7 305 220.7 304.6 220.7 304.2V304.1C220.7 303.3 221.4 302.7 222.2 302.7L303.8 302.9H308.9H311.5C312.3 302.9 313.1 303.3 313.6 303.9C313.9 304.2 314.1 304.5 314.2 304.9C314.3 305.1 314.3 305.3 314.3 305.5V305.8V306V308.6V309.9C314.3 310.4 314.3 310.9 314.2 311.3C314 313.2 313.3 315.1 312.2 316.6C310.1 319.8 306.3 321.8 302.4 321.8H292.2H251.4H169.8H129H108.6H98.4H95.8C94.9 321.8 93.9 321.7 93 321.5C91.2 321.1 89.4 320.1 88.3 318.7C88 318.4 88.1 318 88.4 317.7C88.6 317.5 88.9 317.5 89.2 317.6C90.6 318.4 92.1 318.9 93.5 319.2C94.3 319.3 95 319.4 95.8 319.4H98.4H108.6H129H169.8H251.4H292.2H302.4C305.4 319.4 308.3 317.9 310 315.4C310.9 314.2 311.4 312.8 311.5 311.3C311.6 310.9 311.5 310.6 311.6 310.2V308.9V306.3V306.1V306C311.6 306 311.5 305.9 311.4 305.9H308.9H303.8L222.2 306.1L223.7 304.6C223.6 305.5 223.3 306.4 222.7 307.1C222.2 307.8 221.4 308.4 220.6 308.7C220.2 308.9 219.8 309 219.4 309C219 309.1 218.5 309 218.2 309L216.2 308.8C215.8 308.8 215.5 308.4 215.5 308C215.6 307.4 215.8 307.1 216.2 307Z" fill="#717791"/>
<path d="M115.8 303.3C120.8 302.8 125.8 302.7 130.8 302.7L145.8 302.6C150.8 302.6 155.8 302.6 160.8 302.6C165.8 302.6 170.8 302.6 175.8 302.7C176.6 302.7 177.3 303.3 177.3 304.1C177.3 304.9 177.9 305.7 178.7 306C179.1 306.2 179.4 306.2 180.2 306.1H182.3L190.8 306.2L199.3 306.4C202.1 306.5 205 306.4 207.8 307.2C208.1 307.3 208.3 307.6 208.2 308C208.1 308.2 208 308.4 207.8 308.4C205 309.2 202.1 309.1 199.3 309.2L190.8 309.4L182.3 309.5H180.2C179.8 309.5 179.6 309.5 179 309.5C178.5 309.4 178 309.3 177.5 309.1C175.6 308.4 174.3 306.4 174.3 304.4L175.8 305.9C170.8 306 165.8 306 160.8 306C155.8 306 150.8 306 145.8 306L130.8 305.9C125.8 305.9 120.8 305.8 115.8 305.3C115.3 305.3 114.9 304.8 115 304.3C115 303.7 115.4 303.4 115.8 303.3Z" fill="#717791"/>
<path d="M248.2 208.6C248.2 209.3 248.1 210 248.1 210.7L248.2 208.6Z" fill="#93B9F4"/>
<path d="M92.1 106.5C93.7569 106.5 95.1 105.157 95.1 103.5C95.1 101.843 93.7569 100.5 92.1 100.5C90.4432 100.5 89.1 101.843 89.1 103.5C89.1 105.157 90.4432 106.5 92.1 106.5Z" fill="#E5EEFD"/>
<path d="M347.3 152.4C348.957 152.4 350.3 151.057 350.3 149.4C350.3 147.743 348.957 146.4 347.3 146.4C345.643 146.4 344.3 147.743 344.3 149.4C344.3 151.057 345.643 152.4 347.3 152.4Z" fill="#E5EEFD"/>
<path d="M162.1 135.4C163.757 135.4 165.1 134.057 165.1 132.4C165.1 130.743 163.757 129.4 162.1 129.4C160.443 129.4 159.1 130.743 159.1 132.4C159.1 134.057 160.443 135.4 162.1 135.4Z" fill="#E5EEFD"/>
<path d="M283.9 172.6C287.103 172.6 289.7 170.003 289.7 166.8C289.7 163.597 287.103 161 283.9 161C280.697 161 278.1 163.597 278.1 166.8C278.1 170.003 280.697 172.6 283.9 172.6Z" fill="#E5EEFD"/>
<path d="M179.2 124.7C181.741 124.7 183.8 122.641 183.8 120.1C183.8 117.559 181.741 115.5 179.2 115.5C176.66 115.5 174.6 117.559 174.6 120.1C174.6 122.641 176.66 124.7 179.2 124.7Z" fill="#E5EEFD"/>
<path d="M65.5 191.7C68.0405 191.7 70.1 189.641 70.1 187.1C70.1 184.559 68.0405 182.5 65.5 182.5C62.9595 182.5 60.9 184.559 60.9 187.1C60.9 189.641 62.9595 191.7 65.5 191.7Z" fill="#E5EEFD"/>
<path d="M250.8 259.2H134.1C128.8 259.2 124.6 254.9 124.6 249.7C124.6 244.4 128.9 240.2 134.1 240.2H250.8C256.1 240.2 260.3 244.5 260.3 249.7C260.3 255 256 259.2 250.8 259.2Z" fill="white" stroke="#717791" stroke-width="3" stroke-miterlimit="10" stroke-linecap="round" stroke-linejoin="round"/>
<path d="M260.2 249.7C260.2 255.1 258 260 254.5 263.6C250.9 267.2 246 269.4 240.6 269.4H189.9V230.2H240.6C251.4 230.1 260.2 238.9 260.2 249.7Z" fill="white"/>
<path d="M260.2 249.7C260.2 255.1 258 260 254.5 263.6C250.9 267.2 246 269.4 240.6 269.4H217.8V230.2H240.6C251.4 230.1 260.2 238.9 260.2 249.7Z" fill="#B8D4FF"/>
<path d="M260.2 249.7C260.2 255.1 258 260 254.5 263.6C250.9 267.2 246 269.4 240.6 269.4H189.9V230.2H240.6C251.4 230.1 260.2 238.9 260.2 249.7Z" stroke="#717791" stroke-width="3" stroke-miterlimit="10" stroke-linecap="round" stroke-linejoin="round"/>
<path d="M172.9 252.9H135C133.2 252.9 131.8 251.5 131.8 249.7C131.8 247.9 133.2 246.5 135 246.5H172.9C174.7 246.5 176.1 247.9 176.1 249.7C176.2 251.5 174.7 252.9 172.9 252.9Z" fill="#E6EDFA"/>
<path d="M217.7 236.1V265.8" stroke="#717791" stroke-width="3" stroke-miterlimit="10" stroke-linecap="round" stroke-linejoin="round"/>
<path d="M235.2 256.6C239.839 256.6 243.6 252.839 243.6 248.2C243.6 243.561 239.839 239.8 235.2 239.8C230.561 239.8 226.8 243.561 226.8 248.2C226.8 252.839 230.561 256.6 235.2 256.6Z" fill="white" stroke="#717791" stroke-width="3" stroke-miterlimit="10" stroke-linecap="round" stroke-linejoin="round"/>
<path d="M241.3 254.2L247.6 260.6" stroke="#717791" stroke-width="3" stroke-miterlimit="10" stroke-linecap="round" stroke-linejoin="round"/>
<path opacity="0.2" d="M289.6 293.5L285.7 297.7L274.2 286.9L272.5 288.8C278.8 280.3 282.6 269.8 282.6 258.4C282.6 239.3 272 222.6 256.4 213.9L255.3 213.8C248.3 210.1 240.2 208 231.7 208C226.4 208 221.2 208.8 216.4 210.4L215.3 210.3C195.3 217.1 180.9 236.1 180.9 258.5C180.9 286.6 203.7 309.4 231.8 309.4C245.6 309.4 258.1 303.9 267.2 295L266.9 295.3L277.5 306.6L274.6 309.8L279.2 314.4H310.9L289.6 293.5ZM231.9 293.7C210.1 293.7 192.4 276 192.4 254.2C192.4 232.4 210.1 214.6 231.9 214.6C253.7 214.6 271.4 232.3 271.4 254.2C271.5 275.9 253.8 293.7 231.9 293.7Z" fill="#3F72BA"/>
<path d="M291.8 292.7L284.5 300L266.9 284.3L274.2 276L291.8 292.7Z" fill="#B8D4FF" stroke="#717791" stroke-width="3" stroke-miterlimit="10" stroke-linecap="round" stroke-linejoin="round"/>
<path d="M305 329.1L274.6 298.7L289.7 282.6L329.6 321.5C334 325.9 334 333.1 329.6 337.6C325.9 341.3 320.3 341.9 315.9 339.4" fill="#B8D4FF"/>
<path d="M304.6 329.5C301.5 327.5 298.9 325.1 296.3 322.6L288.6 315.1C286 312.6 283.5 310.1 281 307.5C278.5 305 276 302.4 273.5 299.8C273 299.2 273 298.3 273.5 297.7L288.6 281.6C289.2 281 290.1 281 290.7 281.5L306.6 296.8L322.4 312.2L330.3 320C333.3 322.8 334.9 327.2 334.2 331.3C333.6 335.4 330.9 339.2 327.1 341C326.2 341.4 325.2 341.8 324.2 342C323.2 342.2 322.1 342.3 321.1 342.2C320.1 342.1 319.1 341.9 318.1 341.5C317.2 341.1 316.3 340.6 315.5 340C315.2 339.7 315.1 339.3 315.4 338.9C315.6 338.7 315.9 338.6 316.2 338.7C317 338.9 317.9 339.2 318.7 339.3C319.5 339.4 320.3 339.5 321.2 339.5C322.8 339.5 324.4 339.1 325.9 338.4C328.8 337 330.9 334.1 331.3 330.9C331.5 329.3 331.4 327.7 330.8 326.2C330.5 325.4 330.2 324.7 329.7 324.1C329.5 323.8 329.2 323.4 329 323.2C328.7 322.9 328.5 322.6 328.1 322.3L320.2 314.6L304.4 299.2L288.7 283.7H290.8L275.7 299.8V297.7C278.3 300.2 280.9 302.7 283.4 305.2C285.9 307.7 288.5 310.2 291 312.8L298.5 320.5C301 323.1 303.4 325.7 305.4 328.8C305.5 329 305.5 329.3 305.3 329.5C305 329.6 304.8 329.6 304.6 329.5Z" fill="#717791"/>
<path d="M231.8 197.1C203.8 197.1 181.1 219.8 181.1 247.8C181.1 275.8 203.8 298.4 231.8 298.4C259.8 298.4 282.4 275.7 282.4 247.8C282.4 219.8 259.7 197.1 231.8 197.1ZM231.8 287.6C209.8 287.6 191.9 269.7 191.9 247.7C191.9 225.7 209.8 207.8 231.8 207.8C253.8 207.8 271.7 225.7 271.7 247.7C271.6 269.8 253.8 287.6 231.8 287.6Z" fill="#E5EEFD"/>
<path d="M245.4 198C248.5 198.2 251.6 199.1 254.4 200.4C257.2 201.7 259.9 203.3 262.4 205.1C267.5 208.7 271.9 213.2 275.3 218.4C282.2 228.7 285.2 241.6 283.7 253.9C282.3 266.2 276.2 278 267.1 286.3C258 294.7 245.8 299.7 233.3 300C220.9 300.4 208.4 296.2 198.8 288.4C189.2 280.6 182.4 269.3 180.3 257C178.1 244.8 180.3 231.8 186.7 221.2C189.8 215.9 194 211.1 198.7 207.2C203.5 203.3 209.1 200.3 215 198.7C215.5 198.6 215.9 198.9 216.1 199.3C216.2 199.7 216 200.2 215.6 200.3C210.1 202.6 205 205.6 200.5 209.3C196 213 192.1 217.5 189.1 222.6C183.1 232.7 181 245 183.1 256.5C185.1 268 191.5 278.7 200.7 286C209.8 293.4 221.5 297.4 233.2 296.9C244.9 296.6 256.4 291.9 265 284C273.6 276.1 279.4 265.1 280.7 253.5C281.4 247.7 281.1 241.8 279.7 236.1C278.3 230.4 275.9 225 272.6 220.2C269.3 215.4 265.2 211.1 260.5 207.6C258.2 205.8 255.6 204.4 253 203C250.5 201.6 247.8 200.4 245 199.2C244.7 199.1 244.6 198.7 244.7 198.4C244.9 198.1 245.1 198 245.4 198Z" fill="#717791"/>
<path d="M234.2 195.7L237.2 195.5C238 195.5 238.8 196.1 238.8 196.9C238.8 197.7 238.2 198.5 237.4 198.5C237.2 198.5 237.1 198.5 237 198.5H236.9L234.1 197.8H234C233.4 197.7 233.1 197.1 233.2 196.5C233.4 196 233.8 195.7 234.2 195.7Z" fill="#717791"/>
<path d="M247.4 210.4C250 211.2 252.6 212.3 254.9 213.9C257.2 215.4 259.4 217.2 261.3 219.2L262 219.9L262.7 220.7C263.2 221.2 263.6 221.7 264.1 222.3C264.9 223.4 265.8 224.5 266.5 225.7C268 228 269.2 230.6 270.2 233.2C271.2 235.8 271.8 238.5 272.3 241.3L272.5 243.4L272.6 244.4V245.4L272.7 247.5L272.6 249.6C272.4 255.2 271 260.7 268.5 265.7C266.1 270.7 262.6 275.2 258.4 278.9C254.2 282.6 249.2 285.3 243.8 287C238.4 288.7 232.8 289.1 227.2 288.5C224.4 288.2 221.7 287.6 219 286.7C216.4 285.8 213.9 284.4 211.8 282.5C211.6 282.3 211.6 282 211.8 281.7C211.9 281.6 212.1 281.5 212.3 281.5C214.9 282.2 217.4 283.1 219.9 283.8C222.4 284.6 224.9 285.1 227.5 285.3C232.6 285.8 237.9 285.2 242.8 283.8C252.7 280.8 261.2 273.6 265.8 264.3C268.1 259.7 269.5 254.6 269.7 249.4L269.8 247.5L269.7 245.6V244.6L269.6 243.6L269.4 241.7C268.9 239.2 268.4 236.6 267.4 234.2C266.5 231.8 265.4 229.4 264 227.3C263.4 226.2 262.5 225.2 261.8 224.1C261.4 223.6 261 223.1 260.6 222.6L260 221.9L259.3 221.2C255.8 217.4 251.4 214.4 246.9 211.7C246.6 211.5 246.5 211.1 246.7 210.8C246.8 210.4 247.1 210.3 247.4 210.4Z" fill="#717791"/>
<path d="M192.8 257.3C191.7 254.6 191.1 251.8 190.8 248.9C190.7 247.4 190.8 246 190.8 244.5C190.8 243.8 190.9 243 191 242.3L191.3 240.1C192.2 234.3 194.6 228.8 197.9 224C199.6 221.6 201.6 219.4 203.7 217.4C204.8 216.5 205.9 215.5 207.1 214.6C208.3 213.8 209.5 212.9 210.8 212.2C215.8 209.3 221.5 207.4 227.3 207.3C227.7 207.3 228 207.6 228 208C228 208.3 227.8 208.6 227.5 208.7C222.1 210 216.9 211.8 212.3 214.6C211.1 215.2 210.1 216.1 208.9 216.9C207.8 217.7 206.8 218.7 205.8 219.5C203.9 221.4 202.1 223.4 200.6 225.7L199.5 227.4L198.5 229.2C197.8 230.4 197.3 231.6 196.7 232.8C196.4 233.4 196.2 234.1 196 234.7L195.3 236.6C195 237.9 194.6 239.2 194.3 240.5C193.8 243.2 193.6 245.9 193.5 248.6C193.5 251.3 193.6 254 193.9 256.8C193.9 257.1 193.7 257.4 193.3 257.5C193.1 257.7 192.9 257.6 192.8 257.3Z" fill="#717791"/>
</g>
<defs>
<clipPath id="clip0">
<rect width="451.6" height="327.3" fill="white" transform="translate(42 15)"/>
</clipPath>
</defs>
</svg>
