<svg width="518" height="210" viewBox="0 0 518 210" fill="none" xmlns="http://www.w3.org/2000/svg">
<rect x="92.7034" y="37.5762" width="146" height="79" transform="rotate(-3.53506 92.7034 37.5762)" fill="#FFEA7D"/>
<rect x="33" y="110" width="152" height="36" fill="#FFEA7D"/>
<rect x="253" y="146" width="94" height="36" fill="#FFEA7D"/>
<path d="M46.344 117.936C45.84 119.064 45.072 120.336 44.16 121.608C43.344 120.528 42.288 119.544 40.944 118.656L40.56 118.992C41.856 120.096 42.816 121.272 43.512 122.472C42.408 123.864 41.112 125.208 39.792 126.264L40.056 126.552C41.496 125.736 42.864 124.704 44.064 123.576C44.4 124.368 44.664 125.184 44.856 126C43.776 128.664 41.832 131.448 39.624 133.296L39.888 133.56C42.048 132.312 44.04 130.44 45.24 128.712C45.288 129.456 45.312 130.2 45.312 130.968C45.312 133.632 45.024 136.584 44.304 137.568C44.112 137.832 43.92 137.904 43.512 137.904C42.504 137.904 40.584 137.736 40.584 137.736V138.144C41.448 138.288 42.12 138.552 42.456 138.768C42.744 138.96 42.888 139.32 42.888 139.872C44.088 139.872 44.904 139.608 45.384 138.936C46.56 137.352 46.872 134.04 46.8 130.968C46.776 127.944 46.368 125.16 44.928 122.712C46.056 121.56 46.992 120.36 47.688 119.28C48.24 119.4 48.456 119.28 48.6 119.04L46.344 117.936ZM49.944 129.48V123.384H53.808V129.48H49.944ZM59.424 123.384V129.48H55.296V123.384H59.424ZM57.48 132.672C58.2 133.608 58.968 134.808 59.568 136.08C58.104 136.272 56.664 136.44 55.296 136.584V130.2H59.424V131.424H59.64C60.144 131.424 60.912 131.064 60.936 130.944V123.672C61.44 123.576 61.824 123.384 61.968 123.192L60.024 121.728L59.184 122.688H55.296V118.824C55.848 118.752 55.992 118.536 56.04 118.2L53.808 117.96V122.688H50.064L48.432 121.92V132.12H48.696C49.32 132.12 49.944 131.76 49.944 131.592V130.2H53.808V136.776C50.904 137.112 48.48 137.352 47.184 137.424L47.904 139.584C48.096 139.536 48.384 139.344 48.504 139.056C53.352 138.072 57 137.208 59.784 136.536C60.216 137.496 60.528 138.504 60.6 139.392C62.424 141 63.912 136.464 57.792 132.48L57.48 132.672Z" fill="black"/>
<path d="M72.84 122.112H77.592V125.76H71.4L71.592 126.48H85.656C85.968 126.48 86.208 126.36 86.28 126.096C85.536 125.328 84.216 124.272 84.216 124.272L83.112 125.76H79.128V122.112H84.456C84.792 122.112 85.032 121.992 85.104 121.728C84.312 121.008 83.064 119.952 83.064 119.952L81.96 121.392H79.128V118.848C79.728 118.776 79.944 118.536 79.992 118.2L77.592 117.936V121.392H72.648L72.84 122.112ZM72.984 127.872C71.784 128.28 70.56 128.688 69.432 129.072V124.272H72.6C72.936 124.272 73.152 124.152 73.224 123.888C72.48 123.12 71.256 122.112 71.256 122.112L70.152 123.552H69.432V118.8C70.056 118.704 70.224 118.464 70.272 118.128L67.944 117.84V123.552H66.192C66.456 122.592 66.696 121.608 66.864 120.6C67.392 120.576 67.632 120.336 67.704 120.048L65.424 119.592C65.256 122.496 64.704 125.496 63.936 127.632L64.32 127.848C64.992 126.864 65.544 125.64 65.976 124.272H67.944V129.552C66.12 130.152 64.608 130.608 63.768 130.824L64.752 132.816C64.968 132.72 65.16 132.504 65.256 132.192C66.216 131.736 67.104 131.304 67.944 130.896V139.848H68.232C68.808 139.848 69.432 139.464 69.432 139.224V130.152C70.896 129.408 72.12 128.736 73.104 128.208L72.984 127.872ZM73.392 131.616C74.448 132.624 75.792 134.328 76.104 135.672C77.904 136.872 79.152 133.2 73.632 131.424L73.392 131.616ZM83.184 129.816H82.344V127.608C82.92 127.512 83.136 127.32 83.208 127.008L80.808 126.744V129.816H71.472L71.664 130.512H80.808V137.424C80.808 137.76 80.688 137.904 80.208 137.904C79.704 137.904 76.968 137.712 76.968 137.712V138.096C78.12 138.264 78.792 138.432 79.176 138.72C79.56 138.936 79.68 139.344 79.752 139.848C82.08 139.608 82.344 138.84 82.344 137.544V130.512H85.56C85.872 130.512 86.112 130.392 86.184 130.128C85.464 129.408 84.24 128.376 84.24 128.376L83.184 129.816Z" fill="black"/>
<path d="M90.648 135.888V129.552H95.664V135.888H90.648ZM95.664 122.856V128.856H90.648V122.856H95.664ZM96.312 121.152L95.424 122.136H92.352C92.928 121.152 93.624 119.904 94.104 119.016C94.584 119.016 94.872 118.824 94.992 118.488L92.472 117.888C92.256 119.136 91.872 120.912 91.56 122.136H90.768L89.16 121.344V139.128H89.424C90.072 139.128 90.648 138.744 90.648 138.576V136.584H95.664V138.432H95.904C96.408 138.432 97.152 138.024 97.176 137.856V123.144C97.656 123.048 98.064 122.856 98.184 122.664L96.312 121.152ZM108.048 121.056L107.064 122.112H101.832C102.264 121.128 102.672 120.144 103.032 119.112C103.56 119.136 103.824 118.896 103.92 118.632L101.472 117.888C100.656 121.584 99.168 125.304 97.608 127.656L97.968 127.872C99.264 126.576 100.464 124.824 101.472 122.832H107.328C107.16 131.04 106.8 136.512 105.912 137.4C105.648 137.664 105.48 137.712 104.976 137.712C104.4 137.712 102.672 137.568 101.592 137.448L101.568 137.88C102.552 138.048 103.584 138.312 103.968 138.6C104.304 138.84 104.4 139.296 104.4 139.824C105.576 139.824 106.512 139.464 107.184 138.648C108.312 137.256 108.744 131.928 108.912 123.048C109.44 123 109.728 122.856 109.896 122.664L108.048 121.056ZM99.816 127.248C101.016 128.52 102.432 130.584 102.72 132.216C104.448 133.584 105.84 129.696 100.08 127.08L99.816 127.248Z" fill="black"/>
<path d="M130.536 137.16H123.792V122.16H131.832C132.144 122.16 132.408 122.04 132.48 121.776C131.616 120.984 130.176 119.88 130.176 119.88L128.928 121.44H113.664L113.88 122.16H122.136V137.16H112.032L112.224 137.88H133.44C133.8 137.88 133.992 137.76 134.064 137.496C133.2 136.704 131.784 135.6 131.784 135.6L130.536 137.16Z" fill="black"/>
<path d="M141.816 117.888C140.4 122.544 138.048 127.128 135.792 129.984L136.128 130.248C137.28 129.192 138.408 127.896 139.44 126.432V139.872H139.728C140.304 139.872 140.952 139.464 141 139.344V125.352C141.408 125.28 141.648 125.112 141.72 124.92L140.664 124.536C141.672 122.88 142.56 121.056 143.304 119.16C143.856 119.208 144.12 119.016 144.24 118.752L141.816 117.888ZM154.92 122.712H147.288C147.912 121.608 148.512 120.432 149.016 119.208C149.544 119.232 149.856 119.064 149.952 118.8L147.528 117.912C146.256 122.04 144.12 126.096 142.104 128.616L142.44 128.88C144.072 127.488 145.584 125.568 146.904 123.384H148.776V139.872H149.016C149.856 139.872 150.36 139.464 150.36 139.368V133.536H156.96C157.272 133.536 157.512 133.416 157.584 133.152C156.768 132.408 155.472 131.4 155.472 131.4L154.344 132.84H150.36V128.4H156.504C156.84 128.4 157.08 128.28 157.152 128.016C156.384 127.296 155.136 126.336 155.136 126.336L154.056 127.704H150.36V123.384H157.584C157.896 123.384 158.136 123.264 158.208 123.024C157.392 122.28 156.072 121.248 156.072 121.248L154.92 122.712Z" fill="black"/>
<path d="M171.576 117.84C172.368 118.56 173.232 119.88 173.352 120.912C174.84 122.088 176.256 118.944 171.816 117.648L171.576 117.84ZM172.176 122.088C171.192 123.384 169.128 125.52 167.496 126.336C167.304 126.408 166.92 126.504 166.92 126.504L167.712 128.376C167.88 128.328 168.024 128.208 168.168 128.016C172.296 127.368 175.92 126.744 178.272 126.312C178.8 127.056 179.208 127.8 179.376 128.496C181.128 129.672 182.184 125.736 176.232 123.624L175.968 123.84C176.616 124.368 177.336 125.088 177.912 125.856C174.408 126.12 171.072 126.408 168.888 126.528C170.688 125.568 172.632 124.248 173.808 123.24C174.312 123.336 174.6 123.144 174.72 122.928L172.968 122.088H181.416C181.728 122.088 181.944 121.968 182.016 121.704C181.272 120.96 179.976 119.952 179.976 119.952L178.872 121.392H166.392L166.56 122.088H172.176ZM161.856 118.416C162.888 119.16 164.16 120.48 164.496 121.608C166.224 122.688 167.28 119.112 162.048 118.224L161.856 118.416ZM160.008 123.768C161.04 124.416 162.264 125.616 162.672 126.648C164.424 127.608 165.312 124.128 160.248 123.552L160.008 123.768ZM166.56 122.952C162.48 131.856 162.48 131.856 162.048 132.672C161.784 133.152 161.712 133.152 161.424 133.152H160.344V133.68C160.872 133.728 161.208 133.8 161.52 134.04C162.048 134.376 162.192 136.272 161.856 138.696C161.928 139.464 162.192 139.92 162.648 139.92C163.464 139.92 163.92 139.272 163.968 138.24C164.064 136.32 163.368 135.192 163.368 134.136C163.368 133.56 163.512 132.816 163.752 132.12C164.064 131.04 166.008 125.856 166.992 123.072L166.56 122.952ZM168.456 131.76C168.456 134.448 167.856 137.592 164.496 139.68L164.76 139.992C169.152 138.048 169.872 134.616 169.92 131.808V129.6C170.496 129.528 170.664 129.288 170.736 129L168.456 128.76V131.76ZM172.608 139.32H172.896C173.424 139.32 174.072 139.008 174.072 138.816V129.624C174.648 129.552 174.888 129.312 174.912 129L172.608 128.736V139.32ZM181.632 134.64H181.32C181.104 135.936 180.84 137.472 180.696 137.808C180.624 138.024 180.552 138.072 180.384 138.072C180.264 138.096 179.976 138.096 179.616 138.096H178.8C178.44 138.096 178.368 138 178.368 137.712V129.576C178.824 129.504 179.064 129.264 179.112 128.952L176.904 128.712V138.072C176.904 139.032 177.12 139.44 178.416 139.44H179.592C181.656 139.44 182.256 139.128 182.256 138.552C182.256 138.264 182.16 138.096 181.704 137.904L181.632 134.64Z" fill="black"/>
<path d="M185.208 142.704C187.704 141.504 188.496 139.2 188.496 137.424C188.496 136.128 187.848 135.168 186.72 135.168C185.736 135.168 185.16 135.864 185.16 136.632C185.16 137.856 186.336 138.264 187.32 138.624C187.224 139.656 186.672 141.072 184.824 142.104L185.208 142.704Z" fill="black"/>
<path d="M220.344 132.144H208.104L208.296 132.84H223.08C223.416 132.84 223.68 132.72 223.752 132.456C222.888 131.688 221.544 130.656 221.544 130.656L220.344 132.144ZM225.888 122.28H214.392C214.584 121.032 214.752 119.832 214.848 118.944C215.424 118.992 215.664 118.728 215.76 118.44L213.384 117.84C213.24 120 212.568 124.416 212.088 126.888C211.728 127.032 211.368 127.224 211.128 127.368L212.88 128.664L213.672 127.848H225.864C225.504 132.552 224.736 136.8 223.776 137.544C223.464 137.808 223.224 137.88 222.672 137.88C222.072 137.88 219.72 137.664 218.352 137.52L218.328 137.928C219.528 138.12 220.872 138.408 221.328 138.72C221.736 138.96 221.88 139.392 221.88 139.872C223.104 139.872 224.136 139.56 224.856 138.888C226.176 137.712 227.064 133.224 227.448 128.064C227.976 128.016 228.288 127.872 228.432 127.704L226.608 126.144L225.648 127.152H213.6C213.84 125.976 214.08 124.464 214.296 123H228.696C229.032 123 229.272 122.88 229.344 122.616C228.48 121.824 227.088 120.792 227.088 120.792L225.888 122.28Z" fill="black"/>
<path d="M240.168 127.008C239.136 127.464 238.08 127.896 237.096 128.304V124.08H240.048C240.384 124.08 240.624 123.96 240.696 123.696C240.024 123 238.872 122.04 238.872 122.04L237.888 123.36H237.096V118.8C237.696 118.728 237.936 118.488 237.984 118.152L235.608 117.888V123.36H232.008L232.176 124.08H235.608V128.928C233.856 129.648 232.416 130.224 231.648 130.464L232.56 132.456C232.776 132.336 232.944 132.072 232.992 131.784C233.928 131.256 234.792 130.728 235.608 130.248V137.424C235.608 137.784 235.488 137.904 235.08 137.904C234.624 137.904 232.536 137.736 232.536 137.736V138.144C233.472 138.264 234.024 138.432 234.312 138.72C234.624 138.936 234.72 139.368 234.792 139.848C236.856 139.632 237.096 138.864 237.096 137.568V129.336C238.344 128.568 239.424 127.872 240.312 127.32L240.168 127.008ZM250.248 127.992C249.504 130.224 248.352 132.24 246.792 133.968C245.088 132.36 243.768 130.344 242.952 127.992H250.248ZM251.328 126.288L250.2 127.296H247.416V123.024H253.44C253.752 123.024 253.992 122.904 254.064 122.64C253.272 121.896 251.976 120.912 251.976 120.912L250.848 122.328H247.416V118.944C248.016 118.848 248.232 118.608 248.28 118.272L245.88 118.008V122.328H240.36L240.552 123.024H245.88V127.296H240.792L241.008 127.992H242.448C243.192 130.752 244.344 133.032 245.904 134.904C243.864 136.848 241.248 138.384 238.008 139.464L238.176 139.872C241.776 138.96 244.56 137.592 246.744 135.84C248.4 137.544 250.44 138.84 252.84 139.8C253.152 139.032 253.704 138.576 254.424 138.504L254.472 138.264C251.976 137.52 249.72 136.392 247.824 134.88C249.744 133.008 251.112 130.8 252.096 128.256C252.672 128.232 252.912 128.184 253.104 127.944L251.328 126.288Z" fill="black"/>
<path d="M269.76 118.992C270.96 119.64 272.52 120.912 273 121.968C274.704 122.856 275.424 119.472 269.952 118.728L269.76 118.992ZM277.392 124.392C277.752 124.392 277.968 124.272 278.04 124.008C277.176 123.216 275.808 122.136 275.808 122.136L274.584 123.696H267.624V118.824C268.248 118.728 268.44 118.488 268.512 118.152L266.064 117.864V123.696H256.176L256.392 124.392H265.032C263.4 129.528 260.112 134.664 255.6 138.048L255.888 138.384C260.64 135.504 264.048 131.448 266.064 126.744V139.872H266.376C266.952 139.872 267.624 139.464 267.624 139.224V124.392H267.744C269.04 130.608 272.184 135.24 276.576 137.976C276.936 137.232 277.536 136.8 278.28 136.752L278.352 136.512C273.672 134.304 269.784 129.984 268.248 124.392H277.392Z" fill="black"/>
<path d="M287.832 118.728C288.432 118.632 288.672 118.416 288.72 118.08L286.32 117.84V126.792H286.56C287.136 126.792 287.832 126.384 287.832 126.168V118.728ZM283.32 119.736C283.944 119.64 284.16 119.4 284.208 119.064L281.856 118.824V126.624H282.072C282.648 126.624 283.32 126.216 283.32 126.024V119.736ZM286.344 134.664C285.12 136.056 282.576 137.88 280.32 138.96L280.56 139.272C283.128 138.552 285.936 137.208 287.448 136.056C287.952 136.2 288.144 136.128 288.312 135.912L286.344 134.664ZM293.76 135.456C295.824 136.32 298.704 138.048 299.88 139.536C301.944 140.088 301.728 136.128 293.952 135.144L293.76 135.456ZM298.008 119.76C297.264 120.984 296.256 122.064 294.96 122.976C293.592 122.136 292.464 121.056 291.624 119.76H298.008ZM299.184 118.08L298.128 119.064H289.2L289.392 119.76H291.072C291.768 121.344 292.728 122.64 293.904 123.696C292.344 124.632 290.472 125.376 288.408 125.928L288.576 126.312C288.936 126.24 289.296 126.168 289.632 126.096C288.216 127.128 285.792 128.592 283.824 129.144C283.632 129.216 283.248 129.288 283.248 129.288L283.968 131.088C284.136 131.016 284.328 130.872 284.472 130.632C286.944 130.32 289.248 129.936 291.12 129.624C288.552 130.8 285.552 131.928 283.032 132.6C282.768 132.672 282.24 132.696 282.24 132.696L283.008 134.64C283.176 134.592 283.368 134.448 283.512 134.232C285.936 134.016 288.216 133.8 290.28 133.584V137.808C290.28 138.072 290.184 138.216 289.824 138.216C289.392 138.216 287.568 138.072 287.568 138.072V138.432C288.456 138.552 288.936 138.696 289.224 138.936C289.464 139.128 289.56 139.512 289.608 139.896C291.528 139.704 291.816 139.008 291.816 137.808V133.416C293.976 133.224 295.872 132.984 297.432 132.792C298.104 133.464 298.68 134.112 298.968 134.76C300.72 135.552 301.128 131.832 294.744 130.344L294.528 130.608C295.248 131.04 296.112 131.616 296.88 132.288C292.224 132.504 287.856 132.696 284.928 132.792C289.368 131.568 294.216 129.816 296.88 128.544C297.432 128.784 297.816 128.664 297.984 128.472L296.184 127.008C295.368 127.536 294.24 128.136 292.896 128.808C290.256 129 287.688 129.192 285.768 129.312C287.76 128.616 289.776 127.752 291.048 127.056C291.6 127.248 291.936 127.056 292.08 126.864L290.64 125.88C292.152 125.496 293.52 124.968 294.744 124.368C296.328 125.52 298.272 126.288 300.624 126.792C300.72 126.048 301.248 125.568 301.896 125.424V125.16C299.736 124.92 297.792 124.392 296.112 123.6C297.696 122.592 298.944 121.368 299.88 119.928C300.456 119.904 300.72 119.856 300.864 119.64L299.184 118.08Z" fill="black"/>
<path d="M313.08 117.888C313.872 118.464 314.784 119.616 314.976 120.576C316.608 121.632 317.808 118.32 313.32 117.696L313.08 117.888ZM323.16 121.632C322.968 122.472 322.68 123.528 322.44 124.2L322.752 124.392C323.496 123.744 324.432 122.664 324.96 121.92C325.416 121.872 325.68 121.848 325.872 121.656L324 119.88L323.04 120.912H307.2C307.152 120.552 307.08 120.192 306.96 119.808L306.528 119.832C306.648 121.44 305.808 122.88 304.824 123.408C304.344 123.696 304.032 124.152 304.248 124.656C304.536 125.208 305.4 125.16 305.976 124.728C306.648 124.296 307.32 123.24 307.272 121.632H323.16ZM312.912 122.184C313.68 122.952 314.544 124.272 314.64 125.328C316.056 126.456 317.304 123.384 313.176 122.016L312.912 122.184ZM307.656 124.512C307.704 126 306.768 127.296 305.832 127.776C305.376 128.04 305.04 128.496 305.256 128.976C305.52 129.504 306.336 129.48 306.888 129.096C307.824 128.496 308.736 126.96 308.088 124.512H307.656ZM316.2 130.776C321.024 130.776 321.84 130.56 321.84 129.84C321.84 129.528 321.672 129.384 321.096 129.216L321.024 127.056H320.76C320.472 128.04 320.232 128.856 320.04 129.168C319.92 129.336 319.776 129.384 319.488 129.432C319.032 129.456 317.784 129.48 316.272 129.48H312.48C315.912 127.896 318.744 125.88 320.52 123.792C321.048 124.008 321.264 123.936 321.456 123.72L319.584 122.448C317.856 124.848 314.976 127.056 311.52 128.832V124.224C311.976 124.152 312.192 123.936 312.216 123.648L310.056 123.408V129.24C310.056 129.36 310.056 129.456 310.056 129.552C308.304 130.32 306.432 131.016 304.536 131.496L304.704 131.928C306.672 131.544 308.568 131.016 310.368 130.344C310.728 130.68 311.4 130.776 312.672 130.776H316.2ZM321.36 137.976H315.816V132.384C316.368 132.288 316.56 132.072 316.608 131.76L314.256 131.52V137.976H308.832V133.632C309.432 133.536 309.696 133.296 309.744 132.936L307.296 132.672V137.808C306.96 137.952 306.624 138.168 306.408 138.36L308.352 139.56L309.048 138.696H321.36V140.064H321.648C322.224 140.064 322.92 139.752 322.92 139.584V133.584C323.52 133.488 323.76 133.248 323.808 132.912L321.36 132.648V137.976ZM320.784 124.992C322.08 126 323.496 127.8 323.76 129.312C325.464 130.536 326.688 126.648 321.024 124.776L320.784 124.992Z" fill="black"/>
<path d="M328.632 133.08C328.8 133.008 328.944 132.888 329.064 132.72C332.088 131.832 334.824 130.848 336.312 130.344L336.24 129.96C333.648 130.392 331.104 130.728 329.4 130.968C331.824 129.024 334.488 126.144 335.88 124.176C336.336 124.296 336.672 124.128 336.792 123.936L334.656 122.568C334.344 123.216 333.888 123.96 333.336 124.8C331.8 124.896 330.288 124.968 329.184 124.992C330.864 123.432 332.712 121.152 333.72 119.496C334.224 119.544 334.512 119.352 334.608 119.112L332.304 118.032C331.632 119.832 329.808 123.216 328.368 124.608C328.224 124.728 327.744 124.848 327.744 124.848L328.632 127.008C328.8 126.96 328.944 126.816 329.064 126.648C330.456 126.288 331.776 125.904 332.856 125.592C331.512 127.488 329.856 129.528 328.464 130.656C328.272 130.8 327.792 130.896 327.792 130.896L328.632 133.08ZM329.04 138.48C329.28 138.384 329.472 138.168 329.568 137.88C332.784 136.488 335.136 135.24 336.864 134.328L336.768 133.992C333.216 135.024 329.616 136.008 328.008 136.344L329.04 138.48ZM339.384 137.352V131.664H346.68V137.352H339.384ZM346.608 130.944H339.672L337.896 130.224V139.872H338.136C338.904 139.872 339.384 139.536 339.384 139.392V138.072H346.68V139.704H346.92C347.616 139.704 348.216 139.368 348.216 139.272V131.784C348.72 131.688 348.96 131.568 349.128 131.376L347.4 130.032L346.608 130.944ZM347.232 122.496H343.896V118.848C344.472 118.752 344.736 118.512 344.76 118.176L342.36 117.912V122.496H336.216L336.408 123.216H342.36V127.56H337.248L337.44 128.28H349.008C349.32 128.28 349.536 128.16 349.608 127.896C348.84 127.2 347.592 126.216 347.592 126.216L346.512 127.56H343.896V123.216H349.728C350.04 123.216 350.304 123.096 350.376 122.832C349.584 122.088 348.336 121.128 348.336 121.128L347.232 122.496Z" fill="black"/>
<path d="M357.768 137.352V131.664H368.256V137.352H357.768ZM368.016 130.968H357.888L356.136 130.176V139.824H356.4C357.072 139.824 357.768 139.464 357.768 139.296V138.072H368.256V139.632H368.496C369.024 139.632 369.864 139.296 369.888 139.128V131.976C370.344 131.88 370.728 131.688 370.896 131.496L368.904 129.96L368.016 130.968ZM365.664 126.504H357.336L357.528 127.2H368.208C368.544 127.2 368.784 127.08 368.856 126.84C368.04 126.096 366.768 125.112 366.768 125.112L365.664 126.504ZM362.04 117.72C360.768 121.176 355.92 126 351.816 128.28L352.008 128.64C356.544 126.576 361.224 122.616 363.456 119.136C365.16 122.64 368.808 125.784 372.768 127.752C372.936 127.152 373.488 126.624 374.184 126.504L374.232 126.144C370.008 124.464 366.024 121.872 363.912 118.848C364.488 118.8 364.8 118.704 364.872 118.416L362.04 117.72Z" fill="black"/>
<path d="M378.648 135.888V129.552H383.664V135.888H378.648ZM383.664 122.856V128.856H378.648V122.856H383.664ZM384.312 121.152L383.424 122.136H380.352C380.928 121.152 381.624 119.904 382.104 119.016C382.584 119.016 382.872 118.824 382.992 118.488L380.472 117.888C380.256 119.136 379.872 120.912 379.56 122.136H378.768L377.16 121.344V139.128H377.424C378.072 139.128 378.648 138.744 378.648 138.576V136.584H383.664V138.432H383.904C384.408 138.432 385.152 138.024 385.176 137.856V123.144C385.656 123.048 386.064 122.856 386.184 122.664L384.312 121.152ZM396.048 121.056L395.064 122.112H389.832C390.264 121.128 390.672 120.144 391.032 119.112C391.56 119.136 391.824 118.896 391.92 118.632L389.472 117.888C388.656 121.584 387.168 125.304 385.608 127.656L385.968 127.872C387.264 126.576 388.464 124.824 389.472 122.832H395.328C395.16 131.04 394.8 136.512 393.912 137.4C393.648 137.664 393.48 137.712 392.976 137.712C392.4 137.712 390.672 137.568 389.592 137.448L389.568 137.88C390.552 138.048 391.584 138.312 391.968 138.6C392.304 138.84 392.4 139.296 392.4 139.824C393.576 139.824 394.512 139.464 395.184 138.648C396.312 137.256 396.744 131.928 396.912 123.048C397.44 123 397.728 122.856 397.896 122.664L396.048 121.056ZM387.816 127.248C389.016 128.52 390.432 130.584 390.72 132.216C392.448 133.584 393.84 129.696 388.08 127.08L387.816 127.248Z" fill="black"/>
<path d="M414.264 120.408C413.88 123.096 412.8 125.184 410.304 126.744L410.448 127.104C413.664 125.736 415.344 123.672 415.992 120.408H419.64C419.496 122.952 419.304 124.32 418.944 124.656C418.8 124.776 418.632 124.824 418.272 124.824C417.888 124.824 416.64 124.728 415.944 124.656V125.088C416.568 125.184 417.288 125.376 417.552 125.592C417.84 125.784 417.912 126.192 417.912 126.6C418.632 126.6 419.4 126.408 419.904 126C420.648 125.4 420.96 123.792 421.08 120.552C421.56 120.504 421.824 120.408 421.992 120.216L420.264 118.824L419.424 119.688H410.472L410.688 120.408H414.264ZM406.536 132.264V128.808H408.624V132.264H406.536ZM403.056 132.264C403.176 131.088 403.176 129.936 403.176 128.928V128.808H405.24V132.264H403.056ZM407.088 121.032C406.656 121.992 406.032 123.336 405.48 124.224H403.464L402.48 123.768C403.104 122.952 403.68 122.016 404.184 121.032H407.088ZM403.176 124.92H405.24V128.112H403.176V124.92ZM408.624 124.92V128.112H406.536V124.92H408.624ZM409.152 123.264L408.384 124.224H406.128C407.088 123.336 408.096 121.992 408.744 121.176C409.2 121.152 409.488 121.128 409.656 120.96L408 119.4L407.088 120.312H404.496C404.688 119.88 404.88 119.472 405.048 119.016C405.576 119.04 405.864 118.824 405.936 118.536L403.704 117.84C402.912 121.008 401.496 124.008 399.984 125.904L400.32 126.144C400.824 125.712 401.304 125.232 401.784 124.68V128.952C401.784 132.48 401.688 136.368 400.008 139.56L400.368 139.824C402.048 137.856 402.72 135.36 402.984 132.96H405.24V137.4H405.432C406.08 137.4 406.536 137.088 406.536 136.992V132.96H408.624V137.688C408.624 138.024 408.528 138.168 408.168 138.168C407.736 138.168 405.912 138.024 405.912 138.024V138.408C406.776 138.528 407.232 138.672 407.52 138.912C407.784 139.128 407.88 139.464 407.928 139.872C409.8 139.68 410.04 139.032 410.04 137.856V125.232C410.544 125.112 410.928 124.92 411.096 124.728L409.152 123.264ZM419.592 134.112H417.048V130.728H421.224C421.56 130.728 421.776 130.608 421.848 130.344C421.128 129.672 420.024 128.832 420.024 128.832L419.064 130.032H417.048V127.608C417.576 127.536 417.792 127.296 417.84 127.008L415.536 126.744V130.032H412.824C413.16 129.408 413.448 128.736 413.688 128.064C414.192 128.064 414.432 127.848 414.528 127.584L412.416 126.936C411.984 129.24 411.168 131.424 410.184 132.888L410.568 133.128C411.264 132.48 411.888 131.64 412.44 130.728H415.536V134.112H410.352L410.544 134.832H415.536V139.824H415.824C416.376 139.824 417.048 139.464 417.048 139.272V134.832H421.872C422.184 134.832 422.4 134.712 422.472 134.448C421.776 133.728 420.6 132.816 420.6 132.816L419.592 134.112Z" fill="black"/>
<path d="M424.632 119.136C425.784 120.072 427.104 121.656 427.464 122.952C429.216 124.104 430.416 120.456 424.896 118.968L424.632 119.136ZM430.944 121.08C426.312 130.392 426.312 130.392 425.856 131.208C425.64 131.664 425.52 131.688 425.256 131.688H424.128V132.216C424.656 132.264 425.016 132.336 425.328 132.552C425.88 132.912 426.024 134.664 425.712 137.04C425.76 137.784 426.024 138.24 426.432 138.24C427.224 138.24 427.704 137.64 427.752 136.632C427.824 134.736 427.152 133.656 427.128 132.672C427.128 132.072 427.32 131.352 427.56 130.632C427.944 129.552 430.224 124.08 431.376 121.2L430.944 121.08ZM437.184 129.36C437.376 128.16 437.448 126.912 437.448 125.616V123.12H441.84V129.36H437.184ZM443.52 129.36H443.376V123.432C443.88 123.312 444.264 123.12 444.432 122.928L442.488 121.44L441.576 122.424H437.448V118.944C438.048 118.848 438.216 118.608 438.288 118.272L435.888 118.008V122.424H431.28L431.496 123.12H435.888V125.592C435.888 126.888 435.816 128.16 435.624 129.36H429.504L429.696 130.056H435.504C434.736 133.968 432.528 137.232 427.032 139.416L427.248 139.848C433.68 137.784 436.2 134.28 437.04 130.056H437.28C437.952 133.416 439.608 137.472 444.576 139.896C444.744 138.96 445.296 138.672 446.112 138.552L446.16 138.264C440.784 136.176 438.6 133.056 437.76 130.056H445.824C446.136 130.056 446.352 129.936 446.424 129.672C445.728 128.976 444.552 127.992 444.552 127.992L443.52 129.36Z" fill="black"/>
<path d="M456.624 117.888C457.776 118.896 459.12 120.624 459.432 121.992C461.184 123.24 462.408 119.448 456.888 117.72L456.624 117.888ZM466.536 122.712H448.08L448.296 123.408H455.496C455.304 130.344 453.96 135.6 448.56 139.68L448.752 139.968C453.936 137.16 456.024 133.272 456.888 128.16H464.424C464.16 133.104 463.584 136.872 462.84 137.568C462.576 137.808 462.36 137.856 461.856 137.856C461.328 137.856 459.312 137.664 458.184 137.568L458.16 137.976C459.168 138.144 460.32 138.408 460.728 138.696C461.088 138.912 461.208 139.344 461.208 139.848C462.312 139.848 463.272 139.536 463.92 138.888C465.072 137.808 465.72 133.824 465.984 128.376C466.488 128.304 466.8 128.184 466.968 127.992L465.144 126.432L464.208 127.44H457.008C457.2 126.168 457.32 124.824 457.416 123.408H469.32C469.656 123.408 469.896 123.288 469.968 123.024C469.104 122.256 467.736 121.2 467.736 121.2L466.536 122.712Z" fill="black"/>
<path d="M49.272 151.864C49.992 152.32 50.784 153.28 50.952 154.072C52.512 155.08 53.736 152.032 49.512 151.648L49.272 151.864ZM58.824 155.08C58.464 155.704 57.984 156.424 57.624 156.88L57.936 157.072C58.824 156.64 60.048 155.896 60.744 155.32C61.2 155.296 61.464 155.248 61.632 155.08L59.856 153.376L58.92 154.36H43.176C43.128 154.048 43.056 153.688 42.936 153.352H42.504C42.6 154.48 41.952 155.512 41.16 155.896C40.68 156.136 40.368 156.568 40.536 157.048C40.752 157.6 41.544 157.6 42.096 157.288C42.672 156.952 43.176 156.208 43.2 155.08H58.824ZM54.576 158.776C53.976 159.832 53.16 160.72 52.152 161.416C50.688 161.248 48.96 161.08 46.92 160.936C47.472 160.288 48.12 159.544 48.72 158.776H54.576ZM60.36 158.776C60.672 158.776 60.912 158.656 60.984 158.392C60.216 157.672 58.992 156.76 58.992 156.76L57.912 158.08H49.224C49.656 157.504 50.064 157 50.352 156.568C51.024 156.688 51.288 156.496 51.408 156.256L49.08 155.272C48.72 155.92 48.024 157 47.256 158.08H41.28L41.496 158.776H46.752C46.056 159.76 45.312 160.696 44.736 161.296C46.896 161.56 48.936 161.896 50.784 162.28C48.312 163.528 44.952 164.2 40.752 164.68L40.824 165.112C46.152 164.776 49.92 164.128 52.584 162.688C54.912 163.216 56.856 163.84 58.344 164.512C60.12 165.184 61.848 163.072 54.024 161.728C55.032 160.936 55.848 159.952 56.496 158.776H60.36ZM61.2 166.84C61.536 166.84 61.752 166.72 61.824 166.456C61.056 165.712 59.784 164.704 59.784 164.704L58.68 166.12H51.768V164.608C52.368 164.512 52.608 164.296 52.656 163.96L50.16 163.696V166.12H40.224L40.44 166.84H48.792C46.68 169.288 43.392 171.52 39.744 172.984L39.96 173.392C44.064 172.144 47.664 170.248 50.16 167.776V173.824H50.448C51.048 173.824 51.768 173.512 51.768 173.32V166.936C53.808 169.936 57.216 172.168 60.864 173.344C61.08 172.528 61.632 172 62.328 171.88L62.376 171.616C58.728 170.92 54.696 169.144 52.392 166.84H61.2Z" fill="black"/>
<path d="M68.976 151.912C67.776 156.472 65.712 161.056 63.672 163.936L64.008 164.176C65.04 163.144 66.024 161.944 66.936 160.552V173.872H67.224C67.8 173.872 68.448 173.488 68.472 173.344V158.968C68.904 158.896 69.12 158.752 69.216 158.56L68.304 158.224C69.168 156.64 69.912 154.96 70.536 153.16C71.064 153.184 71.352 152.968 71.424 152.68L68.976 151.912ZM73.896 154.12H82.104V159.496H73.896V154.12ZM85.488 164.224C85.824 164.224 86.04 164.104 86.112 163.84C85.32 163.096 84.024 162.112 84.024 162.112L82.896 163.528H78.696V160.192H82.104V161.296H82.344C82.872 161.296 83.64 160.96 83.664 160.816V154.432C84.168 154.336 84.552 154.12 84.696 153.928L82.752 152.416L81.864 153.4H74.016L72.336 152.632V161.608H72.576C73.224 161.608 73.896 161.248 73.896 161.08V160.192H77.136V163.528H69.672L69.864 164.224H76.248C74.856 167.272 72.408 170.2 69.384 172.216L69.624 172.576C72.816 170.968 75.384 168.784 77.136 166.096V173.944H77.4C78.144 173.944 78.696 173.536 78.696 173.392V164.872C80.16 168.064 82.512 170.68 84.96 172.24C85.2 171.472 85.704 171.04 86.352 170.968L86.4 170.704C83.688 169.528 80.568 167.08 78.912 164.224H85.488Z" fill="black"/>
<path d="M96.216 155.536H104.76C104.376 156.712 103.896 157.984 103.488 158.8H100.2C100.896 158.368 100.944 156.76 98.448 155.56L98.16 155.68C98.664 156.448 99.192 157.672 99.24 158.632C99.312 158.704 99.384 158.752 99.456 158.8H94.8L94.992 159.496H109.368C109.704 159.496 109.92 159.376 109.992 159.112C109.272 158.416 108.144 157.528 108.144 157.528L107.112 158.8H104.208C104.808 158.176 105.456 157.384 106.032 156.664C106.488 156.712 106.752 156.496 106.872 156.256L105.024 155.536H108.552C108.888 155.536 109.128 155.416 109.176 155.152C108.48 154.456 107.352 153.568 107.352 153.568L106.368 154.816H96.024L96.216 155.536ZM100.368 151.864C101.016 152.464 101.712 153.568 101.784 154.48C103.2 155.584 104.616 152.632 100.632 151.696L100.368 151.864ZM94.248 152.656L93.216 153.64H90.768L88.992 152.872V173.896H89.256C89.976 173.896 90.48 173.488 90.48 173.344V154.36H93.288C92.832 156.16 92.064 158.8 91.584 160.216C93 161.896 93.528 163.6 93.528 165.304C93.528 166.168 93.36 166.648 93 166.864C92.832 166.96 92.688 166.984 92.424 166.984H90.936V167.368C91.416 167.44 91.824 167.56 91.992 167.728C92.16 167.944 92.232 168.424 92.232 168.904C94.368 168.808 95.136 167.848 95.112 165.616C95.112 163.816 94.296 161.92 92.16 160.144C93.072 158.752 94.32 156.16 95.016 154.768C95.568 154.744 95.88 154.696 96.072 154.504L94.248 152.656ZM98.28 164.296H106.128V166.144H98.28V164.296ZM106.128 161.752V163.6H98.28V161.752H106.128ZM107.136 169.144H102.912V166.864H106.128V167.776H106.344C106.848 167.776 107.568 167.416 107.592 167.272V161.92C107.976 161.848 108.288 161.68 108.432 161.512L106.704 160.216L105.912 161.032H98.4L96.792 160.336V167.992H97.008C97.632 167.992 98.28 167.656 98.28 167.512V166.864H101.424V169.144H94.728L94.92 169.84H101.424V173.848H101.664C102.408 173.848 102.912 173.512 102.912 173.416V169.84H109.488C109.824 169.84 110.04 169.72 110.112 169.456C109.368 168.76 108.192 167.848 108.192 167.848L107.136 169.144Z" fill="black"/>
<path d="M117.168 152.608C117.168 159.04 117.288 167.248 111.888 173.392L112.248 173.8C115.896 170.464 117.48 166.36 118.176 162.304C119.424 164.176 120.672 166.576 120.96 168.4C122.76 169.96 124.056 165.784 118.32 161.44C118.728 158.632 118.752 155.896 118.8 153.496C119.4 153.424 119.592 153.184 119.64 152.848L117.168 152.608ZM125.64 152.512C125.64 160.648 125.904 168.064 118.944 173.416L119.304 173.8C125.4 170.008 126.792 164.752 127.152 159.088C127.728 165.208 129.168 170.536 132.792 173.848C133.056 172.936 133.584 172.528 134.376 172.456L134.424 172.168C129 168.088 127.68 161.632 127.32 153.424C127.92 153.328 128.088 153.088 128.136 152.752L125.64 152.512Z" fill="black"/>
<path d="M154.728 154.216V156.856H148.848V154.216H154.728ZM148.848 160.264V157.552H154.728V160.264H148.848ZM148.848 163.648V160.984H154.728V163.648H148.848ZM148.848 164.368H154.728V165.88H154.968C155.496 165.88 156.264 165.52 156.288 165.328V154.528C156.768 154.432 157.152 154.24 157.296 154.048L155.376 152.536L154.488 153.52H148.944L147.312 152.776V165.856H147.576C148.224 165.856 148.848 165.496 148.848 165.304V164.368ZM145.632 166.168C146.712 167.104 147.96 168.76 148.176 170.104C149.736 171.28 150.984 167.824 145.896 165.976L145.632 166.168ZM139.176 167.176C139.08 168.976 137.952 170.536 136.92 171.112C136.464 171.424 136.176 171.904 136.368 172.36C136.656 172.84 137.496 172.72 138.096 172.312C139.032 171.664 140.184 169.912 139.608 167.2L139.176 167.176ZM142.344 158.944C143.4 159.832 144.456 161.152 144.72 162.328C146.304 163.432 147.408 159.952 142.344 158.464V156.52H146.208C146.544 156.52 146.784 156.4 146.832 156.136C146.088 155.416 144.888 154.432 144.888 154.432L143.808 155.824H142.344V152.632C142.944 152.536 143.16 152.32 143.208 151.984L140.832 151.72V155.824H136.104L136.272 156.52H140.28C139.368 159.568 137.856 162.52 135.792 164.728L136.104 165.088C138.096 163.528 139.68 161.608 140.832 159.424V166.144H141.144C141.672 166.144 142.344 165.76 142.344 165.568V158.944ZM153 168.832H152.688C152.424 170.008 152.16 170.92 151.968 171.28C151.848 171.496 151.752 171.568 151.368 171.592C150.96 171.616 149.808 171.64 148.224 171.64H144.768C143.592 171.64 143.496 171.568 143.496 171.208V167.44C143.928 167.368 144.168 167.128 144.192 166.864L141.936 166.6V171.496C141.936 172.744 142.368 173.056 144.6 173.056H148.128C152.976 173.056 153.816 172.792 153.816 172.024C153.816 171.736 153.648 171.544 153.072 171.376L153 168.832ZM153.192 167.224C154.488 168.4 155.976 170.416 156.24 172.024C157.944 173.296 159.216 169.432 153.456 167.032L153.192 167.224Z" fill="black"/>
<path d="M161.856 152.44C162.96 153.16 164.328 154.456 164.736 155.608C166.488 156.544 167.448 152.992 162.072 152.2L161.856 152.44ZM160.032 157.768C161.064 158.416 162.288 159.592 162.672 160.6C164.4 161.584 165.312 158.128 160.272 157.552L160.032 157.768ZM166.968 155.368C162.48 165.736 162.48 165.736 162.048 166.6C161.808 167.104 161.736 167.128 161.448 167.128H160.368V167.656C160.896 167.704 161.232 167.752 161.544 167.992C162.096 168.352 162.24 170.248 161.928 172.672C161.976 173.44 162.24 173.872 162.696 173.872C163.512 173.872 163.992 173.248 164.04 172.216C164.136 170.224 163.416 169.168 163.416 168.088C163.392 167.464 163.56 166.696 163.8 165.928C164.16 164.68 166.296 158.68 167.4 155.488L166.968 155.368ZM179.064 162.64H174.432V157.624H180.408C180.744 157.624 180.984 157.504 181.056 157.24C180.24 156.496 178.968 155.488 178.968 155.488L177.816 156.928H174.432V152.848C175.032 152.752 175.248 152.512 175.32 152.176L172.872 151.912V156.928H167.52L167.712 157.624H172.872V162.64H165.936L166.128 163.36H172.728C171.72 165.472 169.128 169.24 167.136 170.848C166.944 170.968 166.44 171.064 166.44 171.064L167.328 173.296C167.544 173.224 167.736 173.056 167.904 172.792C172.392 172.096 176.28 171.328 178.992 170.728C179.52 171.712 179.952 172.672 180.144 173.536C182.04 175 183.192 170.632 176.376 166.24L176.064 166.408C176.904 167.464 177.888 168.832 178.704 170.248C174.528 170.632 170.52 170.992 168.096 171.136C170.328 169.336 172.848 166.696 174.192 164.824C174.672 164.896 175.008 164.704 175.128 164.488L172.896 163.36H181.68C182.016 163.36 182.28 163.24 182.328 162.976C181.512 162.208 180.192 161.2 180.192 161.2L179.064 162.64Z" fill="black"/>
<path d="M189.552 154.744C188.784 156.208 186.912 158.92 185.4 160.024C185.232 160.12 184.8 160.216 184.8 160.216L185.784 162.376C185.976 162.28 186.168 162.088 186.336 161.824C189.696 161.224 192.768 160.624 194.952 160.168C195.216 160.696 195.384 161.2 195.456 161.704C197.088 162.976 198.312 159.064 192.6 156.544L192.336 156.76C193.176 157.504 194.088 158.56 194.688 159.688C191.376 160 188.256 160.24 186.36 160.336C188.016 159.112 189.888 157.36 190.968 156.016C191.472 156.064 191.76 155.896 191.856 155.68L189.696 154.744H197.016C197.352 154.744 197.592 154.624 197.664 154.36C196.872 153.616 195.6 152.632 195.6 152.632L194.496 154.048H184.2L184.392 154.744H189.552ZM191.304 165.688H196.272C196.608 165.688 196.848 165.568 196.896 165.304C196.152 164.56 194.88 163.576 194.88 163.576L193.8 164.992H191.304V162.448C191.904 162.352 192.12 162.136 192.192 161.8L189.768 161.56V164.992H184.704L184.872 165.688H189.768V170.368C187.248 170.824 185.208 171.184 184.008 171.304L184.992 173.44C185.232 173.368 185.448 173.152 185.568 172.888C190.944 171.424 194.832 170.248 197.688 169.336L197.616 168.928C195.432 169.336 193.272 169.744 191.304 170.104V165.688ZM200.328 155.104C200.928 155.032 201.144 154.792 201.192 154.456L198.84 154.192V168.784H199.128C199.68 168.784 200.328 168.448 200.328 168.256V155.104ZM203.328 152.32V171.424C203.328 171.808 203.208 171.952 202.776 171.952C202.272 171.952 199.872 171.76 199.872 171.76V172.12C200.928 172.264 201.528 172.48 201.864 172.744C202.2 172.984 202.32 173.392 202.392 173.896C204.6 173.68 204.864 172.864 204.864 171.592V153.232C205.44 153.16 205.68 152.92 205.728 152.584L203.328 152.32Z" fill="black"/>
<path d="M216.936 151.792C217.824 152.464 218.784 153.712 219 154.744C220.584 155.824 221.832 152.56 217.176 151.6L216.936 151.792ZM226.008 161.344H221.64C222.648 160.096 223.728 158.56 224.352 157.384C224.88 157.384 225.168 157.168 225.24 156.88L222.84 156.304C222.384 157.816 221.64 159.832 220.92 161.344H212.664L210.816 160.528V164.2C210.816 167.272 210.456 170.776 207.864 173.656L208.152 173.968C211.992 171.16 212.352 167.032 212.352 164.2V162.064H228.648C228.984 162.064 229.2 161.944 229.272 161.68C228.456 160.936 227.16 159.928 227.16 159.928L226.008 161.344ZM214.104 156.352C214.848 157.48 215.712 159.232 215.808 160.6C217.344 161.992 218.976 158.632 214.392 156.208L214.104 156.352ZM226.728 155.2H208.296L208.488 155.92H229.32C229.656 155.92 229.872 155.8 229.944 155.536C229.152 154.792 227.856 153.832 227.856 153.832L226.728 155.2Z" fill="black"/>
<path d="M247.416 154V159.616H238.704V154H247.416ZM238.704 160.312H247.416V162.04H247.656C248.16 162.04 248.952 161.68 248.976 161.512V154.288C249.456 154.192 249.84 154 249.984 153.808L248.04 152.32L247.176 153.28H238.824L237.144 152.536V162.16H237.384C238.056 162.16 238.704 161.8 238.704 161.656V160.312ZM234.816 170.896V164.56H239.928V170.896H234.816ZM239.688 163.84H234.936L233.28 163.096V173.728H233.544C234.168 173.728 234.816 173.344 234.816 173.2V171.592H239.928V173.296H240.12C240.648 173.296 241.416 172.888 241.44 172.768V164.848C241.944 164.752 242.304 164.56 242.448 164.368L240.528 162.904L239.688 163.84ZM246 170.896V164.56H251.28V170.896H246ZM251.904 162.904L251.04 163.84H246.12L244.464 163.096V173.8H244.728C245.376 173.8 246 173.44 246 173.272V171.592H251.28V173.464H251.52C252 173.464 252.792 173.104 252.816 172.936V164.848C253.296 164.752 253.704 164.56 253.848 164.368L251.904 162.904Z" fill="black"/>
<path d="M256.128 161.656L256.368 162.472H277.248C277.632 162.472 277.896 162.376 277.968 162.088C276.912 161.08 275.16 159.664 275.16 159.664L273.648 161.656H256.128Z" fill="black"/>
<path d="M281.064 162.328C281.28 162.256 281.496 162.064 281.664 161.728C284.52 161.176 287.136 160.576 288.984 160.096C289.128 160.528 289.224 160.936 289.248 161.344C290.76 162.64 292.2 159.088 287.424 156.88L287.136 157.072C287.736 157.72 288.36 158.632 288.768 159.544C286.104 159.832 283.56 160.048 281.856 160.144C283.248 158.896 284.712 157.192 285.576 155.92C286.056 155.968 286.344 155.752 286.44 155.56L284.736 154.792H291.024C291.36 154.792 291.6 154.672 291.648 154.408C290.88 153.664 289.632 152.68 289.632 152.68L288.504 154.072H280.2L280.392 154.792H284.112C283.488 156.304 281.976 158.944 280.776 160.048C280.632 160.12 280.2 160.216 280.2 160.216L281.064 162.328ZM291.6 168.808C289.752 169.192 287.88 169.552 286.224 169.888V165.712H290.472C290.808 165.712 291.024 165.592 291.096 165.328C290.304 164.584 289.056 163.624 289.056 163.624L287.952 165.016H286.224V162.568C286.824 162.472 287.064 162.256 287.112 161.92L284.688 161.704V165.016H280.632L280.824 165.712H284.688V170.176C282.672 170.56 281.04 170.824 280.056 170.944L281.016 173.104C281.256 173.032 281.496 172.816 281.592 172.552C286.032 171.184 289.296 170.056 291.648 169.216L291.6 168.808ZM298.032 157.984C297.672 161.032 296.952 163.792 295.632 166.264C294.408 164.104 293.592 161.68 293.016 159.04C293.184 158.704 293.352 158.344 293.52 157.984H298.032ZM301.536 157.984C301.848 157.984 302.088 157.864 302.16 157.6C301.392 156.856 300.072 155.848 300.072 155.848L298.968 157.264H293.784C294.312 155.944 294.768 154.504 295.128 153.04C295.656 153.016 295.92 152.776 295.992 152.488L293.424 151.888C292.824 156.064 291.504 160.24 289.944 163L290.28 163.216C291.168 162.256 291.936 161.104 292.632 159.808C293.112 162.592 293.808 165.16 294.96 167.44C293.472 169.792 291.384 171.832 288.528 173.536L288.744 173.848C291.72 172.504 293.952 170.752 295.632 168.688C296.88 170.752 298.536 172.552 300.744 173.896C300.984 173.176 301.536 172.792 302.256 172.672L302.328 172.48C299.832 171.256 297.912 169.6 296.472 167.56C298.296 164.848 299.304 161.68 299.856 157.984H301.536Z" fill="black"/>
<path d="M305.784 156.784C305.808 158.488 305.088 160.432 304.416 161.176C304.032 161.608 303.84 162.16 304.128 162.568C304.512 163 305.352 162.76 305.76 162.16C306.36 161.272 306.816 159.304 306.192 156.784H305.784ZM307.56 151.864V173.872H307.872C308.424 173.872 309.072 173.512 309.072 173.272V152.824C309.696 152.728 309.888 152.488 309.96 152.152L307.56 151.864ZM309.48 156.136C310.056 157.048 310.68 158.632 310.704 159.784C311.976 161.008 313.464 158.224 309.792 155.992L309.48 156.136ZM323.232 172.312H319.248V165.232H324.432C324.768 165.232 325.008 165.112 325.056 164.872C324.312 164.128 323.04 163.096 323.04 163.096L321.936 164.536H319.248V158.728H325.104C325.44 158.728 325.656 158.608 325.728 158.344C324.936 157.6 323.688 156.592 323.688 156.592L322.56 158.008H319.248V152.92C319.8 152.848 319.944 152.632 319.992 152.296L317.688 152.056V158.008H314.28C314.688 156.904 315.048 155.752 315.336 154.576C315.864 154.576 316.08 154.336 316.176 154.048L313.824 153.448C313.344 157.048 312.288 160.648 311.016 163.048L311.4 163.288C312.432 162.064 313.296 160.504 314.016 158.728H317.688V164.536H312.72L312.912 165.232H317.688V172.312H310.848L311.04 172.984H325.824C326.136 172.984 326.376 172.864 326.424 172.624C325.656 171.88 324.36 170.872 324.36 170.872L323.232 172.312Z" fill="black"/>
<path d="M45.888 46.6242C48.896 49.5682 52.544 54.1762 53.952 58.1442C61.44 62.3042 65.984 48.1602 46.464 46.1762L45.888 46.6242ZM65.664 84.6402C62.784 86.4322 59.776 88.2242 57.088 89.7602V66.2722C58.496 66.0802 59.2 65.5682 59.52 65.1202L53.312 59.9362L49.92 63.3282H42.56L43.136 65.1842H49.856V91.4242C49.856 92.7682 49.408 93.3442 46.72 94.9442L52.032 102.88C52.864 102.368 53.888 101.152 54.272 99.4242C59.712 93.5362 63.872 88.0962 66.048 85.2162L65.664 84.6402ZM90.816 100.064H81.728V69.7922H98.048C99.008 69.7922 99.648 69.4722 99.84 68.7682C97.28 66.3362 92.864 62.6242 92.864 62.6242L89.024 67.9362H81.728V49.0562C83.456 48.8002 83.904 48.1602 84.032 47.2002L73.92 46.2402V100.064H59.264L59.776 101.856H100.48C101.44 101.856 102.08 101.536 102.272 100.832C99.584 98.2082 94.912 94.2402 94.912 94.2402L90.816 100.064Z" fill="black"/>
<path d="M154.624 52.5762V59.5522H143.424V52.5762H154.624ZM143.424 68.3202V61.3442H154.624V68.3202H143.424ZM143.424 77.3442V70.1762H154.624V77.3442H143.424ZM143.424 79.2002H154.624V83.2962H155.84C158.336 83.2962 161.984 81.8242 162.048 81.3122V53.8562C163.392 53.5362 164.224 52.9602 164.672 52.4482L157.44 46.8802L153.984 50.7842H143.68L136.32 47.7122V83.5522H137.344C140.416 83.5522 143.424 81.8882 143.424 81.1202V79.2002ZM132.672 83.3602C134.912 86.1122 137.152 90.3362 137.472 94.1122C143.68 99.2322 150.208 86.8162 133.248 82.9762L132.672 83.3602ZM114.368 86.1762C114.56 90.1442 112 93.6002 109.696 94.9442C107.776 95.9682 106.368 97.8242 107.072 100.128C107.904 102.496 110.912 103.072 113.152 101.728C116.352 99.8722 118.656 94.1762 115.2 86.0482L114.368 86.1762ZM124.8 64.8642C126.592 67.2962 128.064 70.4962 128.32 73.5042C134.208 78.1762 140.224 66.6562 124.8 63.0082V58.2082H134.144C135.04 58.2082 135.68 57.8882 135.872 57.1842C133.504 54.8162 129.472 51.2962 129.472 51.2962L126.016 56.4162H124.8V47.9682C126.4 47.7122 126.784 47.1362 126.976 46.3682L117.632 45.4082V56.4162H106.432L106.944 58.2082H115.584C113.792 66.5282 110.4 75.1042 105.472 81.1202L106.176 81.8882C110.72 78.7522 114.624 74.9762 117.632 70.6882V84.3202H118.976C121.664 84.3202 124.8 82.8482 124.8 82.1442V64.8642ZM151.616 89.3762H150.912C149.568 92.8322 148.608 95.1362 147.84 96.1602C147.328 96.8002 146.944 96.9922 145.92 97.0562C144.832 97.1202 142.336 97.1202 139.584 97.1202H131.584C129.152 97.1202 128.896 96.9282 128.896 96.0322V87.2642C130.176 87.0722 130.816 86.4962 130.88 85.6642L121.344 84.8962V97.4402C121.344 102.432 123.008 103.52 130.368 103.52H138.752C151.552 103.52 154.624 102.56 154.624 99.2962C154.624 98.0162 154.048 97.1202 151.744 96.3522L151.616 89.3762ZM151.744 85.9202C154.816 89.4402 157.632 94.9442 157.888 99.7442C164.8 105.44 171.456 90.9122 152.32 85.5362L151.744 85.9202Z" fill="black"/>
<path d="M175.168 46.9442C177.472 49.3762 180.224 53.0882 181.12 56.6082C187.968 61.0882 193.6 48.0322 175.68 46.4962L175.168 46.9442ZM169.856 61.4082C172.096 63.5842 174.72 67.2322 175.552 70.4322C182.208 74.6562 187.456 61.9842 170.368 61.0242L169.856 61.4082ZM190.08 54.4322C177.536 82.4642 177.536 82.4642 176.128 85.0242C175.424 86.3682 175.104 86.3682 174.208 86.3682H171.2V87.6482C172.608 87.7762 173.696 88.0322 174.592 88.6722C176.192 89.6962 176.448 95.7122 175.296 102.368C175.744 104.864 177.28 105.76 178.816 105.76C181.824 105.76 184 103.584 184.064 100.384C184.32 94.6882 181.696 92.3842 181.632 88.9282C181.568 87.2002 182.016 84.8322 182.656 82.5282C183.552 78.8802 188.416 63.2002 191.168 54.6882L190.08 54.4322ZM219.136 74.6562H211.328V60.9602H225.984C226.944 60.9602 227.648 60.6402 227.84 59.9362C225.024 57.4402 220.48 53.7922 220.48 53.7922L216.448 59.1042H211.328V48.4162C212.992 48.1602 213.504 47.5202 213.696 46.6242L203.776 45.7922V59.1042H191.168L191.68 60.9602H203.776V74.6562H186.752L187.264 76.4482H202.752C200.512 82.2722 194.56 91.7442 190.336 94.8162C189.632 95.3282 188.032 95.7122 188.032 95.7122L191.616 104.544C192.256 104.288 192.704 103.84 193.216 103.136C204.352 100.576 213.504 98.0802 219.648 96.1602C220.8 98.7202 221.696 101.216 222.144 103.648C230.144 109.92 236.352 93.1522 213.632 84.1922L212.992 84.5762C215.04 87.3922 217.216 90.8482 218.944 94.4322C209.408 95.0722 200.32 95.5842 194.176 95.8402C200.32 91.9362 207.296 85.9202 211.136 81.3122C212.416 81.4402 213.248 80.9282 213.504 80.3522L204.992 76.4482H229.312C230.272 76.4482 230.912 76.1282 231.104 75.4242C228.224 72.8002 223.36 69.0242 223.36 69.0242L219.136 74.6562Z" fill="black"/>
<path d="M253.568 77.3442H254.912C258.56 77.3442 260.736 76.1922 260.8 75.8722V56.5442H267.072V77.2162H268.416C272.064 77.2162 274.304 76.0002 274.304 75.7442V56.5442H290.176C291.072 56.5442 291.776 56.2242 291.968 55.5202C289.152 52.9602 284.48 49.4402 284.48 49.4402L280.448 54.6882H267.456C271.296 52.7682 271.168 45.1522 257.792 45.2802L257.28 45.6642C259.456 47.6482 261.952 51.1682 262.784 54.3042C263.04 54.4322 263.296 54.5602 263.552 54.6882H235.968L236.544 56.5442H253.568V63.7122L245.504 59.4882C242.752 66.2082 238.336 72.3522 234.304 76.0642L235.008 76.7042C240.832 74.3362 246.656 70.3042 251.136 64.6722C252.288 64.8642 253.12 64.6082 253.568 64.0962V77.3442ZM275.328 61.3442C279.168 64.5442 283.456 69.7282 284.864 74.4002C292.544 79.0082 297.344 63.7122 275.84 60.8322L275.328 61.3442ZM272.768 80.9282C270.336 84.3842 267.136 87.6482 263.36 90.5282C258.624 88.1602 254.592 84.9602 251.776 80.9282H272.768ZM277.888 74.9762L273.088 79.0722H242.624L243.2 80.9282H250.304C252.608 85.9842 255.68 90.0162 259.392 93.4082C252.096 98.2722 243.2 102.176 233.792 104.864L234.112 105.76C245.376 104.224 255.424 101.28 263.936 96.8642C270.592 101.344 278.848 104.032 288.128 105.76C288.96 102.048 290.944 99.5522 294.272 98.7202L294.336 97.8882C285.824 97.2482 277.376 95.9042 270.016 93.3442C274.624 90.2082 278.656 86.6882 281.92 82.5922C283.584 82.4642 284.288 82.2722 284.8 81.5682L277.888 74.9762Z" fill="black"/>
<path d="M304.96 48.4162C307.52 51.6802 310.08 56.4802 310.592 60.8322C317.76 66.5922 324.8 52.1922 305.536 48.0322L304.96 48.4162ZM328.896 73.0562C331.2 76.9602 333.184 82.1442 333.12 86.9442C340.16 93.5362 348.288 79.2002 329.536 72.7362L328.896 73.0562ZM350.4 59.8082L346.176 64.0962H330.368C330.944 58.9122 331.072 53.7922 331.264 48.7362C332.8 48.4802 333.376 47.9042 333.504 46.9442L322.816 45.8562C322.816 51.9362 322.816 58.0162 322.176 64.0962H299.968L300.544 65.9522H321.984C320.32 79.4562 314.88 92.7042 298.048 104.416L298.752 105.376C321.472 94.8802 328 80.6082 330.112 65.9522H346.816C346.304 83.1682 345.28 94.6882 342.976 96.7362C342.272 97.3122 341.696 97.5682 340.48 97.5682C338.816 97.5682 333.696 97.1842 330.368 96.8642L330.304 97.7602C333.632 98.3362 336.448 99.2962 337.792 100.576C339.008 101.664 339.328 103.2 339.328 105.376C343.872 105.376 346.88 104.736 349.248 102.496C352.896 98.9762 354.112 88.2882 354.752 67.2962C356.224 67.1042 357.056 66.6562 357.568 66.0162L350.4 59.8082Z" fill="black"/>
<path d="M394.624 52.3842H411.264V84.7682H412.48C416.128 84.7682 418.496 83.3602 418.496 82.9122V53.0242C419.968 52.7682 420.672 52.3202 421.12 51.8082L414.528 46.6242L411.008 50.6562H395.328L387.712 47.7122V85.5362H388.928C392.512 85.5362 394.624 84.1922 394.624 83.6802V52.3842ZM385.92 85.9202C382.784 86.8162 379.712 87.7122 376.704 88.4802V72.4162H384.256C385.152 72.4162 385.728 72.0962 385.92 71.3922C384.128 69.2802 380.928 66.0162 380.928 66.0162L378.112 70.6242H376.704V53.9202H385.088C385.984 53.9202 386.624 53.6002 386.816 52.8962C384.32 50.5282 380.224 47.0722 380.224 47.0722L376.448 52.0642H361.472L361.984 53.9202H369.408V70.6242H362.24L362.752 72.4162H369.408V90.4642C365.76 91.4242 362.816 92.1922 361.024 92.5762L364.928 101.024C365.696 100.704 366.336 100.064 366.528 99.1682C375.744 93.7922 382.08 89.5042 386.112 86.5602L385.92 85.9202ZM420.352 88.9282H419.584C418.624 92.6402 417.728 96.0962 417.216 97.1842C416.896 97.8242 416.64 97.9522 416 98.0162H410.176C408.896 98.0162 408.704 97.7602 408.704 96.9922V81.0562C409.856 80.8642 410.496 80.2882 410.56 79.5202L405.248 78.9442C406.208 73.2482 406.208 66.7202 406.4 59.4242C407.872 59.2322 408.448 58.5922 408.64 57.6962L399.232 56.8002C399.168 79.6482 400.64 94.2402 376.192 104.544L376.768 105.568C391.488 101.344 398.784 95.5842 402.432 88.1602V98.7202C402.432 102.88 403.328 104.16 408.384 104.16H412.608C420.096 104.16 422.464 102.752 422.464 100.192C422.464 98.9762 422.144 98.2082 420.544 97.5042L420.352 88.9282Z" fill="black"/>
<path d="M449.856 46.1122C452.288 48.2242 454.08 51.8082 454.144 55.1362C461.696 60.7042 469.056 45.9842 450.304 45.7282L449.856 46.1122ZM472.768 83.6162H460.864C462.72 77.6642 462.784 70.6242 462.976 62.6242C464.448 62.3682 465.152 61.7282 465.28 60.8322L454.784 59.8722C454.784 69.1522 454.976 77.0242 452.864 83.6162H427.776L428.288 85.4082H452.224C449.088 93.4082 441.984 99.6162 425.92 104.8L426.24 105.76C444.416 102.048 453.376 96.8002 457.984 89.8242C466.752 94.6242 473.344 100.96 475.84 104.736C483.52 108.832 489.216 92.8962 458.88 88.4802C459.328 87.4562 459.84 86.4322 460.224 85.4082H483.136C484.096 85.4082 484.8 85.0882 484.992 84.3842C482.048 81.6962 477.12 77.6642 477.12 77.6642L472.768 83.6162ZM434.688 71.3922C437.376 73.8242 440.448 77.7922 441.408 81.2482C448.64 85.6642 453.952 71.7762 435.136 71.0082L434.688 71.3922ZM439.552 61.2802C441.92 63.4562 444.736 67.1682 445.568 70.3042C452.352 74.3362 457.472 61.6642 440.064 60.8322L439.552 61.2802ZM479.04 52.4482L475.072 56.4802H435.968C435.776 55.2642 435.328 53.9842 434.816 52.6402H434.048C434.176 55.7122 431.424 58.5282 429.184 59.6802C426.944 60.7042 425.408 62.6242 426.112 65.3122C426.944 68.1282 430.592 68.9602 432.768 67.6162C435.136 66.2722 436.8 62.9442 436.288 58.2722H475.584C475.264 60.8962 474.688 64.2242 474.048 66.4642L474.624 66.8482C477.632 65.1202 481.408 62.1122 483.584 59.8082C484.928 59.7442 485.568 59.6162 486.08 59.0402L479.04 52.4482Z" fill="black"/>
</svg>
