<svg width="35" height="60" viewBox="0 0 35 60" fill="none" xmlns="http://www.w3.org/2000/svg">
<path d="M0.948877 59.0937C-0.208211 57.9884 -0.311924 56.2539 0.664465 55.0438L0.957552 54.7276L29.4477 27.8153C30.723 26.6096 32.7834 26.6137 34.05 27.8236C34.679 28.4244 35 29.2144 35 30.0004C35 30.6622 34.7771 31.3212 34.3338 31.8702L34.0414 32.1855L5.5512 59.0978C4.27591 60.3035 2.21549 60.2994 0.948877 59.0937ZM0.957986 5.27651C-0.321642 4.0708 -0.312967 2.11616 0.949311 0.91046C2.11037 -0.19854 3.93845 -0.294414 5.21737 0.622837L5.55163 0.898115L24.4728 18.7697C25.1104 19.3705 25.4314 20.1647 25.4314 20.9548C25.4314 21.7407 25.1104 22.5308 24.4815 23.1316C23.3204 24.2406 21.4923 24.3365 20.2134 23.4192L19.8791 23.144L0.957986 5.27651Z" fill="white"/>
</svg>
