<svg width="56" height="31" viewBox="0 0 56 31" fill="none" xmlns="http://www.w3.org/2000/svg">
<path d="M1.05466 30.1596C2.06983 31.1844 3.66304 31.2763 4.77455 30.4115L5.06495 30.1519L29.7844 4.91774C30.8918 3.7882 30.8881 1.96325 29.7768 0.841394C29.225 0.284307 28.4993 0 27.7773 0C27.1694 0 26.5642 0.197435 26.0599 0.590082L25.7703 0.849078L1.05088 26.0832C-0.0565846 27.2128 -0.0528049 29.0377 1.05466 30.1596ZM50.4867 30.1515C51.5942 31.2849 53.3895 31.2772 54.497 30.1592C55.5156 29.1308 55.6037 27.5117 54.7612 26.3789L54.5083 26.0828L38.093 9.32411C37.5411 8.75934 36.8117 8.47503 36.0859 8.47503C35.364 8.47503 34.6383 8.75934 34.0865 9.31642C33.0678 10.3448 32.9798 11.964 33.8223 13.0967L34.0751 13.3928L50.4867 30.1515Z" fill="white"/>
</svg>
