<svg width="46" height="40" viewBox="0 0 46 40" fill="none" xmlns="http://www.w3.org/2000/svg">
<path d="M33.8811 0C33.9209 0 33.9548 0.0201359 33.9947 0.0241631H34.4055C34.8122 0.0241631 35.201 0.191291 35.4842 0.489303L45.5833 11.113C45.8505 11.3949 46 11.7694 46 12.1601V30.6167C46 35.703 41.9105 40 37.0693 40H21.14C16.0157 40 12 35.8782 12 30.6167V25.5706C12 24.737 12.67 24.0604 13.4954 24.0604C14.3209 24.0604 14.9909 24.737 14.9909 25.5706V30.6167C14.9909 34.1847 17.6926 36.9796 21.14 36.9796H37.0693C40.2336 36.9796 43.0091 34.0055 43.0091 30.6167V12.7662L35.3765 4.73798V7.36975C35.3765 9.39139 37.0035 11.0405 39.0054 11.0446C39.8309 11.0466 40.4988 11.7231 40.4968 12.5588C40.4948 13.3904 39.8269 14.0649 39.0014 14.0649C35.3526 14.0569 32.3856 11.0546 32.3856 7.36975V3.04455H21.14C17.8062 3.04455 14.9909 5.79109 14.9909 9.04304V17.3612C14.9909 18.1948 14.3209 18.8714 13.4954 18.8714C12.67 18.8714 12 18.1948 12 17.3612V9.04304C12 4.15404 16.1852 0.0241631 21.14 0.0241631H33.7654C33.8053 0.0201359 33.8392 0 33.8811 0ZM33.5032 25.7903C34.3287 25.7903 34.9987 26.4669 34.9987 27.3005C34.9987 28.1341 34.3287 28.8107 33.5032 28.8107H22.7401C21.9147 28.8107 21.2447 28.1341 21.2447 27.3005C21.2447 26.4669 21.9147 25.7903 22.7401 25.7903H33.5032ZM29.4317 15.8186C30.2572 15.8186 30.9271 16.4951 30.9271 17.3288C30.9271 18.1624 30.2572 18.839 29.4317 18.839H22.7401C21.9147 18.839 21.2447 18.1624 21.2447 17.3288C21.2447 16.4951 21.9147 15.8186 22.7401 15.8186H29.4317Z" fill="black"/>
<rect x="0.5" y="5.5" width="20" height="14" rx="2.5" fill="white" stroke="black"/>
<path d="M8.32471 13.2769C8.32471 14.1899 8.16715 14.89 7.85205 15.377C7.54053 15.8639 7.07503 16.1074 6.45557 16.1074C5.98291 16.1074 5.60335 15.9159 5.31689 15.5327V18.2344H3.79688V10.1885H5.2041L5.25781 10.7202C5.54785 10.2941 5.94352 10.0811 6.44482 10.0811C7.06429 10.0811 7.52979 10.3066 7.84131 10.7578C8.15641 11.209 8.31755 11.9001 8.32471 12.8311V13.2769ZM6.81006 12.8955C6.81006 12.3333 6.7474 11.9359 6.62207 11.7031C6.50033 11.4704 6.29264 11.354 5.99902 11.354C5.6875 11.354 5.46012 11.4847 5.31689 11.7461V14.4692C5.45296 14.7199 5.68392 14.8452 6.00977 14.8452C6.31055 14.8452 6.51823 14.7181 6.63281 14.4639C6.75098 14.2096 6.81006 13.814 6.81006 13.2769V12.8955ZM9.03906 12.917C9.03906 11.9645 9.2002 11.2537 9.52246 10.7847C9.84473 10.3156 10.3138 10.0811 10.9297 10.0811C11.3773 10.0811 11.7497 10.2744 12.0469 10.6611V7.75H13.5776V16H12.1973L12.1274 15.4092C11.8159 15.8747 11.4149 16.1074 10.9243 16.1074C10.3156 16.1074 9.8501 15.8747 9.52783 15.4092C9.20915 14.9437 9.04622 14.2598 9.03906 13.3574V12.917ZM10.5645 13.2983C10.5645 13.8713 10.6253 14.2723 10.7471 14.5015C10.8688 14.7271 11.0747 14.8398 11.3647 14.8398C11.6655 14.8398 11.8929 14.7056 12.0469 14.437V11.7837C11.8965 11.4972 11.6709 11.354 11.3701 11.354C11.0908 11.354 10.8867 11.4668 10.7578 11.6924C10.6289 11.918 10.5645 12.319 10.5645 12.8955V13.2983ZM15.0493 16V11.3325H14.3457V10.1885H15.0493V9.66748C15.0529 9.02653 15.2212 8.52881 15.5542 8.17432C15.8908 7.81624 16.3545 7.63721 16.9453 7.63721C17.1243 7.63721 17.3535 7.67301 17.6328 7.74463L17.6221 8.9585C17.5182 8.92627 17.3947 8.91016 17.2515 8.91016C16.8003 8.91016 16.5747 9.17871 16.5747 9.71582V10.1885H17.4824V11.3325H16.5747V16H15.0493Z" fill="black"/>
</svg>
