<svg width="164" height="80" viewBox="0 0 164 80" fill="none" xmlns="http://www.w3.org/2000/svg">
<rect width="164" height="80" fill="#4078CD"/>
<mask id="mask0" mask-type="alpha" maskUnits="userSpaceOnUse" x="0" y="0" width="164" height="80">
<rect width="164" height="80" fill="#4078CD"/>
</mask>
<g mask="url(#mask0)">
<path d="M59.5552 16.2113C58.1752 16.2561 57.0929 17.4111 57.1377 18.7911L57.8681 41.2793C57.913 42.6592 59.068 43.7416 60.448 43.6968C61.828 43.652 62.9103 42.4969 62.8655 41.1169L62.2162 21.1275L82.2057 20.4782C83.5857 20.4334 84.668 19.2783 84.6232 17.8983C84.5784 16.5184 83.4233 15.436 82.0433 15.4808L59.5552 16.2113ZM150.564 15.6321C150.34 14.2696 149.054 13.3464 147.692 13.5701L125.489 17.2156C124.127 17.4393 123.204 18.7252 123.427 20.0876C123.651 21.4501 124.937 22.3732 126.299 22.1495L146.035 18.9091L149.275 38.6449C149.499 40.0073 150.785 40.9305 152.147 40.7068C153.51 40.4831 154.433 39.1972 154.209 37.8348L150.564 15.6321ZM107.587 -2.05203C106.454 -2.84069 104.896 -2.5613 104.107 -1.428L91.2552 17.0403C90.4666 18.1736 90.746 19.7316 91.8793 20.5203C93.0126 21.3089 94.5706 21.0296 95.3593 19.8962L106.783 3.48003L123.2 14.904C124.333 15.6927 125.891 15.4133 126.68 14.28C127.468 13.1467 127.189 11.5886 126.056 10.8L107.587 -2.05203ZM74.5844 114.897C71.8914 104.325 72.1227 97.0172 73.7238 91.6042C75.3197 86.2091 78.3563 82.415 81.8338 78.9689C83.6253 77.1934 85.3838 75.6493 87.2471 73.8916C89.0498 72.191 90.8432 70.3852 92.3727 68.3474C95.517 64.1582 97.4525 59.1032 96.6782 52.0232L91.7079 52.5667C92.3315 58.2698 90.8282 62.0759 88.3738 65.346C87.1039 67.0379 85.558 68.6113 83.8161 70.2545C82.1348 71.8406 80.1433 73.6048 78.3143 75.4174C74.5505 79.1472 70.8631 83.6478 68.9292 90.186C67.0005 96.7065 66.8964 104.971 69.7391 116.131L74.5844 114.897ZM96.6782 52.0232C95.9441 45.3099 94.107 40.3261 91.426 36.4819C88.7454 32.6383 85.3437 30.1112 81.7768 28.1308C78.332 26.2182 74.3806 24.6501 70.993 23.0528C67.4743 21.3937 64.1968 19.5574 61.3458 16.8857L57.9269 20.5342C61.3386 23.7312 65.1625 25.8316 68.8606 27.5753C72.6898 29.3808 76.0705 30.6816 79.3497 32.5022C82.5069 34.2551 85.2211 36.3257 87.3249 39.3421C89.4283 42.358 91.0441 46.4967 91.7079 52.5667L96.6782 52.0232ZM91.3093 120.832C97.1089 115.444 100.408 110.159 102.033 104.717C103.649 99.305 103.543 93.9521 102.881 88.5672C101.533 77.6024 98.0684 66.7861 99.9152 52.6181L94.9572 51.9718C93.0017 66.9727 96.6946 79.2243 97.9185 89.1774C98.5424 94.2515 98.5761 98.8201 97.2425 103.286C95.9178 107.722 93.1784 112.271 87.9064 117.168L91.3093 120.832ZM99.9152 52.6181C100.789 45.9135 103.488 41.4719 107.132 38.2579C110.853 34.9752 115.692 32.8551 121.034 31.0928C123.698 30.2139 126.412 29.4463 129.146 28.6543C131.855 27.8695 134.577 27.0619 137.139 26.126C142.211 24.2729 147.049 21.7842 150.128 17.4951L146.066 14.5791C143.889 17.6113 140.241 19.6694 135.423 21.4297C133.04 22.3005 130.466 23.0663 127.755 23.8518C125.069 24.6299 122.241 25.4293 119.467 26.3445C113.933 28.1702 108.316 30.546 103.824 34.5083C99.2545 38.5393 95.9844 44.0919 94.9572 51.9718L99.9152 52.6181ZM103.613 118.218C101.246 111.031 101.479 105.473 103.062 100.785C104.671 96.0199 107.746 91.9265 111.482 87.7874C115.087 83.7933 119.589 79.4894 123.203 74.9244C126.919 70.2307 130.055 64.8678 131.213 58.1838L126.286 57.3299C125.32 62.9061 122.697 67.5083 119.283 71.821C115.767 76.2623 111.77 80.0061 107.77 84.4372C103.902 88.7234 100.267 93.4329 98.3247 99.1853C96.357 105.014 96.1984 111.688 98.864 119.782L103.613 118.218ZM131.213 58.1838C133.504 44.9631 128.253 34.5153 122.414 25.3557C119.407 20.637 116.456 16.5645 113.85 12.19C111.306 7.92037 109.382 3.80551 108.62 -0.441255L103.699 0.441255C104.615 5.54947 106.884 10.2666 109.554 14.7491C112.162 19.1268 115.447 23.7265 118.198 28.0433C123.878 36.9544 128.245 46.03 126.286 57.3299L131.213 58.1838Z" fill="#5388D8"/>
</g>
</svg>
