<svg width="164" height="80" viewBox="0 0 164 80" fill="none" xmlns="http://www.w3.org/2000/svg">
<mask id="mask0" mask-type="alpha" maskUnits="userSpaceOnUse" x="0" y="0" width="164" height="80">
<rect width="164" height="80" rx="15" fill="#4078CD"/>
</mask>
<g mask="url(#mask0)">
<path d="M88.6942 25.4904C89.8289 25.1326 91.0826 25.543 91.798 26.5493C92.5929 27.6673 92.4988 29.2055 91.574 30.2136L89.0406 32.1332C87.8402 33.1534 87.1419 34.6641 87.1327 36.2606V65.5358C87.167 70.3046 90.9468 74.157 95.6086 74.1744H109.996V74.2384C111.55 74.2384 112.811 75.5276 112.811 77.1179C112.811 78.7082 111.55 79.9974 109.996 79.9974H95.6086C87.8254 79.9798 81.5202 73.5298 81.503 65.5678V36.2606C81.5528 32.874 83.1067 29.6947 85.7253 27.622L88.3212 25.6383L88.6942 25.4904ZM107.118 9.92887C111.867 6.02371 118.633 6.02371 123.382 9.92887L144.994 27.558C147.555 29.665 149.058 32.8349 149.091 36.1966L149.06 65.5358C149.06 73.5051 142.744 79.9654 134.954 79.9654H128.699C124.928 79.9654 121.867 76.8479 121.849 72.9906V59.7447L121.82 59.4112C121.667 58.5455 120.926 57.889 120.035 57.889H110.652C110.166 57.889 109.7 58.0889 109.359 58.4438C109.017 58.7988 108.83 59.2791 108.838 59.7767V64.8319C108.838 66.4222 107.578 67.7114 106.024 67.7114C104.469 67.7114 103.209 66.4222 103.209 64.8319V59.7767C103.209 57.7487 103.996 55.8037 105.398 54.3697C106.8 52.9356 108.701 52.13 110.684 52.13H120.067C124.183 52.1476 127.51 55.566 127.51 59.7767V72.9906C127.51 73.6621 128.042 74.2064 128.699 74.2064H135.11C139.774 74.2064 143.555 70.3388 143.555 65.5678V36.2606C143.532 34.637 142.797 33.1099 141.553 32.1013L119.941 14.4721C117.216 12.1769 113.284 12.1769 110.559 14.4721L103.615 19.7833C102.328 20.7286 100.536 20.4278 99.612 19.1114C98.6878 17.7949 98.9819 15.9614 100.269 15.016L107.118 9.92887Z" fill="#39AF85"/>
</g>
</svg>
