<svg width="24" height="69" viewBox="0 0 24 69" fill="none" xmlns="http://www.w3.org/2000/svg">
<path d="M13.5 2C13.5 1.17157 12.8284 0.5 12 0.5C11.1716 0.5 10.5 1.17157 10.5 2L13.5 2ZM10.9393 68.0607C11.5251 68.6464 12.4749 68.6464 13.0607 68.0607L22.6066 58.5147C23.1924 57.9289 23.1924 56.9792 22.6066 56.3934C22.0208 55.8076 21.0711 55.8076 20.4853 56.3934L12 64.8787L3.51472 56.3934C2.92894 55.8076 1.97919 55.8076 1.3934 56.3934C0.807615 56.9792 0.807615 57.9289 1.3934 58.5147L10.9393 68.0607ZM10.5 2L10.5 67L13.5 67L13.5 2L10.5 2Z" fill="black"/>
</svg>
