<svg width="39" height="53" viewBox="0 0 39 53" fill="none" xmlns="http://www.w3.org/2000/svg">
<path d="M5.28563 4.65516C4.54701 4.28002 3.64412 4.57469 3.26899 5.31331C2.89385 6.05193 3.18851 6.95481 3.92714 7.32995L5.28563 4.65516ZM29.9255 7.88362L28.8566 6.8313L29.9255 7.88362ZM28.4255 51C28.4255 51.8284 29.0971 52.5 29.9255 52.5C30.754 52.5 31.4255 51.8284 31.4255 51H28.4255ZM18.0106 31.1225L16.7781 31.9773L18.0106 31.1225ZM1.09939 19.1651C0.436903 19.6625 0.303064 20.6028 0.800455 21.2653C1.29785 21.9278 2.23812 22.0616 2.90061 21.5642L1.09939 19.1651ZM36.7987 27.5243C37.6196 27.6355 38.3752 27.0601 38.4864 26.2392C38.5976 25.4183 38.0222 24.6627 37.2013 24.5515L36.7987 27.5243ZM8.68753 49.7064C7.97307 50.1257 7.73383 51.0448 8.15317 51.7593C8.57251 52.4737 9.49163 52.713 10.2061 52.2936L8.68753 49.7064ZM3.92714 7.32995C7.94822 9.37221 12.2676 9.88205 16.0879 9.32039C19.8839 8.76231 23.309 7.12495 25.4582 4.72361L23.2227 2.72293C21.6484 4.48195 18.93 5.8703 15.6515 6.3523C12.3973 6.83073 8.71135 6.39504 5.28563 4.65516L3.92714 7.32995ZM25.4582 4.72361C26.8425 3.17687 28.4085 3.33806 29.188 3.89998C29.5848 4.18601 29.7881 4.56371 29.8059 4.96043C29.8235 5.35447 29.666 6.00916 28.8566 6.8313L30.9945 8.93595C32.233 7.67791 32.8667 6.25243 32.8029 4.82632C32.7392 3.40288 31.9884 2.22045 30.9423 1.46639C28.8362 -0.0518653 25.5618 0.109328 23.2227 2.72293L25.4582 4.72361ZM13.9043 22.2558C13.9043 24.2862 14.0746 25.9573 14.5382 27.5233C15.0045 29.0982 15.7429 30.4849 16.7781 31.9773L19.2432 30.2676C18.3293 28.9499 17.7645 27.8528 17.4148 26.6717C17.0626 25.4818 16.9043 24.1246 16.9043 22.2558H13.9043ZM16.7781 31.9773C17.9013 33.5968 19.2306 35.1629 20.5476 36.6852C21.8813 38.2269 23.1989 39.72 24.3859 41.2696C26.7613 44.3704 28.4255 47.466 28.4255 51H31.4255C31.4255 46.4723 29.2772 42.7215 26.7675 39.4452C25.5119 37.8062 24.1189 36.2281 22.8164 34.7225C21.4973 33.1976 20.2648 31.7405 19.2432 30.2676L16.7781 31.9773ZM28.8566 6.8313C27.7578 7.94739 26.0605 8.85528 23.9624 9.94736C21.9623 10.9884 19.6499 12.1751 17.7805 13.818L19.7609 16.0714C21.3068 14.7129 23.2733 13.6881 25.3475 12.6085C27.3236 11.5799 29.4961 10.458 30.9945 8.93595L28.8566 6.8313ZM17.7805 13.818C15.549 15.7791 13.9043 18.4255 13.9043 22.2558H16.9043C16.9043 19.4436 18.051 17.5741 19.7609 16.0714L17.7805 13.818ZM2.90061 21.5642C9.41755 16.6714 16.2063 16.1405 18.5875 16.4335L18.9538 13.4559C15.8638 13.0758 8.28458 13.7706 1.09939 19.1651L2.90061 21.5642ZM37.2013 24.5515C31.812 23.8216 28.4065 22.3162 26.1581 20.7804C23.908 19.2433 22.7323 17.6256 21.8049 16.423L19.4292 18.255C20.3481 19.4466 21.7787 21.4219 24.466 23.2576C27.1549 25.0944 31.0178 26.7414 36.7987 27.5243L37.2013 24.5515ZM10.2061 52.2936C13.5944 50.3049 15.6867 46.9056 16.9435 43.6463C18.2054 40.3733 18.6984 37.0549 18.7652 34.9522L15.7667 34.857C15.7094 36.6625 15.2715 39.6435 14.1443 42.567C13.0118 45.5042 11.2567 48.1984 8.68753 49.7064L10.2061 52.2936Z" fill="black"/>
</svg>
