<svg width="418" height="178" viewBox="0 0 418 178" fill="none" xmlns="http://www.w3.org/2000/svg">
<rect x="318.476" width="24.5882" height="149.895" rx="10" fill="white"/>
<path d="M13.0506 63.8224C13.0506 66.8274 10.615 69.2632 7.6108 69.2632C4.60664 69.2632 2.17102 66.8274 2.17102 63.8224C2.17102 60.8174 4.60664 58.3816 7.6108 58.3816C10.615 58.3816 13.0506 60.8174 13.0506 63.8224Z" fill="black" stroke="black" stroke-width="2"/>
<path d="M13.0506 113.007C13.0506 116.012 10.615 118.447 7.6108 118.447C4.60664 118.447 2.17102 116.012 2.17102 113.007C2.17102 110.002 4.60664 107.566 7.6108 107.566C10.615 107.566 13.0506 110.002 13.0506 113.007Z" stroke="black" stroke-width="2"/>
<path d="M13.0506 14.6382C13.0506 17.6432 10.615 20.079 7.6108 20.079C4.60664 20.079 2.17102 17.6432 2.17102 14.6382C2.17102 11.6332 4.60664 9.19739 7.6108 9.19739C10.615 9.19739 13.0506 11.6332 13.0506 14.6382Z" stroke="#BDBDBD" stroke-width="2"/>
<path d="M13.0506 137.599C13.0506 140.604 10.615 143.04 7.6108 143.04C4.60664 143.04 2.17102 140.604 2.17102 137.599C2.17102 134.594 4.60664 132.158 7.6108 132.158C10.615 132.158 13.0506 134.594 13.0506 137.599Z" stroke="black" stroke-width="2"/>
<path d="M13.0506 39.2303C13.0506 42.2353 10.615 44.6711 7.6108 44.6711C4.60664 44.6711 2.17102 42.2353 2.17102 39.2303C2.17102 36.2253 4.60664 33.7895 7.6108 33.7895C10.615 33.7895 13.0506 36.2253 13.0506 39.2303Z" stroke="#BDBDBD" stroke-width="2"/>
<path d="M13.0506 88.4145C13.0506 91.4196 10.615 93.8553 7.6108 93.8553C4.60664 93.8553 2.17102 91.4196 2.17102 88.4145C2.17102 85.4095 4.60664 82.9738 7.6108 82.9738C10.615 82.9738 13.0506 85.4095 13.0506 88.4145Z" stroke="black" stroke-width="2"/>
<path d="M228.49 63.8224C228.49 66.8274 226.055 69.2632 223.05 69.2632C220.046 69.2632 217.611 66.8274 217.611 63.8224C217.611 60.8174 220.046 58.3816 223.05 58.3816C226.055 58.3816 228.49 60.8174 228.49 63.8224Z" stroke="#BDBDBD" stroke-width="2"/>
<path d="M228.49 113.007C228.49 116.012 226.055 118.447 223.05 118.447C220.046 118.447 217.611 116.012 217.611 113.007C217.611 110.002 220.046 107.566 223.05 107.566C226.055 107.566 228.49 110.002 228.49 113.007Z" fill="black" stroke="black" stroke-width="2"/>
<path d="M228.49 14.6382C228.49 17.6432 226.055 20.079 223.05 20.079C220.046 20.079 217.611 17.6432 217.611 14.6382C217.611 11.6332 220.046 9.19739 223.05 9.19739C226.055 9.19739 228.49 11.6332 228.49 14.6382Z" stroke="#BDBDBD" stroke-width="2"/>
<path d="M228.49 137.599C228.49 140.604 226.055 143.04 223.05 143.04C220.046 143.04 217.611 140.604 217.611 137.599C217.611 134.594 220.046 132.158 223.05 132.158C226.055 132.158 228.49 134.594 228.49 137.599Z" stroke="black" stroke-width="2"/>
<path d="M228.49 39.2303C228.49 42.2353 226.055 44.6711 223.05 44.6711C220.046 44.6711 217.611 42.2353 217.611 39.2303C217.611 36.2253 220.046 33.7895 223.05 33.7895C226.055 33.7895 228.49 36.2253 228.49 39.2303Z" stroke="#BDBDBD" stroke-width="2"/>
<path d="M228.49 88.4145C228.49 91.4196 226.055 93.8553 223.05 93.8553C220.046 93.8553 217.611 91.4196 217.611 88.4145C217.611 85.4095 220.046 82.9738 223.05 82.9738C226.055 82.9738 228.49 85.4095 228.49 88.4145Z" stroke="#BDBDBD" stroke-width="2"/>
<path d="M120.77 63.8224C120.77 66.8274 118.335 69.2632 115.331 69.2632C112.326 69.2632 109.891 66.8274 109.891 63.8224C109.891 60.8174 112.326 58.3816 115.331 58.3816C118.335 58.3816 120.77 60.8174 120.77 63.8224Z" stroke="black" stroke-width="2"/>
<path d="M120.77 113.007C120.77 116.012 118.335 118.447 115.331 118.447C112.326 118.447 109.891 116.012 109.891 113.007C109.891 110.002 112.326 107.566 115.331 107.566C118.335 107.566 120.77 110.002 120.77 113.007Z" stroke="black" stroke-width="2"/>
<path d="M120.77 14.6382C120.77 17.6432 118.335 20.079 115.331 20.079C112.326 20.079 109.891 17.6432 109.891 14.6382C109.891 11.6332 112.326 9.19739 115.331 9.19739C118.335 9.19739 120.77 11.6332 120.77 14.6382Z" stroke="#BDBDBD" stroke-width="2"/>
<path d="M120.77 137.599C120.77 140.604 118.335 143.04 115.331 143.04C112.326 143.04 109.891 140.604 109.891 137.599C109.891 134.594 112.326 132.158 115.331 132.158C118.335 132.158 120.77 134.594 120.77 137.599Z" stroke="black" stroke-width="2"/>
<path d="M120.77 39.2303C120.77 42.2353 118.335 44.6711 115.331 44.6711C112.326 44.6711 109.891 42.2353 109.891 39.2303C109.891 36.2253 112.326 33.7895 115.331 33.7895C118.335 33.7895 120.77 36.2253 120.77 39.2303Z" fill="black" stroke="black" stroke-width="2"/>
<path d="M120.77 88.4145C120.77 91.4196 118.335 93.8553 115.331 93.8553C112.326 93.8553 109.891 91.4196 109.891 88.4145C109.891 85.4095 112.326 82.9738 115.331 82.9738C118.335 82.9738 120.77 85.4095 120.77 88.4145Z" stroke="black" stroke-width="2"/>
<path d="M336.21 63.8224C336.21 66.8274 333.774 69.2632 330.77 69.2632C327.766 69.2632 325.331 66.8274 325.331 63.8224C325.331 60.8174 327.766 58.3816 330.77 58.3816C333.774 58.3816 336.21 60.8174 336.21 63.8224Z" stroke="black" stroke-width="2"/>
<path d="M336.21 113.007C336.21 116.012 333.774 118.447 330.77 118.447C327.766 118.447 325.331 116.012 325.331 113.007C325.331 110.002 327.766 107.566 330.77 107.566C333.774 107.566 336.21 110.002 336.21 113.007Z" stroke="black" stroke-width="2"/>
<path d="M336.21 14.6382C336.21 17.6432 333.774 20.079 330.77 20.079C327.766 20.079 325.331 17.6432 325.331 14.6382C325.331 11.6332 327.766 9.19739 330.77 9.19739C333.774 9.19739 336.21 11.6332 336.21 14.6382Z" fill="#EB5757" stroke="#EB5757" stroke-width="2"/>
<path d="M336.21 137.599C336.21 140.604 333.774 143.04 330.77 143.04C327.766 143.04 325.331 140.604 325.331 137.599C325.331 134.594 327.766 132.158 330.77 132.158C333.774 132.158 336.21 134.594 336.21 137.599Z" stroke="black" stroke-width="2"/>
<path d="M336.21 39.2303C336.21 42.2353 333.774 44.6711 330.77 44.6711C327.766 44.6711 325.331 42.2353 325.331 39.2303C325.331 36.2253 327.766 33.7895 330.77 33.7895C333.774 33.7895 336.21 36.2253 336.21 39.2303Z" stroke="black" stroke-width="2"/>
<path d="M336.21 88.4145C336.21 91.4196 333.774 93.8553 330.77 93.8553C327.766 93.8553 325.331 91.4196 325.331 88.4145C325.331 85.4095 327.766 82.9738 330.77 82.9738C333.774 82.9738 336.21 85.4095 336.21 88.4145Z" stroke="black" stroke-width="2"/>
<path d="M66.9103 63.8224C66.9103 66.8274 64.4747 69.2632 61.4705 69.2632C58.4664 69.2632 56.0308 66.8274 56.0308 63.8224C56.0308 60.8174 58.4664 58.3816 61.4705 58.3816C64.4747 58.3816 66.9103 60.8174 66.9103 63.8224Z" stroke="#BDBDBD" stroke-width="2"/>
<path d="M66.9103 113.007C66.9103 116.012 64.4747 118.447 61.4705 118.447C58.4664 118.447 56.0308 116.012 56.0308 113.007C56.0308 110.002 58.4664 107.566 61.4705 107.566C64.4747 107.566 66.9103 110.002 66.9103 113.007Z" fill="black" stroke="black" stroke-width="2"/>
<path d="M66.9103 14.6382C66.9103 17.6432 64.4747 20.079 61.4705 20.079C58.4664 20.079 56.0308 17.6432 56.0308 14.6382C56.0308 11.6332 58.4664 9.19739 61.4705 9.19739C64.4747 9.19739 66.9103 11.6332 66.9103 14.6382Z" stroke="#BDBDBD" stroke-width="2"/>
<path d="M66.9103 137.599C66.9103 140.604 64.4747 143.04 61.4705 143.04C58.4664 143.04 56.0308 140.604 56.0308 137.599C56.0308 134.594 58.4664 132.158 61.4705 132.158C64.4747 132.158 66.9103 134.594 66.9103 137.599Z" stroke="black" stroke-width="2"/>
<path d="M66.9103 39.2303C66.9103 42.2353 64.4747 44.6711 61.4705 44.6711C58.4664 44.6711 56.0308 42.2353 56.0308 39.2303C56.0308 36.2253 58.4664 33.7895 61.4705 33.7895C64.4747 33.7895 66.9103 36.2253 66.9103 39.2303Z" stroke="#BDBDBD" stroke-width="2"/>
<path d="M66.9103 88.4145C66.9103 91.4196 64.4747 93.8553 61.4705 93.8553C58.4664 93.8553 56.0308 91.4196 56.0308 88.4145C56.0308 85.4095 58.4664 82.9738 61.4705 82.9738C64.4747 82.9738 66.9103 85.4095 66.9103 88.4145Z" stroke="#BDBDBD" stroke-width="2"/>
<path d="M282.35 63.8224C282.35 66.8274 279.915 69.2632 276.91 69.2632C273.906 69.2632 271.471 66.8274 271.471 63.8224C271.471 60.8174 273.906 58.3816 276.91 58.3816C279.915 58.3816 282.35 60.8174 282.35 63.8224Z" stroke="#BDBDBD" stroke-width="2"/>
<path d="M282.35 113.007C282.35 116.012 279.915 118.447 276.91 118.447C273.906 118.447 271.471 116.012 271.471 113.007C271.471 110.002 273.906 107.566 276.91 107.566C279.915 107.566 282.35 110.002 282.35 113.007Z" fill="black" stroke="black" stroke-width="2"/>
<path d="M282.35 14.6382C282.35 17.6432 279.915 20.079 276.91 20.079C273.906 20.079 271.471 17.6432 271.471 14.6382C271.471 11.6332 273.906 9.19739 276.91 9.19739C279.915 9.19739 282.35 11.6332 282.35 14.6382Z" stroke="#BDBDBD" stroke-width="2"/>
<path d="M282.35 137.599C282.35 140.604 279.915 143.04 276.91 143.04C273.906 143.04 271.471 140.604 271.471 137.599C271.471 134.594 273.906 132.158 276.91 132.158C279.915 132.158 282.35 134.594 282.35 137.599Z" stroke="black" stroke-width="2"/>
<path d="M282.35 39.2303C282.35 42.2353 279.915 44.6711 276.91 44.6711C273.906 44.6711 271.471 42.2353 271.471 39.2303C271.471 36.2253 273.906 33.7895 276.91 33.7895C279.915 33.7895 282.35 36.2253 282.35 39.2303Z" stroke="#BDBDBD" stroke-width="2"/>
<path d="M282.35 88.4145C282.35 91.4196 279.915 93.8553 276.91 93.8553C273.906 93.8553 271.471 91.4196 271.471 88.4145C271.471 85.4095 273.906 82.9738 276.91 82.9738C279.915 82.9738 282.35 85.4095 282.35 88.4145Z" stroke="#BDBDBD" stroke-width="2"/>
<path d="M174.63 63.8224C174.63 66.8274 172.195 69.2632 169.191 69.2632C166.186 69.2632 163.751 66.8274 163.751 63.8224C163.751 60.8174 166.186 58.3816 169.191 58.3816C172.195 58.3816 174.63 60.8174 174.63 63.8224Z" stroke="#BDBDBD" stroke-width="2"/>
<path d="M174.63 113.007C174.63 116.012 172.195 118.447 169.191 118.447C166.186 118.447 163.751 116.012 163.751 113.007C163.751 110.002 166.186 107.566 169.191 107.566C172.195 107.566 174.63 110.002 174.63 113.007Z" stroke="black" stroke-width="2"/>
<path d="M174.63 14.6382C174.63 17.6432 172.195 20.079 169.191 20.079C166.186 20.079 163.751 17.6432 163.751 14.6382C163.751 11.6332 166.186 9.19739 169.191 9.19739C172.195 9.19739 174.63 11.6332 174.63 14.6382Z" stroke="#BDBDBD" stroke-width="2"/>
<path d="M174.63 137.599C174.63 140.604 172.195 143.04 169.191 143.04C166.186 143.04 163.751 140.604 163.751 137.599C163.751 134.594 166.186 132.158 169.191 132.158C172.195 132.158 174.63 134.594 174.63 137.599Z" stroke="black" stroke-width="2"/>
<path d="M174.63 39.2303C174.63 42.2353 172.195 44.6711 169.191 44.6711C166.186 44.6711 163.751 42.2353 163.751 39.2303C163.751 36.2253 166.186 33.7895 169.191 33.7895C172.195 33.7895 174.63 36.2253 174.63 39.2303Z" stroke="#BDBDBD" stroke-width="2"/>
<path d="M174.63 88.4145C174.63 91.4196 172.195 93.8553 169.191 93.8553C166.186 93.8553 163.751 91.4196 163.751 88.4145C163.751 85.4095 166.186 82.9738 169.191 82.9738C172.195 82.9738 174.63 85.4095 174.63 88.4145Z" fill="black" stroke="black" stroke-width="2"/>
<path d="M390.07 63.8224C390.07 66.8274 387.634 69.2632 384.63 69.2632C381.626 69.2632 379.19 66.8274 379.19 63.8224C379.19 60.8174 381.626 58.3816 384.63 58.3816C387.634 58.3816 390.07 60.8174 390.07 63.8224Z" stroke="#BDBDBD" stroke-width="2"/>
<path d="M390.07 113.007C390.07 116.012 387.634 118.447 384.63 118.447C381.626 118.447 379.19 116.012 379.19 113.007C379.19 110.002 381.626 107.566 384.63 107.566C387.634 107.566 390.07 110.002 390.07 113.007Z" stroke="#BDBDBD" stroke-width="2"/>
<path d="M390.07 14.6382C390.07 17.6432 387.634 20.079 384.63 20.079C381.626 20.079 379.19 17.6432 379.19 14.6382C379.19 11.6332 381.626 9.19739 384.63 9.19739C387.634 9.19739 390.07 11.6332 390.07 14.6382Z" stroke="#BDBDBD" stroke-width="2"/>
<path d="M390.07 137.599C390.07 140.604 387.634 143.04 384.63 143.04C381.626 143.04 379.19 140.604 379.19 137.599C379.19 134.594 381.626 132.158 384.63 132.158C387.634 132.158 390.07 134.594 390.07 137.599Z" stroke="#BDBDBD" stroke-width="2"/>
<path d="M390.07 39.2303C390.07 42.2353 387.634 44.6711 384.63 44.6711C381.626 44.6711 379.19 42.2353 379.19 39.2303C379.19 36.2253 381.626 33.7895 384.63 33.7895C387.634 33.7895 390.07 36.2253 390.07 39.2303Z" stroke="#BDBDBD" stroke-width="2"/>
<path d="M390.07 88.4145C390.07 91.4196 387.634 93.8553 384.63 93.8553C381.626 93.8553 379.19 91.4196 379.19 88.4145C379.19 85.4095 381.626 82.9738 384.63 82.9738C387.634 82.9738 390.07 85.4095 390.07 88.4145Z" fill="#BDBDBD" stroke="#BDBDBD" stroke-width="2"/>
<path d="M39.9804 63.8224C39.9804 66.8274 37.5448 69.2632 34.5406 69.2632C31.5364 69.2632 29.1008 66.8274 29.1008 63.8224C29.1008 60.8174 31.5364 58.3816 34.5406 58.3816C37.5448 58.3816 39.9804 60.8174 39.9804 63.8224Z" stroke="black" stroke-width="2"/>
<path d="M39.9804 113.007C39.9804 116.012 37.5448 118.447 34.5406 118.447C31.5364 118.447 29.1008 116.012 29.1008 113.007C29.1008 110.002 31.5364 107.566 34.5406 107.566C37.5448 107.566 39.9804 110.002 39.9804 113.007Z" stroke="black" stroke-width="2"/>
<path d="M39.9804 14.6382C39.9804 17.6432 37.5448 20.079 34.5406 20.079C31.5364 20.079 29.1008 17.6432 29.1008 14.6382C29.1008 11.6332 31.5364 9.19739 34.5406 9.19739C37.5448 9.19739 39.9804 11.6332 39.9804 14.6382Z" fill="#EB5757" stroke="#EB5757" stroke-width="2"/>
<path d="M39.9804 137.599C39.9804 140.604 37.5448 143.04 34.5406 143.04C31.5364 143.04 29.1008 140.604 29.1008 137.599C29.1008 134.594 31.5364 132.158 34.5406 132.158C37.5448 132.158 39.9804 134.594 39.9804 137.599Z" stroke="black" stroke-width="2"/>
<path d="M39.9804 39.2303C39.9804 42.2353 37.5448 44.6711 34.5406 44.6711C31.5364 44.6711 29.1008 42.2353 29.1008 39.2303C29.1008 36.2253 31.5364 33.7895 34.5406 33.7895C37.5448 33.7895 39.9804 36.2253 39.9804 39.2303Z" stroke="black" stroke-width="2"/>
<path d="M39.9804 88.4145C39.9804 91.4196 37.5448 93.8553 34.5406 93.8553C31.5364 93.8553 29.1008 91.4196 29.1008 88.4145C29.1008 85.4095 31.5364 82.9738 34.5406 82.9738C37.5448 82.9738 39.9804 85.4095 39.9804 88.4145Z" stroke="black" stroke-width="2"/>
<path d="M255.42 63.8224C255.42 66.8274 252.985 69.2632 249.98 69.2632C246.976 69.2632 244.541 66.8274 244.541 63.8224C244.541 60.8174 246.976 58.3816 249.98 58.3816C252.985 58.3816 255.42 60.8174 255.42 63.8224Z" stroke="#BDBDBD" stroke-width="2"/>
<path d="M255.42 113.007C255.42 116.012 252.985 118.447 249.98 118.447C246.976 118.447 244.541 116.012 244.541 113.007C244.541 110.002 246.976 107.566 249.98 107.566C252.985 107.566 255.42 110.002 255.42 113.007Z" fill="black" stroke="black" stroke-width="2"/>
<path d="M255.42 14.6382C255.42 17.6432 252.985 20.079 249.98 20.079C246.976 20.079 244.541 17.6432 244.541 14.6382C244.541 11.6332 246.976 9.19739 249.98 9.19739C252.985 9.19739 255.42 11.6332 255.42 14.6382Z" stroke="#BDBDBD" stroke-width="2"/>
<path d="M255.42 137.599C255.42 140.604 252.985 143.04 249.98 143.04C246.976 143.04 244.541 140.604 244.541 137.599C244.541 134.594 246.976 132.158 249.98 132.158C252.985 132.158 255.42 134.594 255.42 137.599Z" stroke="black" stroke-width="2"/>
<path d="M255.42 39.2303C255.42 42.2353 252.985 44.6711 249.98 44.6711C246.976 44.6711 244.541 42.2353 244.541 39.2303C244.541 36.2253 246.976 33.7895 249.98 33.7895C252.985 33.7895 255.42 36.2253 255.42 39.2303Z" stroke="#BDBDBD" stroke-width="2"/>
<path d="M255.42 88.4145C255.42 91.4196 252.985 93.8553 249.98 93.8553C246.976 93.8553 244.541 91.4196 244.541 88.4145C244.541 85.4095 246.976 82.9738 249.98 82.9738C252.985 82.9738 255.42 85.4095 255.42 88.4145Z" stroke="#BDBDBD" stroke-width="2"/>
<path d="M147.7 63.8224C147.7 66.8274 145.265 69.2632 142.26 69.2632C139.256 69.2632 136.821 66.8274 136.821 63.8224C136.821 60.8174 139.256 58.3816 142.26 58.3816C145.265 58.3816 147.7 60.8174 147.7 63.8224Z" fill="black" stroke="black" stroke-width="2"/>
<path d="M147.7 113.007C147.7 116.012 145.265 118.447 142.26 118.447C139.256 118.447 136.821 116.012 136.821 113.007C136.821 110.002 139.256 107.566 142.26 107.566C145.265 107.566 147.7 110.002 147.7 113.007Z" stroke="black" stroke-width="2"/>
<path d="M147.7 14.6382C147.7 17.6432 145.265 20.079 142.26 20.079C139.256 20.079 136.821 17.6432 136.821 14.6382C136.821 11.6332 139.256 9.19739 142.26 9.19739C145.265 9.19739 147.7 11.6332 147.7 14.6382Z" stroke="#BDBDBD" stroke-width="2"/>
<path d="M147.7 137.599C147.7 140.604 145.265 143.04 142.26 143.04C139.256 143.04 136.821 140.604 136.821 137.599C136.821 134.594 139.256 132.158 142.26 132.158C145.265 132.158 147.7 134.594 147.7 137.599Z" stroke="black" stroke-width="2"/>
<path d="M147.7 39.2303C147.7 42.2353 145.265 44.6711 142.26 44.6711C139.256 44.6711 136.821 42.2353 136.821 39.2303C136.821 36.2253 139.256 33.7895 142.26 33.7895C145.265 33.7895 147.7 36.2253 147.7 39.2303Z" stroke="#BDBDBD" stroke-width="2"/>
<path d="M147.7 88.4145C147.7 91.4196 145.265 93.8553 142.26 93.8553C139.256 93.8553 136.821 91.4196 136.821 88.4145C136.821 85.4095 139.256 82.9738 142.26 82.9738C145.265 82.9738 147.7 85.4095 147.7 88.4145Z" stroke="black" stroke-width="2"/>
<path d="M363.14 63.8224C363.14 66.8274 360.704 69.2632 357.7 69.2632C354.696 69.2632 352.26 66.8274 352.26 63.8224C352.26 60.8174 354.696 58.3816 357.7 58.3816C360.704 58.3816 363.14 60.8174 363.14 63.8224Z" stroke="#BDBDBD" stroke-width="2"/>
<path d="M363.14 113.007C363.14 116.012 360.704 118.447 357.7 118.447C354.696 118.447 352.26 116.012 352.26 113.007C352.26 110.002 354.696 107.566 357.7 107.566C360.704 107.566 363.14 110.002 363.14 113.007Z" stroke="#BDBDBD" stroke-width="2"/>
<path d="M363.14 14.6382C363.14 17.6432 360.704 20.079 357.7 20.079C354.696 20.079 352.26 17.6432 352.26 14.6382C352.26 11.6332 354.696 9.19739 357.7 9.19739C360.704 9.19739 363.14 11.6332 363.14 14.6382Z" stroke="#BDBDBD" stroke-width="2"/>
<path d="M363.14 137.599C363.14 140.604 360.704 143.04 357.7 143.04C354.696 143.04 352.26 140.604 352.26 137.599C352.26 134.594 354.696 132.158 357.7 132.158C360.704 132.158 363.14 134.594 363.14 137.599Z" stroke="#BDBDBD" stroke-width="2"/>
<path d="M363.14 39.2303C363.14 42.2353 360.704 44.6711 357.7 44.6711C354.696 44.6711 352.26 42.2353 352.26 39.2303C352.26 36.2253 354.696 33.7895 357.7 33.7895C360.704 33.7895 363.14 36.2253 363.14 39.2303Z" stroke="#BDBDBD" stroke-width="2"/>
<path d="M363.14 88.4145C363.14 91.4196 360.704 93.8553 357.7 93.8553C354.696 93.8553 352.26 91.4196 352.26 88.4145C352.26 85.4095 354.696 82.9738 357.7 82.9738C360.704 82.9738 363.14 85.4095 363.14 88.4145Z" fill="#BDBDBD" stroke="#BDBDBD" stroke-width="2"/>
<path d="M93.8402 63.8224C93.8402 66.8274 91.4046 69.2632 88.4005 69.2632C85.3963 69.2632 82.9607 66.8274 82.9607 63.8224C82.9607 60.8174 85.3963 58.3816 88.4005 58.3816C91.4046 58.3816 93.8402 60.8174 93.8402 63.8224Z" fill="black" stroke="black" stroke-width="2"/>
<path d="M93.8402 113.007C93.8402 116.012 91.4046 118.447 88.4005 118.447C85.3963 118.447 82.9607 116.012 82.9607 113.007C82.9607 110.002 85.3963 107.566 88.4005 107.566C91.4046 107.566 93.8402 110.002 93.8402 113.007Z" stroke="black" stroke-width="2"/>
<path d="M93.8402 14.6382C93.8402 17.6432 91.4046 20.079 88.4005 20.079C85.3963 20.079 82.9607 17.6432 82.9607 14.6382C82.9607 11.6332 85.3963 9.19739 88.4005 9.19739C91.4046 9.19739 93.8402 11.6332 93.8402 14.6382Z" stroke="#BDBDBD" stroke-width="2"/>
<path d="M93.8402 137.599C93.8402 140.604 91.4046 143.04 88.4005 143.04C85.3963 143.04 82.9607 140.604 82.9607 137.599C82.9607 134.594 85.3963 132.158 88.4005 132.158C91.4046 132.158 93.8402 134.594 93.8402 137.599Z" stroke="black" stroke-width="2"/>
<path d="M93.8402 39.2303C93.8402 42.2353 91.4046 44.6711 88.4005 44.6711C85.3963 44.6711 82.9607 42.2353 82.9607 39.2303C82.9607 36.2253 85.3963 33.7895 88.4005 33.7895C91.4046 33.7895 93.8402 36.2253 93.8402 39.2303Z" stroke="#BDBDBD" stroke-width="2"/>
<path d="M93.8402 88.4145C93.8402 91.4196 91.4046 93.8553 88.4005 93.8553C85.3963 93.8553 82.9607 91.4196 82.9607 88.4145C82.9607 85.4095 85.3963 82.9738 88.4005 82.9738C91.4046 82.9738 93.8402 85.4095 93.8402 88.4145Z" stroke="black" stroke-width="2"/>
<path d="M309.28 63.8224C309.28 66.8274 306.845 69.2632 303.84 69.2632C300.836 69.2632 298.401 66.8274 298.401 63.8224C298.401 60.8174 300.836 58.3816 303.84 58.3816C306.845 58.3816 309.28 60.8174 309.28 63.8224Z" fill="black" stroke="black" stroke-width="2"/>
<path d="M309.28 113.007C309.28 116.012 306.845 118.447 303.84 118.447C300.836 118.447 298.401 116.012 298.401 113.007C298.401 110.002 300.836 107.566 303.84 107.566C306.845 107.566 309.28 110.002 309.28 113.007Z" stroke="black" stroke-width="2"/>
<path d="M309.28 14.6382C309.28 17.6432 306.845 20.079 303.84 20.079C300.836 20.079 298.401 17.6432 298.401 14.6382C298.401 11.6332 300.836 9.19739 303.84 9.19739C306.845 9.19739 309.28 11.6332 309.28 14.6382Z" stroke="#BDBDBD" stroke-width="2"/>
<path d="M309.28 137.599C309.28 140.604 306.845 143.04 303.84 143.04C300.836 143.04 298.401 140.604 298.401 137.599C298.401 134.594 300.836 132.158 303.84 132.158C306.845 132.158 309.28 134.594 309.28 137.599Z" stroke="black" stroke-width="2"/>
<path d="M309.28 39.2303C309.28 42.2353 306.845 44.6711 303.84 44.6711C300.836 44.6711 298.401 42.2353 298.401 39.2303C298.401 36.2253 300.836 33.7895 303.84 33.7895C306.845 33.7895 309.28 36.2253 309.28 39.2303Z" stroke="#BDBDBD" stroke-width="2"/>
<path d="M309.28 88.4145C309.28 91.4196 306.845 93.8553 303.84 93.8553C300.836 93.8553 298.401 91.4196 298.401 88.4145C298.401 85.4095 300.836 82.9738 303.84 82.9738C306.845 82.9738 309.28 85.4095 309.28 88.4145Z" stroke="black" stroke-width="2"/>
<path d="M201.56 63.8224C201.56 66.8274 199.125 69.2632 196.12 69.2632C193.116 69.2632 190.681 66.8274 190.681 63.8224C190.681 60.8174 193.116 58.3816 196.12 58.3816C199.125 58.3816 201.56 60.8174 201.56 63.8224Z" stroke="#BDBDBD" stroke-width="2"/>
<path d="M201.56 113.007C201.56 116.012 199.125 118.447 196.12 118.447C193.116 118.447 190.681 116.012 190.681 113.007C190.681 110.002 193.116 107.566 196.12 107.566C199.125 107.566 201.56 110.002 201.56 113.007Z" stroke="black" stroke-width="2"/>
<path d="M201.56 14.6382C201.56 17.6432 199.125 20.079 196.12 20.079C193.116 20.079 190.681 17.6432 190.681 14.6382C190.681 11.6332 193.116 9.19739 196.12 9.19739C199.125 9.19739 201.56 11.6332 201.56 14.6382Z" stroke="#BDBDBD" stroke-width="2"/>
<path d="M201.56 137.599C201.56 140.604 199.125 143.04 196.12 143.04C193.116 143.04 190.681 140.604 190.681 137.599C190.681 134.594 193.116 132.158 196.12 132.158C199.125 132.158 201.56 134.594 201.56 137.599Z" stroke="black" stroke-width="2"/>
<path d="M201.56 39.2303C201.56 42.2353 199.125 44.6711 196.12 44.6711C193.116 44.6711 190.681 42.2353 190.681 39.2303C190.681 36.2253 193.116 33.7895 196.12 33.7895C199.125 33.7895 201.56 36.2253 201.56 39.2303Z" stroke="#BDBDBD" stroke-width="2"/>
<path d="M201.56 88.4145C201.56 91.4196 199.125 93.8553 196.12 93.8553C193.116 93.8553 190.681 91.4196 190.681 88.4145C190.681 85.4095 193.116 82.9738 196.12 82.9738C199.125 82.9738 201.56 85.4095 201.56 88.4145Z" fill="black" stroke="black" stroke-width="2"/>
<path d="M417 63.8224C417 66.8274 414.564 69.2632 411.56 69.2632C408.556 69.2632 406.12 66.8274 406.12 63.8224C406.12 60.8174 408.556 58.3816 411.56 58.3816C414.564 58.3816 417 60.8174 417 63.8224Z" fill="#BDBDBD" stroke="#BDBDBD" stroke-width="2"/>
<path d="M417 113.007C417 116.012 414.564 118.447 411.56 118.447C408.556 118.447 406.12 116.012 406.12 113.007C406.12 110.002 408.556 107.566 411.56 107.566C414.564 107.566 417 110.002 417 113.007Z" stroke="#BDBDBD" stroke-width="2"/>
<path d="M417 14.6382C417 17.6432 414.564 20.079 411.56 20.079C408.556 20.079 406.12 17.6432 406.12 14.6382C406.12 11.6332 408.556 9.19739 411.56 9.19739C414.564 9.19739 417 11.6332 417 14.6382Z" stroke="#BDBDBD" stroke-width="2"/>
<path d="M417 137.599C417 140.604 414.564 143.04 411.56 143.04C408.556 143.04 406.12 140.604 406.12 137.599C406.12 134.594 408.556 132.158 411.56 132.158C414.564 132.158 417 134.594 417 137.599Z" stroke="#BDBDBD" stroke-width="2"/>
<path d="M417 39.2303C417 42.2353 414.564 44.6711 411.56 44.6711C408.556 44.6711 406.12 42.2353 406.12 39.2303C406.12 36.2253 408.556 33.7895 411.56 33.7895C414.564 33.7895 417 36.2253 417 39.2303Z" stroke="#BDBDBD" stroke-width="2"/>
<path d="M417 88.4145C417 91.4196 414.564 93.8553 411.56 93.8553C408.556 93.8553 406.12 91.4196 406.12 88.4145C406.12 85.4095 408.556 82.9738 411.56 82.9738C414.564 82.9738 417 85.4095 417 88.4145Z" stroke="#BDBDBD" stroke-width="2"/>
<path d="M7.1131 170.619C9.78498 170.619 11.7449 168.8 11.7449 166.268V166.251C11.7449 163.851 9.99591 162.085 7.57013 162.085C5.84748 162.085 4.56427 162.981 4.0633 164.124H4.01935C4.02814 161.452 4.90705 159.167 7.17462 159.167C8.38751 159.167 9.21369 159.764 9.57404 160.714L9.60041 160.802H11.5779L11.5516 160.696C11.1473 158.806 9.45099 157.514 7.1922 157.514C4.01935 157.514 2.1297 160.01 2.1297 164.238V164.256C2.1297 168.817 4.52033 170.619 7.1131 170.619ZM4.40607 166.277V166.268C4.40607 164.765 5.57501 163.684 7.1131 163.684C8.65998 163.684 9.78498 164.774 9.78498 166.303V166.321C9.78498 167.798 8.58966 168.967 7.08673 168.967C5.5838 168.967 4.40607 167.78 4.40607 166.277Z" fill="#828282"/>
<path d="M164.049 170.408H165.974V157.725H164.031L160.691 160.098V161.962L164.005 159.677H164.049V170.408ZM169.067 170.408H177.742V168.747H171.704V168.668L174.587 165.838C176.863 163.588 177.54 162.559 177.54 161.109V161.092C177.54 159.044 175.8 157.514 173.365 157.514C170.887 157.514 168.962 159.158 168.962 161.426V161.478H170.825V161.426C170.843 160.142 171.906 159.14 173.392 159.14C174.675 159.14 175.589 160.002 175.598 161.206V161.223C175.598 162.208 175.22 162.876 173.532 164.563L169.067 169.054V170.408Z" fill="#828282"/>
<path d="M325.88 170.408H327.805V157.725H325.863L322.523 160.098V161.962L325.836 159.677H325.88V170.408ZM335.469 170.619C338.282 170.619 340.259 169.116 340.259 166.971V166.954C340.259 165.354 339.117 164.089 337.464 163.728V163.684C338.879 163.28 339.802 162.225 339.802 160.881V160.863C339.802 158.929 337.992 157.514 335.469 157.514C332.947 157.514 331.145 158.929 331.145 160.863V160.881C331.145 162.225 332.068 163.28 333.483 163.684V163.728C331.83 164.089 330.679 165.354 330.679 166.954V166.971C330.679 169.116 332.665 170.619 335.469 170.619ZM335.469 163.025C334.063 163.025 333.096 162.208 333.096 161.056V161.039C333.096 159.879 334.063 159.07 335.469 159.07C336.875 159.07 337.851 159.879 337.851 161.039V161.056C337.851 162.208 336.884 163.025 335.469 163.025ZM335.469 169.046C333.852 169.046 332.701 168.123 332.701 166.84V166.822C332.701 165.53 333.843 164.598 335.469 164.598C337.095 164.598 338.238 165.53 338.238 166.822V166.84C338.238 168.123 337.086 169.046 335.469 169.046Z" fill="#828282"/>
</svg>
