<svg width="56" height="42" viewBox="0 0 56 42" fill="none" xmlns="http://www.w3.org/2000/svg">
<path d="M28.9827 26.2548C34.0817 26.286 44.6522 26.7648 44.6522 34.1068C44.6522 41.4852 33.7011 41.9664 28.9082 41.9978L28.0008 42C27.0566 42 26.2902 41.2295 26.2902 40.2801C26.2902 39.3307 27.0566 38.5602 28.0008 38.5602C34.0355 38.5602 41.2312 37.7874 41.2312 34.1068C41.2312 31.1761 36.7815 29.6924 28.0008 29.6924C21.966 29.6924 14.7704 30.4652 14.7704 34.1481C14.7704 34.969 15.0099 36.0262 16.8778 36.9458C17.6441 37.3242 18.6157 37.6406 19.7606 37.886C20.6843 38.0832 21.275 38.9982 21.0765 39.9269C20.8804 40.8557 19.9681 41.4565 19.049 41.2501C17.6304 40.9451 16.3942 40.5369 15.3725 40.037C12.0472 38.3974 11.3493 35.9299 11.3493 34.1481C11.3493 26.7675 22.3004 26.2862 27.0933 26.2548L28.9827 26.2548ZM45.466 24.7003C46.7318 24.7852 48.0044 24.9709 49.2542 25.2484C52.039 25.8033 53.875 26.9431 54.6755 28.6286C55.3437 30.0389 55.3437 31.6533 54.6755 33.0636C53.8841 34.7354 52.0527 35.8797 49.2269 36.4644C49.1128 36.4897 48.9965 36.5011 48.8802 36.5011C48.0865 36.5011 47.3749 35.9393 47.2084 35.1275C47.0191 34.1965 47.6144 33.2861 48.5404 33.0957C50.8735 32.6119 51.4483 31.878 51.5874 31.5845C51.8086 31.1167 51.8086 30.5778 51.5874 30.11C51.2955 29.4931 50.162 28.9359 48.5518 28.6148C47.432 28.3671 46.3281 28.2043 45.2379 28.1309C44.2937 28.069 43.5821 27.2458 43.646 26.2987C43.7076 25.3516 44.5309 24.6499 45.466 24.7003ZM10.5527 24.665C11.4649 24.5939 12.3111 25.3163 12.375 26.2634C12.4388 27.2127 11.7272 28.0337 10.783 28.0956C9.68371 28.169 8.57985 28.3318 7.50108 28.5749C5.84528 28.9028 4.70721 29.4624 4.413 30.0815C4.19177 30.5516 4.19177 31.0951 4.413 31.5652C4.5544 31.8611 5.12914 32.5972 7.47143 33.081C8.39739 33.2714 8.99266 34.1795 8.80336 35.1105C8.63915 35.9246 7.92529 36.4842 7.12932 36.4842C7.01529 36.4842 6.90125 36.4727 6.78493 36.4498C3.95457 35.8673 2.1186 34.7207 1.32492 33.0421C0.656669 31.6317 0.656669 30.015 1.32492 28.6047C2.12773 26.91 3.96826 25.7657 6.79634 25.2062C8.00283 24.9356 9.28231 24.7498 10.5527 24.665ZM28.0015 0C34.2232 0 39.2864 5.08862 39.2864 11.3468C39.2864 17.6049 34.2232 22.6935 28.0015 22.6935C25.4539 22.6935 23.0523 21.8703 21.059 20.3109C20.3132 19.7284 20.1786 18.6483 20.7579 17.8984C21.3349 17.1463 22.4137 17.0133 23.1595 17.598C24.5462 18.6804 26.2202 19.2537 28.0015 19.2537C32.3394 19.2537 35.8653 15.7061 35.8653 11.3468C35.8653 6.98739 32.3394 3.4398 28.0015 3.4398C23.6635 3.4398 20.1353 6.98739 20.1353 11.3468C20.1353 12.2962 19.369 13.0667 18.4248 13.0667C17.4805 13.0667 16.7142 12.2962 16.7142 11.3468C16.7142 5.08862 21.7774 0 28.0015 0ZM42.0413 2.34962C46.9539 2.34962 50.952 6.36731 50.952 11.3092C50.952 16.2487 46.9539 20.2687 42.0413 20.2687C41.0971 20.2687 40.3307 19.4982 40.3307 18.5488C40.3307 17.5994 41.0971 16.8289 42.0413 16.8289C45.0678 16.8289 47.5309 14.3522 47.5309 11.3092C47.5309 8.26608 45.0678 5.78942 42.0413 5.78942C41.0971 5.78942 40.3307 5.0189 40.3307 4.06952C40.3307 3.11784 41.0971 2.34962 42.0413 2.34962ZM13.9879 2.25468C14.9321 2.25468 15.6984 3.02519 15.6984 3.97458C15.6984 4.92396 14.9321 5.69448 13.9879 5.69448C10.95 5.69448 8.47768 8.18031 8.47768 11.2349C8.47768 14.2894 10.95 16.7729 13.9879 16.7729C14.9321 16.7729 15.6984 17.5435 15.6984 18.4928C15.6984 19.4422 14.9321 20.2127 13.9879 20.2127C9.06382 20.2127 5.05661 16.1859 5.05661 11.2349C5.05661 6.28383 9.06382 2.25468 13.9879 2.25468Z" fill="black"/>
</svg>
