<svg width="418" height="178" viewBox="0 0 418 178" fill="none" xmlns="http://www.w3.org/2000/svg">
<path d="M325.996 170.619C328.8 170.619 330.9 168.922 331.296 166.4L331.305 166.312H329.354L329.327 166.391C328.853 168 327.684 168.879 325.996 168.879C323.649 168.879 322.129 166.998 322.129 164.062V164.053C322.129 161.118 323.641 159.255 325.996 159.255C327.701 159.255 328.879 160.16 329.301 161.645L329.354 161.821H331.305L331.287 161.742C330.892 159.237 328.791 157.514 325.996 157.514C322.401 157.514 320.116 160.028 320.116 164.053V164.062C320.116 168.088 322.401 170.619 325.996 170.619ZM335.655 170.408H337.545L340.278 160.845H340.322L343.047 170.408H344.937L348.364 157.725H346.316L343.952 167.666H343.908L341.228 157.725H339.364L336.684 167.666H336.648L334.284 157.725H332.236L335.655 170.408ZM355.299 170.408H357.188V167.885H358.937V166.233H357.188V157.725H354.341L348.953 166.172V167.885H355.299V170.408ZM350.781 166.259V166.207L355.264 159.281H355.316V166.259H350.781ZM363.604 170.408H365.529V157.725H363.587L360.247 160.098V161.962L363.561 159.676H363.604V170.408ZM372.235 170.408H374.134V164.844C374.134 163.535 374.89 162.717 376.111 162.717C376.48 162.717 376.814 162.761 376.964 162.823V161.056C376.814 161.03 376.577 160.986 376.305 160.986C375.215 160.986 374.389 161.636 374.107 162.691H374.063V161.162H372.235V170.408ZM381.684 170.592C383.925 170.592 385.349 169.256 385.647 167.789L385.665 167.692H383.863L383.837 167.762C383.6 168.457 382.853 169.037 381.728 169.037C380.216 169.037 379.258 168.017 379.223 166.268H385.771V165.627C385.771 162.849 384.18 160.986 381.587 160.986C378.994 160.986 377.324 162.92 377.324 165.811V165.82C377.324 168.738 378.968 170.592 381.684 170.592ZM381.596 162.542C382.835 162.542 383.731 163.324 383.89 164.923H379.249C379.416 163.377 380.365 162.542 381.596 162.542ZM387.247 173.484H389.146V168.852H389.189C389.734 169.924 390.798 170.592 392.107 170.592C394.428 170.592 395.948 168.738 395.948 165.794V165.785C395.948 162.832 394.437 160.986 392.081 160.986C390.763 160.986 389.743 161.654 389.189 162.753H389.146V161.162H387.247V173.484ZM391.589 168.958C390.156 168.958 389.137 167.71 389.137 165.794V165.785C389.137 163.86 390.147 162.612 391.589 162.612C393.074 162.612 394.015 163.816 394.015 165.785V165.794C394.015 167.745 393.083 168.958 391.589 168.958ZM401.397 170.592C404.043 170.592 405.783 168.764 405.783 165.785V165.767C405.783 162.805 404.025 160.986 401.389 160.986C398.761 160.986 397.012 162.814 397.012 165.767V165.785C397.012 168.755 398.743 170.592 401.397 170.592ZM401.406 169.002C399.921 169.002 398.954 167.833 398.954 165.785V165.767C398.954 163.746 399.93 162.577 401.389 162.577C402.874 162.577 403.841 163.746 403.841 165.767V165.785C403.841 167.824 402.892 169.002 401.406 169.002ZM407.251 170.408H409.149V164.844C409.149 163.535 409.905 162.717 411.127 162.717C411.496 162.717 411.83 162.761 411.979 162.823V161.056C411.83 161.03 411.593 160.986 411.32 160.986C410.23 160.986 409.404 161.636 409.123 162.691H409.079V161.162H407.251V170.408ZM416.4 170.592C416.787 170.592 417.147 170.548 417.367 170.513V169.046C417.227 169.063 417.06 169.081 416.857 169.081C416.058 169.081 415.636 168.799 415.636 167.859V162.673H417.367V161.162H415.636V158.754H413.693V161.162H412.366V162.673H413.693V167.973C413.693 169.819 414.572 170.592 416.4 170.592Z" fill="#828282"/>
<path d="M11.9157 55.625C11.9157 58.6274 9.47466 61.0658 6.45787 61.0658C3.44107 61.0658 1 58.6274 1 55.625C1 52.6226 3.44107 50.1842 6.45787 50.1842C9.47466 50.1842 11.9157 52.6226 11.9157 55.625Z" fill="black" stroke="black" stroke-width="2"/>
<path d="M11.9157 104.809C11.9157 107.812 9.47466 110.25 6.45787 110.25C3.44107 110.25 1 107.812 1 104.809C1 101.807 3.44107 99.3684 6.45787 99.3684C9.47466 99.3684 11.9157 101.807 11.9157 104.809Z" stroke="#BDBDBD" stroke-width="2"/>
<path d="M11.9157 6.44079C11.9157 9.44316 9.47466 11.8816 6.45787 11.8816C3.44107 11.8816 1 9.44316 1 6.44079C1 3.43842 3.44107 1 6.45787 1C9.47466 1 11.9157 3.43842 11.9157 6.44079Z" stroke="#BDBDBD" stroke-width="2"/>
<path d="M11.9157 129.401C11.9157 132.404 9.47466 134.842 6.45787 134.842C3.44107 134.842 1 132.404 1 129.401C1 126.399 3.44107 123.961 6.45787 123.961C9.47466 123.961 11.9157 126.399 11.9157 129.401Z" stroke="#BDBDBD" stroke-width="2"/>
<path d="M11.9157 31.0329C11.9157 34.0353 9.47466 36.4737 6.45787 36.4737C3.44107 36.4737 1 34.0353 1 31.0329C1 28.0305 3.44107 25.5921 6.45787 25.5921C9.47466 25.5921 11.9157 28.0305 11.9157 31.0329Z" stroke="#BDBDBD" stroke-width="2"/>
<path d="M11.9157 80.2171C11.9157 83.2195 9.47466 85.6579 6.45787 85.6579C3.44107 85.6579 1 83.2195 1 80.2171C1 77.2147 3.44107 74.7763 6.45787 74.7763C9.47466 74.7763 11.9157 77.2147 11.9157 80.2171Z" stroke="#BDBDBD" stroke-width="2"/>
<path d="M227.961 55.625C227.961 58.6274 225.52 61.0658 222.503 61.0658C219.486 61.0658 217.045 58.6274 217.045 55.625C217.045 52.6226 219.486 50.1842 222.503 50.1842C225.52 50.1842 227.961 52.6226 227.961 55.625Z" stroke="#BDBDBD" stroke-width="2"/>
<path d="M227.961 104.809C227.961 107.812 225.52 110.25 222.503 110.25C219.486 110.25 217.045 107.812 217.045 104.809C217.045 101.807 219.486 99.3684 222.503 99.3684C225.52 99.3684 227.961 101.807 227.961 104.809Z" fill="black" stroke="black" stroke-width="2"/>
<path d="M227.961 6.44079C227.961 9.44316 225.52 11.8816 222.503 11.8816C219.486 11.8816 217.045 9.44316 217.045 6.44079C217.045 3.43842 219.486 1 222.503 1C225.52 1 227.961 3.43842 227.961 6.44079Z" stroke="#BDBDBD" stroke-width="2"/>
<path d="M227.961 129.401C227.961 132.404 225.52 134.842 222.503 134.842C219.486 134.842 217.045 132.404 217.045 129.401C217.045 126.399 219.486 123.961 222.503 123.961C225.52 123.961 227.961 126.399 227.961 129.401Z" stroke="#BDBDBD" stroke-width="2"/>
<path d="M227.961 31.0329C227.961 34.0353 225.52 36.4737 222.503 36.4737C219.486 36.4737 217.045 34.0353 217.045 31.0329C217.045 28.0305 219.486 25.5921 222.503 25.5921C225.52 25.5921 227.961 28.0305 227.961 31.0329Z" stroke="#BDBDBD" stroke-width="2"/>
<path d="M227.961 80.2171C227.961 83.2195 225.52 85.6579 222.503 85.6579C219.486 85.6579 217.045 83.2195 217.045 80.2171C217.045 77.2147 219.486 74.7763 222.503 74.7763C225.52 74.7763 227.961 77.2147 227.961 80.2171Z" stroke="#BDBDBD" stroke-width="2"/>
<path d="M119.938 55.625C119.938 58.6274 117.497 61.0658 114.48 61.0658C111.464 61.0658 109.022 58.6274 109.022 55.625C109.022 52.6226 111.464 50.1842 114.48 50.1842C117.497 50.1842 119.938 52.6226 119.938 55.625Z" stroke="#BDBDBD" stroke-width="2"/>
<path d="M119.938 104.809C119.938 107.812 117.497 110.25 114.48 110.25C111.464 110.25 109.022 107.812 109.022 104.809C109.022 101.807 111.464 99.3684 114.48 99.3684C117.497 99.3684 119.938 101.807 119.938 104.809Z" stroke="#BDBDBD" stroke-width="2"/>
<path d="M119.938 6.44079C119.938 9.44316 117.497 11.8816 114.48 11.8816C111.464 11.8816 109.022 9.44316 109.022 6.44079C109.022 3.43842 111.464 1 114.48 1C117.497 1 119.938 3.43842 119.938 6.44079Z" stroke="#BDBDBD" stroke-width="2"/>
<path d="M119.938 129.401C119.938 132.404 117.497 134.842 114.48 134.842C111.464 134.842 109.022 132.404 109.022 129.401C109.022 126.399 111.464 123.961 114.48 123.961C117.497 123.961 119.938 126.399 119.938 129.401Z" stroke="#BDBDBD" stroke-width="2"/>
<path d="M119.938 31.0329C119.938 34.0353 117.497 36.4737 114.48 36.4737C111.464 36.4737 109.022 34.0353 109.022 31.0329C109.022 28.0305 111.464 25.5921 114.48 25.5921C117.497 25.5921 119.938 28.0305 119.938 31.0329Z" fill="black" stroke="black" stroke-width="2"/>
<path d="M119.938 80.2171C119.938 83.2195 117.497 85.6579 114.48 85.6579C111.464 85.6579 109.022 83.2195 109.022 80.2171C109.022 77.2147 111.464 74.7763 114.48 74.7763C117.497 74.7763 119.938 77.2147 119.938 80.2171Z" stroke="#BDBDBD" stroke-width="2"/>
<path d="M335.983 55.625C335.983 58.6274 333.542 61.0658 330.525 61.0658C327.508 61.0658 325.067 58.6274 325.067 55.625C325.067 52.6226 327.508 50.1842 330.525 50.1842C333.542 50.1842 335.983 52.6226 335.983 55.625Z" stroke="#BDBDBD" stroke-width="2"/>
<path d="M335.983 104.809C335.983 107.812 333.542 110.25 330.525 110.25C327.508 110.25 325.067 107.812 325.067 104.809C325.067 101.807 327.508 99.3684 330.525 99.3684C333.542 99.3684 335.983 101.807 335.983 104.809Z" stroke="#BDBDBD" stroke-width="2"/>
<path d="M335.983 6.44079C335.983 9.44316 333.542 11.8816 330.525 11.8816C327.508 11.8816 325.067 9.44316 325.067 6.44079C325.067 3.43842 327.508 1 330.525 1C333.542 1 335.983 3.43842 335.983 6.44079Z" fill="#EB5757" stroke="#EB5757" stroke-width="2"/>
<path d="M335.983 129.401C335.983 132.404 333.542 134.842 330.525 134.842C327.508 134.842 325.067 132.404 325.067 129.401C325.067 126.399 327.508 123.961 330.525 123.961C333.542 123.961 335.983 126.399 335.983 129.401Z" stroke="#BDBDBD" stroke-width="2"/>
<path d="M335.983 31.0329C335.983 34.0353 333.542 36.4737 330.525 36.4737C327.508 36.4737 325.067 34.0353 325.067 31.0329C325.067 28.0305 327.508 25.5921 330.525 25.5921C333.542 25.5921 335.983 28.0305 335.983 31.0329Z" stroke="#BDBDBD" stroke-width="2"/>
<path d="M335.983 80.2171C335.983 83.2195 333.542 85.6579 330.525 85.6579C327.508 85.6579 325.067 83.2195 325.067 80.2171C325.067 77.2147 327.508 74.7763 330.525 74.7763C333.542 74.7763 335.983 77.2147 335.983 80.2171Z" stroke="#BDBDBD" stroke-width="2"/>
<path d="M65.927 55.625C65.927 58.6274 63.4859 61.0658 60.4691 61.0658C57.4523 61.0658 55.0112 58.6274 55.0112 55.625C55.0112 52.6226 57.4523 50.1842 60.4691 50.1842C63.4859 50.1842 65.927 52.6226 65.927 55.625Z" stroke="#BDBDBD" stroke-width="2"/>
<path d="M65.927 104.809C65.927 107.812 63.4859 110.25 60.4691 110.25C57.4523 110.25 55.0112 107.812 55.0112 104.809C55.0112 101.807 57.4523 99.3684 60.4691 99.3684C63.4859 99.3684 65.927 101.807 65.927 104.809Z" fill="black" stroke="black" stroke-width="2"/>
<path d="M65.927 6.44079C65.927 9.44316 63.4859 11.8816 60.4691 11.8816C57.4523 11.8816 55.0112 9.44316 55.0112 6.44079C55.0112 3.43842 57.4523 1 60.4691 1C63.4859 1 65.927 3.43842 65.927 6.44079Z" stroke="#BDBDBD" stroke-width="2"/>
<path d="M65.927 129.401C65.927 132.404 63.4859 134.842 60.4691 134.842C57.4523 134.842 55.0112 132.404 55.0112 129.401C55.0112 126.399 57.4523 123.961 60.4691 123.961C63.4859 123.961 65.927 126.399 65.927 129.401Z" stroke="#BDBDBD" stroke-width="2"/>
<path d="M65.927 31.0329C65.927 34.0353 63.4859 36.4737 60.4691 36.4737C57.4523 36.4737 55.0112 34.0353 55.0112 31.0329C55.0112 28.0305 57.4523 25.5921 60.4691 25.5921C63.4859 25.5921 65.927 28.0305 65.927 31.0329Z" stroke="#BDBDBD" stroke-width="2"/>
<path d="M65.927 80.2171C65.927 83.2195 63.4859 85.6579 60.4691 85.6579C57.4523 85.6579 55.0112 83.2195 55.0112 80.2171C55.0112 77.2147 57.4523 74.7763 60.4691 74.7763C63.4859 74.7763 65.927 77.2147 65.927 80.2171Z" stroke="#BDBDBD" stroke-width="2"/>
<path d="M281.972 55.625C281.972 58.6274 279.531 61.0658 276.514 61.0658C273.497 61.0658 271.056 58.6274 271.056 55.625C271.056 52.6226 273.497 50.1842 276.514 50.1842C279.531 50.1842 281.972 52.6226 281.972 55.625Z" stroke="#BDBDBD" stroke-width="2"/>
<path d="M281.972 104.809C281.972 107.812 279.531 110.25 276.514 110.25C273.497 110.25 271.056 107.812 271.056 104.809C271.056 101.807 273.497 99.3684 276.514 99.3684C279.531 99.3684 281.972 101.807 281.972 104.809Z" fill="black" stroke="black" stroke-width="2"/>
<path d="M281.972 6.44079C281.972 9.44316 279.531 11.8816 276.514 11.8816C273.497 11.8816 271.056 9.44316 271.056 6.44079C271.056 3.43842 273.497 1 276.514 1C279.531 1 281.972 3.43842 281.972 6.44079Z" stroke="#BDBDBD" stroke-width="2"/>
<path d="M281.972 129.401C281.972 132.404 279.531 134.842 276.514 134.842C273.497 134.842 271.056 132.404 271.056 129.401C271.056 126.399 273.497 123.961 276.514 123.961C279.531 123.961 281.972 126.399 281.972 129.401Z" stroke="#BDBDBD" stroke-width="2"/>
<path d="M281.972 31.0329C281.972 34.0353 279.531 36.4737 276.514 36.4737C273.497 36.4737 271.056 34.0353 271.056 31.0329C271.056 28.0305 273.497 25.5921 276.514 25.5921C279.531 25.5921 281.972 28.0305 281.972 31.0329Z" stroke="#BDBDBD" stroke-width="2"/>
<path d="M281.972 80.2171C281.972 83.2195 279.531 85.6579 276.514 85.6579C273.497 85.6579 271.056 83.2195 271.056 80.2171C271.056 77.2147 273.497 74.7763 276.514 74.7763C279.531 74.7763 281.972 77.2147 281.972 80.2171Z" stroke="#BDBDBD" stroke-width="2"/>
<path d="M173.95 55.625C173.95 58.6274 171.508 61.0658 168.492 61.0658C165.475 61.0658 163.034 58.6274 163.034 55.625C163.034 52.6226 165.475 50.1842 168.492 50.1842C171.508 50.1842 173.95 52.6226 173.95 55.625Z" stroke="#BDBDBD" stroke-width="2"/>
<path d="M173.95 104.809C173.95 107.812 171.508 110.25 168.492 110.25C165.475 110.25 163.034 107.812 163.034 104.809C163.034 101.807 165.475 99.3684 168.492 99.3684C171.508 99.3684 173.95 101.807 173.95 104.809Z" stroke="#BDBDBD" stroke-width="2"/>
<path d="M173.95 6.44079C173.95 9.44316 171.508 11.8816 168.492 11.8816C165.475 11.8816 163.034 9.44316 163.034 6.44079C163.034 3.43842 165.475 1 168.492 1C171.508 1 173.95 3.43842 173.95 6.44079Z" stroke="#BDBDBD" stroke-width="2"/>
<path d="M173.95 129.401C173.95 132.404 171.508 134.842 168.492 134.842C165.475 134.842 163.034 132.404 163.034 129.401C163.034 126.399 165.475 123.961 168.492 123.961C171.508 123.961 173.95 126.399 173.95 129.401Z" stroke="#BDBDBD" stroke-width="2"/>
<path d="M173.95 31.0329C173.95 34.0353 171.508 36.4737 168.492 36.4737C165.475 36.4737 163.034 34.0353 163.034 31.0329C163.034 28.0305 165.475 25.5921 168.492 25.5921C171.508 25.5921 173.95 28.0305 173.95 31.0329Z" stroke="#BDBDBD" stroke-width="2"/>
<path d="M173.95 80.2171C173.95 83.2195 171.508 85.6579 168.492 85.6579C165.475 85.6579 163.034 83.2195 163.034 80.2171C163.034 77.2147 165.475 74.7763 168.492 74.7763C171.508 74.7763 173.95 77.2147 173.95 80.2171Z" fill="black" stroke="black" stroke-width="2"/>
<path d="M389.994 55.625C389.994 58.6274 387.553 61.0658 384.536 61.0658C381.52 61.0658 379.079 58.6274 379.079 55.625C379.079 52.6226 381.52 50.1842 384.536 50.1842C387.553 50.1842 389.994 52.6226 389.994 55.625Z" stroke="#BDBDBD" stroke-width="2"/>
<path d="M389.994 104.809C389.994 107.812 387.553 110.25 384.536 110.25C381.52 110.25 379.079 107.812 379.079 104.809C379.079 101.807 381.52 99.3684 384.536 99.3684C387.553 99.3684 389.994 101.807 389.994 104.809Z" stroke="#BDBDBD" stroke-width="2"/>
<path d="M389.994 6.44079C389.994 9.44316 387.553 11.8816 384.536 11.8816C381.52 11.8816 379.079 9.44316 379.079 6.44079C379.079 3.43842 381.52 1 384.536 1C387.553 1 389.994 3.43842 389.994 6.44079Z" stroke="#BDBDBD" stroke-width="2"/>
<path d="M389.994 129.401C389.994 132.404 387.553 134.842 384.536 134.842C381.52 134.842 379.079 132.404 379.079 129.401C379.079 126.399 381.52 123.961 384.536 123.961C387.553 123.961 389.994 126.399 389.994 129.401Z" stroke="#BDBDBD" stroke-width="2"/>
<path d="M389.994 31.0329C389.994 34.0353 387.553 36.4737 384.536 36.4737C381.52 36.4737 379.079 34.0353 379.079 31.0329C379.079 28.0305 381.52 25.5921 384.536 25.5921C387.553 25.5921 389.994 28.0305 389.994 31.0329Z" stroke="#BDBDBD" stroke-width="2"/>
<path d="M389.994 80.2171C389.994 83.2195 387.553 85.6579 384.536 85.6579C381.52 85.6579 379.079 83.2195 379.079 80.2171C379.079 77.2147 381.52 74.7763 384.536 74.7763C387.553 74.7763 389.994 77.2147 389.994 80.2171Z" fill="black" stroke="black" stroke-width="2"/>
<path d="M38.9213 55.625C38.9213 58.6274 36.4803 61.0658 33.4635 61.0658C30.4467 61.0658 28.0056 58.6274 28.0056 55.625C28.0056 52.6226 30.4467 50.1842 33.4635 50.1842C36.4803 50.1842 38.9213 52.6226 38.9213 55.625Z" stroke="#BDBDBD" stroke-width="2"/>
<path d="M38.9213 104.809C38.9213 107.812 36.4803 110.25 33.4635 110.25C30.4467 110.25 28.0056 107.812 28.0056 104.809C28.0056 101.807 30.4467 99.3684 33.4635 99.3684C36.4803 99.3684 38.9213 101.807 38.9213 104.809Z" stroke="#BDBDBD" stroke-width="2"/>
<path d="M38.9213 6.44079C38.9213 9.44316 36.4803 11.8816 33.4635 11.8816C30.4467 11.8816 28.0056 9.44316 28.0056 6.44079C28.0056 3.43842 30.4467 1 33.4635 1C36.4803 1 38.9213 3.43842 38.9213 6.44079Z" fill="#EB5757" stroke="#EB5757" stroke-width="2"/>
<path d="M38.9213 129.401C38.9213 132.404 36.4803 134.842 33.4635 134.842C30.4467 134.842 28.0056 132.404 28.0056 129.401C28.0056 126.399 30.4467 123.961 33.4635 123.961C36.4803 123.961 38.9213 126.399 38.9213 129.401Z" stroke="#BDBDBD" stroke-width="2"/>
<path d="M38.9213 31.0329C38.9213 34.0353 36.4803 36.4737 33.4635 36.4737C30.4467 36.4737 28.0056 34.0353 28.0056 31.0329C28.0056 28.0305 30.4467 25.5921 33.4635 25.5921C36.4803 25.5921 38.9213 28.0305 38.9213 31.0329Z" stroke="#BDBDBD" stroke-width="2"/>
<path d="M38.9213 80.2171C38.9213 83.2195 36.4803 85.6579 33.4635 85.6579C30.4467 85.6579 28.0056 83.2195 28.0056 80.2171C28.0056 77.2147 30.4467 74.7763 33.4635 74.7763C36.4803 74.7763 38.9213 77.2147 38.9213 80.2171Z" stroke="#BDBDBD" stroke-width="2"/>
<path d="M254.966 55.625C254.966 58.6274 252.525 61.0658 249.508 61.0658C246.492 61.0658 244.051 58.6274 244.051 55.625C244.051 52.6226 246.492 50.1842 249.508 50.1842C252.525 50.1842 254.966 52.6226 254.966 55.625Z" stroke="#BDBDBD" stroke-width="2"/>
<path d="M254.966 104.809C254.966 107.812 252.525 110.25 249.508 110.25C246.492 110.25 244.051 107.812 244.051 104.809C244.051 101.807 246.492 99.3684 249.508 99.3684C252.525 99.3684 254.966 101.807 254.966 104.809Z" fill="black" stroke="black" stroke-width="2"/>
<path d="M254.966 6.44079C254.966 9.44316 252.525 11.8816 249.508 11.8816C246.492 11.8816 244.051 9.44316 244.051 6.44079C244.051 3.43842 246.492 1 249.508 1C252.525 1 254.966 3.43842 254.966 6.44079Z" stroke="#BDBDBD" stroke-width="2"/>
<path d="M254.966 129.401C254.966 132.404 252.525 134.842 249.508 134.842C246.492 134.842 244.051 132.404 244.051 129.401C244.051 126.399 246.492 123.961 249.508 123.961C252.525 123.961 254.966 126.399 254.966 129.401Z" stroke="#BDBDBD" stroke-width="2"/>
<path d="M254.966 31.0329C254.966 34.0353 252.525 36.4737 249.508 36.4737C246.492 36.4737 244.051 34.0353 244.051 31.0329C244.051 28.0305 246.492 25.5921 249.508 25.5921C252.525 25.5921 254.966 28.0305 254.966 31.0329Z" stroke="#BDBDBD" stroke-width="2"/>
<path d="M254.966 80.2171C254.966 83.2195 252.525 85.6579 249.508 85.6579C246.492 85.6579 244.051 83.2195 244.051 80.2171C244.051 77.2147 246.492 74.7763 249.508 74.7763C252.525 74.7763 254.966 77.2147 254.966 80.2171Z" stroke="#BDBDBD" stroke-width="2"/>
<path d="M146.944 55.625C146.944 58.6274 144.503 61.0658 141.486 61.0658C138.469 61.0658 136.028 58.6274 136.028 55.625C136.028 52.6226 138.469 50.1842 141.486 50.1842C144.503 50.1842 146.944 52.6226 146.944 55.625Z" fill="black" stroke="black" stroke-width="2"/>
<path d="M146.944 104.809C146.944 107.812 144.503 110.25 141.486 110.25C138.469 110.25 136.028 107.812 136.028 104.809C136.028 101.807 138.469 99.3684 141.486 99.3684C144.503 99.3684 146.944 101.807 146.944 104.809Z" stroke="#BDBDBD" stroke-width="2"/>
<path d="M146.944 6.44079C146.944 9.44316 144.503 11.8816 141.486 11.8816C138.469 11.8816 136.028 9.44316 136.028 6.44079C136.028 3.43842 138.469 1 141.486 1C144.503 1 146.944 3.43842 146.944 6.44079Z" stroke="#BDBDBD" stroke-width="2"/>
<path d="M146.944 129.401C146.944 132.404 144.503 134.842 141.486 134.842C138.469 134.842 136.028 132.404 136.028 129.401C136.028 126.399 138.469 123.961 141.486 123.961C144.503 123.961 146.944 126.399 146.944 129.401Z" stroke="#BDBDBD" stroke-width="2"/>
<path d="M146.944 31.0329C146.944 34.0353 144.503 36.4737 141.486 36.4737C138.469 36.4737 136.028 34.0353 136.028 31.0329C136.028 28.0305 138.469 25.5921 141.486 25.5921C144.503 25.5921 146.944 28.0305 146.944 31.0329Z" stroke="#BDBDBD" stroke-width="2"/>
<path d="M146.944 80.2171C146.944 83.2195 144.503 85.6579 141.486 85.6579C138.469 85.6579 136.028 83.2195 136.028 80.2171C136.028 77.2147 138.469 74.7763 141.486 74.7763C144.503 74.7763 146.944 77.2147 146.944 80.2171Z" stroke="#BDBDBD" stroke-width="2"/>
<path d="M362.989 55.625C362.989 58.6274 360.548 61.0658 357.531 61.0658C354.514 61.0658 352.073 58.6274 352.073 55.625C352.073 52.6226 354.514 50.1842 357.531 50.1842C360.548 50.1842 362.989 52.6226 362.989 55.625Z" stroke="#BDBDBD" stroke-width="2"/>
<path d="M362.989 104.809C362.989 107.812 360.548 110.25 357.531 110.25C354.514 110.25 352.073 107.812 352.073 104.809C352.073 101.807 354.514 99.3684 357.531 99.3684C360.548 99.3684 362.989 101.807 362.989 104.809Z" stroke="#BDBDBD" stroke-width="2"/>
<path d="M362.989 6.44079C362.989 9.44316 360.548 11.8816 357.531 11.8816C354.514 11.8816 352.073 9.44316 352.073 6.44079C352.073 3.43842 354.514 1 357.531 1C360.548 1 362.989 3.43842 362.989 6.44079Z" stroke="#BDBDBD" stroke-width="2"/>
<path d="M362.989 129.401C362.989 132.404 360.548 134.842 357.531 134.842C354.514 134.842 352.073 132.404 352.073 129.401C352.073 126.399 354.514 123.961 357.531 123.961C360.548 123.961 362.989 126.399 362.989 129.401Z" stroke="#BDBDBD" stroke-width="2"/>
<path d="M362.989 31.0329C362.989 34.0353 360.548 36.4737 357.531 36.4737C354.514 36.4737 352.073 34.0353 352.073 31.0329C352.073 28.0305 354.514 25.5921 357.531 25.5921C360.548 25.5921 362.989 28.0305 362.989 31.0329Z" stroke="#BDBDBD" stroke-width="2"/>
<path d="M362.989 80.2171C362.989 83.2195 360.548 85.6579 357.531 85.6579C354.514 85.6579 352.073 83.2195 352.073 80.2171C352.073 77.2147 354.514 74.7763 357.531 74.7763C360.548 74.7763 362.989 77.2147 362.989 80.2171Z" fill="black" stroke="black" stroke-width="2"/>
<path d="M92.9326 55.625C92.9326 58.6274 90.4915 61.0658 87.4747 61.0658C84.4579 61.0658 82.0168 58.6274 82.0168 55.625C82.0168 52.6226 84.4579 50.1842 87.4747 50.1842C90.4915 50.1842 92.9326 52.6226 92.9326 55.625Z" fill="black" stroke="black" stroke-width="2"/>
<path d="M92.9326 104.809C92.9326 107.812 90.4915 110.25 87.4747 110.25C84.4579 110.25 82.0168 107.812 82.0168 104.809C82.0168 101.807 84.4579 99.3684 87.4747 99.3684C90.4915 99.3684 92.9326 101.807 92.9326 104.809Z" stroke="#BDBDBD" stroke-width="2"/>
<path d="M92.9326 6.44079C92.9326 9.44316 90.4915 11.8816 87.4747 11.8816C84.4579 11.8816 82.0168 9.44316 82.0168 6.44079C82.0168 3.43842 84.4579 1 87.4747 1C90.4915 1 92.9326 3.43842 92.9326 6.44079Z" stroke="#BDBDBD" stroke-width="2"/>
<path d="M92.9326 129.401C92.9326 132.404 90.4915 134.842 87.4747 134.842C84.4579 134.842 82.0168 132.404 82.0168 129.401C82.0168 126.399 84.4579 123.961 87.4747 123.961C90.4915 123.961 92.9326 126.399 92.9326 129.401Z" stroke="#BDBDBD" stroke-width="2"/>
<path d="M92.9326 31.0329C92.9326 34.0353 90.4915 36.4737 87.4747 36.4737C84.4579 36.4737 82.0168 34.0353 82.0168 31.0329C82.0168 28.0305 84.4579 25.5921 87.4747 25.5921C90.4915 25.5921 92.9326 28.0305 92.9326 31.0329Z" stroke="#BDBDBD" stroke-width="2"/>
<path d="M92.9326 80.2171C92.9326 83.2195 90.4915 85.6579 87.4747 85.6579C84.4579 85.6579 82.0168 83.2195 82.0168 80.2171C82.0168 77.2147 84.4579 74.7763 87.4747 74.7763C90.4915 74.7763 92.9326 77.2147 92.9326 80.2171Z" stroke="#BDBDBD" stroke-width="2"/>
<path d="M308.977 55.625C308.977 58.6274 306.536 61.0658 303.52 61.0658C300.503 61.0658 298.062 58.6274 298.062 55.625C298.062 52.6226 300.503 50.1842 303.52 50.1842C306.536 50.1842 308.977 52.6226 308.977 55.625Z" fill="black" stroke="black" stroke-width="2"/>
<path d="M308.977 104.809C308.977 107.812 306.536 110.25 303.52 110.25C300.503 110.25 298.062 107.812 298.062 104.809C298.062 101.807 300.503 99.3684 303.52 99.3684C306.536 99.3684 308.977 101.807 308.977 104.809Z" stroke="#BDBDBD" stroke-width="2"/>
<path d="M308.977 6.44079C308.977 9.44316 306.536 11.8816 303.52 11.8816C300.503 11.8816 298.062 9.44316 298.062 6.44079C298.062 3.43842 300.503 1 303.52 1C306.536 1 308.977 3.43842 308.977 6.44079Z" stroke="#BDBDBD" stroke-width="2"/>
<path d="M308.977 129.401C308.977 132.404 306.536 134.842 303.52 134.842C300.503 134.842 298.062 132.404 298.062 129.401C298.062 126.399 300.503 123.961 303.52 123.961C306.536 123.961 308.977 126.399 308.977 129.401Z" stroke="#BDBDBD" stroke-width="2"/>
<path d="M308.977 31.0329C308.977 34.0353 306.536 36.4737 303.52 36.4737C300.503 36.4737 298.062 34.0353 298.062 31.0329C298.062 28.0305 300.503 25.5921 303.52 25.5921C306.536 25.5921 308.977 28.0305 308.977 31.0329Z" stroke="#BDBDBD" stroke-width="2"/>
<path d="M308.977 80.2171C308.977 83.2195 306.536 85.6579 303.52 85.6579C300.503 85.6579 298.062 83.2195 298.062 80.2171C298.062 77.2147 300.503 74.7763 303.52 74.7763C306.536 74.7763 308.977 77.2147 308.977 80.2171Z" stroke="#BDBDBD" stroke-width="2"/>
<path d="M200.955 55.625C200.955 58.6274 198.514 61.0658 195.497 61.0658C192.481 61.0658 190.039 58.6274 190.039 55.625C190.039 52.6226 192.481 50.1842 195.497 50.1842C198.514 50.1842 200.955 52.6226 200.955 55.625Z" stroke="#BDBDBD" stroke-width="2"/>
<path d="M200.955 104.809C200.955 107.812 198.514 110.25 195.497 110.25C192.481 110.25 190.039 107.812 190.039 104.809C190.039 101.807 192.481 99.3684 195.497 99.3684C198.514 99.3684 200.955 101.807 200.955 104.809Z" stroke="#BDBDBD" stroke-width="2"/>
<path d="M200.955 6.44079C200.955 9.44316 198.514 11.8816 195.497 11.8816C192.481 11.8816 190.039 9.44316 190.039 6.44079C190.039 3.43842 192.481 1 195.497 1C198.514 1 200.955 3.43842 200.955 6.44079Z" stroke="#BDBDBD" stroke-width="2"/>
<path d="M200.955 129.401C200.955 132.404 198.514 134.842 195.497 134.842C192.481 134.842 190.039 132.404 190.039 129.401C190.039 126.399 192.481 123.961 195.497 123.961C198.514 123.961 200.955 126.399 200.955 129.401Z" stroke="#BDBDBD" stroke-width="2"/>
<path d="M200.955 31.0329C200.955 34.0353 198.514 36.4737 195.497 36.4737C192.481 36.4737 190.039 34.0353 190.039 31.0329C190.039 28.0305 192.481 25.5921 195.497 25.5921C198.514 25.5921 200.955 28.0305 200.955 31.0329Z" stroke="#BDBDBD" stroke-width="2"/>
<path d="M200.955 80.2171C200.955 83.2195 198.514 85.6579 195.497 85.6579C192.481 85.6579 190.039 83.2195 190.039 80.2171C190.039 77.2147 192.481 74.7763 195.497 74.7763C198.514 74.7763 200.955 77.2147 200.955 80.2171Z" fill="black" stroke="black" stroke-width="2"/>
<path d="M417 55.625C417 58.6274 414.559 61.0658 411.542 61.0658C408.525 61.0658 406.084 58.6274 406.084 55.625C406.084 52.6226 408.525 50.1842 411.542 50.1842C414.559 50.1842 417 52.6226 417 55.625Z" fill="black" stroke="black" stroke-width="2"/>
<path d="M417 104.809C417 107.812 414.559 110.25 411.542 110.25C408.525 110.25 406.084 107.812 406.084 104.809C406.084 101.807 408.525 99.3684 411.542 99.3684C414.559 99.3684 417 101.807 417 104.809Z" stroke="#BDBDBD" stroke-width="2"/>
<path d="M417 6.44079C417 9.44316 414.559 11.8816 411.542 11.8816C408.525 11.8816 406.084 9.44316 406.084 6.44079C406.084 3.43842 408.525 1 411.542 1C414.559 1 417 3.43842 417 6.44079Z" stroke="#BDBDBD" stroke-width="2"/>
<path d="M417 129.401C417 132.404 414.559 134.842 411.542 134.842C408.525 134.842 406.084 132.404 406.084 129.401C406.084 126.399 408.525 123.961 411.542 123.961C414.559 123.961 417 126.399 417 129.401Z" stroke="#BDBDBD" stroke-width="2"/>
<path d="M417 31.0329C417 34.0353 414.559 36.4737 411.542 36.4737C408.525 36.4737 406.084 34.0353 406.084 31.0329C406.084 28.0305 408.525 25.5921 411.542 25.5921C414.559 25.5921 417 28.0305 417 31.0329Z" stroke="#BDBDBD" stroke-width="2"/>
<path d="M417 80.2171C417 83.2195 414.559 85.6579 411.542 85.6579C408.525 85.6579 406.084 83.2195 406.084 80.2171C406.084 77.2147 408.525 74.7763 411.542 74.7763C414.559 74.7763 417 77.2147 417 80.2171Z" stroke="#BDBDBD" stroke-width="2"/>
</svg>
