<svg width="62" height="62" viewBox="0 0 62 62" fill="none" xmlns="http://www.w3.org/2000/svg">
<path d="M34.1944 57.1256V59.7033C34.1944 60.42 34.7717 61 35.485 61C36.1983 61 36.7755 60.42 36.7755 59.7033V57.1046C39.9181 56.885 42.9691 55.9473 45.6968 54.3626C46.3146 54.0048 46.5266 53.2118 46.1706 52.5924C45.8146 51.973 45.0254 51.7586 44.4089 52.1163C41.9888 53.5235 39.2768 54.3494 36.4863 54.5283C35.6355 54.5848 34.7821 54.5796 33.9327 54.5138C29.6186 54.1653 25.6619 51.9703 23.069 48.4892C22.6423 47.9171 21.8361 47.8001 21.2667 48.2288C21.251 48.2406 21.2353 48.2525 21.2196 48.2656L18.1267 50.8143C17.5678 51.2589 17.4736 52.0742 17.916 52.6358C18.3584 53.1974 19.1699 53.292 19.7288 52.8475C19.7406 52.8383 19.7523 52.8278 19.7641 52.8186L21.8583 51.0971C24.8871 54.5769 29.1474 56.7311 33.7337 57.0993C33.8816 57.1099 34.04 57.1164 34.1944 57.1256Z" fill="black" stroke="black" stroke-width="0.5"/>
<path d="M37.6693 11.6999C37.8198 12.3995 38.5056 12.8453 39.2033 12.6941C39.2949 12.6744 39.3852 12.6441 39.4703 12.6047C42.088 11.3816 45.1155 11.4013 47.7162 12.6612C47.8261 12.7138 47.9361 12.7691 48.0447 12.8269C51.2109 14.4774 53.4111 17.6456 53.9346 21.3016C54.3443 24.187 54.8129 29.0175 54.3744 34.1307V34.1767C54.2082 36.2178 53.8731 38.2404 53.3744 40.2263C52.487 43.6956 50.6598 46.8506 48.0958 49.3388C47.5827 49.8372 47.5683 50.6592 48.0643 51.1747C48.0879 51.1997 48.1115 51.222 48.1376 51.2444L51.5512 54.2784C52.1232 54.7071 52.9307 54.5888 53.3574 54.014C53.7344 53.5051 53.6912 52.7976 53.2527 52.3399L50.847 50.2015C53.2501 47.5489 54.9713 44.3479 55.8613 40.8746C56.3011 39.1334 56.6191 37.3619 56.8141 35.576H59.712C60.4253 35.576 61.0025 34.996 61.0025 34.2793C61.0025 33.5625 60.4253 32.9826 59.712 32.9826H57.0327C57.3102 28.1363 56.8704 23.6899 56.4804 20.9373C56.093 18.1756 54.8993 15.59 53.0498 13.5095L55.2514 11.1502C55.7304 10.6202 55.6898 9.79952 55.1624 9.31818C54.6467 8.84868 53.8548 8.87367 53.3692 9.37605L51.1585 11.7498C50.5551 11.2869 49.9112 10.8766 49.2371 10.5255C49.1062 10.4558 48.9753 10.394 48.8444 10.3256C46.05 8.96704 42.8459 8.73164 39.8852 9.66801L39.3263 7.06537C39.1758 6.36572 38.4899 5.9199 37.7936 6.06982C37.0973 6.22106 36.6536 6.91019 36.8028 7.61115L37.6693 11.6999Z" fill="black" stroke="black" stroke-width="0.5"/>
<path d="M15.4013 31.8831C15.061 32.5117 15.2914 33.2995 15.917 33.6428L18.1513 34.8645C17.8005 35.9166 17.5832 37.0095 17.5073 38.1168C17.3385 40.3801 17.6094 42.6566 18.3057 44.8161C18.4772 45.3513 18.9733 45.7156 19.5335 45.7143C19.667 45.7143 19.7992 45.6932 19.9261 45.6512C20.6041 45.4329 20.9771 44.703 20.7599 44.0217V44.0204C20.1669 42.1792 19.9366 40.2394 20.0819 38.3101C20.1525 37.1134 20.4405 35.9403 20.9339 34.8487C20.9523 34.8106 22.8527 31.0072 27.8094 28.519C29.1052 27.8693 30.2531 26.9553 31.1785 25.8362L31.1916 25.8217L31.202 25.8085C32.2138 24.5802 32.9311 23.1349 33.2962 21.583C33.5606 20.4507 33.8918 19.3368 34.287 18.2439C34.6562 17.2273 35.1862 16.2778 35.8577 15.4322C36.3106 14.8785 36.232 14.0618 35.681 13.6068C35.13 13.1518 34.3172 13.2307 33.8643 13.7843C33.8577 13.7922 33.8512 13.8001 33.8447 13.8093C32.9952 14.8746 32.3251 16.0714 31.8591 17.3523C31.4272 18.5425 31.0646 19.7577 30.774 20.9899C30.6 21.729 30.3186 22.4379 29.939 23.0941L27.6223 21.1662C27.083 20.6967 26.2689 20.7558 25.8016 21.2963C25.3344 21.8369 25.3933 22.6562 25.9312 23.1257C25.9456 23.1388 25.96 23.1507 25.9757 23.1625L28.2937 25.0918C27.7937 25.5258 27.2427 25.8967 26.6524 26.1939C22.6446 28.206 20.3554 30.9849 19.307 32.542L17.1487 31.3584C16.5217 31.0204 15.7403 31.2545 15.4013 31.8831Z" fill="black" stroke="black" stroke-width="0.5"/>
<path d="M21.8068 11.7209C24.7531 11.7222 27.1418 9.32212 27.1431 6.36177C27.1444 3.40142 24.7557 1.00132 21.8094 1C18.8631 0.998685 16.4745 3.39879 16.4731 6.35914V6.36045C16.4758 9.31949 18.8618 11.717 21.8068 11.7209ZM21.8068 3.59474C23.3251 3.59474 24.5554 4.83096 24.5554 6.35651C24.5554 7.88206 23.3251 9.11827 21.8068 9.11827C20.2885 9.11827 19.0582 7.88206 19.0582 6.35651C19.0621 4.83359 20.2911 3.59869 21.8068 3.59474Z" fill="black" stroke="black" stroke-width="0.5"/>
<path d="M7.78764 25.6705C8.47349 25.6705 9.1541 25.5666 9.80854 25.3614C10.4944 25.1654 10.891 24.4474 10.6946 23.7583C10.4983 23.0691 9.78498 22.6707 9.09913 22.8679C9.0795 22.8732 9.05855 22.8798 9.03892 22.8863C6.82169 23.5807 4.46572 22.3379 3.77464 20.1101C3.08355 17.8823 4.32044 15.515 6.53767 14.8207C8.30988 14.2657 10.2352 14.9443 11.2732 16.4909C11.6985 17.0656 12.5074 17.1839 13.0794 16.7565C13.6134 16.3567 13.7574 15.6163 13.4119 15.0442C11.3164 11.9221 7.09917 11.0989 3.99191 13.2044C0.88465 15.3099 0.065296 19.5472 2.1608 22.6693C3.42124 24.5473 5.52853 25.6731 7.7824 25.6744L7.78764 25.6705Z" fill="black" stroke="black" stroke-width="0.5"/>
<path d="M14.2482 21.3345C14.3228 21.1004 14.3856 20.861 14.4341 20.6204C14.5807 19.9194 14.1343 19.2316 13.4367 19.0843C12.7391 18.937 12.0545 19.3855 11.908 20.0864C11.9066 20.0917 11.9053 20.097 11.9053 20.1009C11.8752 20.2495 11.8373 20.3968 11.7902 20.5415C11.5585 21.2188 11.9171 21.9565 12.5912 22.1893C13.2653 22.4221 13.9995 22.0617 14.2312 21.3845C14.2377 21.366 14.243 21.3476 14.2482 21.3292V21.3345Z" fill="black" stroke="black" stroke-width="0.5"/>
<path d="M7.86481 39.0558C7.81769 38.9848 7.76403 38.9177 7.70382 38.8572C7.20121 38.3509 6.38447 38.3509 5.88056 38.8559L5.87925 38.8572C5.81773 38.9164 5.76407 38.9835 5.71826 39.0558C5.66983 39.1255 5.63056 39.2005 5.59784 39.2794C5.56643 39.3583 5.54156 39.4398 5.52455 39.5227C5.50884 39.6055 5.50099 39.6897 5.50099 39.7739C5.49968 40.1198 5.6358 40.4512 5.87925 40.6945C5.93815 40.7563 6.00359 40.8102 6.07427 40.8562C6.14364 40.9036 6.21825 40.9443 6.29678 40.9759C6.37531 41.0088 6.45646 41.0338 6.53892 41.0509C6.62138 41.068 6.70646 41.0772 6.79153 41.0772C7.13577 41.0772 7.4656 40.9391 7.70774 40.6945C7.76795 40.634 7.82162 40.5682 7.86873 40.4985C7.91455 40.4275 7.95512 40.3525 7.98653 40.2749C8.01926 40.196 8.04281 40.1145 8.05983 40.0316C8.10957 39.7805 8.08339 39.5201 7.98653 39.2833C7.95381 39.2031 7.91324 39.1268 7.86481 39.0558Z" fill="black" stroke="black" stroke-width="0.5"/>
<path d="M31.0297 37.2094C31.798 36.4795 32.8961 36.2191 33.9092 36.5255L33.972 36.5452C34.6448 36.782 35.3804 36.4242 35.616 35.7483C35.8516 35.0723 35.4956 34.3332 34.8228 34.0965C34.8032 34.0899 34.7848 34.0833 34.7652 34.0781L34.6788 34.0504C32.7862 33.4705 30.7286 33.9505 29.2823 35.3077C27.7457 36.753 26.5939 38.5613 25.9303 40.5682C25.2445 42.5843 25.7785 44.8174 27.3007 46.2995C28.5677 47.5081 30.2457 48.0881 31.4302 48.3616C31.8503 48.459 32.281 48.5089 32.7129 48.5089C33.6435 48.5129 34.5571 48.2696 35.3647 47.8053C36.3175 47.2556 37.1055 46.4573 37.6434 45.4947C38.002 44.8752 37.7926 44.0822 37.1761 43.7219C36.5597 43.3615 35.7704 43.572 35.4118 44.1914C35.4079 44.198 35.4039 44.2058 35.4 44.2124C35.0885 44.774 34.6304 45.2408 34.0741 45.5591C33.4445 45.9089 32.7077 46.0076 32.0087 45.834C31.137 45.6328 29.9224 45.2237 29.0781 44.4189C28.2824 43.6311 28.0088 42.4541 28.3779 41.3941C28.9015 39.7989 29.8137 38.3614 31.0297 37.2094Z" fill="black" stroke="black" stroke-width="0.5"/>
<path d="M36.1065 39.3517C36.0306 39.5911 36.007 39.8449 36.0384 40.0948C36.1013 40.7602 36.6562 41.2678 37.3211 41.2692C37.3617 41.2692 37.4023 41.2692 37.4442 41.2692C38.024 41.2139 38.4952 40.776 38.5947 40.2C38.6758 39.9409 38.6915 39.6647 38.6392 39.3977C38.5187 38.6928 37.8525 38.2194 37.151 38.3404C36.6287 38.4298 36.2151 38.8309 36.1065 39.3517Z" fill="black" stroke="black" stroke-width="0.5"/>
<path d="M51.6478 35.0999C51.6478 32.25 49.3494 29.9407 46.5131 29.9407C43.6768 29.9407 41.3784 32.25 41.3784 35.0999C41.3784 37.9498 43.6768 40.2592 46.5131 40.2592C49.3481 40.2552 51.6439 37.9472 51.6478 35.0999ZM46.5131 37.6657C45.1022 37.667 43.9582 36.5202 43.9569 35.1025C43.9556 33.6848 45.0969 32.5354 46.5079 32.5341C47.9188 32.5328 49.0628 33.6796 49.0641 35.0973C49.0641 35.0986 49.0641 35.0986 49.0641 35.0999C49.0628 36.515 47.9215 37.6618 46.5131 37.6657Z" fill="black" stroke="black" stroke-width="0.5"/>
<path d="M47.6127 19.3342C46.919 18.1256 45.7423 17.3063 44.3012 17.0248C42.8889 16.7644 41.4309 17.0248 40.194 17.7587C37.5003 19.321 36.4454 22.5707 37.838 25.0024C38.732 26.5595 40.4191 27.4091 42.2227 27.4091C43.2934 27.4064 44.3444 27.1197 45.2685 26.5779C47.9556 25.0155 49.0105 21.7659 47.6127 19.3342ZM43.9714 24.3317C42.5107 25.1786 40.7646 24.8972 40.0788 23.7043C39.3929 22.5115 40.0238 20.8505 41.4845 20.0023C42.0146 19.6893 42.6167 19.5209 43.2319 19.5144C43.4256 19.5144 43.6193 19.5328 43.8104 19.5696C44.4635 19.6735 45.0381 20.0614 45.381 20.6296C46.063 21.825 45.4321 23.4847 43.9714 24.333V24.3317Z" fill="black" stroke="black" stroke-width="0.5"/>
</svg>
