<svg width="580" height="380" viewBox="0 0 580 380" fill="none" xmlns="http://www.w3.org/2000/svg">
<g clip-path="url(#clip0)">
<path d="M481.6 264.8C479.3 288.7 465.7 312.7 462.2 315.5C458.6 318.4 452.4 316.8 448 316.8C437.9 316.8 102.1 316.8 102.1 316.8C102 316.6 101.9 316.4 101.9 316.4C93.3 301.4 83.6 286.8 78.7 270C65.1 223.2 108.4 191.5 136.3 161.5C152.3 144.3 153.5 119.6 167.4 101.3C186.4 76.2 218.4 63.1 249 61.1C284.2 58.8 314.1 71.4 335.5 99.9C353.1 123.3 363.1 159.6 390.7 173.7C400.6 178.8 412.1 179.4 422.8 182.3C457.8 191.7 485.2 227.9 481.6 264.8Z" fill="#E5EEFD"/>
<path d="M130.7 8.6C133.075 8.6 135 6.67482 135 4.3C135 1.92518 133.075 0 130.7 0C128.325 0 126.4 1.92518 126.4 4.3C126.4 6.67482 128.325 8.6 130.7 8.6Z" fill="#E5EEFD"/>
<path d="M397.5 128C402.084 128 405.8 124.284 405.8 119.7C405.8 115.116 402.084 111.4 397.5 111.4C392.916 111.4 389.2 115.116 389.2 119.7C389.2 124.284 392.916 128 397.5 128Z" fill="#E5EEFD"/>
<path d="M294.7 39.2999C300.112 39.2999 304.5 34.9123 304.5 29.5C304.5 24.0876 300.112 19.7 294.7 19.7C289.288 19.7 284.9 24.0876 284.9 29.5C284.9 34.9123 289.288 39.2999 294.7 39.2999Z" fill="#E5EEFD"/>
<path d="M442.3 152.8C446 152.8 449 149.8 449 146.1C449 142.4 446 139.4 442.3 139.4C438.6 139.4 435.6 142.4 435.6 146.1C435.6 149.8 438.6 152.8 442.3 152.8Z" fill="#E5EEFD"/>
<path d="M437.3 56.3C440.448 56.3 443 53.748 443 50.6C443 47.452 440.448 44.9 437.3 44.9C434.152 44.9 431.6 47.452 431.6 50.6C431.6 53.748 434.152 56.3 437.3 56.3Z" fill="#E5EEFD"/>
<path d="M352.3 24.3C355.448 24.3 358 21.748 358 18.6C358 15.452 355.448 12.9 352.3 12.9C349.152 12.9 346.6 15.452 346.6 18.6C346.6 21.748 349.152 24.3 352.3 24.3Z" fill="#E5EEFD"/>
<path d="M114.3 139.2C117.4 141.4 121 142.1 124.2 140.8C125.6 140.2 126.9 139.3 128 138C131 134.4 132 128.8 130.5 124C128.9 118.8 124.2 114 119.4 115.1C115.1 116 109.6 122.1 108.6 127.2C107.6 131.9 111.2 137 114.3 139.2Z" fill="#E5EEFD"/>
<path d="M54.7 315.9C63.1 315.6 71.5 315.5 79.8 315.5H104.9L155.2 315.4L205.5 315.3H230.6C239 315.3 247.4 315.3 255.7 315.6C256.2 315.6 256.6 316 256.6 316.6C256.6 317.1 256.2 317.5 255.7 317.5C247.3 317.8 238.9 317.8 230.6 317.8H205.5L155.2 317.7H105H79.9C71.5 317.7 63.1 317.7 54.8 317.3C54.4 317.3 54.1 317 54.1 316.6C54 316.2 54.3 315.9 54.7 315.9Z" fill="#717791"/>
<path d="M240.9 309.2H58.4V315.5H240.9V309.2Z" fill="#E5EEFD"/>
<path d="M57.7 313.7C57.6 313 57.4 312.2 57.3 311.5C57.2 310.8 57.1 310 57.1 309.3C57.1 308.6 57.7 308.1 58.3 308.1H240.8H240.9C241.5 308.1 242 308.6 242 309.2V309.3L241.4 314.4C241.4 314.8 241 315 240.6 315C240.3 315 240 314.7 240 314.4L239.4 309.3L240.6 310.5H58.4L59.6 309.3C59.6 310 59.5 310.8 59.4 311.5C59.3 312.2 59.2 313 59 313.7C58.9 314.1 58.5 314.3 58.2 314.3C58 314.2 57.8 314 57.7 313.7Z" fill="#717791"/>
<path d="M81.4 308.6H234.6V199.5H65.7V308.6H81.4Z" fill="white" stroke="#717791" stroke-width="2.5" stroke-miterlimit="10" stroke-linecap="round" stroke-linejoin="round"/>
<path d="M79.8 203.2H63.2V196H237.2V203.2H106.5" fill="white"/>
<path d="M79.8 203.9C77 204.2 74.3 204.3 71.5 204.3C68.7 204.4 66 204.4 63.2 204.4C62.5 204.4 62 203.8 62 203.2V196C62 195.3 62.6 194.7 63.3 194.7H237.2C237.9 194.7 238.5 195.3 238.5 196V203.2C238.5 203.9 237.9 204.5 237.2 204.5L204.5 204.6H171.8L139.1 204.5H122.8C117.4 204.4 111.9 204.7 106.5 203.9C106.1 203.8 105.9 203.5 105.9 203.1C105.9 202.8 106.2 202.6 106.5 202.5C111.9 201.7 117.4 202 122.8 201.9H139.1L171.8 201.8H204.5L237.2 201.9L236 203.1V196L237.2 197.2H63.2L64.4 196V203.2L63.2 202C66 202 68.7 202 71.5 202.1C74.3 202.2 77 202.3 79.8 202.5C80.2 202.5 80.5 202.9 80.4 203.3C80.4 203.6 80.2 203.8 79.8 203.9Z" fill="#717791"/>
<path d="M100.7 204.4L100.1 204.2C99.5 204 99.1 203.4 99.3 202.8C99.4 202.4 99.7 202.1 100.1 202L100.7 201.8C101.4 201.6 102.1 202 102.3 202.7C102.5 203.4 102.1 204.1 101.4 204.3C101.2 204.5 100.9 204.5 100.7 204.4Z" fill="#717791"/>
<path d="M185.9 223.5H80.2V288.5H185.9V223.5Z" fill="#CFE2FF"/>
<path opacity="0.3" d="M131.8 223.5L92.3 288.5H80.3L119.9 223.5H131.8Z" fill="white"/>
<path opacity="0.3" d="M165.8 223.5L126.2 288.5H100.9L140.5 223.5H165.8Z" fill="white"/>
<path d="M79.6 271.4C79 267.4 79.2 263.4 79.1 259.4L79 247.4C79 239.4 78.9 231.4 79 223.5C79 222.8 79.6 222.3 80.2 222.3H185.9C186.6 222.3 187.1 222.9 187.1 223.5V288.5C187.1 289.2 186.5 289.7 185.9 289.7H80.2C79.6 289.7 79.1 289.2 79 288.6V288.4C78.8 287.1 79 285.8 79.1 284.5C79.2 283.2 79.4 281.9 79.6 280.6C79.7 280.3 80 280 80.3 280.1C80.6 280.1 80.8 280.4 80.8 280.6C81 281.9 81.2 283.2 81.3 284.5C81.4 285.8 81.6 287.1 81.4 288.4L80.2 287.2H185.9L184.7 288.4V223.4L185.9 224.6H80.2L81.4 223.4C81.5 231.4 81.4 239.4 81.4 247.3L81.3 259.3C81.2 263.3 81.4 267.3 80.8 271.3C80.8 271.6 80.4 271.9 80.1 271.8C79.8 271.9 79.6 271.7 79.6 271.4Z" fill="#A3ACD6"/>
<path d="M225.1 298.5V229.1H193.9V304.5H225.1" fill="white"/>
<path d="M224.5 298.5C223.8 295.6 223.9 292.7 223.9 289.8L223.8 281.1L223.7 263.7V246.3C223.7 240.5 223.7 234.7 223.8 228.9L225 230.1H193.9L195.1 228.9V304.3L193.9 303.1H225C225.7 303.1 226.2 303.7 226.2 304.3C226.2 305 225.6 305.5 225 305.5H193.9C193.2 305.5 192.7 304.9 192.7 304.2V228.8C192.7 228.1 193.3 227.5 193.9 227.5H225C225.7 227.5 226.2 228 226.2 228.7C226.3 234.5 226.3 240.3 226.3 246.1V263.5L226.2 280.9L226.1 289.6C226.1 292.5 226.2 295.4 225.5 298.3C225.4 298.6 225.1 298.8 224.7 298.8C224.7 299 224.5 298.8 224.5 298.5Z" fill="#A3ACD6"/>
<path d="M223.9 230.8H195.1V278.2H223.9V230.8Z" fill="#CFE2FF"/>
<path d="M229.7 304.5H188.8V308.4H229.7V304.5Z" fill="#E5EEFD" stroke="#717791" stroke-width="2.5" stroke-miterlimit="10" stroke-linecap="round" stroke-linejoin="round"/>
<path d="M223.8 280.9H195V302.3H223.8V280.9Z" fill="#CFE2FF"/>
<path d="M195 280.6H224" stroke="#A3ACD6" stroke-width="2.5" stroke-miterlimit="10" stroke-linecap="round" stroke-linejoin="round"/>
<path d="M223.4 230.6H196.5" stroke="#717791" stroke-width="2.5" stroke-miterlimit="10" stroke-linecap="round" stroke-linejoin="round"/>
<path d="M78.5 222.5H58.1L76.3 209.2H92.4L78.5 222.5Z" fill="#FFBFBF" stroke="#717791" stroke-width="2.5" stroke-miterlimit="10" stroke-linecap="round" stroke-linejoin="round"/>
<path d="M98.8 222.5H78.4L92.7 209.2H108.8L98.8 222.5Z" fill="white" stroke="#717791" stroke-width="2.5" stroke-miterlimit="10" stroke-linecap="round" stroke-linejoin="round"/>
<path d="M119 222.5H98.6L108.7 209.2H124.8L119 222.5Z" fill="#FFBFBF" stroke="#717791" stroke-width="2.5" stroke-miterlimit="10" stroke-linecap="round" stroke-linejoin="round"/>
<path d="M139.6 222.5H119.3L125 209.2H141.4L139.6 222.5Z" fill="white" stroke="#717791" stroke-width="2.5" stroke-miterlimit="10" stroke-linecap="round" stroke-linejoin="round"/>
<path d="M221.5 222.5H242.7L223.7 209.2H207.6L221.5 222.5Z" fill="#FFBFBF" stroke="#717791" stroke-width="2.5" stroke-miterlimit="10" stroke-linecap="round" stroke-linejoin="round"/>
<path d="M201 222.5H221.4L207.1 209.2H190.9L201 222.5Z" fill="white" stroke="#717791" stroke-width="2.5" stroke-miterlimit="10" stroke-linecap="round" stroke-linejoin="round"/>
<path d="M180.8 222.5H201.2L191 209.2H174.9L180.8 222.5Z" fill="#FFBFBF" stroke="#717791" stroke-width="2.5" stroke-miterlimit="10" stroke-linecap="round" stroke-linejoin="round"/>
<path d="M160.1 222.5H180.5L174.7 209.2H158.4L160.1 222.5Z" fill="white" stroke="#717791" stroke-width="2.5" stroke-miterlimit="10" stroke-linecap="round" stroke-linejoin="round"/>
<path d="M159.9 222.5H139.5L141.3 209.2H157.8L159.9 222.5Z" fill="#FFBFBF" stroke="#717791" stroke-width="2.5" stroke-miterlimit="10" stroke-linecap="round" stroke-linejoin="round"/>
<path d="M71.9 240.6H64.5C60.9 240.6 57.9 237.7 57.9 234V222.4H78.5V234C78.4 237.6 75.5 240.6 71.9 240.6Z" fill="#FFBFBF" stroke="#717791" stroke-width="2.5" stroke-miterlimit="10" stroke-linecap="round" stroke-linejoin="round"/>
<path d="M92.4 240.6H85C81.4 240.6 78.4 237.7 78.4 234V222.4H99V234C99 237.6 96.1 240.6 92.4 240.6Z" fill="white" stroke="#717791" stroke-width="2.5" stroke-miterlimit="10" stroke-linecap="round" stroke-linejoin="round"/>
<path d="M112.6 240.6H105.2C101.6 240.6 98.6 237.7 98.6 234V222.4H119.2V234C119.2 237.6 116.3 240.6 112.6 240.6Z" fill="#FFBFBF" stroke="#717791" stroke-width="2.5" stroke-miterlimit="10" stroke-linecap="round" stroke-linejoin="round"/>
<path d="M133.3 240.6H125.9C122.3 240.6 119.3 237.7 119.3 234V222.4H139.9V234C139.9 237.6 136.9 240.6 133.3 240.6Z" fill="white" stroke="#717791" stroke-width="2.5" stroke-miterlimit="10" stroke-linecap="round" stroke-linejoin="round"/>
<path d="M153.5 240.6H146.1C142.5 240.6 139.5 237.7 139.5 234V222.4H160.1V234C160.1 237.6 157.1 240.6 153.5 240.6Z" fill="#FFBFBF" stroke="#717791" stroke-width="2.5" stroke-miterlimit="10" stroke-linecap="round" stroke-linejoin="round"/>
<path d="M174.3 240.6H166.9C163.3 240.6 160.3 237.7 160.3 234V222.4H180.9V234C180.9 237.6 177.9 240.6 174.3 240.6Z" fill="white" stroke="#717791" stroke-width="2.5" stroke-miterlimit="10" stroke-linecap="round" stroke-linejoin="round"/>
<path d="M194.9 240.6H187.5C183.9 240.6 180.9 237.7 180.9 234V222.4H201.5V234C201.4 237.6 198.5 240.6 194.9 240.6Z" fill="#FFBFBF" stroke="#717791" stroke-width="2.5" stroke-miterlimit="10" stroke-linecap="round" stroke-linejoin="round"/>
<path d="M215.3 240.6H207.9C204.3 240.6 201.3 237.7 201.3 234V222.4H221.9V234C221.9 237.6 218.9 240.6 215.3 240.6Z" fill="white" stroke="#717791" stroke-width="2.5" stroke-miterlimit="10" stroke-linecap="round" stroke-linejoin="round"/>
<path d="M235.8 240.6H228.4C224.8 240.6 221.8 237.7 221.8 234V222.4H242.4V234C242.4 237.6 239.5 240.6 235.8 240.6Z" fill="#FFBFBF" stroke="#717791" stroke-width="2.5" stroke-miterlimit="10" stroke-linecap="round" stroke-linejoin="round"/>
<path d="M469.8 315.4C470.8 315 471.8 315 472.8 315C473.8 315 474.8 315.1 475.8 315.3C476.3 315.4 476.5 315.8 476.5 316.3C476.4 316.6 476.2 316.9 475.8 317C474.8 317.2 473.8 317.3 472.8 317.3C471.8 317.3 470.8 317.3 469.8 316.9C469.4 316.8 469.2 316.3 469.3 315.9C469.5 315.6 469.6 315.5 469.8 315.4Z" fill="#717791"/>
<path d="M200.1 315.4C211.2 315.1 222.2 315 233.3 315.1H266.5L332.9 315L399.3 314.9H432.5C443.6 314.9 454.6 314.9 465.7 315.2C466.2 315.2 466.6 315.6 466.6 316.1C466.6 316.6 466.2 316.9 465.7 317C454.6 317.3 443.6 317.3 432.5 317.3H399.3L332.9 317.2L266.5 317.1H233.3C222.2 317.1 211.2 317.1 200.1 316.8C199.7 316.8 199.4 316.5 199.4 316.1C199.4 315.7 199.7 315.4 200.1 315.4Z" fill="#717791"/>
<path d="M193.6 315.1C193.7 315.1 193.9 315.1 194 315.1C194.1 315.1 194.1 315.1 194.2 315.1C194.3 315.1 194.3 315.1 194.4 315.2C194.9 315.5 195 316.1 194.7 316.6C194.6 316.7 194.5 316.8 194.4 316.9C194.3 316.9 194.3 317 194.2 317C194.1 317 194.1 317.1 194 317C193.9 317 193.7 317 193.6 317C193 316.9 192.7 316.3 192.8 315.8C192.9 315.5 193.2 315.2 193.6 315.1Z" fill="#717791"/>
<path d="M182.9 315.4C183.6 315.2 184.3 315.2 185.1 315.1C185.8 315.1 186.5 315.1 187.3 315.3C187.7 315.4 188 315.9 187.9 316.3C187.8 316.6 187.6 316.8 187.3 316.9C186.6 317.1 185.9 317.1 185.1 317.1C184.4 317.1 183.7 317 182.9 316.8C182.5 316.7 182.3 316.3 182.4 315.9C182.4 315.7 182.7 315.5 182.9 315.4Z" fill="#717791"/>
<path d="M302.2 329.6C305.7 329.3 309.1 329.3 312.6 329.2L323 329.1L343.7 329H364.4H374.8C378.3 329 381.7 329 385.2 329.3C385.7 329.3 386.1 329.8 386 330.2C386 330.6 385.6 331 385.2 331C381.7 331.3 378.3 331.3 374.8 331.3H364.4H343.7L323 331.2L312.6 331.1C309.1 331.1 305.7 331.1 302.2 330.7C301.8 330.7 301.6 330.3 301.6 330C301.6 329.8 301.9 329.6 302.2 329.6Z" fill="#717791"/>
<path d="M268.1 329.5C271.6 329.3 275.2 329.3 278.7 329.2C282.2 329.2 285.8 329.2 289.3 329.4C289.7 329.4 290.1 329.8 290.1 330.3C290.1 330.7 289.7 331 289.3 331.1C285.8 331.3 282.2 331.3 278.7 331.3C275.2 331.3 271.6 331.2 268.1 331C267.7 331 267.4 330.6 267.4 330.2C267.5 329.8 267.8 329.5 268.1 329.5Z" fill="#717791"/>
<path d="M387.1 208C387.1 208.7 387 209.3 387 210L387.1 208Z" fill="#93B9F4"/>
<path d="M356.98 314.765L458.18 314.765L458.18 219.365L356.98 219.365L356.98 314.765Z" fill="white"/>
<path d="M384.3 200.8L413.7 219.2L438.7 201.1H480.3L458.5 219.9H408.2L364.7 219.3V201.9L376.2 200.5L384.3 200.8Z" fill="#E5EEFD"/>
<path d="M412.8 259.3C413.4 263.3 413.5 267.3 413.6 271.3C413.6 273.3 413.6 275.3 413.6 277.3C413.5 279.3 413.4 281.3 413.1 283.3C413 283.8 412.5 284.2 412 284.2C411.5 284.1 411.2 283.8 411.1 283.3C410.8 281.3 410.7 279.3 410.6 277.3C410.5 275.3 410.5 273.3 410.6 271.3C410.7 267.3 410.9 263.3 411.4 259.3C411.5 258.9 411.8 258.7 412.2 258.7C412.5 258.8 412.7 259.1 412.8 259.3Z" fill="#717791"/>
<path d="M364.9 218.4H457.5L456.6 218.7L481.4 199.9L482.3 202.6H438.7L439.6 202.3C438.1 203.5 436.5 204.6 434.9 205.7C433.3 206.8 431.7 207.8 430.1 208.9C426.9 211 423.6 213.1 420.4 215.1C420.1 215.3 419.6 215.2 419.4 214.9C419.2 214.6 419.3 214.2 419.6 214C422.6 211.6 425.6 209.1 428.6 206.8C430.1 205.6 431.6 204.4 433.2 203.3C434.7 202.1 436.3 201 437.9 200C438.2 199.8 438.4 199.7 438.7 199.7H482.3C483.1 199.7 483.8 200.4 483.8 201.2C483.8 201.7 483.6 202.1 483.2 202.4L458.4 221C458.1 221.2 457.8 221.3 457.5 221.3H364.9C364.1 221.3 363.4 220.6 363.4 219.8C363.4 219 364.1 218.4 364.9 218.4Z" fill="#717791"/>
<path d="M413 219L385.9 201.1H364.7V219.3" stroke="#717791" stroke-width="3.5556" stroke-miterlimit="10" stroke-linecap="round" stroke-linejoin="round"/>
<path d="M459 219.9C459 227.5 459.1 235.1 459.1 242.7L459 265.5L458.8 288.3C458.8 295.9 458.6 303.5 458.1 311.1C458.1 311.5 457.8 311.7 457.4 311.7C457.1 311.7 456.8 311.4 456.8 311.1C456.2 303.5 456.1 295.9 456.1 288.3L455.9 265.5L455.8 242.7C455.8 235.1 455.9 227.5 455.9 219.9C455.9 219.1 456.6 218.4 457.4 218.4C458.3 218.4 459 219 459 219.9Z" fill="#717791"/>
<path d="M414.5 220.7C414.5 222.5 414.5 224.3 414.5 226.1V227.5V228.2C414.4 228.4 414.4 228.7 414.4 228.9L414.3 231.6L413.9 242.4C413.9 242.9 413.5 243.2 413 243.2C412.6 243.2 412.2 242.8 412.2 242.4L411.8 231.6L411.7 228.9C411.7 228.7 411.7 228.4 411.6 228.2V227.5V226.1C411.6 224.3 411.6 222.5 411.6 220.7C411.6 219.9 412.3 219.2 413.1 219.2C413.8 219.2 414.5 219.9 414.5 220.7Z" fill="#717791"/>
<path opacity="0.2" d="M382.5 201.3L392.5 205V298.1C392.5 307.1 385.2 314.4 376.2 314.4H352.8L358.2 218.2" fill="#3F72BA"/>
<path d="M387.1 114.3V289C387.1 302.4 376.2 313.2 362.9 313.2H289.5C278.5 313.2 269.2 305.9 266.2 295.8C265.6 293.6 265.2 291.3 265.2 289V114.3C265.2 112.9 265.3 111.5 265.5 110.2C267.4 98.8 277.4 90 289.4 90H362.8C374.8 90 384.8 98.7 386.7 110.2C387 111.6 387.1 112.9 387.1 114.3Z" fill="white"/>
<path d="M386.8 110.2H265.6C267.5 98.8 277.5 90 289.5 90H362.9C374.9 90.1 384.9 98.8 386.8 110.2Z" fill="#E5EEFD"/>
<path d="M264.1 152.7C264 152.5 264.1 152.3 264.1 152.1C264.2 151.9 264.2 151.7 264.4 151.5C264.7 151 265.3 150.9 265.8 151.2C265.9 151.3 266 151.4 266.1 151.5C266.2 151.7 266.3 151.9 266.4 152.1C266.5 152.3 266.5 152.5 266.4 152.7C266.2 153.3 265.5 153.7 264.9 153.5C264.5 153.4 264.2 153.1 264.1 152.7Z" fill="#717791"/>
<path d="M264.4 146.4C264.2 139.9 264 133.4 263.9 126.9C263.8 123.6 263.8 120.4 263.8 117.1V114.7C263.8 113.9 263.9 113 263.9 112.1C264 111.2 264.1 110.4 264.3 109.5C264.4 108.6 264.7 107.8 264.9 107C265.9 103.7 267.5 100.6 269.7 97.9C271.9 95.2 274.7 93 277.7 91.4C280.8 89.8 284.2 88.9 287.6 88.6C289.4 88.5 291 88.5 292.6 88.5H297.5H336.6H356.1H361C361.8 88.5 362.6 88.5 363.5 88.5C364.4 88.6 365.2 88.5 366.1 88.7C369.5 89.1 372.9 90.2 375.9 92C381.9 95.5 386.4 101.4 388 108.2C388.2 109 388.4 109.9 388.5 110.7C388.7 111.6 388.7 112.4 388.7 113.3C388.8 114.2 388.8 115 388.7 115.8V118.2V128V167.1V245.2V284.3V289.2C388.7 290.1 388.6 290.9 388.6 291.8C388.5 292.7 388.4 293.5 388.2 294.4C387.5 297.8 386.1 301 384.1 303.9C380.1 309.6 373.8 313.6 366.9 314.6L365.6 314.8L364.3 314.9L363 315H361.8H356.9H347.1H327.6H308.1H298.3H293.4H291C290.2 315 289.4 315 288.5 314.9C281.6 314.7 274.8 311.4 270.3 306.2C268 303.6 266.2 300.6 265.1 297.3C264.8 296.5 264.6 295.6 264.4 294.8C264.2 294 264.1 293.1 264 292.2C263.9 291.3 263.9 290.5 263.8 289.6C263.8 288.7 263.8 288 263.8 287.1V248V208.9V189.4C263.8 182.9 263.9 176.4 264.5 169.9C264.5 169.5 264.9 169.2 265.3 169.2C265.7 169.2 265.9 169.5 266 169.9C266.7 176.4 266.7 182.9 266.7 189.4V208.9V248V287.1C266.7 287.9 266.7 288.8 266.7 289.5C266.8 290.3 266.7 291 266.9 291.8C267 292.5 267.1 293.3 267.3 294.1C267.5 294.8 267.6 295.6 267.9 296.3C268.9 299.2 270.4 301.9 272.5 304.2C276.5 308.8 282.5 311.6 288.6 311.8C289.3 311.9 290.2 311.9 291 311.8H293.4H298.3H308.1H327.6H347.1H356.9H361.8H363L364.1 311.7L365.2 311.6L366.3 311.4C372.3 310.5 377.9 307 381.4 302C383.1 299.5 384.4 296.7 385 293.7C385.1 293 385.2 292.2 385.4 291.4C385.5 290.6 385.5 289.9 385.5 289.1V284.2V245.1V167V127.9V118.1V115.7C385.5 114.9 385.5 114.1 385.5 113.3C385.5 112.5 385.5 111.8 385.3 111C385.2 110.2 385.1 109.5 384.9 108.8C383.5 102.9 379.5 97.6 374.2 94.6C371.6 93.1 368.6 92.1 365.6 91.7C364.1 91.5 362.6 91.5 360.9 91.5H356H336.5H297.4H292.5C290.9 91.5 289.2 91.5 287.7 91.6C284.7 91.8 281.7 92.7 279 94.1C276.3 95.5 273.9 97.4 271.9 99.8C269.9 102.1 268.5 104.9 267.6 107.8C267.4 108.5 267.2 109.3 267.1 110C267 110.8 266.8 111.5 266.8 112.3C266.8 113.1 266.7 113.8 266.7 114.6V117C266.7 120.3 266.7 123.5 266.6 126.8C266.4 133.3 266.3 139.8 266.1 146.3C266.1 146.8 265.7 147.1 265.2 147.1C264.8 147.2 264.4 146.8 264.4 146.4Z" fill="#717791"/>
<path d="M318 99.6C319.4 99.3 320.9 99.2 322.3 99.1C323.7 99 325.1 99 326.6 99C329.4 99 332.3 99.2 335.1 99.6C335.6 99.7 336 100.1 335.9 100.6C335.8 101 335.5 101.3 335.1 101.4C332.3 101.8 329.4 101.9 326.6 102C325.2 102 323.8 102 322.3 101.9C320.9 101.8 319.5 101.7 318 101.4C317.5 101.3 317.2 100.8 317.3 100.3C317.4 100 317.7 99.7 318 99.6Z" fill="#717791"/>
<path d="M333.3 303.9C332.5 305.6 330.9 307 329 307.6C327.1 308.2 325 308.1 323.2 307.4C321.3 306.7 319.7 305.3 318.7 303.6C317.7 301.9 317.3 299.8 317.6 297.9C317.9 295.9 318.8 294.1 320.2 292.7C321.6 291.4 323.4 290.5 325.4 290.3C327.3 290.1 329.3 290.5 330.9 291.6C332.5 292.6 333.7 294.2 334.1 295.9C334.2 296.2 334 296.5 333.7 296.6C333.5 296.7 333.2 296.6 333.1 296.4C331.5 293.7 328.5 292.3 325.7 292.8C324.3 293 323 293.7 322.1 294.7C321.2 295.7 320.6 297 320.5 298.4C320.2 301.1 321.9 303.8 324.4 304.8C325 305.1 325.7 305.2 326.3 305.2C327 305.3 327.6 305.2 328.3 305.1C329.6 304.8 330.9 304.2 332.1 303.2C332.4 302.9 332.9 303 333.2 303.3C333.4 303.4 333.4 303.7 333.3 303.9Z" fill="#717791"/>
<path d="M374.7 285.4C376.7 285 378.7 284.8 380.8 284.7C382.8 284.6 384.8 284.5 386.9 284.6C387.7 284.6 388.4 285.4 388.3 286.2C388.3 287 387.6 287.6 386.9 287.6C384.9 287.7 382.9 287.7 380.8 287.5C378.8 287.4 376.8 287.2 374.7 286.8C374.3 286.7 374.1 286.3 374.2 286C374.2 285.7 374.4 285.5 374.7 285.4Z" fill="#717791"/>
<path d="M353.8 285.5C354.4 285.1 354.9 285 355.5 284.9C356.1 284.8 356.6 284.7 357.2 285.3C357.6 285.8 357.6 286.4 357.2 286.9C356.6 287.5 356.1 287.4 355.5 287.3C354.9 287.2 354.4 287 353.8 286.7C353.5 286.5 353.4 286 353.6 285.7C353.6 285.6 353.7 285.6 353.8 285.5Z" fill="#717791"/>
<path d="M265.4 284.6C278.6 284.4 291.9 284.4 305.1 284.4L325 284.5C331.6 284.6 338.2 284.4 344.9 285.4C345.2 285.5 345.4 285.8 345.4 286.1C345.4 286.4 345.2 286.5 344.9 286.6C338.3 287.7 331.7 287.5 325 287.5L305.1 287.6C291.9 287.6 278.6 287.6 265.4 287.4C264.6 287.4 263.9 286.7 263.9 285.9C264 285.3 264.6 284.6 265.4 284.6Z" fill="#717791"/>
<path d="M279.2 109.8C288.2 109 297.1 109.1 306.1 109L333 108.9H359.9L386.8 109C387.6 109 388.3 109.7 388.3 110.5C388.3 111.3 387.6 112 386.8 112L359.9 112.1H333L306.1 112C297.1 111.9 288.2 112 279.2 111.2C278.8 111.2 278.6 110.8 278.6 110.5C278.6 110.1 278.9 109.9 279.2 109.8Z" fill="#717791"/>
<path opacity="0.2" d="M357.2 143.4H365.9C368.5 143.4 370.6 145.5 370.6 148.1V261C370.6 263.6 368.5 265.7 365.9 265.7H276.5C273.9 265.7 271.8 263.6 271.8 261V148.2C271.8 145.6 273.9 143.5 276.5 143.5H334.5" fill="#3F72BA"/>
<path d="M362.2 136.8H370.9C373.5 136.8 375.6 138.9 375.6 141.5V254.3C375.6 256.9 373.5 259 370.9 259H281.5C278.9 259 276.8 256.9 276.8 254.3V141.6C276.8 139 278.9 136.9 281.5 136.9H339.5" fill="white"/>
<path d="M362.2 136.2C364.3 135.9 366.5 135.7 368.6 135.6C369.1 135.6 369.7 135.6 370.2 135.6C370.5 135.6 370.7 135.6 371 135.6C371.3 135.6 371.7 135.6 372 135.7C373.3 136 374.6 136.7 375.5 137.7C376.4 138.7 376.9 140.1 376.9 141.5V144.7V151.1V176.8L377 228.2V253.9V254.3V254.8C377 255.1 376.9 255.5 376.8 255.8C376.6 256.5 376.3 257.1 375.9 257.7C375.1 258.9 373.9 259.7 372.6 260.1C372.3 260.2 371.9 260.3 371.6 260.3C371.3 260.3 370.9 260.3 370.6 260.3H369H365.8H352.9L301.5 260.4H288.6H282.2H281.4C281 260.4 280.7 260.4 280.3 260.3C279.6 260.2 278.9 259.9 278.3 259.6C277.1 258.9 276.1 257.8 275.6 256.4C275.3 255.7 275.2 255 275.2 254.3C275.2 253.7 275.2 253.2 275.2 252.6V249.4V243V230.1V178.7V153V146.6V143.4V141.8V141.4V140.9C275.2 140.6 275.3 140.2 275.4 139.9C275.7 138.5 276.6 137.3 277.7 136.4C278.3 136 278.9 135.6 279.6 135.4C280.3 135.2 281 135.1 281.6 135.1H288H313.7C322.3 135.2 330.8 134.8 339.4 135.8C339.9 135.9 340.2 136.3 340.1 136.7C340.1 137.1 339.7 137.4 339.4 137.4C330.8 138.4 322.3 138 313.7 138.1H288H281.6C280.8 138.1 280.1 138.3 279.5 138.8C278.9 139.2 278.5 139.9 278.3 140.6C278.2 140.8 278.2 141 278.2 141.1V141.4V141.8V143.4V146.6V153V178.7V230.1V243V249.4V252.6C278.2 253.1 278.2 253.7 278.2 254.2C278.2 254.6 278.3 254.9 278.4 255.2C278.7 255.9 279.2 256.5 279.8 256.8C280.1 257 280.5 257.1 280.8 257.2C281 257.2 281.2 257.2 281.3 257.3H282.1H288.5H301.4L352.8 257.4H365.7H368.9H370.5C370.8 257.4 370.9 257.4 371.1 257.4C371.3 257.4 371.5 257.3 371.6 257.3C372.3 257.1 372.9 256.6 373.4 256C373.6 255.7 373.8 255.4 373.9 255C374 254.8 374 254.6 374 254.5V254.2V253.8V228.1L374.1 176.7V151V144.6V141.4C374.1 140.6 373.8 139.9 373.3 139.3C372.8 138.7 372.1 138.3 371.3 138.1C371.1 138.1 370.9 138 370.7 138C370.5 138 370.2 138 369.9 138C369.4 138 368.8 138 368.3 138C366.2 137.9 364 137.8 361.9 137.4C361.5 137.3 361.3 137 361.3 136.6C361.7 136.4 361.9 136.2 362.2 136.2Z" fill="#717791"/>
<path d="M291.9 227.5C297.6 226.9 303.3 226.8 309 226.9L326.1 227C331.8 227 337.5 227.2 343.2 227.3C348.9 227.4 354.6 227.6 360.3 227.7C360.8 227.7 361.2 228.1 361.2 228.6C361.2 229.1 360.8 229.5 360.3 229.5C354.6 229.7 348.9 229.9 343.2 229.9C337.5 230 331.8 230.1 326.1 230.2L309 230.3C303.3 230.3 297.6 230.2 291.9 229.7C291.3 229.6 290.8 229.1 290.9 228.5C291 228 291.4 227.6 291.9 227.5Z" fill="#A3ACD6"/>
<path d="M312.6 240.3C317.8 239.3 323.1 239.5 328.3 239.5C333.5 239.6 338.8 239.8 344 240.4C344.5 240.4 344.8 240.9 344.7 241.3C344.7 241.7 344.3 242 344 242C338.8 242.5 333.5 242.7 328.3 242.9C323.1 243 317.8 243.2 312.6 242.1C312.1 242 311.8 241.5 311.9 241C312 240.6 312.3 240.3 312.6 240.3Z" fill="#A3ACD6"/>
<path d="M291.9 240.1C294.1 239.3 296.3 239.4 298.5 239.4C300.7 239.5 302.9 239.6 305.1 240.1C305.7 240.2 306.1 240.8 306 241.4C305.9 241.8 305.6 242.2 305.1 242.3C302.9 242.7 300.7 242.9 298.5 243C296.3 243 294.1 243.2 291.9 242.3C291.3 242.1 291 241.4 291.2 240.9C291.4 240.5 291.6 240.2 291.9 240.1Z" fill="#A3ACD6"/>
<path d="M346.3 135.5L346.8 135.4C347.4 135.3 348 135.7 348.2 136.3C348.3 136.9 347.9 137.5 347.3 137.7C347.1 137.7 347 137.7 346.8 137.7L346.3 137.6C345.7 137.5 345.4 136.9 345.5 136.3C345.5 135.9 345.9 135.6 346.3 135.5Z" fill="#717791"/>
<path d="M319.9 156.9C319.9 156.9 315.6 156.7 315.8 156.7C316 156.7 301.7 163.6 301.7 163.6L294.6 167.8L300.4 180.1L308.5 177.7L308.4 186.7L325.6 209L337.9 208.9L346.5 208.3L346.6 178.8L348 177.7L354.6 180.6L359.7 167.3L337.8 156.4L319.9 156.9Z" fill="#B8D4FF"/>
<path d="M345.9 209.9C344.6 210.1 343.3 210 341.9 210H337.9H335.9C335.2 210 334.6 209.9 333.9 209.9L329.9 209.7C329.6 209.7 329.4 209.4 329.4 209.1C329.4 208.8 329.6 208.6 329.9 208.6L333.9 208.4C334.6 208.4 335.2 208.3 335.9 208.3H337.9H341.9C343.2 208.3 344.5 208.2 345.9 208.4C346.3 208.5 346.6 208.9 346.5 209.3C346.5 209.6 346.2 209.8 345.9 209.9Z" fill="#717791"/>
<path d="M307.3 182.9V177.3L309.2 178.5L303.8 180.9L302.5 181.5C301.7 181.9 300.7 181.8 299.9 181.4C299.5 181.2 299.2 180.9 298.9 180.5C298.8 180.4 298.8 180.3 298.7 180.2L298.6 180L298.4 179.7L297.8 178.4L295.3 173.1L294 170.5L293.7 169.8L293.5 169.5C293.4 169.4 293.3 169.1 293.3 168.9C293.1 168 293.3 167 293.9 166.3C294.2 165.9 294.6 165.7 295 165.5L295.7 165.2L297 164.6L299.7 163.3L305 160.8L315.6 155.8C315.8 155.7 316 155.7 316.2 155.7H338.8C339 155.7 339.2 155.7 339.4 155.8L350 160.8L355.3 163.3L358 164.6L359.3 165.2L360 165.5C360.4 165.7 360.8 166 361 166.3C361.6 167 361.8 168 361.6 168.8C361.6 169 361.5 169.3 361.4 169.4L361.2 169.7L360.9 170.4L359.6 173L357.1 178.3L356.5 179.6L356.3 179.9C356.3 180 356.1 180.3 356 180.4C355.7 180.8 355.4 181.1 355 181.3C354.2 181.7 353.2 181.8 352.4 181.4L351.1 180.8L345.7 178.4L347.6 177.2C347.6 181 347.5 184.8 347.4 188.6C347.3 192.4 347.1 196.2 346.8 200C346.8 200.3 346.5 200.5 346.2 200.5C345.9 200.5 345.7 200.3 345.7 200C345.5 196.2 345.3 192.4 345.1 188.6C345 184.8 344.8 181 344.9 177.2C344.9 176.5 345.5 175.8 346.3 175.8C346.5 175.8 346.7 175.8 346.8 175.9L352.2 178.3L353.5 178.9C353.6 178.9 353.7 178.9 353.7 178.9C353.7 179.1 354.2 177.8 354.6 177L357.1 171.7L358.4 169.1L358.7 168.4L358.9 168.1C358.9 168 358.9 168.1 358.9 168C358.9 167.9 358.9 167.8 358.8 167.8C358.8 167.8 358.8 167.8 358.7 167.7L358 167.4L356.7 166.8L354 165.5L348.7 163L338.1 158L338.7 158.1H316L316.6 158L306 163L300.7 165.5L298 166.8L296.7 167.4L296 167.7C296 167.7 295.9 167.7 295.9 167.8C295.8 167.9 295.8 167.9 295.9 168C295.9 168 295.9 168 295.9 168.1L296.1 168.4L296.4 169.1L297.7 171.7L300.2 177L300.8 178.3L301 178.6V178.7C301 178.7 301 178.8 301.1 178.8C301.2 178.8 301.2 178.8 301.3 178.8L302.6 178.2L308 175.8C308.7 175.5 309.5 175.8 309.8 176.5C309.9 176.7 309.9 176.9 309.9 177.1V182.7C309.9 183.4 309.3 184.1 308.5 184.1C307.7 184.1 307.3 183.6 307.3 182.9Z" fill="#717791"/>
<path d="M317.5 163L317.4 162.3C317.3 161.9 317.6 161.5 318 161.5C318.1 161.5 318.3 161.5 318.4 161.6H318.5L319.1 161.9C319.7 162.2 319.9 162.8 319.7 163.4C319.4 164 318.8 164.2 318.2 164C317.8 163.7 317.5 163.3 317.5 163Z" fill="#717791"/>
<path d="M339.5 157.3C339.3 159.3 338.6 161.2 337.5 162.8C336.4 164.4 334.9 165.8 333.1 166.7C331.4 167.6 329.4 168.1 327.4 168.1C325.5 168.1 323.5 167.5 322 166.2C321.8 166 321.8 165.7 322 165.4C322.1 165.3 322.3 165.2 322.5 165.2C324.2 165.4 325.8 165.6 327.3 165.5C328.9 165.4 330.4 164.9 331.7 164.2C332.4 163.8 333 163.4 333.5 162.9C334.1 162.4 334.6 161.8 335 161.2C335.9 160 336.4 158.5 336.7 157V156.9C336.8 156.2 337.6 155.7 338.3 155.8C339.1 155.9 339.6 156.6 339.5 157.3Z" fill="#717791"/>
<path d="M318.4 214.4C318.1 214.4 317.9 214.4 317.6 214.3C316.2 214.1 315 214.5 313.8 215.3C312 216.5 312 216.5 310.2 215.3C309 214.5 307.8 214.2 306.4 214.3C304.4 214.5 304.3 214.5 303.5 212.6C302.9 211.3 301.9 210.3 300.6 209.7C298.8 208.9 298.7 208.8 298.9 206.8C299.1 205.4 298.7 204.1 297.9 202.9C296.7 201.2 296.7 201.1 297.9 199.4C298.7 198.2 299.1 197 298.9 195.5C298.7 193.5 298.8 193.4 300.6 192.6C302 192 302.9 191.1 303.5 189.7C304.3 187.8 304.5 187.8 306.5 188C307.9 188.2 309.1 187.8 310.3 187C312.1 185.7 312.1 185.7 313.9 187C315.1 187.8 316.3 188.2 317.7 188C319.7 187.8 319.8 187.8 320.7 189.7C321.3 191 322.2 192 323.6 192.6C325.5 193.4 325.5 193.6 325.3 195.6C325.1 197 325.5 198.3 326.3 199.5C327.5 201.2 327.5 201.3 326.3 202.9C325.5 204.1 325.1 205.3 325.3 206.8C325.5 208.8 325.4 208.9 323.6 209.7C322.3 210.3 321.3 211.2 320.7 212.6C320.6 212.8 320.5 213 320.4 213.3C320 214.1 319.4 214.6 318.4 214.4Z" fill="white"/>
<path d="M317.4 212.3C317.2 212.3 317 212.3 316.7 212.3C315.5 212.1 314.5 212.5 313.5 213.1C312 214.1 312 214.2 310.5 213.1C309.5 212.4 308.5 212.1 307.3 212.3C305.6 212.5 305.5 212.4 304.8 210.9C304.3 209.8 303.5 209 302.4 208.5C300.9 207.8 300.8 207.7 301 206C301.1 204.8 300.8 203.7 300.1 202.7C299.1 201.3 299.1 201.2 300.1 199.8C300.8 198.8 301.1 197.8 301 196.5C300.8 194.8 300.9 194.7 302.4 194C303.5 193.5 304.3 192.7 304.8 191.6C305.5 190 305.6 190 307.3 190.2C308.5 190.3 309.5 190.1 310.5 189.4C312 188.3 312 188.3 313.5 189.4C314.5 190.1 315.5 190.4 316.7 190.2C318.4 190 318.5 190.1 319.2 191.6C319.7 192.7 320.5 193.5 321.6 194C323.2 194.7 323.2 194.8 323 196.5C322.9 197.7 323.2 198.8 323.9 199.7C324.9 201.1 324.9 201.2 323.9 202.6C323.2 203.6 322.9 204.7 323 205.9C323.2 207.6 323.1 207.7 321.6 208.4C320.5 208.9 319.7 209.7 319.2 210.8C319.1 211 319 211.2 318.9 211.4C318.8 212.1 318.3 212.5 317.4 212.3Z" fill="#D5BEFD"/>
<path d="M327 203.8C327.1 204.5 327 205 326.9 205.5C326.8 206 326.8 206.5 326.9 207.1C326.9 207.4 327 207.8 327 208.2C327 208.6 327 209.1 326.7 209.8C326.3 210.4 325.9 210.6 325.5 210.8C325.2 211 324.9 211.1 324.6 211.3C323.6 211.8 322.8 212.4 322.3 213.3C322.2 213.4 322.2 213.5 322.1 213.7L321.9 214.1C321.8 214.3 321.6 214.8 321.3 215.2C321 215.6 320.5 216 320 216.2C319.4 216.4 318.9 216.3 318.4 216.3H318.6C318.2 216.3 317.7 216.2 317.4 216.2C317.1 216.2 316.8 216.2 316.5 216.2C315.9 216.3 315.4 216.5 314.8 216.9L313.9 217.5C313.5 217.7 313.2 218 312.4 218.2C312 218.3 311.6 218.2 311.2 218.1C310.9 218 310.6 217.9 310.5 217.7C310.1 217.5 309.8 217.2 309.5 217C309 216.6 308.4 216.4 307.9 216.2C307.6 216.1 307.3 216.1 307 216.1C306.7 216.1 306.4 216.1 306 216.2C305.6 216.2 305.2 216.3 304.6 216.2C304.3 216.2 303.9 216 303.5 215.8C303.1 215.6 302.9 215.3 302.8 215.1C302.2 214.2 302.1 213.5 301.7 213C301.4 212.5 301 212.1 300.5 211.7C300.3 211.5 300 211.4 299.7 211.2C299.3 211 299 210.9 298.6 210.6C298.4 210.5 298.1 210.3 297.9 210.1C297.6 209.9 297.4 209.4 297.3 209.1C297.1 208.3 297.2 207.9 297.2 207.5L297.3 206.9C297.3 206.7 297.3 206.6 297.3 206.4C297.3 206.1 297.3 205.8 297.2 205.5C297.1 204.9 296.9 204.4 296.5 203.9L295.9 203C295.7 202.6 295.3 202.2 295.3 201.3C295.3 200.9 295.4 200.5 295.5 200.2C295.6 199.9 295.8 199.7 295.9 199.5C296.1 199.1 296.4 198.8 296.6 198.5C297 198 297.2 197.4 297.3 196.9C297.4 196.6 297.4 196.3 297.4 196C297.4 195.8 297.4 195.7 297.4 195.5L297.3 194.9C297.3 194.5 297.2 194.1 297.3 193.4C297.4 193.1 297.6 192.6 297.8 192.3C298.1 192 298.3 191.9 298.5 191.7C298.9 191.4 299.3 191.3 299.7 191.1C300 191 300.3 190.8 300.5 190.7C301 190.4 301.4 189.9 301.8 189.4C302 189.1 302.1 188.9 302.3 188.5C302.5 188.1 302.6 187.8 302.9 187.3C303 187.1 303.2 186.8 303.5 186.6C303.8 186.3 304.2 186.2 304.6 186.1C305.3 186 305.7 186.1 306.1 186.1L306.7 186.2C306.9 186.2 307 186.2 307.2 186.2C307.5 186.2 307.8 186.2 308.1 186.1C308.7 186 309.2 185.7 309.8 185.4C310.1 185.2 310.4 185 310.8 184.7C311 184.6 311.2 184.5 311.5 184.3C311.8 184.2 312.2 184.1 312.6 184.1C313.4 184.2 313.8 184.5 314.2 184.8L315.1 185.5C315.6 185.9 316.2 186.1 316.8 186.2C317.1 186.3 317.4 186.3 317.7 186.3C318 186.3 318.4 186.2 318.8 186.2C319.2 186.2 319.7 186.1 320.4 186.3C320.8 186.4 321.1 186.7 321.3 186.9C321.5 187.1 321.7 187.4 321.8 187.6C322 188 322.2 188.4 322.3 188.7C322.4 189 322.6 189.3 322.8 189.5C323.1 190 323.6 190.4 324.1 190.8L324.5 191.1L324.7 191.2C324.8 191.3 324.9 191.3 325 191.4C325.4 191.7 325.7 191.9 326 192.2C326.2 192.5 326.2 192.8 326 193.1C325.9 193.2 325.7 193.3 325.5 193.3H325.3C324.9 193.3 324.6 193.2 324.2 193.1C324.1 193.1 324 193.1 324 193L323.7 192.9C323.5 192.8 323.3 192.7 323.1 192.6C322.3 192.2 321.6 191.5 321.1 190.8C320.8 190.4 320.6 190 320.4 189.6C320.2 189.3 320.1 188.9 319.9 188.7C319.8 188.6 319.8 188.5 319.7 188.4C319.7 188.4 319.4 188.4 319 188.4C318.7 188.4 318.3 188.5 317.8 188.5C317.3 188.5 316.9 188.5 316.4 188.4C315.5 188.2 314.6 187.9 313.9 187.4L312.9 186.7C312.6 186.5 312.3 186.4 312.4 186.4C312.5 186.4 312.3 186.4 312.1 186.6C311.8 186.8 311.5 187 311.2 187.2C310.5 187.7 309.6 188.1 308.7 188.3C308.2 188.4 307.8 188.4 307.3 188.4C307.1 188.4 306.8 188.4 306.6 188.4L306 188.3C305.7 188.3 305.3 188.3 305.2 188.3C305.2 188.3 305.2 188.4 305.1 188.5C305 188.7 304.8 189.1 304.7 189.4C304.5 189.8 304.3 190.2 304.1 190.6C303.6 191.4 302.9 192.1 302.2 192.6C301.8 192.9 301.4 193.1 301 193.2C300.7 193.4 300.3 193.5 300.1 193.6C300 193.7 299.9 193.7 299.9 193.7C299.9 193.7 299.9 193.6 299.9 193.7C299.9 193.8 299.9 194.1 299.9 194.5L300 195.1C300 195.3 300 195.6 300 195.8C300 196.3 300 196.7 299.9 197.2C299.7 198.1 299.3 199 298.8 199.8C298.6 200.2 298.3 200.4 298.2 200.7C298 201 298 201.2 298 201C298 200.9 298.1 201.1 298.2 201.4L298.9 202.3C299.4 203.1 299.8 203.9 300 204.9C300.1 205.4 300.1 205.8 300.1 206.3C300.1 206.5 300.1 206.8 300 207L299.9 207.5C299.9 207.8 299.9 208.2 299.9 208.2C299.9 208.2 299.8 208.1 299.9 208.1C299.9 208.1 300 208.2 300.1 208.2C300.3 208.3 300.7 208.5 301 208.7C301.4 208.9 301.8 209.1 302.2 209.4C303 209.9 303.6 210.6 304.1 211.4C304.6 212.2 304.9 213 305.1 213.4C305.2 213.5 305.2 213.5 305.2 213.5C305.2 213.5 305.1 213.5 305.2 213.5C305.3 213.5 305.7 213.5 306.1 213.5C306.4 213.5 306.9 213.4 307.4 213.4C307.9 213.4 308.3 213.5 308.8 213.6C309.7 213.8 310.6 214.2 311.3 214.7C311.6 214.9 311.9 215.1 312.2 215.3C312.3 215.4 312.4 215.4 312.5 215.4C312.5 215.4 312.8 215.3 313.1 215.1C313.4 214.9 313.7 214.7 314.1 214.4C314.9 213.9 315.7 213.5 316.7 213.4C317.2 213.3 317.7 213.3 318.1 213.4C318.6 213.5 318.8 213.5 319.2 213.5C319.3 213.5 319.3 213.5 319.4 213.5C319.6 213.5 319.7 213.5 319.7 213.5C319.7 213.5 319.8 213.5 319.9 213.3C320 213.2 320.1 213 320.2 212.7L320.4 212.3C320.5 212.1 320.6 211.9 320.6 211.8C321.3 210.4 322.6 209.3 324 208.8C324.3 208.7 324.6 208.5 324.8 208.4C325 208.3 325.1 208.2 325.1 208.2C325.1 208.3 325.1 208.1 325.1 207.9C325.1 207.7 325.1 207.4 325 207C324.9 206.3 324.9 205.5 325.1 204.7C325.3 203.9 325.7 203.2 326.4 202.8C326.7 202.6 327.2 202.8 327.3 203.1C327 203.5 327 203.6 327 203.8Z" fill="#717791"/>
<path d="M306.2 206.5C306.7 205.2 307.6 204.2 308.4 203.2C309.3 202.2 310.3 201.4 311.2 200.5C313.1 198.7 315 196.9 317 195.2C317.4 194.9 317.9 194.9 318.3 195.3C318.6 195.6 318.6 196.1 318.3 196.5C316.6 198.5 314.8 200.4 313 202.3C312.1 203.2 311.2 204.2 310.3 205.1C309.3 206 308.3 206.8 307 207.3C306.7 207.4 306.3 207.3 306.2 206.9C306.1 206.8 306.1 206.6 306.2 206.5Z" fill="#717791"/>
<path d="M307.8 199.7C309.236 199.7 310.4 198.536 310.4 197.1C310.4 195.664 309.236 194.5 307.8 194.5C306.364 194.5 305.2 195.664 305.2 197.1C305.2 198.536 306.364 199.7 307.8 199.7Z" stroke="#717791" stroke-width="2.2" stroke-miterlimit="10" stroke-linecap="round" stroke-linejoin="round"/>
<path d="M316.4 208.1C317.836 208.1 319 206.936 319 205.5C319 204.064 317.836 202.9 316.4 202.9C314.964 202.9 313.8 204.064 313.8 205.5C313.8 206.936 314.964 208.1 316.4 208.1Z" stroke="#717791" stroke-width="2.2" stroke-miterlimit="10" stroke-linecap="round" stroke-linejoin="round"/>
<path d="M333.2 176.8C334.7 176.7 339 176.8 340.6 176.8H333.2Z" fill="white"/>
<path d="M333.1 175.9C334.3 175.7 335.6 175.6 336.8 175.6C338 175.6 339.3 175.7 340.5 176C340.9 176.1 341.2 176.6 341.1 177C341 177.3 340.8 177.5 340.5 177.6C339.3 177.9 338.1 178 336.8 178C335.6 178 334.4 178 333.1 177.7H333C332.5 177.6 332.2 177.1 332.3 176.6C332.4 176.2 332.7 176 333.1 175.9Z" fill="#717791"/>
<path d="M326.3 195.8C326.5 196.2 326.5 196.5 326.5 196.8C326.4 197.1 326.3 197.4 326.1 197.7C325.7 198.1 325 198.1 324.6 197.7C324.5 197.6 324.4 197.4 324.3 197.3C324.2 196.9 324.2 196.6 324.3 196.3C324.4 196 324.6 195.7 324.9 195.5C325.5 195.2 326 195.4 326.3 195.8Z" fill="#717791"/>
<path d="M325.2 199.7C325.7 199.6 326.1 199.7 326.7 200C326.9 200.1 327.2 200.4 327.4 200.7C327.6 201 327.7 201.4 327.7 201.7C327.7 202.4 327.5 202.9 327.3 203.3C327.1 203.7 326.8 204 326.4 204.3C326.1 204.5 325.8 204.4 325.6 204.2C325.5 204.1 325.5 204 325.5 203.9C325.5 203.5 325.6 203.1 325.6 202.8C325.6 202.5 325.7 202.2 325.6 202C325.6 201.9 325.6 201.8 325.5 201.6C325.4 201.4 325.1 201.1 324.9 200.7C324.8 200.5 324.8 200.2 325.1 200C325.1 199.7 325.1 199.7 325.2 199.7Z" fill="#717791"/>
<path opacity="0.2" d="M260.1 234.6L276.1 233.4H285L288.4 249.7L291.7 244.1L295.4 244.4L303.3 313.1L283.7 312L260.1 234.6Z" fill="#3F72BA"/>
<path d="M287.4 260.8H221.6L228 231.8H280.9L287.4 260.8Z" fill="white" stroke="#717791" stroke-width="3" stroke-miterlimit="10" stroke-linecap="round" stroke-linejoin="round"/>
<path d="M214.3 313.3C213.5 312.4 213.1 311.3 213.2 310L219 245.5C219.2 243.8 220.6 242.5 222.3 242.5H290C290.9 242.5 291.7 243.2 291.8 244.1L297.7 310.1C297.8 311.6 297.2 313 296.1 313.9C295.6 314.3 295.3 314.7 295 315.2" fill="white"/>
<path d="M213.8 313.8C212.8 312.9 212.3 311.5 212.3 310.2C212.3 309 212.4 307.9 212.4 306.8C212.5 304.6 212.6 302.3 212.8 300.1C213.1 295.6 213.5 291.1 213.9 286.7L216.2 259.8L217.4 246.4L217.5 245.6C217.5 245.3 217.6 244.8 217.7 244.4C218 243.6 218.4 242.9 219 242.3C219.6 241.7 220.4 241.3 221.2 241.1C221.6 241 222 241 222.4 241H223.2H229.9L256.9 240.9H283.9H287.3H289H289.8C289.9 240.9 290.2 240.9 290.5 240.9C290.8 240.9 291 241 291.3 241.1C292.3 241.5 293.1 242.4 293.4 243.5C293.5 244.2 293.5 244.3 293.5 244.6L293.6 245.4L293.9 248.8L295.1 262.2L297.4 289.1L298.6 302.5L299.2 309.2L299.3 310.1C299.3 310.5 299.3 310.9 299.3 311.2C299.2 312 298.9 312.7 298.6 313.3C298.2 313.9 297.7 314.6 297.2 315C296.9 315.2 296.5 315.3 295.5 315.3H295.4C295.1 315.3 294.9 315.2 294.8 314.9C294.3 314 294.7 313.1 295.2 312.6C295.6 312.3 295.8 312.1 296 311.7C296.2 311.4 296.3 311 296.3 310.7C296.3 310.5 296.3 310.3 296.3 310.2L296.2 309.4L295.6 302.7L294.4 289.3L291.9 262.4L290.7 249L290.4 245.6L290.3 244.2C290.3 244.2 290.3 244.2 290.3 244.1H284.2H257.2L230.2 244H223.5H222.7C222.5 244 222.4 244 222.2 244.1C221.9 244.2 221.6 244.3 221.4 244.5C221.2 244.7 221 245 220.9 245.2C220.8 245.4 220.8 245.5 220.8 245.7L220.7 246.5L219.5 259.9L217 286.8C216.6 291.3 216.2 295.8 215.7 300.2C215.5 302.4 215.2 304.7 214.9 306.9C214.8 308 214.6 309.2 214.5 310.2C214.4 311.1 214.7 312 215.2 312.7C215.5 313 215.4 313.5 215 313.8C214.4 314.1 214 314.1 213.8 313.8Z" fill="#717791"/>
<path d="M221.6 242.5L233.2 237.1L228 231.7H281L277.1 236.2L290.3 242.4L221.6 242.5Z" fill="#E5EEFD" stroke="#717791" stroke-width="3" stroke-miterlimit="10" stroke-linecap="round" stroke-linejoin="round"/>
<path d="M272 257.8V265.1C272 274.6 263.4 280.8 254 280.8C244.5 280.8 237.7 274.5 237.7 265.1V257.8" stroke="#717791" stroke-width="3" stroke-miterlimit="10" stroke-linecap="round" stroke-linejoin="round"/>
<path d="M242.7 260.7C242.3 261.9 241.3 262.8 240 263.3C238.8 263.8 237.3 263.7 236.1 263.2C234.9 262.7 233.8 261.8 233.1 260.7C232.4 259.5 232.2 258.2 232.3 256.9C232.5 255.6 233.1 254.4 234.1 253.5C235 252.6 236.3 252 237.5 251.9C238.8 251.8 240 252.1 241.1 252.8C242.1 253.5 242.8 254.6 243 255.7C243.1 256 242.9 256.3 242.6 256.3C242.4 256.3 242.2 256.3 242.1 256.1C241 254.6 239.4 254 237.9 254.3C236.4 254.6 235.3 255.9 235.3 257.3C235.2 258.7 236 260 237.3 260.5C237.9 260.8 238.6 260.8 239.3 260.7C240 260.6 240.7 260.4 241.5 259.9H241.6C242 259.7 242.5 259.8 242.7 260.2C242.8 260.2 242.8 260.5 242.7 260.7Z" fill="#717791"/>
<path d="M275.8 260.7C275.4 261.9 274.4 262.8 273.1 263.3C271.9 263.8 270.4 263.7 269.2 263.2C268 262.7 266.9 261.8 266.2 260.7C265.5 259.5 265.3 258.2 265.4 256.9C265.6 255.6 266.2 254.4 267.2 253.5C268.1 252.6 269.4 252 270.6 251.9C271.9 251.8 273.1 252.1 274.2 252.8C275.2 253.5 275.9 254.6 276.1 255.7C276.2 256 276 256.3 275.7 256.3C275.5 256.3 275.3 256.3 275.2 256.1C274.1 254.6 272.5 254 271 254.3C269.5 254.6 268.4 255.9 268.4 257.3C268.3 258.7 269.1 260 270.4 260.5C271 260.8 271.7 260.8 272.4 260.7C273.1 260.6 273.8 260.4 274.6 259.9H274.7C275.1 259.7 275.6 259.8 275.8 260.2C275.8 260.2 275.8 260.5 275.8 260.7Z" fill="#717791"/>
<path d="M244.6 91.3C241.8 91.8 239 92 236.1 92.2C233.3 92.4 230.5 92.4 227.6 92.3H227.5C226.8 92.3 226.3 91.8 226.2 91.1C225.6 88.4 225 85.7 223.7 83.6C222.4 81.5 220.4 79.8 218.1 79.3C215.9 78.8 213.3 79.6 212.1 81.3C210.8 83 210.8 85.7 211.1 88.4H208.1C208.2 87 207.9 85.6 207.1 84.5C206.3 83.4 205.2 82.7 203.9 82.6C202.6 82.5 201.4 82.9 200.6 83.8C199.8 84.7 199.6 86.1 200 87.1L197.3 88.3C197.3 88.3 197.2 88.2 197.1 88.1C196.9 88 196.7 88 196.5 88.1C196.2 88.2 195.7 88.6 195.4 89.2C195.1 89.8 195 90.6 195 91.4C195 92.2 195.3 92.9 195.6 93.6C196 94.3 195.7 95.3 195 95.7C194.8 95.8 194.5 95.9 194.3 95.9C191.7 96 189.1 95.9 186.6 95.9C184 95.8 181.4 95.8 178.9 95.7C173.7 95.5 168.6 95.3 163.4 94.9C163.1 94.9 162.9 94.6 162.9 94.4C162.9 94.1 163.1 94 163.4 93.9C168.6 93.5 173.7 93.3 178.9 93.1C181.5 93 184.1 92.9 186.6 92.9C189.2 92.9 191.8 92.8 194.3 92.9L193 95.1C192.4 94 192.1 92.9 192 91.6C191.9 90.4 192.1 89.2 192.6 88C193.1 86.9 194.1 85.6 195.7 85.2C196.5 85 197.3 85.1 198 85.3C198.8 85.6 199.5 86.2 199.9 87.1C200.2 87.9 199.9 88.7 199.1 89.1C198.3 89.4 197.5 89.1 197.1 88.3C196.1 86.1 196.7 83.6 198.1 81.9C198.8 81 199.8 80.3 200.8 80C201.8 79.6 203 79.5 204 79.6C205.1 79.7 206.1 80.1 207 80.6C207.9 81.2 208.7 81.9 209.3 82.8C210.5 84.5 211 86.6 210.8 88.7C210.7 89.5 210 90.1 209.2 90.1C208.5 90 207.9 89.4 207.8 88.7C207.7 87.3 207.6 85.8 207.7 84.2C207.9 82.6 208.3 80.9 209.4 79.5C210.5 78.1 212 77.1 213.6 76.6C215.2 76.1 216.9 76 218.6 76.4C221.9 77.2 224.5 79.4 226.1 82.1C227.7 84.8 228.4 87.8 229 90.5L227.5 89.3C230.3 89.2 233.1 89.3 236 89.4C238.8 89.6 241.6 89.8 244.5 90.3C244.8 90.3 244.9 90.6 244.9 90.9C245 91.1 244.8 91.3 244.6 91.3Z" fill="#717791"/>
<path d="M445.4 180.4H374.4C373 180.4 371.8 179.2 371.8 177.8V164.6C371.8 163.2 373 162 374.4 162H445.4C446.8 162 448 163.2 448 164.6V177.8C448 179.3 446.8 180.4 445.4 180.4Z" fill="white"/>
<path d="M393.8 161.3C397.4 161 401 161 404.6 161H415.4H437.1H442.5H445.2C445.4 161 445.8 161 446.1 161.1C446.4 161.2 446.7 161.3 447 161.4C447.6 161.7 448.1 162.1 448.4 162.7C448.7 163.2 448.9 163.9 448.9 164.5V165.9V168.6V174V176.7V178.1C448.9 178.7 448.7 179.4 448.4 179.9C448.1 180.4 447.6 180.9 447 181.1C446.7 181.2 446.4 181.3 446.1 181.4C445.8 181.5 445.4 181.5 445.3 181.5H442.6H431.8L388.4 181.4H377.6H374.9C374.6 181.4 374.5 181.4 374.2 181.4C373.9 181.4 373.6 181.3 373.3 181.2C372.7 181 372.2 180.6 371.8 180.1C371.4 179.6 371.2 179 371.1 178.4C371.1 178.3 371.1 178.1 371.1 177.9V177.6V176.9V174.2V168.8V166.1V164.7C371.1 164.5 371.1 164.2 371.2 163.9C371.3 163.6 371.3 163.3 371.5 163C372 161.9 373.2 161.1 374.4 161.1H377.1C378.9 161.1 380.7 161.2 382.5 161.4C382.8 161.4 383 161.7 383 162C383 162.3 382.8 162.5 382.5 162.5C380.7 162.6 378.9 162.7 377.1 162.8H374.4C373.8 162.8 373.3 163.2 373 163.7C372.9 163.8 372.9 164 372.9 164.1C372.9 164.2 372.9 164.4 372.9 164.6V166V168.7V174.1V176.8V177.5V177.8C372.9 177.9 372.9 177.9 372.9 178C372.9 178.3 373.1 178.6 373.2 178.8C373.4 179 373.6 179.2 373.9 179.3C374.2 179.4 374.4 179.4 374.9 179.4H377.6H388.4L431.8 179.3H442.6H445.3C445.6 179.3 445.7 179.3 445.8 179.3C445.9 179.3 446.1 179.2 446.2 179.2C446.4 179.1 446.7 178.9 446.8 178.7C446.9 178.5 447 178.2 447 177.9V176.6V173.9V168.5V165.8V164.5C447 164.2 446.9 164 446.8 163.7C446.7 163.5 446.4 163.3 446.2 163.2C446.1 163.1 446 163.1 445.8 163.1C445.7 163.1 445.6 163.1 445.3 163.1H442.6H437.2H415.5H404.7C401.1 163.1 397.5 163.1 393.9 162.8C393.5 162.8 393.2 162.4 393.2 162C393.1 161.6 393.4 161.3 393.8 161.3Z" fill="#717791"/>
<path d="M390.9 161.2L391.1 161.3C391.5 161.5 391.6 162 391.4 162.3C391.3 162.4 391.2 162.5 391.1 162.6L390.9 162.7C390.5 162.9 389.9 162.8 389.7 162.4C389.5 162 389.6 161.4 390 161.2C390.3 161.1 390.6 161.1 390.9 161.2Z" fill="#717791"/>
<path d="M383.6 167.3L384.7 169.5C384.8 169.7 384.9 169.8 385.1 169.8L387.5 170.1C387.9 170.2 388.1 170.7 387.8 171L386.1 172.7C386 172.8 385.9 173 385.9 173.2L386.3 175.6C386.4 176 385.9 176.4 385.5 176.2L383.4 175.1C383.2 175 383.1 175 382.9 175.1L380.8 176.2C380.4 176.4 380 176.1 380 175.6L380.4 173.2C380.4 173 380.4 172.9 380.2 172.7L378.5 171C378.2 170.7 378.4 170.2 378.8 170.1L381.2 169.8C381.4 169.8 381.5 169.7 381.6 169.5L382.7 167.3C382.8 166.9 383.4 166.9 383.6 167.3Z" fill="#FDD1BE"/>
<path d="M383.3 166.3L384.5 168.7C384.6 168.9 384.8 169 384.9 169L387.6 169.4C388.1 169.5 388.3 170.1 387.9 170.4L386 172.3C385.9 172.4 385.8 172.6 385.8 172.8L386.3 175.4C386.4 175.9 385.9 176.2 385.4 176L383 174.8C382.8 174.7 382.6 174.7 382.5 174.8L380.1 176C379.7 176.2 379.2 175.9 379.2 175.4L379.7 172.8C379.7 172.6 379.7 172.4 379.5 172.3L377.6 170.4C377.3 170.1 377.4 169.5 377.9 169.4L380.6 169C380.8 169 381 168.9 381 168.7L382.2 166.3C382.4 165.9 383.1 165.9 383.3 166.3Z" stroke="#717791" stroke-miterlimit="10" stroke-linecap="round" stroke-linejoin="round"/>
<path d="M397.2 167.3L398.3 169.5C398.4 169.7 398.5 169.8 398.7 169.8L401.1 170.1C401.5 170.2 401.7 170.7 401.4 171L399.7 172.7C399.6 172.8 399.5 173 399.5 173.2L399.9 175.6C400 176 399.5 176.4 399.1 176.2L397 175C396.8 174.9 396.7 174.9 396.5 175L394.4 176.1C394 176.3 393.6 176 393.6 175.5L394 173.1C394 172.9 394 172.8 393.8 172.6L392.1 170.9C391.8 170.6 392 170.1 392.4 170L394.8 169.7C395 169.7 395.1 169.6 395.2 169.4L396.3 167.2C396.5 166.9 397 166.9 397.2 167.3Z" fill="#FDD1BE"/>
<path d="M396.9 166.3L398.1 168.7C398.2 168.9 398.4 169 398.5 169L401.2 169.4C401.7 169.5 401.9 170.1 401.5 170.4L399.6 172.3C399.5 172.4 399.4 172.6 399.4 172.8L399.9 175.4C400 175.9 399.5 176.2 399 176L396.6 174.8C396.4 174.7 396.2 174.7 396.1 174.8L393.7 176C393.3 176.2 392.8 175.9 392.8 175.4L393.3 172.8C393.3 172.6 393.3 172.4 393.1 172.3L391.2 170.4C390.9 170.1 391 169.5 391.5 169.4L394.2 169C394.4 169 394.6 168.9 394.6 168.7L395.8 166.3C396 165.9 396.7 165.9 396.9 166.3Z" stroke="#717791" stroke-miterlimit="10" stroke-linecap="round" stroke-linejoin="round"/>
<path d="M410.8 167.3L411.9 169.5C412 169.7 412.1 169.8 412.3 169.8L414.7 170.1C415.1 170.2 415.3 170.7 415 171L413.3 172.7C413.2 172.8 413.1 173 413.1 173.2L413.5 175.6C413.6 176 413.1 176.4 412.7 176.2L410.6 175.1C410.4 175 410.3 175 410.1 175.1L408 176.2C407.6 176.4 407.2 176.1 407.2 175.6L407.6 173.2C407.6 173 407.6 172.9 407.4 172.7L405.7 171C405.4 170.7 405.6 170.2 406 170.1L408.4 169.8C408.6 169.8 408.7 169.7 408.8 169.5L409.9 167.3C410.1 166.9 410.6 166.9 410.8 167.3Z" fill="#FDD1BE"/>
<path d="M410.5 166.3L411.7 168.7C411.8 168.9 412 169 412.1 169L414.8 169.4C415.3 169.5 415.5 170.1 415.1 170.4L413.2 172.3C413.1 172.4 413 172.6 413 172.8L413.5 175.4C413.6 175.9 413.1 176.2 412.6 176L410.2 174.8C410 174.7 409.8 174.7 409.7 174.8L407.3 176C406.9 176.2 406.4 175.9 406.4 175.4L406.9 172.8C406.9 172.6 406.9 172.4 406.7 172.3L404.8 170.4C404.5 170.1 404.6 169.5 405.1 169.4L407.8 169C408 169 408.2 168.9 408.2 168.7L409.4 166.3C409.7 165.9 410.3 165.9 410.5 166.3Z" stroke="#717791" stroke-miterlimit="10" stroke-linecap="round" stroke-linejoin="round"/>
<path d="M424.5 167.3L425.6 169.5C425.7 169.7 425.8 169.8 426 169.8L428.4 170.1C428.8 170.2 429 170.7 428.7 171L427 172.7C426.9 172.8 426.8 173 426.8 173.2L427.2 175.6C427.3 176 426.8 176.4 426.4 176.2L424.3 175.1C424.1 175 424 175 423.8 175.1L421.7 176.2C421.3 176.4 420.9 176.1 420.9 175.6L421.3 173.2C421.3 173 421.3 172.9 421.1 172.7L419.4 171C419.1 170.7 419.3 170.2 419.7 170.1L422.1 169.8C422.3 169.8 422.4 169.7 422.5 169.5L423.6 167.3C423.7 166.9 424.3 166.9 424.5 167.3Z" fill="#FDD1BE"/>
<path d="M424.1 166.3L425.3 168.7C425.4 168.9 425.6 169 425.7 169L428.4 169.4C428.9 169.5 429.1 170.1 428.7 170.4L426.8 172.3C426.7 172.4 426.6 172.6 426.6 172.8L427.1 175.4C427.2 175.9 426.7 176.2 426.2 176L423.8 174.8C423.6 174.7 423.4 174.7 423.3 174.8L420.9 176C420.5 176.2 420 175.9 420 175.4L420.5 172.8C420.5 172.6 420.5 172.4 420.3 172.3L418.4 170.4C418.1 170.1 418.2 169.5 418.7 169.4L421.4 169C421.6 169 421.8 168.9 421.8 168.7L423 166.3C423.3 165.9 423.9 165.9 424.1 166.3Z" stroke="#717791" stroke-miterlimit="10" stroke-linecap="round" stroke-linejoin="round"/>
<path d="M438.1 167.3L439.2 169.5C439.3 169.7 439.4 169.8 439.6 169.8L442 170.1C442.4 170.2 442.6 170.7 442.3 171L440.6 172.7C440.5 172.8 440.4 173 440.4 173.2L440.8 175.6C440.9 176 440.4 176.4 440 176.2L437.9 175.1C437.7 175 437.6 175 437.4 175.1L435.3 176.2C434.9 176.4 434.5 176.1 434.5 175.6L434.9 173.2C434.9 173 434.9 172.9 434.7 172.7L433 171C432.7 170.7 432.9 170.2 433.3 170.1L435.7 169.8C435.9 169.8 436 169.7 436.1 169.5L437.2 167.3C437.3 166.9 437.9 166.9 438.1 167.3Z" fill="#FDD1BE"/>
<path d="M437.7 166.3L438.9 168.7C439 168.9 439.2 169 439.3 169L442 169.4C442.5 169.5 442.7 170.1 442.3 170.4L440.4 172.3C440.3 172.4 440.2 172.6 440.2 172.8L440.7 175.4C440.8 175.9 440.3 176.2 439.8 176L437.4 174.8C437.2 174.7 437 174.7 436.9 174.8L434.5 176C434.1 176.2 433.6 175.9 433.6 175.4L434.1 172.8C434.1 172.6 434.1 172.4 433.9 172.3L432 170.4C431.7 170.1 431.8 169.5 432.3 169.4L435 169C435.2 169 435.4 168.9 435.4 168.7L436.6 166.3C436.9 165.9 437.5 165.9 437.7 166.3Z" stroke="#717791" stroke-miterlimit="10" stroke-linecap="round" stroke-linejoin="round"/>
<path d="M255.4 144.3H254.2C247.9 144.3 242.8 139.2 242.8 132.9V127.2H266.8V132.9C266.8 139.2 261.7 144.3 255.4 144.3Z" fill="white" stroke="#717791" stroke-width="2.331" stroke-miterlimit="10" stroke-linecap="round" stroke-linejoin="round"/>
<path d="M279.6 144.3H278.4C272.1 144.3 267 139.2 267 132.9V127.2H291V132.9C291 139.2 285.9 144.3 279.6 144.3Z" fill="#FFBFBF" stroke="#717791" stroke-width="2.331" stroke-miterlimit="10" stroke-linecap="round" stroke-linejoin="round"/>
<path d="M303.8 144.3H302.6C296.3 144.3 291.2 139.2 291.2 132.9V127.2H315.2V132.9C315.2 139.2 310.1 144.3 303.8 144.3Z" fill="white" stroke="#717791" stroke-width="2.331" stroke-miterlimit="10" stroke-linecap="round" stroke-linejoin="round"/>
<path d="M328 144.3H326.8C320.5 144.3 315.4 139.2 315.4 132.9V127.2H339.4V132.9C339.4 139.2 334.3 144.3 328 144.3Z" fill="#FFBFBF" stroke="#717791" stroke-width="2.331" stroke-miterlimit="10" stroke-linecap="round" stroke-linejoin="round"/>
<path d="M352.1 144.3H350.9C344.6 144.3 339.5 139.2 339.5 132.9V127.2H363.5V132.9C363.5 139.2 358.4 144.3 352.1 144.3Z" fill="white" stroke="#717791" stroke-width="2.331" stroke-miterlimit="10" stroke-linecap="round" stroke-linejoin="round"/>
<path d="M376.3 144.3H375.1C368.8 144.3 363.7 139.2 363.7 132.9V127.2H387.7V132.9C387.7 139.2 382.6 144.3 376.3 144.3Z" fill="#FFBFBF" stroke="#717791" stroke-width="2.331" stroke-miterlimit="10" stroke-linecap="round" stroke-linejoin="round"/>
<path d="M400.5 144.3H399.3C393 144.3 387.9 139.2 387.9 132.9V127.2H411.9V132.9C411.9 139.2 406.8 144.3 400.5 144.3Z" fill="white" stroke="#717791" stroke-width="2.331" stroke-miterlimit="10" stroke-linecap="round" stroke-linejoin="round"/>
<path d="M283.5 108.1H266.3L242.8 127.2H266.8L283.5 108.1Z" fill="white" stroke="#717791" stroke-width="2.331" stroke-miterlimit="10" stroke-linecap="round" stroke-linejoin="round"/>
<path d="M300.9 108.1H283.7L267 127.2H291L300.9 108.1Z" fill="#FFBFBF" stroke="#717791" stroke-width="2.331" stroke-miterlimit="10" stroke-linecap="round" stroke-linejoin="round"/>
<path d="M317.5 108.1H301L291.2 127.2H315.2L317.5 108.1Z" fill="white" stroke="#717791" stroke-width="2.331" stroke-miterlimit="10" stroke-linecap="round" stroke-linejoin="round"/>
<path d="M334.8 108.1H317.6L315.3 127.2H339.4L334.8 108.1Z" fill="#FFBFBF" stroke="#717791" stroke-width="2.331" stroke-miterlimit="10" stroke-linecap="round" stroke-linejoin="round"/>
<path d="M351.4 108.1H335L339.5 127.2H363.5L351.4 108.1Z" fill="white" stroke="#717791" stroke-width="2.331" stroke-miterlimit="10" stroke-linecap="round" stroke-linejoin="round"/>
<path d="M368.8 108.1H351.6L363.7 127.2H387.7L368.8 108.1Z" fill="#FFBFBF" stroke="#717791" stroke-width="2.331" stroke-miterlimit="10" stroke-linecap="round" stroke-linejoin="round"/>
<path d="M386.1 108.1H368.9L387.9 127.2H411.9L386.1 108.1Z" fill="white" stroke="#717791" stroke-width="2.331" stroke-miterlimit="10" stroke-linecap="round" stroke-linejoin="round"/>
<path d="M429.3 127.8C432 127.3 434.6 127.1 437.3 126.9C440 126.7 442.6 126.7 445.3 126.8L443.8 128C444.4 125.4 445 122.6 446.5 120C448 117.5 450.5 115.3 453.6 114.6C455.2 114.2 456.8 114.3 458.3 114.8C459.8 115.3 461.3 116.2 462.3 117.6C463.3 119 463.8 120.6 463.9 122.1C464.1 123.6 464 125 463.8 126.4C463.7 127.2 463 127.8 462.2 127.8C461.5 127.7 460.9 127.2 460.8 126.4C460.6 124.4 461.1 122.4 462.3 120.8C462.9 120 463.6 119.2 464.5 118.7C465.4 118.2 466.4 117.8 467.4 117.7C468.4 117.6 469.5 117.7 470.5 118C471.5 118.4 472.4 119 473.1 119.9C474.4 121.5 475 123.9 474 126C473.7 126.8 472.8 127.1 472 126.8C471.2 126.5 470.9 125.6 471.2 124.8C471.6 123.9 472.3 123.4 473.1 123.1C473.8 122.8 474.6 122.8 475.4 123C477 123.4 477.9 124.6 478.4 125.7C478.9 126.8 479.1 128 479 129.1C478.9 130.3 478.6 131.4 478 132.4L476.7 130.2C479.1 130.1 481.6 130.2 484 130.2C486.4 130.3 488.9 130.3 491.3 130.4C496.2 130.6 501.1 130.8 505.9 131.2C506.2 131.2 506.4 131.5 506.4 131.7C506.4 132 506.2 132.1 505.9 132.2C501 132.6 496.1 132.8 491.3 133C488.9 133.1 486.4 133.2 484 133.2C481.6 133.2 479.1 133.3 476.7 133.2C475.9 133.2 475.2 132.5 475.2 131.6C475.2 131.4 475.3 131.1 475.4 130.9C475.7 130.3 475.9 129.6 476 128.9C476 128.2 475.9 127.5 475.7 126.9C475.5 126.3 475 125.9 474.7 125.9C474.6 125.9 474.3 125.9 474.2 125.9C474.1 126 474 126 474 126L471.3 124.8C471.7 123.9 471.5 122.6 470.8 121.8C470.1 120.9 469 120.5 467.8 120.7C466.6 120.8 465.5 121.5 464.8 122.5C464.1 123.5 463.8 124.9 463.9 126.1H460.9C461.1 123.5 461.1 121 459.9 119.4C458.7 117.8 456.3 117.1 454.3 117.5C452.2 118 450.3 119.6 449.1 121.6C447.9 123.6 447.3 126.1 446.7 128.7C446.6 129.4 446 129.8 445.4 129.9H445.3C442.6 130 440 129.9 437.3 129.8C434.6 129.6 432 129.4 429.3 128.9C429 128.9 428.9 128.6 428.9 128.3C428.9 128 429.1 127.8 429.3 127.8Z" fill="#717791"/>
</g>
<defs>
<clipPath id="clip0">
<rect width="452.5" height="331.4" fill="white" transform="translate(54)"/>
</clipPath>
</defs>
</svg>
