<svg width="635" height="230" viewBox="0 0 635 230" fill="none" xmlns="http://www.w3.org/2000/svg">
<path fill-rule="evenodd" clip-rule="evenodd" d="M309.563 2.3855L17 23.9551L22.441 97.7548L44.0114 96.1645L42 151.243L367.924 163.146L370.307 97.9024L136.333 89.3579L315.004 76.1852L309.563 2.3855Z" fill="#FFEA7D"/>
<path d="M74.84 65.8599H71.3L68.12 77.0799C66.62 77.6199 65.12 77.8599 63.44 77.8599C54.74 77.8599 48.2 71.4399 48.2 56.6199C48.2 41.8599 54.8 35.2599 63.2 35.2599C64.76 35.2599 66.2 35.4399 67.58 35.8599L70.88 47.3199H74.42L74.66 36.3999C70.76 34.2399 67.1 32.9799 61.94 32.9799C48.92 32.9799 37.58 40.5399 37.58 56.5599C37.58 72.3999 48.2 80.1999 61.46 80.1999C67.04 80.1999 71.42 78.8199 75.08 76.6599L74.84 65.8599Z" fill="black"/>
<path d="M92.7804 45.8799L91.9404 45.2799L78.9204 49.0599V50.4999L83.4204 50.9799C83.5404 53.8599 83.6004 55.8399 83.6004 59.7399V64.7199C83.6004 68.0799 83.5404 73.2399 83.4804 76.7199L79.4004 77.1399V78.9999H98.9004V77.1399L93.3804 76.5999C93.3204 73.0599 93.2604 68.0199 93.2604 64.7199V59.7399C94.4004 55.2999 95.8404 52.7199 98.2404 50.4999L98.7804 51.2199C100.4 53.3799 101.84 54.8199 104.12 54.8199C107.12 54.8199 108.32 52.5999 108.56 49.9599C107.96 46.3599 105.56 45.2199 102.74 45.2199C99.1404 45.2199 95.0604 48.3399 93.2604 54.4599L92.7804 45.8799Z" fill="black"/>
<path d="M119.723 60.3399C119.963 51.0399 122.663 47.3199 125.963 47.3199C129.143 47.3199 131.423 50.0799 131.423 55.2999C131.423 59.0199 130.703 60.3999 127.883 60.3999L119.723 60.3399ZM138.923 71.1999C136.943 73.9599 134.363 75.7599 130.163 75.7599C124.523 75.7599 120.023 71.9199 119.723 62.5599H140.123C140.423 61.4199 140.483 60.3999 140.483 58.8999C140.483 51.2799 135.623 45.2199 126.623 45.2199C118.043 45.2199 109.463 51.2199 109.463 62.4999C109.463 73.7199 116.783 80.0199 126.683 80.0199C132.803 80.0199 137.603 77.0799 140.063 71.9199L138.923 71.1999Z" fill="black"/>
<path d="M163.52 73.1799C161.3 75.1599 159.92 75.9399 158.3 75.9399C155.48 75.9399 153.8 74.2599 153.8 70.6599C153.8 66.2799 156.02 63.4599 160.22 61.7199C160.94 61.4199 162.14 61.0599 163.52 60.6999V73.1799ZM177.44 74.4999C176.3 76.2999 175.64 76.7799 174.74 76.7799C173.6 76.7799 172.88 75.9999 172.88 73.7199V57.5799C172.88 48.8799 169.46 45.2199 160.94 45.2199C151.64 45.2199 146.42 48.8199 145.94 54.4599C146.42 56.4399 147.92 57.5199 150.08 57.5199C152.36 57.5199 154.4 55.8999 154.58 51.8199L155 47.5599C155.9 47.3799 156.68 47.3199 157.52 47.3199C162.08 47.3199 163.52 49.1799 163.52 55.4199V59.0799C161.42 59.6199 159.32 60.1599 157.64 60.6399C147.98 63.4599 144.86 66.3999 144.86 71.8599C144.86 76.8999 148.46 80.0199 153.62 80.0199C158.42 80.0199 160.7 78.1599 163.76 74.7999C164.66 78.0399 166.88 80.0199 170.84 80.0199C174.68 80.0199 176.96 78.6399 178.46 75.3399L177.44 74.4999Z" fill="black"/>
<path d="M201.837 74.0799C200.277 75.3999 199.257 75.9999 197.757 75.9999C195.357 75.9999 193.797 74.6199 193.797 71.3799V48.6999H201.237V46.2399H193.797L193.917 36.5799H187.737L184.617 46.1799L179.277 46.7799V48.6999H184.137V64.0599C184.137 66.5799 184.077 68.3199 184.077 70.5999C184.017 77.2599 187.317 80.0199 193.437 80.0199C198.057 80.0199 201.057 78.2799 202.857 75.0399L201.837 74.0799Z" fill="black"/>
<path d="M213.615 39.2799C216.495 39.2799 218.835 37.2399 218.835 34.4199C218.835 31.5399 216.495 29.4999 213.615 29.4999C210.795 29.4999 208.455 31.5399 208.455 34.4199C208.455 37.2399 210.795 39.2799 213.615 39.2799ZM218.775 76.7799C218.715 73.2999 218.655 68.0799 218.655 64.7199V55.4799L218.895 45.8799L218.055 45.2799L204.315 48.8799V50.3199L208.815 50.7999C208.935 53.8599 208.995 56.0799 208.995 59.9199V64.7199C208.995 68.0799 208.935 73.2399 208.875 76.7799L204.915 77.1399V78.9999H222.435V77.1399L218.775 76.7799Z" fill="black"/>
<path d="M259.009 46.2399H247.309V48.0399L251.989 48.6399L244.789 69.9999L237.289 48.5199L241.609 48.0399V46.2399H223.189V48.0399L226.909 48.5199L238.969 79.1199H243.109L254.749 48.6999L259.009 48.0399V46.2399Z" fill="black"/>
<path d="M270.016 60.3399C270.256 51.0399 272.956 47.3199 276.256 47.3199C279.436 47.3199 281.716 50.0799 281.716 55.2999C281.716 59.0199 280.996 60.3999 278.176 60.3999L270.016 60.3399ZM289.216 71.1999C287.236 73.9599 284.656 75.7599 280.456 75.7599C274.816 75.7599 270.316 71.9199 270.016 62.5599H290.416C290.716 61.4199 290.776 60.3999 290.776 58.8999C290.776 51.2799 285.916 45.2199 276.916 45.2199C268.336 45.2199 259.756 51.2199 259.756 62.4999C259.756 73.7199 267.076 80.0199 276.976 80.0199C283.096 80.0199 287.896 77.0799 290.356 71.9199L289.216 71.1999Z" fill="black"/>
<path d="M331.277 36.2199V34.1799H310.097V36.2199L315.497 36.6999C315.677 42.8799 315.677 49.0599 315.677 55.2999V57.9399C315.677 64.1799 315.677 70.3599 315.497 76.4199L310.097 76.9599V78.9999H331.277V76.9599L325.937 76.4199C325.817 70.2399 325.817 64.0599 325.817 57.8799V55.2999C325.817 49.0599 325.817 42.8199 325.937 36.6999L331.277 36.2199Z" fill="black"/>
<path d="M357.036 74.1999C355.596 75.3399 354.036 75.7599 352.356 75.7599C347.736 75.7599 344.256 72.2799 344.256 62.4999C344.256 52.4199 348.036 49.3599 352.596 49.3599C354.096 49.3599 355.596 49.7799 357.036 50.9199V74.1999ZM366.696 76.8999V39.5799L366.936 29.9799L366.096 29.4399L352.476 32.0199V33.5799L357.396 34.0599V49.2999C355.056 46.5399 352.296 45.2199 348.816 45.2199C340.596 45.2199 333.936 51.5799 333.936 62.8599C333.936 73.7199 340.116 80.0199 347.976 80.0199C351.636 80.0199 354.756 78.5199 357.276 75.9999L357.756 79.7199L370.596 78.9999V77.1399L366.696 76.8999Z" fill="black"/>
<path d="M384.567 60.3399C384.807 51.0399 387.507 47.3199 390.807 47.3199C393.987 47.3199 396.267 50.0799 396.267 55.2999C396.267 59.0199 395.547 60.3999 392.727 60.3999L384.567 60.3399ZM403.767 71.1999C401.787 73.9599 399.207 75.7599 395.007 75.7599C389.367 75.7599 384.867 71.9199 384.567 62.5599H404.967C405.267 61.4199 405.327 60.3999 405.327 58.8999C405.327 51.2799 400.467 45.2199 391.467 45.2199C382.887 45.2199 374.307 51.2199 374.307 62.4999C374.307 73.7199 381.627 80.0199 391.527 80.0199C397.647 80.0199 402.447 77.0799 404.907 71.9199L403.767 71.1999Z" fill="black"/>
<path d="M428.363 73.1799C426.143 75.1599 424.763 75.9399 423.143 75.9399C420.323 75.9399 418.643 74.2599 418.643 70.6599C418.643 66.2799 420.863 63.4599 425.063 61.7199C425.783 61.4199 426.983 61.0599 428.363 60.6999V73.1799ZM442.283 74.4999C441.143 76.2999 440.483 76.7799 439.583 76.7799C438.443 76.7799 437.723 75.9999 437.723 73.7199V57.5799C437.723 48.8799 434.303 45.2199 425.783 45.2199C416.483 45.2199 411.263 48.8199 410.783 54.4599C411.263 56.4399 412.763 57.5199 414.923 57.5199C417.203 57.5199 419.243 55.8999 419.423 51.8199L419.843 47.5599C420.743 47.3799 421.523 47.3199 422.363 47.3199C426.923 47.3199 428.363 49.1799 428.363 55.4199V59.0799C426.263 59.6199 424.163 60.1599 422.483 60.6399C412.823 63.4599 409.703 66.3999 409.703 71.8599C409.703 76.8999 413.303 80.0199 418.463 80.0199C423.263 80.0199 425.543 78.1599 428.603 74.7999C429.503 78.0399 431.723 80.0199 435.683 80.0199C439.523 80.0199 441.803 78.6399 443.303 75.3399L442.283 74.4999Z" fill="black"/>
<path d="M459.601 57.8199C454.921 56.3799 453.721 54.5799 453.721 52.3599C453.721 49.3599 456.121 47.4999 459.781 47.4999C461.581 47.4999 462.841 47.7999 464.101 48.3999L466.381 55.4799H469.741L470.221 47.9199C466.681 46.1799 463.621 45.2199 459.601 45.2199C450.781 45.2199 445.861 49.7799 445.861 56.0799C445.861 61.1799 449.041 64.2399 454.441 65.9199L457.921 66.9399C462.721 68.4399 463.861 70.2399 463.861 72.7599C463.861 76.0599 461.341 77.6799 456.781 77.6799C454.861 77.6799 453.361 77.3799 451.861 76.7799L450.001 68.8599H446.161L445.681 77.0199C449.221 78.9999 452.881 80.0199 457.561 80.0199C466.621 80.0199 472.201 75.9399 472.201 68.9799C472.201 64.0599 469.441 60.6999 463.141 58.8399L459.601 57.8199Z" fill="black"/>
<path d="M484.268 81.0399C482.948 85.4199 480.128 88.1199 475.208 90.7599L475.928 92.4999C481.988 90.3999 488.648 84.4599 488.648 75.8199C488.648 73.8399 488.408 72.5799 487.688 70.7799C486.308 69.4599 484.868 69.0999 483.188 69.0999C480.068 69.0999 477.728 71.3799 477.728 74.3799C477.728 76.1199 478.688 78.0399 481.268 79.4199L484.268 81.0399Z" fill="black"/>
<path d="M52.94 119.6C52.94 112.7 52.94 106.52 53.12 100.46H56.54C62.6 100.46 65.78 103.7 65.78 109.64C65.78 115.1 63.2 119.6 56.48 119.6H52.94ZM75.5 140.66L73.52 130.76C72.5 124.82 70.46 121.52 62.6 120.44C72.02 119 75.38 114.38 75.38 109.46C75.38 102.32 69.62 98.1799 59.06 98.1799H37.46V100.22L42.86 100.7C43.04 106.88 43.04 113.06 43.04 119.3V121.94C43.04 128.18 43.04 134.36 42.86 140.42L37.46 140.96V143H58.64V140.96L53.12 140.42C52.94 134.3 52.94 128.12 52.94 121.82H55.88C60.5 121.82 61.94 124.22 62.78 129.14L64.52 137.42C65.12 142.28 68.18 143.9 73.7 143.9C76.7 143.9 78.38 143.6 80.84 143V140.96L75.5 140.66Z" fill="black"/>
<path d="M92.4186 124.34C92.6586 115.04 95.3586 111.32 98.6586 111.32C101.839 111.32 104.119 114.08 104.119 119.3C104.119 123.02 103.399 124.4 100.579 124.4L92.4186 124.34ZM111.619 135.2C109.639 137.96 107.059 139.76 102.859 139.76C97.2186 139.76 92.7186 135.92 92.4186 126.56H112.819C113.119 125.42 113.179 124.4 113.179 122.9C113.179 115.28 108.319 109.22 99.3186 109.22C90.7386 109.22 82.1586 115.22 82.1586 126.5C82.1586 137.72 89.4786 144.02 99.3786 144.02C105.499 144.02 110.299 141.08 112.759 135.92L111.619 135.2Z" fill="black"/>
<path d="M136.215 137.18C133.995 139.16 132.615 139.94 130.995 139.94C128.175 139.94 126.495 138.26 126.495 134.66C126.495 130.28 128.715 127.46 132.915 125.72C133.635 125.42 134.835 125.06 136.215 124.7V137.18ZM150.135 138.5C148.995 140.3 148.335 140.78 147.435 140.78C146.295 140.78 145.575 140 145.575 137.72V121.58C145.575 112.88 142.155 109.22 133.635 109.22C124.335 109.22 119.115 112.82 118.635 118.46C119.115 120.44 120.615 121.52 122.775 121.52C125.055 121.52 127.095 119.9 127.275 115.82L127.695 111.56C128.595 111.38 129.375 111.32 130.215 111.32C134.775 111.32 136.215 113.18 136.215 119.42V123.08C134.115 123.62 132.015 124.16 130.335 124.64C120.675 127.46 117.555 130.4 117.555 135.86C117.555 140.9 121.155 144.02 126.315 144.02C131.115 144.02 133.395 142.16 136.455 138.8C137.355 142.04 139.575 144.02 143.535 144.02C147.375 144.02 149.655 142.64 151.155 139.34L150.135 138.5Z" fill="black"/>
<path d="M167.213 140.78C167.093 136.88 167.033 132.62 167.033 128.72V103.64L167.273 93.9799L166.433 93.4399L152.993 96.0199V97.5799L157.373 97.9999V128.72C157.373 132.56 157.313 136.88 157.253 140.78L153.113 141.14V143H171.293V141.14L167.213 140.78Z" fill="black"/>
<path d="M184.025 103.28C186.905 103.28 189.245 101.24 189.245 98.4199C189.245 95.5399 186.905 93.4999 184.025 93.4999C181.205 93.4999 178.865 95.5399 178.865 98.4199C178.865 101.24 181.205 103.28 184.025 103.28ZM189.185 140.78C189.125 137.3 189.065 132.08 189.065 128.72V119.48L189.305 109.88L188.465 109.28L174.725 112.88V114.32L179.225 114.8C179.345 117.86 179.405 120.08 179.405 123.92V128.72C179.405 132.08 179.345 137.24 179.285 140.78L175.325 141.14V143H192.845V141.14L189.185 140.78Z" fill="black"/>
<path d="M210.929 121.82C206.249 120.38 205.049 118.58 205.049 116.36C205.049 113.36 207.449 111.5 211.109 111.5C212.909 111.5 214.169 111.8 215.429 112.4L217.709 119.48H221.069L221.549 111.92C218.009 110.18 214.949 109.22 210.929 109.22C202.109 109.22 197.189 113.78 197.189 120.08C197.189 125.18 200.369 128.24 205.769 129.92L209.249 130.94C214.049 132.44 215.189 134.24 215.189 136.76C215.189 140.06 212.669 141.68 208.109 141.68C206.189 141.68 204.689 141.38 203.189 140.78L201.329 132.86H197.489L197.009 141.02C200.549 143 204.209 144.02 208.889 144.02C217.949 144.02 223.529 139.94 223.529 132.98C223.529 128.06 220.769 124.7 214.469 122.84L210.929 121.82Z" fill="black"/>
<path d="M248.654 138.08C247.094 139.4 246.074 140 244.574 140C242.174 140 240.614 138.62 240.614 135.38V112.7H248.054V110.24H240.614L240.734 100.58H234.554L231.434 110.18L226.094 110.78V112.7H230.954V128.06C230.954 130.58 230.894 132.32 230.894 134.6C230.834 141.26 234.134 144.02 240.254 144.02C244.874 144.02 247.874 142.28 249.674 139.04L248.654 138.08Z" fill="black"/>
<path d="M260.432 103.28C263.312 103.28 265.652 101.24 265.652 98.4199C265.652 95.5399 263.312 93.4999 260.432 93.4999C257.612 93.4999 255.272 95.5399 255.272 98.4199C255.272 101.24 257.612 103.28 260.432 103.28ZM265.592 140.78C265.532 137.3 265.472 132.08 265.472 128.72V119.48L265.712 109.88L264.872 109.28L251.132 112.88V114.32L255.632 114.8C255.752 117.86 255.812 120.08 255.812 123.92V128.72C255.812 132.08 255.752 137.24 255.692 140.78L251.732 141.14V143H269.252V141.14L265.592 140.78Z" fill="black"/>
<path d="M294.836 116.06C295.076 120.5 297.176 121.94 299.696 121.94C301.736 121.94 303.056 120.92 303.656 118.76C302.876 113.36 298.076 109.22 291.296 109.22C281.276 109.22 273.116 115.52 273.116 126.68C273.116 137.84 280.736 144.02 289.856 144.02C296.396 144.02 300.776 141.26 303.536 136.28L302.336 135.5C300.176 138.2 297.596 139.76 294.116 139.76C287.696 139.76 283.316 134.66 283.316 125.72C283.316 116.54 287.216 111.32 292.556 111.32C293.096 111.32 293.636 111.38 294.236 111.44L294.836 116.06Z" fill="black"/>
<path d="M341.226 100.46C347.586 100.46 351.066 104.18 351.066 111.44C351.066 118.16 347.706 122.84 340.746 122.84H338.766V119.3C338.766 112.94 338.766 106.64 338.886 100.46H341.226ZM341.046 125.06C355.326 125.06 360.426 119 360.426 111.5C360.426 103.04 354.966 98.1799 341.346 98.1799H323.046V100.22L328.446 100.7C328.626 106.88 328.626 113.06 328.626 119.3V121.94C328.626 128.18 328.626 134.36 328.446 140.42L323.046 140.96V143H345.306V140.96L338.886 140.3C338.766 134.9 338.766 129.56 338.766 125.06H341.046Z" fill="black"/>
<path d="M377.312 109.88L376.472 109.28L363.452 113.06V114.5L367.952 114.98C368.072 117.86 368.132 119.84 368.132 123.74V128.72C368.132 132.08 368.072 137.24 368.012 140.72L363.932 141.14V143H383.432V141.14L377.912 140.6C377.852 137.06 377.792 132.02 377.792 128.72V123.74C378.932 119.3 380.372 116.72 382.772 114.5L383.312 115.22C384.932 117.38 386.372 118.82 388.652 118.82C391.652 118.82 392.852 116.6 393.092 113.96C392.492 110.36 390.092 109.22 387.272 109.22C383.672 109.22 379.592 112.34 377.792 118.46L377.312 109.88Z" fill="black"/>
<path d="M410.975 144.02C421.175 144.02 428.015 137.18 428.015 126.44C428.015 115.7 420.455 109.22 410.975 109.22C401.555 109.22 393.995 115.82 393.995 126.44C393.995 137 400.715 144.02 410.975 144.02ZM410.975 141.92C406.655 141.92 404.255 137 404.255 126.56C404.255 116.06 406.655 111.32 410.975 111.32C415.295 111.32 417.635 116.06 417.635 126.56C417.635 137 415.295 141.92 410.975 141.92Z" fill="black"/>
<path d="M455.708 138.2C454.268 139.34 452.708 139.76 451.028 139.76C446.408 139.76 442.928 136.28 442.928 126.5C442.928 116.42 446.708 113.36 451.268 113.36C452.768 113.36 454.268 113.78 455.708 114.92V138.2ZM465.368 140.9V103.58L465.608 93.9799L464.768 93.4399L451.148 96.0199V97.5799L456.068 98.0599V113.3C453.728 110.54 450.968 109.22 447.488 109.22C439.268 109.22 432.608 115.58 432.608 126.86C432.608 137.72 438.788 144.02 446.648 144.02C450.308 144.02 453.428 142.52 455.948 140L456.428 143.72L469.268 143V141.14L465.368 140.9Z" fill="black"/>
<path d="M506.703 140.96V119.96L506.943 110.18L506.163 109.58L493.143 111.68V113L497.163 113.78L496.923 135.98C495.183 137.72 493.023 138.86 490.743 138.86C487.863 138.86 486.003 137.36 486.003 132.56V119.96L486.363 110.18L485.583 109.58L472.263 111.38V113L476.463 113.84L476.223 131.66C476.103 140.78 479.883 144.02 485.883 144.02C490.263 144.02 494.223 141.32 496.983 137.84L497.283 143.84L510.483 143.06V141.26L506.703 140.96Z" fill="black"/>
<path d="M536.007 116.06C536.247 120.5 538.347 121.94 540.867 121.94C542.907 121.94 544.227 120.92 544.827 118.76C544.047 113.36 539.247 109.22 532.467 109.22C522.447 109.22 514.287 115.52 514.287 126.68C514.287 137.84 521.907 144.02 531.027 144.02C537.567 144.02 541.947 141.26 544.707 136.28L543.507 135.5C541.347 138.2 538.767 139.76 535.287 139.76C528.867 139.76 524.487 134.66 524.487 125.72C524.487 116.54 528.387 111.32 533.727 111.32C534.267 111.32 534.807 111.38 535.407 111.44L536.007 116.06Z" fill="black"/>
<path d="M569.923 138.08C568.363 139.4 567.343 140 565.843 140C563.443 140 561.883 138.62 561.883 135.38V112.7H569.323V110.24H561.883L562.003 100.58H555.823L552.703 110.18L547.363 110.78V112.7H552.223V128.06C552.223 130.58 552.163 132.32 552.163 134.6C552.103 141.26 555.403 144.02 561.523 144.02C566.143 144.02 569.143 142.28 570.943 139.04L569.923 138.08Z" fill="black"/>
<path d="M587.511 121.82C582.831 120.38 581.631 118.58 581.631 116.36C581.631 113.36 584.031 111.5 587.691 111.5C589.491 111.5 590.751 111.8 592.011 112.4L594.291 119.48H597.651L598.131 111.92C594.591 110.18 591.531 109.22 587.511 109.22C578.691 109.22 573.771 113.78 573.771 120.08C573.771 125.18 576.951 128.24 582.351 129.92L585.831 130.94C590.631 132.44 591.771 134.24 591.771 136.76C591.771 140.06 589.251 141.68 584.691 141.68C582.771 141.68 581.271 141.38 579.771 140.78L577.911 132.86H574.071L573.591 141.02C577.131 143 580.791 144.02 585.471 144.02C594.531 144.02 600.111 139.94 600.111 132.98C600.111 128.06 597.351 124.7 591.051 122.84L587.511 121.82Z" fill="black"/>
<path d="M612.766 143.96C616.066 143.96 618.466 141.5 618.466 138.38C618.466 135.2 616.066 132.68 612.766 132.68C609.586 132.68 607.066 135.2 607.066 138.38C607.066 141.5 609.586 143.96 612.766 143.96ZM612.766 97.3399C609.226 97.3399 607.006 99.3799 607.006 103.1C607.006 105.98 607.966 110.3 610.306 119.18L611.806 127.34H613.726L615.286 119.18C617.686 110.3 618.586 105.98 618.586 103.1C618.586 99.3799 616.306 97.3399 612.766 97.3399Z" fill="black"/>
<path d="M54.632 171.176V170.312H47.048V171.176L49.376 171.44C49.424 173.768 49.424 176.12 49.424 178.448H41.336C41.336 176.072 41.336 173.72 41.384 171.44L43.736 171.176V170.312H36.152V171.176L38.528 171.44C38.552 173.816 38.552 176.192 38.552 178.544V179.768C38.552 182.168 38.552 184.544 38.528 186.872L36.152 187.136V188H43.736V187.136L41.384 186.872C41.336 184.544 41.336 182.168 41.336 179.432H49.424C49.424 182.192 49.424 184.592 49.376 186.872L47.048 187.136V188H54.632V187.136L52.232 186.872C52.184 184.496 52.184 182.12 52.184 179.768V178.544C52.184 176.12 52.184 173.768 52.232 171.44L54.632 171.176Z" fill="black"/>
<path d="M59.8696 172.112C60.8296 172.112 61.6216 171.416 61.6216 170.432C61.6216 169.448 60.8296 168.776 59.8696 168.776C58.8856 168.776 58.0936 169.448 58.0936 170.432C58.0936 171.416 58.8856 172.112 59.8696 172.112ZM61.2616 186.968C61.2376 185.624 61.2136 183.704 61.2136 182.432V178.856L61.2616 175.28L60.9256 175.04L56.5336 176.408V177.152L58.5736 177.344C58.6216 178.496 58.6456 179.408 58.6456 180.896V182.432C58.6456 183.68 58.6216 185.6 58.5976 186.968L56.7256 187.232V188H62.9896V187.232L61.2616 186.968Z" fill="black"/>
<path d="M68.0521 188.84C67.5241 190.784 66.2281 191.96 64.3801 192.968L64.6921 193.664C67.0921 192.752 69.5401 190.304 69.5401 187.184C69.5401 186.512 69.4441 185.984 69.2281 185.312C68.6521 184.784 68.1721 184.664 67.6441 184.664C66.5881 184.664 65.9401 185.408 65.9401 186.32C65.9401 186.968 66.2761 187.64 67.0441 188.168L68.0521 188.84Z" fill="black"/>
<path d="M86.6512 171.176V170.312H79.0192V171.176L81.3952 171.44C81.4432 173.792 81.4432 176.192 81.4432 178.544V179.768C81.4432 182.168 81.4432 184.544 81.3952 186.872L79.0192 187.136V188H86.6512V187.136L84.2512 186.872C84.2272 184.52 84.2272 182.12 84.2272 179.768V178.544C84.2272 176.12 84.2272 173.768 84.2512 171.44L86.6512 171.176Z" fill="black"/>
<path d="M102.419 185.384C101.075 186.464 100.475 186.8 99.611 186.8C98.411 186.8 97.571 186.176 97.571 184.76C97.571 183.56 98.123 182.504 100.235 181.664C100.739 181.472 101.555 181.208 102.419 180.968V185.384ZM106.955 186.416C106.547 186.896 106.283 187.088 105.851 187.088C105.299 187.088 104.939 186.704 104.939 185.504V179.6C104.939 176.312 103.619 175.016 100.691 175.016C97.739 175.016 95.795 176.288 95.387 178.352C95.483 179.048 95.939 179.408 96.659 179.408C97.403 179.408 97.907 178.928 98.099 177.92L98.507 176.144C99.035 176 99.491 175.952 99.923 175.952C101.723 175.952 102.419 176.648 102.419 179.216V180.2C101.411 180.44 100.355 180.752 99.539 180.992C96.035 182.192 95.027 183.368 95.027 185.144C95.027 187.208 96.515 188.36 98.483 188.36C100.163 188.36 101.099 187.64 102.491 186.224C102.731 187.52 103.595 188.312 104.939 188.312C106.019 188.312 106.787 187.928 107.363 186.848L106.955 186.416Z" fill="black"/>
<path d="M128.877 186.968C128.853 185.624 128.829 183.752 128.829 182.432V179.624C128.829 176.384 127.605 175.016 125.325 175.016C123.669 175.016 122.085 175.736 120.645 177.488C120.189 175.784 119.085 175.016 117.405 175.016C115.821 175.016 114.261 175.88 112.893 177.44L112.701 175.28L112.341 175.04L108.285 176.456V177.176L110.301 177.368C110.349 178.472 110.397 179.384 110.397 180.896V182.432C110.397 183.68 110.373 185.6 110.325 186.968L108.453 187.232V188H114.717V187.232L112.989 186.968C112.965 185.624 112.941 183.704 112.941 182.432V178.424C114.141 177.248 115.197 176.672 116.301 176.672C117.741 176.672 118.341 177.464 118.341 179.768V182.432C118.341 183.752 118.317 185.624 118.293 186.968L116.421 187.232V188H122.661V187.232L120.933 186.968C120.909 185.624 120.885 183.752 120.885 182.432V179.72C120.885 179.24 120.861 178.808 120.813 178.4C122.085 177.176 123.165 176.672 124.197 176.672C125.613 176.672 126.261 177.392 126.261 179.744V182.432C126.261 183.752 126.237 185.624 126.213 186.968L124.413 187.232V188H130.629V187.232L128.877 186.968Z" fill="black"/>
<path d="M146.013 185.384C144.669 186.464 144.069 186.8 143.205 186.8C142.005 186.8 141.165 186.176 141.165 184.76C141.165 183.56 141.717 182.504 143.829 181.664C144.333 181.472 145.149 181.208 146.013 180.968V185.384ZM150.549 186.416C150.141 186.896 149.877 187.088 149.445 187.088C148.893 187.088 148.533 186.704 148.533 185.504V179.6C148.533 176.312 147.213 175.016 144.285 175.016C141.333 175.016 139.389 176.288 138.981 178.352C139.077 179.048 139.533 179.408 140.253 179.408C140.997 179.408 141.501 178.928 141.693 177.92L142.101 176.144C142.629 176 143.085 175.952 143.517 175.952C145.317 175.952 146.013 176.648 146.013 179.216V180.2C145.005 180.44 143.949 180.752 143.133 180.992C139.629 182.192 138.621 183.368 138.621 185.144C138.621 187.208 140.109 188.36 142.077 188.36C143.757 188.36 144.693 187.64 146.085 186.224C146.325 187.52 147.189 188.312 148.533 188.312C149.613 188.312 150.381 187.928 150.957 186.848L150.549 186.416Z" fill="black"/>
<path d="M169.659 171.368L170.427 174.944H171.723L171.627 170.312H158.379V171.176L160.755 171.44C160.803 173.792 160.803 176.192 160.803 178.544V179.768C160.803 182.168 160.803 184.544 160.755 186.872L158.379 187.136V188H166.179V187.136L163.611 186.872C163.587 184.496 163.587 182.096 163.587 179.48H167.547L167.883 182.216H168.987V175.904H167.883L167.547 178.496H163.587C163.587 176.024 163.587 173.672 163.611 171.368H169.659Z" fill="black"/>
<path d="M185.074 187.016V179.192L185.146 175.424L184.882 175.16L180.73 175.664V176.384L182.554 176.744L182.506 184.952C181.474 185.984 180.322 186.584 179.098 186.584C177.706 186.584 176.962 185.816 176.962 183.536V179.192L177.058 175.424L176.818 175.16L172.618 175.64V176.384L174.466 176.744L174.394 183.536C174.346 187.088 175.714 188.36 177.946 188.36C179.65 188.36 181.306 187.376 182.554 185.816L182.746 188.24L186.802 188V187.232L185.074 187.016Z" fill="black"/>
<path d="M193.072 186.968C193.048 185.48 193.024 183.896 193.024 182.432V172.424L193.12 168.656L192.76 168.464L188.416 169.496V170.24L190.48 170.432V182.432C190.48 183.896 190.456 185.48 190.432 186.968L188.416 187.232V188H195.064V187.232L193.072 186.968Z" fill="black"/>
<path d="M201.181 186.968C201.157 185.48 201.133 183.896 201.133 182.432V172.424L201.229 168.656L200.869 168.464L196.525 169.496V170.24L198.589 170.432V182.432C198.589 183.896 198.565 185.48 198.541 186.968L196.525 187.232V188H203.173V187.232L201.181 186.968Z" fill="black"/>
<path d="M204.806 182.12H211.142V180.536H204.806V182.12Z" fill="black"/>
<path d="M218.235 180.224C216.411 179.624 215.787 179.048 215.787 177.92C215.787 176.744 216.699 175.976 218.331 175.976C219.003 175.976 219.603 176.144 220.227 176.456L220.827 178.832H222.027L222.123 176.096C220.923 175.376 219.795 175.016 218.307 175.016C215.235 175.016 213.507 176.72 213.507 178.856C213.507 180.704 214.779 181.76 216.771 182.48L218.043 182.912C219.843 183.512 220.515 184.184 220.515 185.264C220.515 186.56 219.507 187.352 217.491 187.352C216.675 187.352 216.003 187.208 215.355 186.944L214.755 184.352H213.435V187.304C214.755 188 215.979 188.36 217.587 188.36C221.019 188.36 222.843 186.656 222.843 184.448C222.843 182.696 221.835 181.472 219.267 180.608L218.235 180.224Z" fill="black"/>
<path d="M232.164 186.32C231.492 186.824 231.012 187.064 230.412 187.064C229.452 187.064 228.852 186.488 228.852 185.12V176.456H232.26V175.376H228.876L228.996 171.656H227.268L226.452 175.328L224.124 175.592V176.456H226.308V182.792C226.308 183.776 226.284 184.4 226.284 185.12C226.284 187.328 227.412 188.36 229.428 188.36C230.892 188.36 231.972 187.808 232.644 186.848L232.164 186.32Z" fill="black"/>
<path d="M241.286 185.384C239.942 186.464 239.342 186.8 238.478 186.8C237.278 186.8 236.438 186.176 236.438 184.76C236.438 183.56 236.99 182.504 239.102 181.664C239.606 181.472 240.422 181.208 241.286 180.968V185.384ZM245.822 186.416C245.414 186.896 245.15 187.088 244.718 187.088C244.166 187.088 243.806 186.704 243.806 185.504V179.6C243.806 176.312 242.486 175.016 239.558 175.016C236.606 175.016 234.662 176.288 234.254 178.352C234.35 179.048 234.806 179.408 235.526 179.408C236.27 179.408 236.774 178.928 236.966 177.92L237.374 176.144C237.902 176 238.358 175.952 238.79 175.952C240.59 175.952 241.286 176.648 241.286 179.216V180.2C240.278 180.44 239.222 180.752 238.406 180.992C234.902 182.192 233.894 183.368 233.894 185.144C233.894 187.208 235.382 188.36 237.35 188.36C239.03 188.36 239.966 187.64 241.358 186.224C241.598 187.52 242.462 188.312 243.806 188.312C244.886 188.312 245.654 187.928 246.23 186.848L245.822 186.416Z" fill="black"/>
<path d="M258.094 184.952C257.23 186.176 255.982 186.824 254.494 186.824C251.95 186.824 250.15 184.88 250.15 181.448C250.15 177.968 251.758 175.952 254.086 175.952C254.518 175.952 254.926 176 255.358 176.144L255.79 177.992C255.958 178.976 256.462 179.48 257.302 179.48C257.974 179.48 258.382 179.168 258.574 178.448C258.214 176.456 256.294 175.016 253.894 175.016C250.462 175.016 247.462 177.464 247.462 181.712C247.462 185.84 249.982 188.36 253.558 188.36C256.054 188.36 257.734 187.208 258.598 185.192L258.094 184.952Z" fill="black"/>
<path d="M272.356 186.992L267.892 179.432L270.892 176.504L273.34 176.192V175.376H267.22V176.192L269.404 176.6L264.508 181.52V172.424L264.604 168.656L264.244 168.464L259.9 169.496V170.24L261.964 170.432V182.432C261.964 183.8 261.94 185.552 261.916 186.968L259.924 187.232V188H266.476V187.232L264.556 186.968C264.532 185.672 264.508 184.088 264.508 182.744L266.092 181.184L270.028 188H274.012V187.232L272.356 186.992Z" fill="black"/>
<path d="M290.309 185.672C289.397 186.608 288.629 186.944 287.597 186.944C285.509 186.944 283.949 185.432 283.949 181.688C283.949 177.848 285.653 176.408 287.645 176.408C288.461 176.408 289.301 176.72 290.309 177.584V185.672ZM292.853 187.04V172.4L292.973 168.656L292.613 168.464L288.245 169.496V170.24L290.405 170.432V176.696C289.349 175.448 288.221 175.016 286.925 175.016C283.661 175.016 281.213 177.608 281.213 181.784C281.213 185.744 283.493 188.36 286.661 188.36C288.245 188.36 289.445 187.688 290.381 186.56L290.549 188.264L294.869 188V187.232L292.853 187.04Z" fill="black"/>
<path d="M299.231 180.656C299.423 177.368 300.983 175.952 302.543 175.952C304.175 175.952 305.303 177.32 305.303 179.096C305.303 180.104 305.039 180.656 303.935 180.656H299.231ZM307.607 181.592C307.727 181.208 307.775 180.728 307.775 180.128C307.775 177.08 305.759 175.016 302.711 175.016C299.447 175.016 296.471 177.56 296.471 181.712C296.471 185.936 299.039 188.36 302.663 188.36C304.991 188.36 306.743 187.208 307.703 185.312L307.223 184.976C306.311 186.128 305.255 186.824 303.551 186.824C301.079 186.824 299.279 185.168 299.207 181.592H307.607Z" fill="black"/>
<path d="M314.985 180.224C313.161 179.624 312.537 179.048 312.537 177.92C312.537 176.744 313.449 175.976 315.081 175.976C315.753 175.976 316.353 176.144 316.977 176.456L317.577 178.832H318.777L318.873 176.096C317.673 175.376 316.545 175.016 315.057 175.016C311.985 175.016 310.257 176.72 310.257 178.856C310.257 180.704 311.529 181.76 313.521 182.48L314.793 182.912C316.593 183.512 317.265 184.184 317.265 185.264C317.265 186.56 316.257 187.352 314.241 187.352C313.425 187.352 312.753 187.208 312.105 186.944L311.505 184.352H310.185V187.304C311.505 188 312.729 188.36 314.337 188.36C317.769 188.36 319.593 186.656 319.593 184.448C319.593 182.696 318.585 181.472 316.017 180.608L314.985 180.224Z" fill="black"/>
<path d="M324.69 172.112C325.65 172.112 326.442 171.416 326.442 170.432C326.442 169.448 325.65 168.776 324.69 168.776C323.706 168.776 322.914 169.448 322.914 170.432C322.914 171.416 323.706 172.112 324.69 172.112ZM326.082 186.968C326.058 185.624 326.034 183.704 326.034 182.432V178.856L326.082 175.28L325.746 175.04L321.354 176.408V177.152L323.394 177.344C323.442 178.496 323.466 179.408 323.466 180.896V182.432C323.466 183.68 323.442 185.6 323.418 186.968L321.546 187.232V188H327.81V187.232L326.082 186.968Z" fill="black"/>
<path d="M334.984 182.888C333.424 182.888 332.488 181.496 332.488 179.384C332.488 177.248 333.472 175.856 335.056 175.856C336.664 175.856 337.6 177.224 337.6 179.312C337.6 181.448 336.64 182.888 334.984 182.888ZM337.192 188.48C338.992 188.48 339.664 189.416 339.664 190.544C339.664 192.056 338.08 193.232 335.032 193.232C332.92 193.232 331.528 192.368 331.528 190.616C331.528 189.728 331.84 189.08 332.488 188.36C332.992 188.456 333.472 188.48 334.24 188.48H337.192ZM341.992 175.28L341.56 175.016L338.56 176.072C337.72 175.376 336.52 175.016 335.056 175.016C332.032 175.016 330.112 176.672 330.112 179.36C330.112 181.088 330.856 182.36 332.152 183.08C330.808 184.28 330.304 185.144 330.304 186.08C330.304 187.184 330.904 187.808 332.008 188.168C330.232 188.984 329.488 189.896 329.488 191.024C329.488 192.872 331.12 194.288 335.032 194.288C339.52 194.288 341.8 192.056 341.8 189.68C341.8 187.544 340.456 186.272 337.384 186.272H333.856C332.512 186.272 332.104 185.792 332.104 185C332.104 184.4 332.296 183.92 332.752 183.344C333.4 183.608 334.168 183.728 335.032 183.728C338.032 183.728 339.976 182.024 339.976 179.36C339.976 178.328 339.712 177.464 339.208 176.768L341.992 176.912V175.28Z" fill="black"/>
<path d="M356.179 186.968C356.155 185.624 356.131 183.752 356.131 182.432V179.72C356.131 176.408 354.883 175.016 352.651 175.016C351.043 175.016 349.411 175.832 347.971 177.44L347.779 175.28L347.419 175.04L343.363 176.456V177.176L345.379 177.368C345.427 178.472 345.475 179.384 345.475 180.896V182.432C345.475 183.68 345.451 185.6 345.403 186.968L343.531 187.232V188H349.795V187.232L348.067 186.968C348.043 185.624 348.019 183.704 348.019 182.432V178.376C349.339 177.176 350.467 176.672 351.499 176.672C352.915 176.672 353.587 177.44 353.587 179.696V182.432C353.587 183.752 353.563 185.624 353.539 186.968L351.667 187.232V188H357.931V187.232L356.179 186.968Z" fill="black"/>
<path d="M362.512 180.656C362.704 177.368 364.264 175.952 365.824 175.952C367.456 175.952 368.584 177.32 368.584 179.096C368.584 180.104 368.32 180.656 367.216 180.656H362.512ZM370.888 181.592C371.008 181.208 371.056 180.728 371.056 180.128C371.056 177.08 369.04 175.016 365.992 175.016C362.728 175.016 359.752 177.56 359.752 181.712C359.752 185.936 362.32 188.36 365.944 188.36C368.272 188.36 370.024 187.208 370.984 185.312L370.504 184.976C369.592 186.128 368.536 186.824 366.832 186.824C364.36 186.824 362.56 185.168 362.488 181.592H370.888Z" fill="black"/>
<path d="M377.451 175.28L377.091 175.04L373.035 176.456V177.176L375.051 177.368C375.099 178.472 375.147 179.384 375.147 180.896V182.432C375.147 183.68 375.123 185.6 375.075 186.968L373.227 187.232V188H379.971V187.232L377.739 186.896C377.715 185.552 377.691 183.68 377.691 182.432V180.416C378.195 178.712 378.891 177.608 379.947 176.792L380.259 177.104C380.787 177.656 381.291 178.04 382.011 178.04C383.067 178.04 383.523 177.32 383.547 176.216C383.259 175.376 382.419 175.016 381.531 175.016C380.043 175.016 378.483 176.312 377.691 178.568L377.451 175.28Z" fill="black"/>
<path d="M390.566 175.592V176.456H392.702V182.432C392.702 183.944 392.678 185.456 392.63 186.968L390.614 187.232V188H397.67V187.232L395.318 186.92C395.294 185.432 395.27 183.92 395.27 182.432V176.456H398.774V175.376H395.222C395.15 172.64 395.486 171.08 396.134 170.048C396.35 169.688 396.686 169.4 397.022 169.184L397.646 169.808C398.294 170.6 398.87 170.912 399.614 170.912C400.55 170.912 401.126 170.384 401.15 169.664C400.886 168.608 399.782 168.2 398.51 168.2C397.262 168.2 395.87 168.584 394.694 169.808C393.566 170.984 392.942 172.544 392.726 175.328L390.566 175.592Z" fill="black"/>
<path d="M406.14 188.36C409.452 188.36 412.356 186.032 412.356 181.688C412.356 177.344 409.356 175.016 406.14 175.016C402.876 175.016 399.9 177.368 399.9 181.688C399.9 186.008 402.78 188.36 406.14 188.36ZM406.14 187.4C403.956 187.4 402.708 185.48 402.708 181.712C402.708 177.92 403.956 175.952 406.14 175.952C408.276 175.952 409.572 177.92 409.572 181.712C409.572 185.48 408.276 187.4 406.14 187.4Z" fill="black"/>
<path d="M425.157 184.952C424.293 186.176 423.045 186.824 421.557 186.824C419.013 186.824 417.213 184.88 417.213 181.448C417.213 177.968 418.821 175.952 421.149 175.952C421.581 175.952 421.989 176 422.421 176.144L422.853 177.992C423.021 178.976 423.525 179.48 424.365 179.48C425.037 179.48 425.445 179.168 425.637 178.448C425.277 176.456 423.357 175.016 420.957 175.016C417.525 175.016 414.525 177.464 414.525 181.712C414.525 185.84 417.045 188.36 420.621 188.36C423.117 188.36 424.797 187.208 425.661 185.192L425.157 184.952Z" fill="black"/>
<path d="M439.746 187.016V179.192L439.818 175.424L439.554 175.16L435.402 175.664V176.384L437.226 176.744L437.178 184.952C436.146 185.984 434.994 186.584 433.77 186.584C432.378 186.584 431.634 185.816 431.634 183.536V179.192L431.73 175.424L431.49 175.16L427.29 175.64V176.384L429.138 176.744L429.066 183.536C429.018 187.088 430.386 188.36 432.618 188.36C434.322 188.36 435.978 187.376 437.226 185.816L437.418 188.24L441.474 188V187.232L439.746 187.016Z" fill="black"/>
<path d="M448.392 180.224C446.568 179.624 445.944 179.048 445.944 177.92C445.944 176.744 446.856 175.976 448.488 175.976C449.16 175.976 449.76 176.144 450.384 176.456L450.984 178.832H452.184L452.28 176.096C451.08 175.376 449.952 175.016 448.464 175.016C445.392 175.016 443.664 176.72 443.664 178.856C443.664 180.704 444.936 181.76 446.928 182.48L448.2 182.912C450 183.512 450.672 184.184 450.672 185.264C450.672 186.56 449.664 187.352 447.648 187.352C446.832 187.352 446.16 187.208 445.512 186.944L444.912 184.352H443.592V187.304C444.912 188 446.136 188.36 447.744 188.36C451.176 188.36 453 186.656 453 184.448C453 182.696 451.992 181.472 449.424 180.608L448.392 180.224Z" fill="black"/>
<path d="M457.832 180.656C458.024 177.368 459.584 175.952 461.144 175.952C462.776 175.952 463.904 177.32 463.904 179.096C463.904 180.104 463.64 180.656 462.536 180.656H457.832ZM466.208 181.592C466.328 181.208 466.376 180.728 466.376 180.128C466.376 177.08 464.36 175.016 461.312 175.016C458.048 175.016 455.072 177.56 455.072 181.712C455.072 185.936 457.64 188.36 461.264 188.36C463.592 188.36 465.344 187.208 466.304 185.312L465.824 184.976C464.912 186.128 463.856 186.824 462.152 186.824C459.68 186.824 457.88 185.168 457.808 181.592H466.208Z" fill="black"/>
<path d="M477.715 185.672C476.803 186.608 476.035 186.944 475.003 186.944C472.915 186.944 471.355 185.432 471.355 181.688C471.355 177.848 473.059 176.408 475.051 176.408C475.867 176.408 476.707 176.72 477.715 177.584V185.672ZM480.259 187.04V172.4L480.379 168.656L480.019 168.464L475.651 169.496V170.24L477.811 170.432V176.696C476.755 175.448 475.627 175.016 474.331 175.016C471.067 175.016 468.619 177.608 468.619 181.784C468.619 185.744 470.899 188.36 474.067 188.36C475.651 188.36 476.851 187.688 477.787 186.56L477.955 188.264L482.275 188V187.232L480.259 187.04Z" fill="black"/>
<path d="M496.211 188.36C499.523 188.36 502.427 186.032 502.427 181.688C502.427 177.344 499.427 175.016 496.211 175.016C492.947 175.016 489.971 177.368 489.971 181.688C489.971 186.008 492.851 188.36 496.211 188.36ZM496.211 187.4C494.027 187.4 492.779 185.48 492.779 181.712C492.779 177.92 494.027 175.952 496.211 175.952C498.347 175.952 499.643 177.92 499.643 181.712C499.643 185.48 498.347 187.4 496.211 187.4Z" fill="black"/>
<path d="M517.171 186.968C517.147 185.624 517.123 183.752 517.123 182.432V179.72C517.123 176.408 515.875 175.016 513.643 175.016C512.035 175.016 510.403 175.832 508.963 177.44L508.771 175.28L508.411 175.04L504.355 176.456V177.176L506.371 177.368C506.419 178.472 506.467 179.384 506.467 180.896V182.432C506.467 183.68 506.443 185.6 506.395 186.968L504.523 187.232V188H510.787V187.232L509.059 186.968C509.035 185.624 509.011 183.704 509.011 182.432V178.376C510.331 177.176 511.459 176.672 512.491 176.672C513.907 176.672 514.579 177.44 514.579 179.696V182.432C514.579 183.752 514.555 185.624 514.531 186.968L512.659 187.232V188H518.923V187.232L517.171 186.968Z" fill="black"/>
<path d="M544.262 170.312H537.926V171.176L540.686 171.536L540.734 180.32C540.758 184.928 539.198 186.68 536.174 186.68C533.414 186.68 531.782 185.168 531.782 180.656V178.472C531.782 176.096 531.782 173.768 531.83 171.464L534.398 171.176V170.312H526.766V171.176L528.926 171.416C528.998 173.768 528.998 176.144 528.998 178.472V181.208C528.998 186.392 531.638 188.432 535.55 188.432C539.366 188.432 541.814 186.176 541.838 180.776L541.886 171.512L544.262 171.176V170.312Z" fill="black"/>
<path d="M559.523 186.896L554.507 178.16L558.779 171.512L561.179 171.176V170.312H555.251V171.176L557.531 171.512L554.027 177.32L550.643 171.44L553.043 171.176V170.312H545.387V171.176L547.619 171.416L552.299 179.576L547.643 186.8L545.291 187.136V188H551.147V187.136L548.939 186.824L552.779 180.416L556.499 186.872L554.123 187.136V188H561.731V187.136L559.523 186.896Z" fill="black"/>
<path d="M566.263 188.84C565.735 190.784 564.439 191.96 562.591 192.968L562.903 193.664C565.303 192.752 567.751 190.304 567.751 187.184C567.751 186.512 567.655 185.984 567.439 185.312C566.863 184.784 566.383 184.664 565.855 184.664C564.799 184.664 564.151 185.408 564.151 186.32C564.151 186.968 564.487 187.64 565.255 188.168L566.263 188.84Z" fill="black"/>
<path d="M43.784 205.176V204.312H36.152V205.176L38.528 205.44C38.576 207.792 38.576 210.192 38.576 212.544V213.768C38.576 216.168 38.576 218.544 38.528 220.872L36.152 221.136V222H43.784V221.136L41.384 220.872C41.36 218.52 41.36 216.12 41.36 213.768V212.544C41.36 210.12 41.36 207.768 41.384 205.44L43.784 205.176Z" fill="black"/>
<path d="M58.546 220.968C58.522 219.624 58.498 217.752 58.498 216.432V213.72C58.498 210.408 57.25 209.016 55.018 209.016C53.41 209.016 51.778 209.832 50.338 211.44L50.146 209.28L49.786 209.04L45.73 210.456V211.176L47.746 211.368C47.794 212.472 47.842 213.384 47.842 214.896V216.432C47.842 217.68 47.818 219.6 47.77 220.968L45.898 221.232V222H52.162V221.232L50.434 220.968C50.41 219.624 50.386 217.704 50.386 216.432V212.376C51.706 211.176 52.834 210.672 53.866 210.672C55.282 210.672 55.954 211.44 55.954 213.696V216.432C55.954 217.752 55.93 219.624 55.906 220.968L54.034 221.232V222H60.298V221.232L58.546 220.968Z" fill="black"/>
<path d="M69.2733 220.32C68.6013 220.824 68.1213 221.064 67.5213 221.064C66.5613 221.064 65.9613 220.488 65.9613 219.12V210.456H69.3693V209.376H65.9853L66.1053 205.656H64.3773L63.5613 209.328L61.2333 209.592V210.456H63.4173V216.792C63.4173 217.776 63.3933 218.4 63.3933 219.12C63.3933 221.328 64.5213 222.36 66.5373 222.36C68.0013 222.36 69.0813 221.808 69.7533 220.848L69.2733 220.32Z" fill="black"/>
<path d="M73.6915 214.656C73.8835 211.368 75.4435 209.952 77.0035 209.952C78.6355 209.952 79.7635 211.32 79.7635 213.096C79.7635 214.104 79.4995 214.656 78.3955 214.656H73.6915ZM82.0675 215.592C82.1875 215.208 82.2355 214.728 82.2355 214.128C82.2355 211.08 80.2195 209.016 77.1715 209.016C73.9075 209.016 70.9315 211.56 70.9315 215.712C70.9315 219.936 73.4995 222.36 77.1235 222.36C79.4515 222.36 81.2035 221.208 82.1635 219.312L81.6835 218.976C80.7715 220.128 79.7155 220.824 78.0115 220.824C75.5395 220.824 73.7395 219.168 73.6675 215.592H82.0675Z" fill="black"/>
<path d="M88.6304 209.28L88.2704 209.04L84.2144 210.456V211.176L86.2304 211.368C86.2784 212.472 86.3264 213.384 86.3264 214.896V216.432C86.3264 217.68 86.3024 219.6 86.2544 220.968L84.4064 221.232V222H91.1504V221.232L88.9184 220.896C88.8944 219.552 88.8704 217.68 88.8704 216.432V214.416C89.3744 212.712 90.0704 211.608 91.1264 210.792L91.4384 211.104C91.9664 211.656 92.4704 212.04 93.1904 212.04C94.2464 212.04 94.7024 211.32 94.7264 210.216C94.4384 209.376 93.5984 209.016 92.7104 209.016C91.2224 209.016 89.6624 210.312 88.8704 212.568L88.6304 209.28Z" fill="black"/>
<path d="M103.005 219.384C101.661 220.464 101.061 220.8 100.197 220.8C98.9969 220.8 98.1569 220.176 98.1569 218.76C98.1569 217.56 98.7089 216.504 100.821 215.664C101.325 215.472 102.141 215.208 103.005 214.968V219.384ZM107.541 220.416C107.133 220.896 106.869 221.088 106.437 221.088C105.885 221.088 105.525 220.704 105.525 219.504V213.6C105.525 210.312 104.205 209.016 101.277 209.016C98.3249 209.016 96.3809 210.288 95.9729 212.352C96.0689 213.048 96.5249 213.408 97.2449 213.408C97.9889 213.408 98.4929 212.928 98.6849 211.92L99.0929 210.144C99.6209 210 100.077 209.952 100.509 209.952C102.309 209.952 103.005 210.648 103.005 213.216V214.2C101.997 214.44 100.941 214.752 100.125 214.992C96.6209 216.192 95.6129 217.368 95.6129 219.144C95.6129 221.208 97.1009 222.36 99.0689 222.36C100.749 222.36 101.685 221.64 103.077 220.224C103.317 221.52 104.181 222.312 105.525 222.312C106.605 222.312 107.373 221.928 107.949 220.848L107.541 220.416Z" fill="black"/>
<path d="M119.813 218.952C118.949 220.176 117.701 220.824 116.213 220.824C113.669 220.824 111.869 218.88 111.869 215.448C111.869 211.968 113.477 209.952 115.805 209.952C116.237 209.952 116.645 210 117.077 210.144L117.509 211.992C117.677 212.976 118.181 213.48 119.021 213.48C119.693 213.48 120.101 213.168 120.293 212.448C119.933 210.456 118.013 209.016 115.613 209.016C112.181 209.016 109.181 211.464 109.181 215.712C109.181 219.84 111.701 222.36 115.277 222.36C117.773 222.36 119.453 221.208 120.317 219.192L119.813 218.952Z" fill="black"/>
<path d="M129.578 220.32C128.906 220.824 128.426 221.064 127.826 221.064C126.866 221.064 126.266 220.488 126.266 219.12V210.456H129.674V209.376H126.29L126.41 205.656H124.682L123.866 209.328L121.538 209.592V210.456H123.722V216.792C123.722 217.776 123.698 218.4 123.698 219.12C123.698 221.328 124.826 222.36 126.842 222.36C128.306 222.36 129.386 221.808 130.058 220.848L129.578 220.32Z" fill="black"/>
<path d="M134.26 206.112C135.22 206.112 136.012 205.416 136.012 204.432C136.012 203.448 135.22 202.776 134.26 202.776C133.276 202.776 132.484 203.448 132.484 204.432C132.484 205.416 133.276 206.112 134.26 206.112ZM135.652 220.968C135.628 219.624 135.604 217.704 135.604 216.432V212.856L135.652 209.28L135.316 209.04L130.924 210.408V211.152L132.964 211.344C133.012 212.496 133.036 213.408 133.036 214.896V216.432C133.036 217.68 133.012 219.6 132.988 220.968L131.116 221.232V222H137.38V221.232L135.652 220.968Z" fill="black"/>
<path d="M145.539 222.36C148.851 222.36 151.755 220.032 151.755 215.688C151.755 211.344 148.755 209.016 145.539 209.016C142.275 209.016 139.299 211.368 139.299 215.688C139.299 220.008 142.179 222.36 145.539 222.36ZM145.539 221.4C143.355 221.4 142.107 219.48 142.107 215.712C142.107 211.92 143.355 209.952 145.539 209.952C147.675 209.952 148.971 211.92 148.971 215.712C148.971 219.48 147.675 221.4 145.539 221.4Z" fill="black"/>
<path d="M166.499 220.968C166.475 219.624 166.451 217.752 166.451 216.432V213.72C166.451 210.408 165.203 209.016 162.971 209.016C161.363 209.016 159.731 209.832 158.291 211.44L158.099 209.28L157.739 209.04L153.683 210.456V211.176L155.699 211.368C155.747 212.472 155.795 213.384 155.795 214.896V216.432C155.795 217.68 155.771 219.6 155.723 220.968L153.851 221.232V222H160.115V221.232L158.387 220.968C158.363 219.624 158.339 217.704 158.339 216.432V212.376C159.659 211.176 160.787 210.672 161.819 210.672C163.235 210.672 163.907 211.44 163.907 213.696V216.432C163.907 217.752 163.883 219.624 163.859 220.968L161.987 221.232V222H168.251V221.232L166.499 220.968Z" fill="black"/>
<path d="M185.262 219.672C184.35 220.608 183.582 220.944 182.55 220.944C180.462 220.944 178.902 219.432 178.902 215.688C178.902 211.848 180.606 210.408 182.598 210.408C183.414 210.408 184.254 210.72 185.262 211.584V219.672ZM187.806 221.04V206.4L187.926 202.656L187.566 202.464L183.198 203.496V204.24L185.358 204.432V210.696C184.302 209.448 183.174 209.016 181.878 209.016C178.614 209.016 176.166 211.608 176.166 215.784C176.166 219.744 178.446 222.36 181.614 222.36C183.198 222.36 184.398 221.688 185.334 220.56L185.502 222.264L189.822 222V221.232L187.806 221.04Z" fill="black"/>
<path d="M194.184 214.656C194.376 211.368 195.936 209.952 197.496 209.952C199.128 209.952 200.256 211.32 200.256 213.096C200.256 214.104 199.992 214.656 198.888 214.656H194.184ZM202.56 215.592C202.68 215.208 202.728 214.728 202.728 214.128C202.728 211.08 200.712 209.016 197.664 209.016C194.4 209.016 191.424 211.56 191.424 215.712C191.424 219.936 193.992 222.36 197.616 222.36C199.944 222.36 201.696 221.208 202.656 219.312L202.176 218.976C201.264 220.128 200.208 220.824 198.504 220.824C196.032 220.824 194.232 219.168 194.16 215.592H202.56Z" fill="black"/>
<path d="M209.939 214.224C208.115 213.624 207.491 213.048 207.491 211.92C207.491 210.744 208.403 209.976 210.035 209.976C210.707 209.976 211.307 210.144 211.931 210.456L212.531 212.832H213.731L213.827 210.096C212.627 209.376 211.499 209.016 210.011 209.016C206.939 209.016 205.211 210.72 205.211 212.856C205.211 214.704 206.483 215.76 208.475 216.48L209.747 216.912C211.547 217.512 212.219 218.184 212.219 219.264C212.219 220.56 211.211 221.352 209.195 221.352C208.379 221.352 207.707 221.208 207.059 220.944L206.459 218.352H205.139V221.304C206.459 222 207.683 222.36 209.291 222.36C212.723 222.36 214.547 220.656 214.547 218.448C214.547 216.696 213.539 215.472 210.971 214.608L209.939 214.224Z" fill="black"/>
<path d="M219.643 206.112C220.603 206.112 221.395 205.416 221.395 204.432C221.395 203.448 220.603 202.776 219.643 202.776C218.659 202.776 217.867 203.448 217.867 204.432C217.867 205.416 218.659 206.112 219.643 206.112ZM221.035 220.968C221.011 219.624 220.987 217.704 220.987 216.432V212.856L221.035 209.28L220.699 209.04L216.307 210.408V211.152L218.347 211.344C218.395 212.496 218.419 213.408 218.419 214.896V216.432C218.419 217.68 218.395 219.6 218.371 220.968L216.499 221.232V222H222.763V221.232L221.035 220.968Z" fill="black"/>
<path d="M229.938 216.888C228.378 216.888 227.442 215.496 227.442 213.384C227.442 211.248 228.426 209.856 230.01 209.856C231.618 209.856 232.554 211.224 232.554 213.312C232.554 215.448 231.594 216.888 229.938 216.888ZM232.146 222.48C233.946 222.48 234.618 223.416 234.618 224.544C234.618 226.056 233.034 227.232 229.986 227.232C227.874 227.232 226.482 226.368 226.482 224.616C226.482 223.728 226.794 223.08 227.442 222.36C227.946 222.456 228.426 222.48 229.194 222.48H232.146ZM236.946 209.28L236.514 209.016L233.514 210.072C232.674 209.376 231.474 209.016 230.01 209.016C226.986 209.016 225.066 210.672 225.066 213.36C225.066 215.088 225.81 216.36 227.106 217.08C225.762 218.28 225.258 219.144 225.258 220.08C225.258 221.184 225.858 221.808 226.962 222.168C225.186 222.984 224.442 223.896 224.442 225.024C224.442 226.872 226.074 228.288 229.986 228.288C234.474 228.288 236.754 226.056 236.754 223.68C236.754 221.544 235.41 220.272 232.338 220.272H228.81C227.466 220.272 227.058 219.792 227.058 219C227.058 218.4 227.25 217.92 227.706 217.344C228.354 217.608 229.122 217.728 229.986 217.728C232.986 217.728 234.93 216.024 234.93 213.36C234.93 212.328 234.666 211.464 234.162 210.768L236.946 210.912V209.28Z" fill="black"/>
<path d="M251.132 220.968C251.108 219.624 251.084 217.752 251.084 216.432V213.72C251.084 210.408 249.836 209.016 247.604 209.016C245.996 209.016 244.364 209.832 242.924 211.44L242.732 209.28L242.372 209.04L238.316 210.456V211.176L240.332 211.368C240.38 212.472 240.428 213.384 240.428 214.896V216.432C240.428 217.68 240.404 219.6 240.356 220.968L238.484 221.232V222H244.748V221.232L243.02 220.968C242.996 219.624 242.972 217.704 242.972 216.432V212.376C244.292 211.176 245.42 210.672 246.452 210.672C247.868 210.672 248.54 211.44 248.54 213.696V216.432C248.54 217.752 248.516 219.624 248.492 220.968L246.62 221.232V222H252.884V221.232L251.132 220.968Z" fill="black"/>
<path d="M257.609 222.336C258.641 222.336 259.457 221.52 259.457 220.512C259.457 219.48 258.641 218.664 257.609 218.664C256.577 218.664 255.737 219.48 255.737 220.512C255.737 221.52 256.577 222.336 257.609 222.336Z" fill="black"/>
</svg>
