<svg width="164" height="80" viewBox="0 0 164 80" fill="none" xmlns="http://www.w3.org/2000/svg">
<mask id="mask0" mask-type="alpha" maskUnits="userSpaceOnUse" x="0" y="0" width="164" height="80">
<rect width="164" height="80" fill="#4078CD"/>
</mask>
<g mask="url(#mask0)">
<path d="M60.1067 79.0173C59.6688 80.6153 60.6091 82.2657 62.2071 82.7036C63.805 83.1415 65.4554 82.2011 65.8933 80.6032L60.1067 79.0173ZM78.6588 30.6994C77.8385 29.2599 76.0066 28.7578 74.567 29.5781L51.1079 42.9448C49.6683 43.765 49.1662 45.597 49.9865 47.0365C50.8067 48.4761 52.6387 48.9782 54.0783 48.1579L74.9308 36.2764L86.8123 57.129C87.6326 58.5685 89.4645 59.0706 90.9041 58.2503C92.3437 57.4301 92.8457 55.5981 92.0255 54.1586L78.6588 30.6994ZM65.8933 80.6032L78.9455 32.9776L73.1589 31.3917L60.1067 79.0173L65.8933 80.6032Z" fill="#B5B5B5"/>
<path d="M89.0674 78.9871C88.6127 80.5803 89.5357 82.2405 91.129 82.6951C92.7223 83.1498 94.3824 82.2267 94.8371 80.6335L89.0674 78.9871ZM111.305 19.7217C110.5 18.2736 108.673 17.7524 107.225 18.5575L83.6271 31.6777C82.179 32.4829 81.6578 34.3094 82.4629 35.7575C83.268 37.2056 85.0946 37.7268 86.5427 36.9217L107.519 25.2593L119.181 46.2352C119.986 47.6833 121.813 48.2045 123.261 47.3994C124.709 46.5942 125.23 44.7677 124.425 43.3196L111.305 19.7217ZM94.8371 80.6335L111.568 22.0027L105.798 20.3563L89.0674 78.9871L94.8371 80.6335Z" fill="#B5B5B5"/>
<path d="M115.88 79.1895C115.432 80.7847 116.363 82.4408 117.958 82.8884C119.553 83.3361 121.209 82.4058 121.657 80.8105L115.88 79.1895ZM142.149 4.53069C141.337 3.08616 139.509 2.57297 138.064 3.38445L114.524 16.6083C113.08 17.4198 112.566 19.2486 113.378 20.6931C114.189 22.1377 116.018 22.6509 117.463 21.8394L138.387 10.0849L150.142 31.0093C150.953 32.4538 152.782 32.967 154.226 32.1555C155.671 31.344 156.184 29.5152 155.373 28.0707L142.149 4.53069ZM121.657 80.8105L142.422 6.81051L136.645 5.18949L115.88 79.1895L121.657 80.8105Z" fill="#B5B5B5"/>
</g>
</svg>
