<svg width="69" height="74" viewBox="0 0 69 74" fill="none" xmlns="http://www.w3.org/2000/svg">
<path d="M7.31215 19.1299C8.4538 18.7721 9.71514 19.1825 10.4349 20.1888C11.2346 21.3068 11.14 22.845 10.2095 23.853L7.66067 25.7727C6.45297 26.7929 5.7504 28.3036 5.74119 29.9001V59.1753C5.77565 63.9441 9.57846 67.7965 14.2687 67.8139H28.7435V67.8779C30.3076 67.8779 31.5755 69.1671 31.5755 70.7574C31.5755 72.3477 30.3076 73.6369 28.7435 73.6369H14.2687C6.43811 73.6193 0.0944537 67.1693 0.0771484 59.2073V29.9001C0.127214 26.5135 1.69064 23.3342 4.32518 21.2615L6.93694 19.2778L7.31215 19.1299ZM25.8486 3.56835C30.6267 -0.33681 37.4332 -0.33681 42.2113 3.56835L63.955 21.1975C66.5315 23.3045 68.0441 26.4743 68.0771 29.8361L68.0457 59.1753C68.0457 67.1446 61.6919 73.6049 53.8541 73.6049H47.5607C43.767 73.6049 40.6868 70.4873 40.6695 66.6301V53.3842L40.6401 53.0507C40.4855 52.185 39.7404 51.5285 38.8444 51.5285H29.4043C28.9148 51.5285 28.4457 51.7284 28.1025 52.0833C27.7593 52.4383 27.5708 52.9185 27.5792 53.4162V58.4714C27.5792 60.0617 26.3113 61.3509 24.7472 61.3509C23.1831 61.3509 21.9152 60.0617 21.9152 58.4714V53.4162C21.9152 51.3882 22.7075 49.4432 24.1179 48.0092C25.5283 46.5751 27.4412 45.7695 29.4358 45.7695H38.8759C43.0171 45.7871 46.365 49.2055 46.365 53.4162V66.6301C46.365 67.3015 46.9003 67.8459 47.5607 67.8459H54.0114C58.7037 67.8459 62.5075 63.9782 62.5075 59.2073V29.9001C62.4845 28.2765 61.7451 26.7494 60.4936 25.7407L38.75 8.11161C36.0081 5.81642 32.0518 5.81642 29.3099 8.11161L22.3243 13.4227C21.0295 14.3681 19.2263 14.0673 18.2965 12.7509C17.3667 11.4344 17.6626 9.60088 18.9573 8.65552L25.8486 3.56835Z" fill="black"/>
</svg>
