<svg width="164" height="80" viewBox="0 0 164 80" fill="none" xmlns="http://www.w3.org/2000/svg">
<mask id="mask0" mask-type="alpha" maskUnits="userSpaceOnUse" x="0" y="0" width="164" height="80">
<rect width="164" height="80" rx="15" fill="#4078CD"/>
</mask>
<g mask="url(#mask0)">
<path d="M84.4218 -23V24.2479C84.4218 25.1799 83.6709 25.9353 82.7446 25.9353H65.9726C65.0463 25.9353 64.2954 26.6908 64.2954 27.6228V30.2903C64.2954 30.7428 64.476 31.1763 64.7967 31.4935L113.435 79.6133C114.088 80.2589 115.135 80.2589 115.787 79.6133L164.426 31.4935C164.747 31.1763 164.927 30.7428 164.927 30.2903V27.6228C164.927 26.6908 164.176 25.9353 163.25 25.9353H146.478C145.552 25.9353 144.801 25.1799 144.801 24.2479V-19.6251" stroke="#666666" stroke-width="2"/>
<path d="M114.887 43.5611C123.849 43.5611 130.335 38.6175 130.335 31.6173V31.5778C130.335 25.8036 127.23 22.6001 119.093 20.6227L112.921 19.1594C107.536 17.8542 105.334 15.7581 105.334 12.4756V12.436C105.334 8.24382 109.029 5.35674 114.572 5.35674C120.272 5.35674 123.888 8.48111 124.557 13.2665L124.596 13.5434H129.588L129.549 13.1083C128.881 6.02907 123.299 0.927246 114.572 0.927246C106.042 0.927246 100.028 5.79178 100.028 12.6338V12.6733C100.028 18.3684 103.723 21.7696 111.427 23.6284L117.599 25.1313C123.063 26.4364 125.028 28.3743 125.028 31.9337V31.9732C125.028 36.2841 121.097 39.1316 114.926 39.1316C108.754 39.1316 104.941 36.0468 104.116 31.3009L104.037 30.945H98.8483L98.8876 31.3009C99.6738 38.5779 105.61 43.5611 114.887 43.5611Z" fill="#666666"/>
<line x1="113.934" y1="-1.06348" x2="113.934" y2="46.1844" stroke="#666666" stroke-width="2"/>
<rect x="62.6182" y="17.4982" width="3.3544" height="3.37485" fill="#666666"/>
<rect x="69.327" y="17.4983" width="3.3544" height="3.37485" fill="#666666"/>
<rect x="76.0358" y="17.4983" width="3.3544" height="3.37485" fill="#666666"/>
<rect x="149.833" y="17.4983" width="3.3544" height="3.37485" fill="#666666"/>
<rect x="156.541" y="17.4983" width="3.3544" height="3.37485" fill="#666666"/>
<rect x="163.25" y="17.4983" width="3.3544" height="3.37485" fill="#666666"/>
<rect x="62.6182" y="10.7485" width="3.3544" height="3.37485" fill="#666666"/>
<rect x="69.327" y="10.7485" width="3.3544" height="3.37485" fill="#666666"/>
<rect x="76.0358" y="10.7485" width="3.3544" height="3.37485" fill="#666666"/>
<rect x="149.833" y="10.7485" width="3.3544" height="3.37485" fill="#666666"/>
<rect x="156.541" y="10.7485" width="3.3544" height="3.37485" fill="#666666"/>
<rect x="163.25" y="10.7485" width="3.3544" height="3.37485" fill="#666666"/>
<rect x="76.0358" y="-2.75098" width="3.3544" height="3.37485" fill="#666666"/>
<rect x="149.833" y="-2.75098" width="3.3544" height="3.37485" fill="#666666"/>
<rect x="62.6182" y="3.99878" width="3.3544" height="3.37485" fill="#666666"/>
<rect x="76.0358" y="3.99878" width="3.3544" height="3.37485" fill="#666666"/>
<rect x="149.833" y="3.99878" width="3.3544" height="3.37485" fill="#666666"/>
<rect x="163.25" y="3.99878" width="3.3544" height="3.37485" fill="#666666"/>
</g>
</svg>
