<?xml version="1.0" encoding="utf-8"?>
<!-- Generator: Adobe Illustrator 24.3.0, SVG Export Plug-In . SVG Version: 6.00 Build 0)  -->
<svg version="1.1" id="Layer_1" xmlns="http://www.w3.org/2000/svg" xmlns:xlink="http://www.w3.org/1999/xlink" x="0px" y="0px"
	 viewBox="0 0 34 40" style="enable-background:new 0 0 34 40;" xml:space="preserve">
<path d="M21.9,0c0,0,0.1,0,0.1,0h0.4c0.4,0,0.8,0.2,1.1,0.5l10.1,10.6c0.3,0.3,0.4,0.7,0.4,1v18.5c0,5.1-4.1,9.4-8.9,9.4H9.1
	C4,40,0,35.9,0,30.6v-5c0-0.8,0.7-1.5,1.5-1.5c0.8,0,1.5,0.7,1.5,1.5v5C3,34.2,5.7,37,9.1,37h15.9c3.2,0,5.9-3,5.9-6.4V12.8l-7.6-8
	v2.6c0,2,1.6,3.7,3.6,3.7c0.8,0,1.5,0.7,1.5,1.5c0,0.8-0.7,1.5-1.5,1.5c-3.6,0-6.6-3-6.6-6.7V3H9.1C5.8,3,3,5.8,3,9v8.3
	c0,0.8-0.7,1.5-1.5,1.5c-0.8,0-1.5-0.7-1.5-1.5V9c0-4.9,4.2-9,9.1-9h12.6C21.8,0,21.8,0,21.9,0z M21.5,25.8c0.8,0,1.5,0.7,1.5,1.5
	c0,0.8-0.7,1.5-1.5,1.5H10.7c-0.8,0-1.5-0.7-1.5-1.5c0-0.8,0.7-1.5,1.5-1.5H21.5z M17.4,15.8c0.8,0,1.5,0.7,1.5,1.5
	c0,0.8-0.7,1.5-1.5,1.5h-6.7c-0.8,0-1.5-0.7-1.5-1.5c0-0.8,0.7-1.5,1.5-1.5H17.4z"/>
</svg>
