<svg width="164" height="80" viewBox="0 0 164 80" fill="none" xmlns="http://www.w3.org/2000/svg">
<mask id="mask0" mask-type="alpha" maskUnits="userSpaceOnUse" x="0" y="0" width="164" height="80">
<rect width="164" height="80" rx="15" fill="#4078CD"/>
</mask>
<g mask="url(#mask0)">
<path d="M80.4371 82.0475C81.5679 83.6152 83.7555 83.9694 85.3232 82.8386C86.8909 81.7078 87.2451 79.5202 86.1143 77.9525L80.4371 82.0475ZM139.704 81.2459C140.392 83.0523 142.414 83.9588 144.22 83.2707L173.657 72.0574C175.463 71.3692 176.37 69.3471 175.682 67.5407C174.994 65.7343 172.971 64.8278 171.165 65.5159L144.999 75.4833L135.032 49.3175C134.344 47.5111 132.321 46.6046 130.515 47.2927C128.709 47.9808 127.802 50.003 128.49 51.8094L139.704 81.2459ZM86.1143 77.9525C77.1639 65.5438 73.7423 47.8784 77.6666 33.5026C79.6121 26.3758 83.3267 20.1728 88.9393 15.7475C94.5333 11.3368 102.256 8.5 112.571 8.5V1.5C100.915 1.5 91.6047 4.7318 84.6052 10.2506C77.6241 15.7549 73.184 23.3423 70.9137 31.6592C66.4063 48.1707 70.3085 68.0053 80.4371 82.0475L86.1143 77.9525ZM112.571 8.5C122.965 8.5 130.427 11.0924 135.684 15.1311C140.941 19.1703 144.309 24.899 146.079 31.7414C149.658 45.58 146.543 63.4844 139.781 78.5683L146.168 81.4317C153.315 65.4889 156.97 45.8932 152.856 29.9885C150.779 21.9593 146.685 14.7555 139.948 9.58016C133.212 4.40423 124.148 1.5 112.571 1.5V8.5Z" fill="#FFF3B1"/>
</g>
</svg>
