<svg width="285" height="69" viewBox="0 0 285 69" fill="none" xmlns="http://www.w3.org/2000/svg">
<g style="mix-blend-mode:hard-light">
<path d="M110.094 46.0527L119.156 12.9277H131.406L116.094 58.4277H104.094L88.9062 12.9277H101.062L110.094 46.0527Z" fill="#FF2929"/>
</g>
<g style="mix-blend-mode:hard-light">
<path d="M115.094 45.0435L124.156 11.9185H136.406L121.094 57.4185H109.094L93.9062 11.9185H106.062L115.094 45.0435Z" fill="#FFDD29"/>
</g>
<g style="mix-blend-mode:hard-light">
<path d="M112.094 42.0158L121.156 8.89079H133.406L118.094 54.3908H106.094L90.9062 8.89079H103.062L112.094 42.0158Z" fill="#294CFF"/>
</g>
<g style="mix-blend-mode:hard-light">
<path d="M148.781 52.3723H138.25V15.9661H148.781V52.3723Z" fill="#FF2929"/>
</g>
<g style="mix-blend-mode:hard-light">
<path d="M145.781 54.3908H135.25V17.9845H145.781V54.3908Z" fill="#FFDD29"/>
</g>
<g style="mix-blend-mode:hard-light">
<path d="M149.177 58.5545L138.65 58.2573L139.659 21.8651L150.186 22.1622L149.177 58.5545Z" fill="#294CFF"/>
</g>
<g style="mix-blend-mode:hard-light">
<path d="M201.73 52.1384L191.209 52.6088L189.612 16.2376L200.133 15.7672L201.73 52.1384Z" fill="#FF2929"/>
</g>
<g style="mix-blend-mode:hard-light">
<path d="M199.295 57.2973L188.766 57.5513L187.904 21.1553L198.433 20.9013L199.295 57.2973Z" fill="#FFDD29"/>
</g>
<g style="mix-blend-mode:hard-light">
<path d="M197.018 54.5484L186.493 54.1729L187.768 17.789L198.292 18.1645L197.018 54.5484Z" fill="#294CFF"/>
</g>
<g style="mix-blend-mode:hard-light">
<path d="M171.625 45.4625C171.625 44.3584 171.146 43.4729 170.188 42.8063C169.229 42.1396 167.542 41.525 165.125 40.9625C162.729 40.4 160.708 39.8063 159.062 39.1813C157.438 38.5563 156.094 37.8167 155.031 36.9625C153.969 36.0875 153.188 35.0459 152.688 33.8375C152.188 32.6292 151.938 31.1709 151.938 29.4625C151.938 27.3584 152.542 25.4729 153.75 23.8063C154.979 22.1188 156.677 20.8167 158.844 19.9C161.031 18.9625 163.448 18.4938 166.094 18.4938C170.844 18.4938 174.625 19.525 177.438 21.5875C180.25 23.6292 181.656 26.4104 181.656 29.9313H171.094C171.094 28.8063 170.625 27.8375 169.688 27.025C168.771 26.2125 167.604 25.8063 166.188 25.8063C164.875 25.8063 163.812 26.1292 163 26.775C162.188 27.4 161.781 28.1396 161.781 28.9938C161.781 29.9313 162.188 30.6813 163 31.2438C163.833 31.8063 165.292 32.3584 167.375 32.9C172.562 33.9834 176.208 35.4729 178.312 37.3688C180.438 39.2438 181.5 41.8271 181.5 45.1188C181.5 48.4521 180.198 51.0875 177.594 53.025C174.99 54.9417 171.417 55.9 166.875 55.9C163.729 55.9 160.917 55.4104 158.438 54.4313C155.958 53.4313 154.042 52.0146 152.688 50.1813C151.354 48.3271 150.688 46.1188 150.688 43.5563H161.281C161.281 45.4313 161.76 46.7438 162.719 47.4938C163.698 48.2438 165.323 48.6188 167.594 48.6188C168.865 48.6188 169.854 48.3375 170.562 47.775C171.271 47.1917 171.625 46.4209 171.625 45.4625Z" fill="#FF2929"/>
</g>
<g style="mix-blend-mode:hard-light">
<path d="M174.625 47.481C174.625 46.3768 174.146 45.4914 173.188 44.8247C172.229 44.1581 170.542 43.5435 168.125 42.981C165.729 42.4185 163.708 41.8247 162.062 41.1997C160.438 40.5747 159.094 39.8352 158.031 38.981C156.969 38.106 156.188 37.0643 155.688 35.856C155.188 34.6477 154.938 33.1893 154.938 31.481C154.938 29.3768 155.542 27.4914 156.75 25.8247C157.979 24.1372 159.677 22.8352 161.844 21.9185C164.031 20.981 166.448 20.5122 169.094 20.5122C173.844 20.5122 177.625 21.5435 180.438 23.606C183.25 25.6477 184.656 28.4289 184.656 31.9497H174.094C174.094 30.8247 173.625 29.856 172.688 29.0435C171.771 28.231 170.604 27.8247 169.188 27.8247C167.875 27.8247 166.812 28.1477 166 28.7935C165.188 29.4185 164.781 30.1581 164.781 31.0122C164.781 31.9497 165.188 32.6997 166 33.2622C166.833 33.8247 168.292 34.3768 170.375 34.9185C175.562 36.0018 179.208 37.4914 181.312 39.3872C183.438 41.2622 184.5 43.8456 184.5 47.1372C184.5 50.4706 183.198 53.106 180.594 55.0435C177.99 56.9602 174.417 57.9185 169.875 57.9185C166.729 57.9185 163.917 57.4289 161.438 56.4497C158.958 55.4497 157.042 54.0331 155.688 52.1997C154.354 50.3456 153.688 48.1372 153.688 45.5747H164.281C164.281 47.4497 164.76 48.7622 165.719 49.5122C166.698 50.2622 168.323 50.6372 170.594 50.6372C171.865 50.6372 172.854 50.356 173.562 49.7935C174.271 49.2102 174.625 48.4393 174.625 47.481Z" fill="#FFDD29"/>
</g>
<g style="mix-blend-mode:hard-light">
<path d="M173.625 44.4533C173.625 43.3491 173.146 42.4637 172.188 41.797C171.229 41.1304 169.542 40.5158 167.125 39.9533C164.729 39.3908 162.708 38.797 161.062 38.172C159.438 37.547 158.094 36.8075 157.031 35.9533C155.969 35.0783 155.188 34.0366 154.688 32.8283C154.188 31.62 153.938 30.1616 153.938 28.4533C153.938 26.3491 154.542 24.4637 155.75 22.797C156.979 21.1095 158.677 19.8075 160.844 18.8908C163.031 17.9533 165.448 17.4845 168.094 17.4845C172.844 17.4845 176.625 18.5158 179.438 20.5783C182.25 22.62 183.656 25.4012 183.656 28.922H173.094C173.094 27.797 172.625 26.8283 171.688 26.0158C170.771 25.2033 169.604 24.797 168.188 24.797C166.875 24.797 165.812 25.12 165 25.7658C164.188 26.3908 163.781 27.1304 163.781 27.9845C163.781 28.922 164.188 29.672 165 30.2345C165.833 30.797 167.292 31.3491 169.375 31.8908C174.562 32.9741 178.208 34.4637 180.312 36.3595C182.438 38.2345 183.5 40.8179 183.5 44.1095C183.5 47.4429 182.198 50.0783 179.594 52.0158C176.99 53.9325 173.417 54.8908 168.875 54.8908C165.729 54.8908 162.917 54.4012 160.438 53.422C157.958 52.422 156.042 51.0054 154.688 49.172C153.354 47.3179 152.688 45.1095 152.688 42.547H163.281C163.281 44.422 163.76 45.7345 164.719 46.4845C165.698 47.2345 167.323 47.6095 169.594 47.6095C170.865 47.6095 171.854 47.3283 172.562 46.7658C173.271 46.1825 173.625 45.4116 173.625 44.4533Z" fill="#294CFF"/>
</g>
<g style="mix-blend-mode:hard-light">
<path d="M240.469 42.8837C240.469 46.4462 239.729 49.6128 238.25 52.3837C236.792 55.1337 234.729 57.2483 232.062 58.7274C229.396 60.2066 226.385 60.9462 223.031 60.9462C219.615 60.9462 216.573 60.217 213.906 58.7587C211.24 57.3003 209.167 55.1962 207.688 52.4462C206.208 49.6753 205.469 46.4983 205.469 42.9149V41.6337C205.469 38.0712 206.188 34.9149 207.625 32.1649C209.062 29.4149 211.115 27.2899 213.781 25.7899C216.469 24.2899 219.531 23.5399 222.969 23.5399C226.323 23.5399 229.333 24.2899 232 25.7899C234.667 27.2691 236.729 29.3628 238.188 32.0712C239.667 34.7587 240.427 37.842 240.469 41.3212V42.8837ZM229.844 41.6024C229.844 38.3941 229.24 35.9253 228.031 34.1962C226.823 32.4462 225.135 31.5712 222.969 31.5712C218.385 31.5712 216.094 34.9774 216.094 41.7899V42.8837C216.094 46.0087 216.667 48.467 217.812 50.2587C218.958 52.0503 220.698 52.9462 223.031 52.9462C225.115 52.9462 226.76 52.0712 227.969 50.3212C229.177 48.5712 229.802 46.1753 229.844 43.1337V41.6024Z" fill="#FF2929"/>
</g>
<g style="mix-blend-mode:hard-light">
<path d="M237.469 38.8468C237.469 42.4093 236.729 45.5759 235.25 48.3468C233.792 51.0968 231.729 53.2113 229.062 54.6905C226.396 56.1697 223.385 56.9093 220.031 56.9093C216.615 56.9093 213.573 56.1801 210.906 54.7218C208.24 53.2634 206.167 51.1593 204.688 48.4093C203.208 45.6384 202.469 42.4613 202.469 38.878V37.5968C202.469 34.0343 203.188 30.878 204.625 28.128C206.062 25.378 208.115 23.253 210.781 21.753C213.469 20.253 216.531 19.503 219.969 19.503C223.323 19.503 226.333 20.253 229 21.753C231.667 23.2322 233.729 25.3259 235.188 28.0343C236.667 30.7218 237.427 33.8051 237.469 37.2843V38.8468ZM226.844 37.5655C226.844 34.3572 226.24 31.8884 225.031 30.1593C223.823 28.4093 222.135 27.5343 219.969 27.5343C215.385 27.5343 213.094 30.9405 213.094 37.753V38.8468C213.094 41.9718 213.667 44.4301 214.812 46.2218C215.958 48.0134 217.698 48.9093 220.031 48.9093C222.115 48.9093 223.76 48.0343 224.969 46.2843C226.177 44.5343 226.802 42.1384 226.844 39.0968V37.5655Z" fill="#FFDD29"/>
</g>
<g style="mix-blend-mode:hard-light">
<path d="M241.469 35.8191C241.469 39.3816 240.729 42.5482 239.25 45.3191C237.792 48.0691 235.729 50.1836 233.062 51.6628C230.396 53.142 227.385 53.8816 224.031 53.8816C220.615 53.8816 217.573 53.1524 214.906 51.6941C212.24 50.2357 210.167 48.1316 208.688 45.3816C207.208 42.6107 206.469 39.4336 206.469 35.8503V34.5691C206.469 31.0066 207.188 27.8503 208.625 25.1003C210.062 22.3503 212.115 20.2253 214.781 18.7253C217.469 17.2253 220.531 16.4753 223.969 16.4753C227.323 16.4753 230.333 17.2253 233 18.7253C235.667 20.2045 237.729 22.2982 239.188 25.0066C240.667 27.6941 241.427 30.7774 241.469 34.2566V35.8191ZM230.844 34.5378C230.844 31.3295 230.24 28.8607 229.031 27.1316C227.823 25.3816 226.135 24.5066 223.969 24.5066C219.385 24.5066 217.094 27.9128 217.094 34.7253V35.8191C217.094 38.9441 217.667 41.4024 218.812 43.1941C219.958 44.9857 221.698 45.8816 224.031 45.8816C226.115 45.8816 227.76 45.0066 228.969 43.2566C230.177 41.5066 230.802 39.1107 230.844 36.0691V34.5378Z" fill="#294CFF"/>
</g>
<g style="mix-blend-mode:hard-light">
<path d="M281.906 56.4093H271.375L259.094 35.2218V56.4093H248.531V20.003H259.094L271.375 41.1905V20.003H281.906V56.4093Z" fill="#FF2929"/>
</g>
<g style="mix-blend-mode:hard-light">
<path d="M274.906 57.4185H264.375L252.094 36.231V57.4185H241.531V21.0122H252.094L264.375 42.1997V21.0122H274.906V57.4185Z" fill="#FFDD29"/>
</g>
<g style="mix-blend-mode:hard-light">
<path d="M278.906 54.3908H268.375L256.094 33.2033V54.3908H245.531V17.9845H256.094L268.375 39.172V17.9845H278.906V54.3908Z" fill="#294CFF"/>
</g>
<path d="M20.3438 39.3064H14.4062V55.3689H3.4375V9.86893H21.3438C26.7396 9.86893 30.9583 11.0668 34 13.4627C37.0417 15.8585 38.5625 19.2439 38.5625 23.6189C38.5625 26.7856 37.9167 29.4106 36.625 31.4939C35.3542 33.5773 33.3542 35.2648 30.625 36.5564L40.125 54.9002V55.3689H28.375L20.3438 39.3064ZM14.4062 30.8377H21.3438C23.4271 30.8377 24.9896 30.296 26.0312 29.2127C27.0938 28.1085 27.625 26.5773 27.625 24.6189C27.625 22.6606 27.0938 21.1293 26.0312 20.0252C24.9688 18.9002 23.4062 18.3377 21.3438 18.3377H14.4062V30.8377ZM69.1562 40.6189H54.8438V47.2752H71.8125V55.3689H44.2812V18.9627H71.9688V27.0877H54.8438V32.4939H69.1562V40.6189ZM81.9375 45.1502C83.6042 45.1502 84.9896 45.6502 86.0938 46.6502C87.1979 47.6293 87.75 48.8898 87.75 50.4314C87.75 51.9731 87.1979 53.2439 86.0938 54.2439C84.9896 55.2231 83.6042 55.7127 81.9375 55.7127C80.25 55.7127 78.8542 55.2127 77.75 54.2127C76.6667 53.2127 76.125 51.9523 76.125 50.4314C76.125 48.9106 76.6667 47.6502 77.75 46.6502C78.8542 45.6502 80.25 45.1502 81.9375 45.1502ZM81.9375 20.2127C83.6042 20.2127 84.9896 20.7127 86.0938 21.7127C87.1979 22.6918 87.75 23.9523 87.75 25.4939C87.75 27.0356 87.1979 28.3064 86.0938 29.3064C84.9896 30.2856 83.6042 30.7752 81.9375 30.7752C80.25 30.7752 78.8542 30.2752 77.75 29.2752C76.6667 28.2752 76.125 27.0148 76.125 25.4939C76.125 23.9731 76.6667 22.7127 77.75 21.7127C78.8542 20.7127 80.25 20.2127 81.9375 20.2127ZM112.781 42.9939L121.844 9.86893H134.094L118.781 55.3689H106.781L91.5938 9.86893H103.75L112.781 42.9939ZM147.781 55.3689H137.25V18.9627H147.781V55.3689ZM173.688 45.4314C173.688 44.3273 173.208 43.4418 172.25 42.7752C171.292 42.1085 169.604 41.4939 167.188 40.9314C164.792 40.3689 162.771 39.7752 161.125 39.1502C159.5 38.5252 158.156 37.7856 157.094 36.9314C156.031 36.0564 155.25 35.0148 154.75 33.8064C154.25 32.5981 154 31.1398 154 29.4314C154 27.3273 154.604 25.4418 155.812 23.7752C157.042 22.0877 158.74 20.7856 160.906 19.8689C163.094 18.9314 165.51 18.4627 168.156 18.4627C172.906 18.4627 176.688 19.4939 179.5 21.5564C182.312 23.5981 183.719 26.3793 183.719 29.9002H173.156C173.156 28.7752 172.688 27.8064 171.75 26.9939C170.833 26.1814 169.667 25.7752 168.25 25.7752C166.938 25.7752 165.875 26.0981 165.062 26.7439C164.25 27.3689 163.844 28.1085 163.844 28.9627C163.844 29.9002 164.25 30.6502 165.062 31.2127C165.896 31.7752 167.354 32.3273 169.438 32.8689C174.625 33.9523 178.271 35.4418 180.375 37.3377C182.5 39.2127 183.562 41.796 183.562 45.0877C183.562 48.421 182.26 51.0564 179.656 52.9939C177.052 54.9106 173.479 55.8689 168.938 55.8689C165.792 55.8689 162.979 55.3793 160.5 54.4002C158.021 53.4002 156.104 51.9835 154.75 50.1502C153.417 48.296 152.75 46.0877 152.75 43.5252H163.344C163.344 45.4002 163.823 46.7127 164.781 47.4627C165.76 48.2127 167.385 48.5877 169.656 48.5877C170.927 48.5877 171.917 48.3064 172.625 47.7439C173.333 47.1606 173.688 46.3898 173.688 45.4314ZM199.781 55.3689H189.25V18.9627H199.781V55.3689ZM239.531 37.8064C239.531 41.3689 238.792 44.5356 237.312 47.3064C235.854 50.0564 233.792 52.171 231.125 53.6502C228.458 55.1293 225.448 55.8689 222.094 55.8689C218.677 55.8689 215.635 55.1398 212.969 53.6814C210.302 52.2231 208.229 50.1189 206.75 47.3689C205.271 44.5981 204.531 41.421 204.531 37.8377V36.5564C204.531 32.9939 205.25 29.8377 206.688 27.0877C208.125 24.3377 210.177 22.2127 212.844 20.7127C215.531 19.2127 218.594 18.4627 222.031 18.4627C225.385 18.4627 228.396 19.2127 231.062 20.7127C233.729 22.1918 235.792 24.2856 237.25 26.9939C238.729 29.6814 239.49 32.7648 239.531 36.2439V37.8064ZM228.906 36.5252C228.906 33.3168 228.302 30.8481 227.094 29.1189C225.885 27.3689 224.198 26.4939 222.031 26.4939C217.448 26.4939 215.156 29.9002 215.156 36.7127V37.8064C215.156 40.9314 215.729 43.3898 216.875 45.1814C218.021 46.9731 219.76 47.8689 222.094 47.8689C224.177 47.8689 225.823 46.9939 227.031 45.2439C228.24 43.4939 228.865 41.0981 228.906 38.0564V36.5252ZM276.969 55.3689H266.438L254.156 34.1814V55.3689H243.594V18.9627H254.156L266.438 40.1502V18.9627H276.969V55.3689Z" fill="white"/>
</svg>
